<?xml version="1.0" encoding="UTF-8" standalone="no"?>
<!--
************* Copyright (c) 2015 Pareto Softare, LLC DBA Simplemaps.com *******************		
************* Offered under the MIT License http://opensource.org/licenses/MIT ************
************* Attribution is appreciated! http://simplemaps.com ***************************
-->

<svg
   xmlns:dc="http://purl.org/dc/elements/1.1/"
   xmlns:cc="http://creativecommons.org/ns#"
   xmlns:rdf="http://www.w3.org/1999/02/22-rdf-syntax-ns#"
   xmlns:svg="http://www.w3.org/2000/svg"
   xmlns="http://www.w3.org/2000/svg"
   xmlns:sodipodi="http://sodipodi.sourceforge.net/DTD/sodipodi-0.dtd"
   xmlns:inkscape="http://www.inkscape.org/namespaces/inkscape"
   enable_background="new 0 0 2000 1001"
   height="1100"
   pretty_print="False"
   style="fill:none;stroke:#000000;stroke-linejoin:round"
   version="1.1"
   viewBox="0 0 1400 1100"
   width="1400"
   id="svg2"
   inkscape:version="0.48.4 r9939"
   sodipodi:docname="europe.svg">
  <sodipodi:namedview
     pagecolor="#ffffff"
     bordercolor="#666666"
     borderopacity="1"
     objecttolerance="10"
     gridtolerance="10"
     guidetolerance="10"
     inkscape:pageopacity="0"
     inkscape:pageshadow="2"
     inkscape:window-width="1200"
     inkscape:window-height="1537"
     id="namedview55"
     showgrid="false"
     inkscape:zoom="0.572"
     inkscape:cx="1048.122"
     inkscape:cy="377.10492"
     inkscape:window-x="-8"
     inkscape:window-y="-8"
     inkscape:window-maximized="1"
     inkscape:current-layer="svg2" />
  <defs
     id="defs4">
    <style
       type="text/css"
       id="style6">path { fill-rule: evenodd; }</style>
  </defs>
  <metadata
     id="metadata8">
    <views
       id="views10">
      <view
         h="1001"
         padding="0"
         w="2000"
         id="view12">
        <proj
           flip="auto"
           id="robinson"
           lon0="100.0" />
        <bbox
           h="692.17"
           w="791.05"
           x="-271.98"
           y="-1277.71"
           id="bbox15" />
      </view>
    </views>
    <rdf:RDF>
      <cc:Work
         rdf:about="">
        <dc:format>image/svg+xml</dc:format>
        <dc:type
           rdf:resource="http://purl.org/dc/dcmitype/StillImage" />
      </cc:Work>
    </rdf:RDF>
  </metadata>
  <path
     inkscape:connector-curvature="0"
     id="AL"
     data-name="Albania"
     data-id="AL"
     d="m 876.32867,864.44546 -7.4,11.5 2,7.5 0,0 3.6,3.7 -2,7.3 -0.3,16.2 2.7,11.4 11.5,8 0.9,5.3 3.5,1.7 8.1,-11.7 0.5,-7.8 6.1,-3.4 -0.2,-6.3 -8.6,-5.7 -3.7,-10.2 1.7,-8 0,0 -2.1,-8.5 -4.9,-2.4 -4.7,-6.3 -5.1,2.1 -1.6,-4.4 z"
     style="fill:#f9f9f9" />
  <path
     inkscape:connector-curvature="0"
     id="AT"
     data-name="Austria"
     data-id="AT"
     d="m 810.72867,725.34546 -9,-4.5 -8.7,1.2 -15.1,-7.2 -6.4,1.8 -9.8,9.7 -14.5,-7.6 -5.8,10.9 -6.6,3 3.7,15.4 -1.5,4 -6.2,-4.8 -9,-0.8 -13.3,4.3 -16.6,-1 -2.4,6.2 -9.9,-6.6 -5.6,1.4 0.9,4.2 -2.6,5.8 8.8,4.3 9.7,0.6 11.6,3.4 2,-4.5 18.4,-4.1 4.8,8.2 27.5,6.1 15.8,1.8 9.2,-5.3 16.5,-0.6 3.3,-4 5.1,-15.3 -4.1,-5.1 10.6,0 0.6,-9.7 -2.6,-8.2 1.2,-3 z"
     style="fill:#f9f9f9" />
  <path
     inkscape:connector-curvature="0"
     id="BE"
     data-name="Belgium"
     data-id="BE"
     d="m 584.32867,657.74546 -16.9,4.8 -13.5,-1.8 0,0 -14.7,4.6 2.8,8.2 8.6,0.4 8.8,9.4 13.2,11.1 9.5,-1.9 16.5,10.8 1.6,-13.2 4.8,-0.9 1.6,-15.8 -10.3,-5.5 -12,-10.2 z"
     style="fill:#f9f9f9" />
  <path
     inkscape:connector-curvature="0"
     id="BG"
     data-name="Bulgaria"
     data-id="BG"
     d="m 1044.4286,840.54546 -11.7,-2.4 -15.2,-8.5 -21.99996,5.4 -8.8,6 -28.5,-1.2 -15.19997,-3.7 -7.3,1.7 -6.6,-9.6 -4.2,5.3 2.7,8.5 10.4,10.1 -6.5,7.3 -2.5,7.5 2.4,2.8 -2.9,3.3 10.6,7.5 3,15.6 14.49997,0.7 15,-6.5 14.7,8.2 17.49996,-2.2 -1.2,-11.7 19,-7.4 17.2,3.1 -8,-13.4 4.8,-16.7 8.8,-9.7 z"
     style="fill:#f9f9f9" />
  <path
     inkscape:connector-curvature="0"
     id="BA"
     data-name="Bosnia and Herz."
     data-id="BA"
     d="m 818.32867,804.84546 -8.9,0.5 -3.8,4.9 -7.3,-5.4 -3.2,9.7 10.2,11 4.8,7.2 9.6,8.8 7.8,5.1 8.1,9.8 17.9,8.9 1.7,-12.9 5.8,-5.4 3.4,-2.2 4.5,-1 1.8,-11 -10.2,-9 3.9,-10.3 -7,0.1 0,0 -9.1,-5.2 -13.2,0.3 -16.8,-3.9 z"
     style="fill:#f9f9f9" />
  <path
     inkscape:connector-curvature="0"
     id="BY"
     data-name="Belarus"
     data-id="BY"
     d="m 1010.7286,555.54546 -19.69996,-5.7 -17.4,8.8 -10.1,3.8 3.5,10.2 -13.4,7.4 -2,12.9 -18.19997,8.6 -17.4,-0.1 2.3,10.1 6.3,8.8 1.3,9.2 -10.3,4.7 7.2,10.8 1.8,10.3 8.6,-0.9 9.1,-6.3 14.09997,-0.5 18.8,1.8 21.3,5.6 14.59996,0.4 7.4,3.4 6.2,-4 5.8,5.4 16.4,-1.1 7.7,2.2 -1,-11.7 4.7,-5.1 15.5,-1.4 0,0 -7.4,-14.8 -5.7,-7.6 3,-2.2 14.8,0.8 6,-5 -6.4,-6.2 -13,-4 0.2,-4.2 -8.1,-4.2 -14.3,-14.9 2.6,-6.2 -3.9,-10.7 -18.5,-5.4 -8.7,2.7 -3.7,-5.7 z"
     style="fill:#f9f9f9" />
  <path
     inkscape:connector-curvature="0"
     id="CH"
     data-name="Switzerland"
     data-id="CH"
     d="m 674.02867,750.74546 -20.6,-7.3 -3.6,5.2 -16,-0.2 -5.1,4 -8.6,-2.1 0.8,6 -13.4,13.3 0,10.7 9,-3.7 6.8,10.3 8.4,5.1 9.2,-1.1 10.3,-8 3.5,3.7 9,-0.7 3.7,-9.6 14.2,3 8.2,-4 1,-9.7 -9.7,-0.6 -8.8,-4.3 2.6,-5.8 -0.9,-4.2 z"
     style="fill:#f9f9f9" />
  <path
     inkscape:connector-curvature="0"
     id="CZ"
     data-name="Czech Rep."
     data-id="CZ"
     d="m 769.42867,666.34546 -8,2.4 -5.1,-2.7 -4.2,4.5 -12.9,4.5 -6.4,5.8 -13.1,5.1 3.7,7 2.7,9.9 9.8,5.7 11.3,10.2 14.5,7.6 9.8,-9.7 6.4,-1.8 15.1,7.2 8.7,-1.2 9,4.5 2.2,-5.2 8.3,0.4 6.2,-2.5 0.3,-2.2 3.4,-1.1 0.7,-5.4 4.2,-1 2.5,-4.2 5.5,0 -9.7,-11.6 -13.9,-1.5 -2.5,-7.3 -13,-2.6 -2.2,6 -10.5,-4.8 0.6,-6.5 -14,-2 -9.4,-7.5 z"
     style="fill:#f9f9f9" />
  <path
     inkscape:connector-curvature="0"
     id="DE"
     data-name="Germany"
     data-id="DE"
     d="m 747.62867,604.94546 -9.1,-7.3 -21,-9 -9.6,6.2 -18,4.4 -0.4,-8.2 -18.5,-5.3 -0.9,-8.9 -11.2,3.5 -13.7,-3 1.6,13 4.6,8.6 -11.7,11.3 -3.6,-5.1 -15,1.3 -3.3,4.9 3.7,7.7 -3.6,21.2 -4.3,8.7 -11,0 4,24.5 -1.6,15.8 3.9,5.3 -0.7,10.3 9,6.2 27.1,4.3 -8.8,16.2 -1.7,16.9 16,0.2 3.6,-5.2 20.6,7.3 5.6,-1.4 9.9,6.6 2.4,-6.2 16.6,1 13.3,-4.3 9,0.8 6.2,4.8 1.5,-4 -3.7,-15.4 6.6,-3 5.8,-10.9 -11.3,-10.2 -9.8,-5.7 -2.7,-9.9 -3.7,-7 13.1,-5.1 6.4,-5.8 12.9,-4.5 4.2,-4.5 5.1,2.7 8,-2.4 -8.8,-14.9 0.7,-8 -5.6,-12.4 -7.3,-8.2 4.5,-6.2 -5.3,-11.7 z"
     style="fill:#f9f9f9" />
  <path
     inkscape:connector-curvature="0"
     id="DK"
     data-name="Denmark"
     data-id="DK"
     d="m 718.42867,562.54546 -6.6,-11.4 -25.4,7.6 3.1,9.4 19.7,12.9 9.2,-18.5 z m -33,-19.2 -9.8,-3.5 -2.6,-6.3 4.7,-7.4 -0.3,-11.5 -13.5,6.3 -5.8,6.2 -15.3,1.4 -4.7,6.8 -2.6,6.1 1.8,23.2 7.9,12.7 13.7,3 11.2,-3.5 -5.5,-11.1 11.7,-16.3 5.4,2.4 3.7,-8.5 z"
     style="fill:#f9f9f9" />
  <path
     inkscape:connector-curvature="0"
     id="EE"
     data-name="Estonia"
     data-id="EE"
     d="m 936.22867,472.54546 -21,3.2 -20.7,6.2 3.7,12.8 12.3,8 5.9,-2.8 0.2,13.2 14.2,-3.9 8.1,2.7 16.49997,8.4 14.4,0 6.1,-7.1 -9.2,-21 9.8,-12.8 -3.4,-3.9 0,0 -17.6,0.7 -19.29997,-3.7 z"
     style="fill:#f9f9f9" />
  <path
     inkscape:connector-curvature="0"
     id="FI"
     data-name="Finland"
     data-id="FI"
     d="m 937.12867,270.34546 2.9,-14.3 -21.8,-8 -22.2,6.8 -4.1,14.9 -12.9,9.1 -17.8,-5 -20.1,1 -19.3,-10.7 -8.3,5.3 22.6,10.1 27.2,14 6.8,32.1 7,8.2 24.4,10 3.5,9 -9.9,4.4 -33.1,23.2 -12.6,13.6 -5.9,12.6 11.3,19.7 -0.3,21.6 17.7,7.3 11.8,12 27,-4.6 28.5,-8.1 30.39997,-1.8 0,0 30.09996,-28.1 12.6,-12.6 3.6,-11 -27.99996,-14.9 3.4,-14 -18.5,-15.9 6.5,-18.2 -24.5,-23.9 10.8,-15.7 -27.49997,-13.8 -1.3,-14.3 z"
     style="fill:#f9f9f9" />
  <path
     inkscape:connector-curvature="0"
     id="GB"
     data-name="United Kingdom"
     data-id="GB"
     d="m 391.52867,586.64546 -18.5,-14.1 -15,1 3.1,12.2 -4.3,12.3 11.1,-0.3 13.4,4.7 10.2,-15.8 z m 49.5,-92.4 -20.9,1.9 -13.7,-1.7 -14.2,18.2 -7.3,23.3 8.4,11.5 0.2,22 10,-10.8 5.6,6.3 -6.8,10.2 4.1,6.1 21.6,4.1 0.3,0.3 11.7,14.1 -2.9,13.3 -0.1,0 -26.8,-2 -3.9,15.1 9.7,12.4 -19.3,7.2 4.9,9.2 28.5,3.9 0.2,0 -16.6,5.1 -27.8,24.5 9.7,4.7 13.3,-8.9 17.1,2.6 12.4,-10.9 8.6,4.6 31.5,-6.5 24.6,0.3 16.5,-12.3 -7.4,-12 9.3,-6.8 2.1,-14.8 -22.1,-4.4 -5.2,-9.1 -11,-26.2 -12.3,-3.7 -15.6,-26.9 -1.3,-2.4 -18.3,-1.4 16.2,-20.3 4.8,-18.4 -19.1,-0.1 -17.8,3 19.1,-24.3 z"
     style="fill:#f9f9f9" />
  <path
     inkscape:connector-curvature="0"
     id="GR"
     data-name="Greece"
     data-id="GR"
     d="m 991.52864,1052.5455 28.79996,-2.1 1.9,-7.2 -10.7,2.9 0.1,-4.2 -15.09996,-1.8 -15.6,1.4 -11.6,-8.3 -2.9,10.5 24.9,4.8 0.2,4 z m 21.39996,-161.70004 -10.3,-6.2 1.2,11.7 -17.49996,2.2 -14.7,-8.2 -15,6.5 -14.49997,-0.7 -3.7,0.8 -2.8,4.1 -10.7,-0.5 -6.9,5.2 -12.7,2.1 0.2,6.3 -6.1,3.4 -0.5,7.8 -8.1,11.7 1.9,6.9 11.2,13.9 8.7,11.3 4.7,16.3 9,19.70004 17.3,10.8 13.29997,-0.4 -9.4,-21.70001 12.5,-2.6 -7,-12.60003 19,6.6 -1.5,-13.9 -10.5,-7.1 -12.1,-11.3 7,-5.3 -10.89997,-11.4 -5.8,-14.4 3.2,-5.2 11.59997,12.3 11,0 9.6,-3.9 -15,-13.5 23.1,-6.1 10.5,2.2 11.99996,0.7 4.4,-2.7 4.3,-14.8 z"
     style="fill:#f9f9f9" />
  <path
     inkscape:connector-curvature="0"
     id="HR"
     data-name="Croatia"
     data-id="HR"
     d="m 828.82867,787.94546 -15,-10.2 -6.3,-2.9 -14.6,6.3 -1.2,9.5 -6.4,2.5 0.6,6.5 -7.6,-0.4 -6.7,-3.9 -3.2,4 -13.4,-0.8 -0.7,0.4 0.1,8.2 6.2,7.8 5.2,-10.1 12.6,3.7 0.9,7.9 9.5,9.9 -3.8,1.7 17.6,17.2 18.2,7 11.9,8.4 19,8.6 0,0 1.8,-3.9 -17.9,-8.9 -8.1,-9.8 -7.8,-5.1 -9.6,-8.8 -4.8,-7.2 -10.2,-11 3.2,-9.7 7.3,5.4 3.8,-4.9 8.9,-0.5 16.8,3.9 13.2,-0.3 9.1,5.2 0,0 6.6,-8.9 -6.7,-6.7 -5.5,-9.1 0,0 -6.8,3.5 -16.2,-4.5 z"
     style="fill:#f9f9f9" />
  <path
     inkscape:connector-curvature="0"
     id="HU"
     data-name="Hungary"
     data-id="HU"
     d="m 882.62867,724.64546 -6,1.5 -3.8,5.6 -8.5,2.9 -2.2,-1.5 -8.8,3.7 -7.4,0.7 -1,4.7 -15.6,2.9 -7.1,-2.6 -10.1,-6 -0.6,9.7 -10.6,0 4.1,5.1 -5.1,15.3 3.2,0.2 4.4,8 6.3,2.9 15,10.2 16.2,4.5 6.8,-3.5 0,0 14,-6.2 12,1 14.8,-4.4 9.7,-16.1 7.2,-16 10.9,-5 -2,-6.3 -11.2,-6.5 -3.7,2.4 -20.9,-7.2 z"
     style="fill:#f9f9f9" />
  <path
     inkscape:connector-curvature="0"
     id="IE"
     data-name="Ireland"
     data-id="IE"
     d="m 381.32867,602.44546 -13.4,-4.7 -11.1,0.3 4.3,-12.3 -3.1,-12.2 -14.1,10.6 -25.5,18 8.1,23.4 -16.2,24.2 25.8,3.5 33,-13.7 14.6,-20.7 -2.4,-16.4 z"
     style="fill:#f9f9f9" />
  <path
     inkscape:connector-curvature="0"
     id="IS"
     data-name="Iceland"
     data-id="IS"
     d="m 261.02867,324.34546 -26.4,-1.5 -27.6,11.3 -19.3,-6 -26.3,11.5 -22.5,-14.3 -24.9,3.1 -13.6,13.8 33,4.9 -0.4,6.2 -29.5,4.1 33.6,10.5 -17.8,9.5 44.7,6.8 21.2,3.2 14.8,-4 49.2,-14.7 23,-16.3 -16.6,-14.4 5.4,-13.7 z"
     style="fill:#f9f9f9" />
  <path
     inkscape:connector-curvature="0"
     id="IT"
     data-name="Italy"
     data-id="IT"
     d="m 801.42867,971.04546 -14.9,2.1 -20.2,2.7 -23.4,-2.2 -2.2,12.60003 28.5,12.5 10.3,2.70001 15.8,9.3 3.5,-12.70001 -3.4,-7.6 6,-19.40003 z m -128.1,-71.9 -9.5,7.4 -10.8,-1.2 4.9,13.6 1.8,29.1 7.8,6.5 7.7,-8.2 9.1,1.6 1.5,-31.9 -12.5,-16.9 z m 54.3,-130.5 -4.8,-8.2 -18.4,4.1 -2,4.5 -11.6,-3.4 -1,9.7 -8.2,4 -14.2,-3 -3.7,9.6 -9,0.7 -3.5,-3.7 -10.3,8 -9.2,1.1 -8.4,-5.1 -0.5,6.7 5.9,8.8 -6.4,7.2 5.6,18.1 10.5,3 -1.8,10.2 7.9,-1.8 10.7,-10.8 8.7,-3.2 16.1,7.8 9.7,2.7 7.2,23.1 13.8,13.5 18.7,15.3 15.9,10.6 14.5,1.5 9.1,9.6 12.9,4.3 6.4,10.3 8.4,3 6.8,12.2 8.6,14.1 -4,5.2 -3.2,13.1 0.3,7.5 8.2,-1.9 9.3,-21 8.2,-1.4 1.5,-12.7 -14.9,-9 7.2,-15.5 17.4,3.9 11.8,11.2 3,-8.6 -2.4,-4.5 -17.8,-12.4 -14.9,-7.2 -18.2,-8.5 5.2,-4.7 -5.2,-5.2 -15.2,0.2 -23,-18.9 -11,-19.4 -18.8,-11.7 -7,-12 1.9,-6.6 -1.7,-11.7 15,-8.4 15.4,3.5 -5.3,-10.1 1.3,-11.6 -27.5,-6.1 z"
     style="fill:#f9f9f9" />
  <path
     inkscape:connector-curvature="0"
     id="LT"
     data-name="Lithuania"
     data-id="LT"
     d="m 963.52864,562.44546 -18.9,-11 -9.69997,-1.5 -3.3,-4.7 -16.9,2.3 -29.9,-1.5 -19.2,7 6.5,19.1 19.2,4 8.4,3.6 -0.9,6.3 2.2,5.8 9.6,2.5 5.4,7.1 17.4,0.1 18.19997,-8.6 2,-12.9 13.4,-7.4 -3.5,-10.2 z"
     style="fill:#f9f9f9" />
  <path
     inkscape:connector-curvature="0"
     id="LU"
     data-name="Luxembourg"
     data-id="LU"
     d="m 608.22867,704.84546 0.7,-10.3 -3.9,-5.3 -4.8,0.9 -1.6,13.2 4.2,2 5.4,-0.5 z"
     style="fill:#f9f9f9" />
  <path
     inkscape:connector-curvature="0"
     id="LV"
     data-name="Latvia"
     data-id="LV"
     d="m 969.82864,520.34546 -14.4,0 -16.49997,-8.4 -8.1,-2.7 -14.2,3.9 -0.4,17.3 -14,0.5 -16.6,-16.9 -15.3,7.7 -6.5,14.2 1.8,17.1 19.2,-7 29.9,1.5 16.9,-2.3 3.3,4.7 9.69997,1.5 18.9,11 10.1,-3.8 17.4,-8.8 -8.2,-13.3 -3.6,-11 -9.4,-5.2 z"
     style="fill:#f9f9f9" />
  <path
     inkscape:connector-curvature="0"
     id="MD"
     data-name="Moldova"
     data-id="MD"
     d="m 1032.4286,798.84546 4.4,-2.6 2.2,-8.1 4.1,-7.5 -1.9,-4.2 3.7,-1.9 2.3,3.3 11.3,0.7 4.8,-1.8 -3.9,-2.4 0.8,-3.5 -7.5,-6 -4.2,-9.9 -7.4,-3.9 0.1,-8 -9.4,-6.4 -7.9,-0.9 -14.9,-7.3 -12.09996,2.3 -4,3.5 6,2.3 6.79996,7 7.4,10 12.9,14.1 2.1,10.4 -0.6,10 4.9,10.8 z"
     style="fill:#f9f9f9" />
  <path
     inkscape:connector-curvature="0"
     id="MK"
     data-name="Macedonia"
     data-id="MK"
     d="m 939.12867,880.54546 -10.6,-7.5 -9,0.4 -6.4,1.3 -4.3,0.9 -11.2,3.7 -0.4,4.8 -2.5,-0.2 0,0 -1.7,8 3.7,10.2 8.6,5.7 12.7,-2.1 6.9,-5.2 10.7,0.5 2.8,-4.1 3.7,-0.8 -3,-15.6 z"
     style="fill:#f9f9f9" />
  <path
     inkscape:connector-curvature="0"
     id="ME"
     data-name="Montenegro"
     data-id="ME"
     d="m 886.12867,861.54546 1.4,-2.1 -7.8,-4.8 -6.6,-2.5 -3.2,-3.3 -5.5,-4 -3.4,2.2 -5.8,5.4 -1.7,12.9 -1.8,3.9 0,0 8.8,4.7 6.2,7.7 4.2,1.8 0,0 -2,-7.5 7.4,-11.5 1.6,4.4 5.1,-2.1 3.1,-5.2 z"
     style="fill:#f9f9f9" />
  <path
     inkscape:connector-curvature="0"
     id="NL"
     data-name="Netherlands"
     data-id="NL"
     d="m 602.62867,648.94546 11,0 4.3,-8.7 3.6,-21.2 -3.7,-7.7 -15,-0.7 -24.5,9.6 -15.1,34.1 -9.3,6.4 0,0 13.5,1.8 16.9,-4.8 12,10.2 10.3,5.5 -4,-24.5 z"
     style="fill:#f9f9f9" />
  <path
     inkscape:connector-curvature="0"
     id="NO"
     data-name="Norway"
     data-id="NO"
     d="m 919.62867,227.54546 -26.3,4 -27.8,-0.9 -19.6,16.6 -25.5,-1 -32,8.8 -38.7,25.6 -24.1,15.5 -33.8,40.4 -26.9,29.6 -30.7,22.2 -42.8,18.2 -14.8,14 7.3,50.8 7.1,24 24.5,11.4 22.9,-5.3 32.3,-25.8 12.6,13.7 6.5,-12.9 13,-15.2 3.2,-25.9 -11.8,-11.1 -3.7,-28.9 8.8,-20.2 16.3,0.4 4.8,-8.5 -6.7,-7.3 21.6,-29.9 12.9,-23.2 8.4,-14.7 15.1,0 2.4,-11.4 30,3.3 -0.1,-13.5 9.5,-0.9 8.3,-5.3 19.3,10.7 20.1,-1 17.8,5 12.9,-9.1 4.1,-14.9 22.2,-6.8 21.8,8 -2.9,14.3 11.99997,-1.9 24.2,-8.2 0,0 -20.4,-12.7 18.3,-5.3 -51.59997,-14.7 z m -86.3,-126.6 -21,-4.000004 -7.4,-6.6 -27.3,3.5 9.8,5.7 -8.3,4.600004 25.5,4.1 28.7,-7.3 z m -96.7,-31.900006 -18.1,-5.7 -19.4,0.6 -3.9,5.6 -18.9,0.2 -8.4,-5.8 -35.4,6 12.4,13.2 28.9,14.800002 21.5,5.100004 -11.4,6.4 32,11.1 16.7,-0.7 3.4,-15 11.4,-3.4 4.5,-13.000004 32.3,-6.800002 -47.6,-12.6 z m 57.5,-15.5 -11.8,4.8 -20.3,-3.9 -39.5,4.5 16.3,7.5 19.2,0.3 3.6,4.6 40.3,2.8 38.2,-2 16.6,-8.9 -28,-5.7 -34.6,-4 z"
     style="fill:#f9f9f9" />
  <path
     inkscape:connector-curvature="0"
     id="PL"
     data-name="Poland"
     data-id="PL"
     d="m 845.62867,589.64546 -17.3,-0.3 -2,-5.6 -18.3,-3.8 -21.7,7.7 -27,10.6 -11.7,6.7 5.3,11.7 -4.5,6.2 7.3,8.2 5.6,12.4 -0.7,8 8.8,14.9 9.4,7.5 14,2 -0.6,6.5 10.5,4.8 2.2,-6 13,2.6 2.5,7.3 13.9,1.5 9.7,11.6 1.2,1.4 7.4,-3.2 10.2,8.3 10.5,-5 9.1,2.4 13,-3.3 18.8,9 4.2,1.4 -6.1,-10.6 14.4,-19.5 8.8,-2.8 1.1,-6.5 -12,-20.4 -1.8,-10.3 -7.2,-10.8 10.3,-4.7 -1.3,-9.2 -6.3,-8.8 -2.3,-10.1 -5.4,-7.1 -9.6,-2.5 -32.9,0.4 -22.5,-2.6 z"
     style="fill:#f9f9f9" />
  <path
     inkscape:connector-curvature="0"
     id="PT"
     data-name="Portugal"
     data-id="PT"
     d="m 344.12867,998.94549 -1.4,-8.2 7.6,-9.20003 2.9,-6.7 -6.7,-7.3 6,-16 -7.5,-14.6 8.6,-2 1.1,-11.4 3.3,-3.5 0.8,-18.5 9.2,-6.4 -5.1,-11.9 -11.3,-0.8 -3.5,3 -11.5,0 -4.5,-11.5 -8,3.4 -7.4,6 0.6,7.9 3.6,8.5 0,10.1 -4.6,14.3 -1.8,9.8 -8.2,8.8 -2.2,15.9 4.4,9.3 8.8,2.2 1.4,15.1 -3.6,19.30004 10.4,-2.7 10.4,3.5 8.2,-6.40001 z"
     style="fill:#f9f9f9" />
  <path
     inkscape:connector-curvature="0"
     id="RO"
     data-name="Romania"
     data-id="RO"
     d="m 992.92864,734.24546 -7.9,0 -4,5.5 -13.6,2.3 -6,3.6 -9.4,-5.8 -12.09997,-0.1 -12,-2.6 -7.5,5.1 -10.9,5 -7.2,16 -9.7,16.1 -14.8,4.4 11.2,9.3 2.9,7.5 12.3,5.5 2.5,9.7 11.9,6.8 5.5,-5.2 5,2.9 -4,3.9 4,4.1 6.6,9.6 7.3,-1.7 15.19997,3.7 28.5,1.2 8.8,-6 21.99996,-5.4 15.2,8.5 11.7,2.4 1.4,-28.2 6.1,2.2 8.6,-5.1 -1.3,-6 -9.3,-4.1 -8.4,3.8 -9.1,-4.3 -4.9,-10.8 0.6,-10 -2.1,-10.4 -12.9,-14.1 -7.4,-10 -6.79996,-7 -6,-2.3 z"
     style="fill:#f9f9f9" />
  <path
     inkscape:connector-curvature="0"
     id="RS"
     data-name="Serbia"
     data-id="RS"
     d="m 904.22867,806.04546 -12.3,-5.5 -2.9,-7.5 -11.2,-9.3 -12,-1 -14,6.2 0,0 5.5,9.1 6.7,6.7 -6.6,8.9 0,0 7,-0.1 -3.9,10.3 10.2,9 -1.8,11 -4.5,1 5.5,4 3.2,3.3 6.6,2.5 7.8,4.8 -1.4,2.1 4.5,-1.7 1.9,-7.8 3.4,-1.3 3,3.3 3.8,1.5 2.9,3.7 3.3,1.1 4.2,4.3 2.8,-0.1 -1.6,5.7 -2.1,2.8 0.9,1.7 6.4,-1.3 9,-0.4 2.9,-3.3 -2.4,-2.8 2.5,-7.5 6.5,-7.3 -10.4,-10.1 -2.7,-8.5 4.2,-5.3 -4,-4.1 4,-3.9 -5,-2.9 -5.5,5.2 -11.9,-6.8 -2.5,-9.7 z"
     style="fill:#f9f9f9" />
  <path
     inkscape:connector-curvature="0"
     id="SK"
     data-name="Slovakia"
     data-id="SK"
     d="m 914.22867,713.74546 -18.8,-9 -13,3.3 -9.1,-2.4 -10.5,5 -10.2,-8.3 -7.4,3.2 -1.2,-1.4 -5.5,0 -2.5,4.2 -4.2,1 -0.7,5.4 -3.4,1.1 -0.3,2.2 -6.2,2.5 -8.3,-0.4 -2.2,5.2 -1.2,3 2.6,8.2 10.1,6 7.1,2.6 15.6,-2.9 1,-4.7 7.4,-0.7 8.8,-3.7 2.2,1.5 8.5,-2.9 3.8,-5.6 6,-1.5 20.9,7.2 3.7,-2.4 2.5,-9.5 4.5,-6.2 z"
     style="fill:#f9f9f9" />
  <path
     inkscape:connector-curvature="0"
     id="SI"
     data-name="Slovenia"
     data-id="SI"
     d="m 807.52867,774.84546 -4.4,-8 -3.2,-0.2 -3.3,4 -16.5,0.6 -9.2,5.3 -15.8,-1.8 -1.3,11.6 5.3,10.1 -4.1,2.1 13.4,0.8 3.2,-4 6.7,3.9 7.6,0.4 -0.6,-6.5 6.4,-2.5 1.2,-9.5 14.6,-6.3 z"
     style="fill:#f9f9f9" />
  <path
     inkscape:connector-curvature="0"
     id="SE"
     data-name="Sweden"
     data-id="SE"
     d="m 877.12867,333.84546 -7,-8.2 -6.8,-32.1 -27.2,-14 -22.6,-10.1 -9.5,0.9 0.1,13.5 -30,-3.3 -2.4,11.4 -15.1,0 -8.4,14.7 -12.9,23.2 -21.6,29.9 6.7,7.3 -4.8,8.5 -16.3,-0.4 -8.8,20.2 3.7,28.9 11.8,11.1 -3.2,25.9 -13,15.2 -6.5,12.9 15.7,31.7 16.9,25.7 7.4,21.5 20.5,-1 8.4,-18.1 21.6,2.2 7.7,-21.2 2.3,-37.8 17.3,-5.2 12.4,-25.1 -17.9,-12.2 -14.1,-15.5 8.2,-30.8 29.2,-18.6 23.3,-17.3 -4.8,-13 13.1,-14.8 26.6,-6 z"
     style="fill:#f9f9f9" />
  <path
     inkscape:connector-curvature="0"
     id="UA"
     data-name="Ukraine"
     data-id="UA"
     d="m 1108.6286,637.74546 -18.5,2.3 -5.8,-1.2 -3.5,5.3 -7,-1 0,0 -15.5,1.4 -4.7,5.1 1,11.7 -7.7,-2.2 -16.4,1.1 -5.8,-5.4 -6.2,4 -7.4,-3.4 -14.59996,-0.4 -21.3,-5.6 -18.8,-1.8 -14.09997,0.5 -9.1,6.3 -8.6,0.9 12,20.4 -1.1,6.5 -8.8,2.8 -14.4,19.5 6.1,10.6 -4.2,-1.4 -4.5,6.2 -2.5,9.5 11.2,6.5 2,6.3 7.5,-5.1 12,2.6 12.09997,0.1 9.4,5.8 6,-3.6 13.6,-2.3 4,-5.5 7.9,0 4,-3.5 12.09996,-2.3 14.9,7.3 7.9,0.9 9.4,6.4 -0.1,8 7.4,3.9 4.2,9.9 7.5,6 -0.8,3.5 3.9,2.4 -4.8,1.8 -11.3,-0.7 -2.3,-3.3 -3.7,1.9 1.9,4.2 -4.1,7.5 -2.2,8.1 -4.4,2.6 9.1,4.3 8.4,-3.8 9.3,4.1 12.2,-17.4 5.1,-13.1 17.1,-2.9 2.7,8.9 30.5,5.9 6.4,5.4 -17,7.9 -2.6,4.5 22,6.9 -2.4,11 11.4,4.7 23.8,-13.5 20.3,-4.1 2.2,-8.4 -19.2,1.4 -10.3,-5.6 -3.7,-14.7 14.8,-8.8 17.6,-1.3 11.1,-7.6 14.8,-1.9 -1.5,-10.6 8.5,-6.6 17.8,-1.7 1.4,-7.9 -6.9,-13 5,-12.4 -1.8,-6.9 -29,-7.7 -10.8,0.3 -13.8,-11 -13.4,3.7 -25.2,-8.2 -0.5,-4.6 -8.6,-10.2 -14.9,-1.1 -3,-7.2 3.6,-4.7 -14.3,-13.2 z"
     style="fill:#f9f9f9" />
  <path
     inkscape:connector-curvature="0"
     id="FR"
     data-name="France"
     data-id="FR"
     d="m 679.22867,876.94546 -4.2,-20.1 -12.1,9 -3.6,8.7 5.2,15.8 9,4.8 5.7,-18.2 z m -119.8,-193.6 -8.8,-9.4 -8.6,-0.4 -2.8,-8.2 -16,4.7 -5.4,19.2 -43.2,18.4 -17.5,-10.1 5.6,26.7 -31.3,-6.1 -24.4,5.1 1.5,17.3 28.6,9.1 13.8,12 19.4,24.8 -4,46.8 -10.1,14 7.7,9.1 35.7,10.6 7,-5.1 21.9,10.6 22.6,-3 2,-14.1 28,-7.6 38.4,6.4 17.1,-13.2 1.8,-10.2 -10.5,-3 -5.6,-18.1 6.4,-7.2 -5.9,-8.8 0.5,-6.7 -6.8,-10.3 -9,3.7 0,-10.7 13.4,-13.3 -0.8,-6 8.6,2.1 5.1,-4 1.7,-16.9 8.8,-16.2 -27.1,-4.3 -9,-6.2 -5.4,0.5 -4.2,-2 -16.5,-10.8 -9.5,1.9 -13.2,-11.1 z"
     style="fill:#f9f9f9" />
  <path
     inkscape:connector-curvature="0"
     id="ES"
     data-name="Spain"
     data-id="ES"
     d="m 524.62867,960.24546 0,-0.7 -1.9,-0.3 -1.2,-1.4 -0.4,0.7 -0.3,0.7 0.1,1 1.9,0 1.4,0.3 0.4,-0.3 z m -3,-6 1,-0.4 2.5,-2.6 -0.2,-1.1 -0.9,-0.9 -4.3,1 -0.9,1.2 -0.1,1.2 -0.8,0.2 -0.7,1.7 0.7,0.6 3,0.6 0.7,-1.5 z m -65.4,-107 -31.2,-0.8 -16.1,1.2 -20.5,-3.9 -25.9,0.1 -23.5,-4.2 -28.1,16.8 7.5,10.2 -1.7,16.7 7.4,-6 8,-3.4 4.5,11.5 11.5,0 3.5,-3 11.3,0.8 5.1,11.9 -9.2,6.4 -0.8,18.5 -3.3,3.5 -1.1,11.4 -8.6,2 7.5,14.6 -6,16 6.7,7.3 -2.9,6.7 -7.6,9.20003 1.4,8.2 18.6,3.80001 5.3,14.2 7.3,8.3 9.7,2.1 7.9,-9.3 12.7,-8.8 19,0.5 25.4,-0.4 14.3,-18.90001 15.1,-4.90003 4.3,-16 11.5,-10.9 -7.7,-14 7.6,-19.6 12.1,-13.3 1.7,-8 25,-5 18.4,-15.7 -1.2,-13.6 -22.6,3 -21.9,-10.6 -7,5.1 -35.7,-10.6 -7.7,-9.1 z m 98.8,85.8 0.3,-1.1 0.6,-0.6 0.2,-0.7 -0.7,-0.4 0,-0.4 0.6,-0.9 -0.8,-0.2 -4.9,1.5 -2.4,1.3 -8.1,5.8 0,1 0.5,0.8 1.3,0.2 0.8,1.3 1.5,-1.3 1.1,-0.6 1.3,0.3 0.9,0.8 0.5,2.4 0.6,0.6 2,0.4 3.4,1.7 1.7,-0.8 1.7,-1.3 0.9,-2.2 1.1,-1.9 1.3,-1.7 0.9,-1.7 -0.3,-1.6 -1,-0.4 -1.1,-0.2 -2,0.7 -1.9,-0.8 z m 22.7,-1.2 0.5,-1.4 -0.2,-0.4 -1.8,-2.8 -3.3,-1 -4,0.3 -0.2,0.6 0,1.4 0.5,0.5 2,0.3 6.1,2.8 0.4,-0.3 z"
     style="fill:#f9f9f9" />
</svg>
