<?xml version="1.0" encoding="UTF-8" standalone="no"?>
<!-- Created with Inkscape (http://www.inkscape.org/) -->

<svg
   xmlns:dc="http://purl.org/dc/elements/1.1/"
   xmlns:cc="http://creativecommons.org/ns#"
   xmlns:rdf="http://www.w3.org/1999/02/22-rdf-syntax-ns#"
   xmlns:svg="http://www.w3.org/2000/svg"
   xmlns="http://www.w3.org/2000/svg"
   xmlns:sodipodi="http://sodipodi.sourceforge.net/DTD/sodipodi-0.dtd"
   xmlns:inkscape="http://www.inkscape.org/namespaces/inkscape"
   width="210mm"
   height="297mm"
   viewBox="0 0 744.09448819 1052.3622047"
   id="svg2"
   version="1.1"
   inkscape:version="0.91 r13725"
   sodipodi:docname="filter-glow.svg">
  <defs
     id="defs4">
    <filter
       y="-0.25"
       height="1.5"
       style="color-interpolation-filters:sRGB;"
       id="filter4234">
      <feGaussianBlur
         stdDeviation="5"
         result="result6"
         id="feGaussianBlur4236" />
      <feComposite
         result="result8"
         in="SourceGraphic"
         operator="atop"
         in2="result6"
         id="feComposite4238" />
      <feComposite
         result="result9"
         operator="over"
         in2="SourceAlpha"
         in="result8"
         id="feComposite4240" />
      <feColorMatrix
         values="1 0 0 0 0 0 1 0 0 0 0 0 1 0 0 0 0 0 1 0 "
         result="result10"
         id="feColorMatrix4242" />
      <feBlend
         in="result10"
         mode="normal"
         in2="result6"
         id="feBlend4244" />
    </filter>
  </defs>
  <sodipodi:namedview
     id="base"
     pagecolor="#ffffff"
     bordercolor="#666666"
     borderopacity="1.0"
     inkscape:pageopacity="0.0"
     inkscape:pageshadow="2"
     inkscape:zoom="0.7"
     inkscape:cx="132.18938"
     inkscape:cy="617.58847"
     inkscape:document-units="px"
     inkscape:current-layer="layer1"
     showgrid="false"
     inkscape:window-width="1920"
     inkscape:window-height="1058"
     inkscape:window-x="-8"
     inkscape:window-y="-8"
     inkscape:window-maximized="1" />
  <metadata
     id="metadata7">
    <rdf:RDF>
      <cc:Work
         rdf:about="">
        <dc:format>image/svg+xml</dc:format>
        <dc:type
           rdf:resource="http://purl.org/dc/dcmitype/StillImage" />
        <dc:title></dc:title>
      </cc:Work>
    </rdf:RDF>
  </metadata>
  <g
     inkscape:label="Layer 1"
     inkscape:groupmode="layer"
     id="layer1">
    <path
       style="fill:#ff0000;fill-opacity:1;fill-rule:evenodd;stroke:#000000;stroke-width:3;stroke-linejoin:round;stroke-miterlimit:4;stroke-dasharray:none;stroke-opacity:1;filter:url(#filter4234)"
       d="m 111.42857,243.79078 c 1.90476,-1.42858 3.67264,-3.06073 5.71429,-4.28572 5.11636,-3.06981 10.41008,-5.83896 15.71428,-8.57143 36.80069,-18.95793 34.56795,-17.63575 78.57143,-34.28571 43.78813,-16.56848 62.3068,-25.61649 107.14286,-31.42857 9.44478,-1.22433 19.04762,0 28.57143,0 1.90476,0 3.82866,-0.26938 5.71428,0 8.95134,1.27876 5.73355,7.16597 12.85715,15.71428 3.67087,4.40505 8.08609,8.24787 12.85714,11.42857 6.73564,4.49043 13.97624,8.26698 21.42857,11.42858 5.86598,2.48859 34.99729,10.60538 42.85714,15.71428 12.03192,7.82075 13.66088,16.24536 20,28.57143 5.64983,10.98577 10.78706,22.26415 17.14286,32.85714 18.95892,31.5982 22.35121,23.14738 40,62.85715 5.44617,12.25388 9.04882,25.37463 11.42857,38.57142 6.1372,34.03354 0.82415,61.19497 12.85714,94.28572 4.38177,12.04986 13.33334,21.90476 20,32.85714 5.2381,11.90476 11.60137,23.37553 15.71429,35.71429 4.49237,13.47711 6.50617,27.65877 10,41.42857 4.60183,18.13661 8.44492,36.50937 14.28571,54.28571 5.13416,15.62569 12.37403,30.47901 18.57143,45.71429 5.23117,12.85996 11.57327,25.32017 15.71429,38.57143 8.29821,26.55428 5.71428,42.89716 5.71428,71.42857 0,7.61905 0,15.23809 0,22.85714 0,7.61905 0,15.2381 0,22.85714 0,6.70016 0.59319,30.73714 -1.42857,38.57143 -5.09931,19.75986 -8.91453,31.33732 -25.71428,42.85715 -10.71939,7.35043 -22.00063,14.32749 -34.28572,18.57142 -17.38638,6.00621 -77.73269,13.28251 -94.28571,14.28572 -4.12916,0.25025 -47.75698,2.32863 -61.42857,-2.85714 -31.39202,-11.90732 -17.98947,-9.41805 -38.57143,-30 -12.9074,-12.9074 -18.5177,-15.05947 -35.71429,-21.42858 -24.74836,-9.16606 -12.59577,-2.8343 -38.57143,-10 -7.25812,-2.00224 -14.42072,-4.38977 -21.42857,-7.14285 -21.02334,-8.25917 -19.62543,-9.71227 -40,-22.85715 -7.54985,-4.87087 -15.73562,-8.80761 -22.85714,-14.28571 -12.61088,-9.70068 -17.14862,-16.89779 -22.85714,-31.42857 -2.91879,-7.42964 -4.6186,-15.28437 -7.14286,-22.85714 -23.92385,-71.77156 5.84534,24.03013 -21.42857,-71.42858 -3.55868,-12.45537 -7.99949,-24.65118 -11.42857,-37.14285 -6.28479,-22.89457 -11.65966,-47.79407 -14.28572,-71.42857 -1.05304,-9.47739 -1.14823,-19.03985 -1.42857,-28.57143 -0.18491,-6.28714 -0.84941,-22.02706 1.42857,-30 1.94478,-6.80671 4.72363,-13.34713 7.14286,-20 1.39041,-3.82362 3.29894,-7.48148 4.28571,-11.42857 0.33508,-1.34029 0,-8.8413 0,-11.42858 0,-3.33333 0,-6.66666 0,-10 0,-1.90476 0.21035,-3.82117 0,-5.71428 -0.26813,-2.41325 -0.92835,-4.76684 -1.42857,-7.14286 -1.40458,-6.67176 -2.51321,-13.41642 -4.28571,-20 -3.8659,-14.35903 -8.32922,-23.24437 -14.28572,-37.14286 -9.8249,-22.92476 -5.75607,-17.78271 -21.42857,-37.14285 -3.60788,-4.4568 -7.12893,-9.06335 -11.42857,-12.85715 -12.561885,-11.08401 -12.808743,-4.18891 -19.999999,-18.57142 -2.500192,-5.00039 -5.031361,-22.12894 -5.714285,-25.71429 -0.908656,-4.77044 -2.013205,-9.5034 -2.857143,-14.28571 -3.956773,-22.42172 0.607554,2.39737 -1.428572,-20 -0.177756,-1.95532 -1.105793,-3.77762 -1.428571,-5.71429 -0.631156,-3.78693 -0.844798,-7.63404 -1.428571,-11.42857 -1.708738,-11.10679 -1.428572,-3.20675 -1.428572,-11.42857 0,-0.99363 -0.258309,-6.62624 0,-7.14286 0.306726,-0.61345 5.678678,-5.69055 5.714286,-5.71429 0.396214,-0.26414 1.091854,0.33672 1.428571,0 0.336718,-0.33671 -0.336717,-1.09185 0,-1.42857 0.714286,-0.71428 3.571429,0.71429 4.285715,0 0.336717,-0.33671 -0.336718,-1.09185 0,-1.42857 0.336717,-0.33672 1.091854,0.33672 1.428571,0 0.336718,-0.33672 -0.212959,-1.00265 0,-1.42857 2.972686,-5.94537 -0.09862,1.52719 2.857143,-1.42857 0.336717,-0.33672 -0.336718,-1.09186 0,-1.42857 0.673435,-0.67344 2.183708,0.67343 2.857143,0 0.336717,-0.33672 -0.336718,-1.09186 0,-1.42857 0.336717,-0.33672 1.002653,0.21295 1.428571,0 0.602339,-0.30117 0.826233,-1.12741 1.428572,-1.42858 0.516619,-0.25831 6.149231,0 7.142861,0 0.47619,0 1.09185,0.33672 1.42857,0 0.33671,-0.33671 -0.33672,-1.09185 0,-1.42857 0.67343,-0.67343 2.18371,0.67344 2.85714,0 0.33672,-0.33671 -0.0934,-0.96163 0,-1.42857 0.38505,-1.92525 0.95238,-3.80952 1.42857,-5.71428 z"
       id="path4156"
       inkscape:connector-curvature="0" />
  </g>
</svg>
