<?xml version="1.0" encoding="UTF-8" standalone="no"?>
<!-- Created with Inkscape (http://www.inkscape.org/) -->

<svg
   xmlns:dc="http://purl.org/dc/elements/1.1/"
   xmlns:cc="http://creativecommons.org/ns#"
   xmlns:rdf="http://www.w3.org/1999/02/22-rdf-syntax-ns#"
   xmlns:svg="http://www.w3.org/2000/svg"
   xmlns="http://www.w3.org/2000/svg"
   xmlns:sodipodi="http://sodipodi.sourceforge.net/DTD/sodipodi-0.dtd"
   xmlns:inkscape="http://www.inkscape.org/namespaces/inkscape"
   width="210mm"
   height="297mm"
   viewBox="0 0 744.09448819 1052.3622047"
   id="svg2"
   version="1.1"
   inkscape:version="0.91 r13725"
   sodipodi:docname="filter-ridge.svg">
  <defs
     id="defs4">
    <filter
       inkscape:label="Raised Border"
       inkscape:menu="Bevels"
       inkscape:menu-tooltip="Strongly raised border around a flat surface"
       height="1.5"
       width="1.5"
       y="-0.25"
       x="-0.25"
       style="color-interpolation-filters:sRGB;"
       id="ridge">
      <feGaussianBlur
         stdDeviation="4"
         result="result1"
         id="feGaussianBlur4156" />
      <feComposite
         in="result1"
         in2="result1"
         result="result4"
         operator="in"
         id="feComposite4158" />
      <feGaussianBlur
         stdDeviation="2"
         result="result6"
         in="result4"
         id="feGaussianBlur4160" />
      <feComposite
         operator="xor"
         in="result6"
         in2="result4"
         result="result8"
         id="feComposite4162" />
      <feComposite
         operator="atop"
         result="fbSourceGraphic"
         in="result4"
         in2="result8"
         id="feComposite4164" />
      <feSpecularLighting
         specularExponent="10"
         specularConstant="1.3"
         surfaceScale="3"
         lighting-color="rgb(255,255,255)"
         result="result1"
         in="fbSourceGraphic"
         id="feSpecularLighting4166">
        <feDistantLight
           azimuth="235"
           elevation="55"
           id="feDistantLight4168" />
      </feSpecularLighting>
      <feComposite
         operator="atop"
         result="result2"
         in="result1"
         in2="fbSourceGraphic"
         id="feComposite4170" />
      <feComposite
         k3="1"
         k2="1"
         operator="arithmetic"
         result="result4"
         in="fbSourceGraphic"
         in2="result2"
         id="feComposite4172" />
      <feComposite
         operator="over"
         in="result4"
         in2="SourceGraphic"
         id="feComposite4174" />
      <feBlend
         mode="multiply"
         in2="result2"
         id="feBlend4176" />
    </filter>
  </defs>
  <sodipodi:namedview
     id="base"
     pagecolor="#ffffff"
     bordercolor="#666666"
     borderopacity="1.0"
     inkscape:pageopacity="0.0"
     inkscape:pageshadow="2"
     inkscape:zoom="0.35"
     inkscape:cx="-126.42857"
     inkscape:cy="520"
     inkscape:document-units="px"
     inkscape:current-layer="layer1"
     showgrid="false"
     inkscape:window-width="1920"
     inkscape:window-height="1058"
     inkscape:window-x="-8"
     inkscape:window-y="-8"
     inkscape:window-maximized="1" />
  <metadata
     id="metadata7">
    <rdf:RDF>
      <cc:Work
         rdf:about="">
        <dc:format>image/svg+xml</dc:format>
        <dc:type
           rdf:resource="http://purl.org/dc/dcmitype/StillImage" />
        <dc:title></dc:title>
      </cc:Work>
    </rdf:RDF>
  </metadata>
  <g
     inkscape:label="Layer 1"
     inkscape:groupmode="layer"
     id="layer1">
    <path
       style="fill:#ff0000;fill-opacity:1;fill-rule:evenodd;stroke:#000000;stroke-width:1;stroke-linejoin:round;stroke-miterlimit:4;stroke-dasharray:none;stroke-opacity:1;filter:url(#filter4154)"
       d="m 300,138.07649 c -14.28571,8.57143 -27.05221,20.44598 -42.85714,25.71429 -10.30158,3.43385 16.00186,-15.14379 25.71428,-20 9.71242,-4.85621 20.8696,-6.03728 31.42857,-8.57143 13.2595,-3.18228 26.38896,-7.74652 40,-8.57143 46.04031,-2.79032 106.40017,6.77354 137.14286,45.71428 12.43007,15.74476 15.86225,51.22955 14.28572,68.57143 -3.24538,35.69918 -17.71264,75.99609 -31.42858,108.57143 -7.76993,18.4536 -17.47322,36.03765 -25.71428,54.28572 -12.91689,28.60167 -15.1473,37.03245 -25.71429,65.71428 -2.81305,7.63544 -6.74171,14.92838 -8.57143,22.85714 -1.07076,4.63996 0,9.52381 0,14.28572 0,3.80952 0,7.61905 0,11.42857 0,2.85714 -0.78491,5.82422 0,8.57143 1.17009,4.0953 3.80953,7.61905 5.71429,11.42857 2.85714,8.57143 6.15325,17.00883 8.57143,25.71429 2.35005,8.46018 2.00113,17.75752 5.71428,25.71428 3.14557,6.74049 10.26338,10.88589 14.28572,17.14286 4.60636,7.16546 7.82628,15.13795 11.42857,22.85714 7.97985,17.09968 13.95262,32.28713 17.14286,51.42857 2.61904,15.71429 -1.4966,17.95919 0,31.42857 0.53628,4.82651 2.51115,9.44185 2.85714,14.28572 0.61069,8.54965 0,17.14286 0,25.71428 0,8.57143 0.77602,17.17806 0,25.71429 -0.52448,5.76932 -2.37605,11.36976 -2.85714,17.14286 -1.1305,13.56592 2.40284,15.19432 -2.85715,25.71428 -6.20633,12.41266 -14.55523,16.26129 -28.57142,22.85715 -17.32695,8.15385 -41.65296,12.31996 -60,14.28571 -35.53825,3.80767 -55.78149,2.85714 -91.42858,2.85714 -5.71428,0 -11.486,0.80813 -17.14285,0 -14.28531,-2.04075 -34.09378,-8.42747 -45.71429,-17.14285 -1.52381,-1.14286 1.14286,-4.19048 0,-5.71429 -2.06031,-2.74709 -6.37312,-3.07632 -8.57143,-5.71429 -2.72666,-3.27199 -3.98447,-7.53648 -5.71428,-11.42857 -5.18539,-11.66712 -5.99192,-14.10647 -8.57143,-25.71428 -1.05346,-4.74057 -1.57939,-9.60062 -2.85714,-14.28572 -13.0401,-47.81368 -0.4787,12.83457 -5.71429,-34.28571 -0.9909,-8.91806 -3.3061,-7.06116 -5.71429,-14.28572 -7.79669,-23.39009 1.03858,0.51715 -2.85714,-22.85714 -0.3501,-2.10061 -1.80057,-3.86528 -2.85714,-5.71428 -11.04139,-19.32243 -5.22233,-9.02555 -17.14286,-25.71429 -1.99589,-2.79425 -3.71839,-5.77718 -5.71428,-8.57143 -2.76781,-3.87492 -6.69563,-7.05169 -8.57143,-11.42857 -1.12549,-2.62613 0.56033,-5.76977 0,-8.57143 -0.41765,-2.08823 -2.34064,-3.64828 -2.85715,-5.71428 -0.17481,-0.69927 -5.61014,-34.01494 -5.71428,-34.28572 -2.75637,-7.16654 -8.18151,-13.04202 -11.42857,-20 -3.44108,-7.37374 -4.93239,-15.57906 -8.57143,-22.85714 -3.07134,-6.14267 -8.72325,-10.83043 -11.42857,-17.14286 -18.605947,-43.41387 9.07938,-1.84122 -14.28572,-48.57143 -2.7272,-5.4544 -8.951849,-8.71309 -11.428569,-14.28571 -4.486279,-10.09413 0.804236,-9.95768 2.857143,-17.14286 1.334104,-4.66936 1.904762,-9.52381 2.857143,-14.28571 1.269435,-6.34718 5.308123,-25.74224 5.714283,-31.42857 0.54284,-7.59969 0,-15.2381 0,-22.85715 0,-7.61904 0,-15.23809 0,-22.85714 0,-10.47619 0,-20.95238 0,-31.42857 0,-2.85714 0.31552,-5.73176 0,-8.57143 -3.581643,-32.23481 -2.40865,-2.95686 -14.285711,-45.71429 -2.055061,-7.39821 -0.878722,-15.43806 -2.857143,-22.85714 -3.737715,-14.01643 -13.996013,-25.8392 -17.142857,-40 -0.461973,-2.07887 3.158312,-3.6061 2.857142,-5.71428 C 70.70326,218.71359 67.336132,214.3706 65.714286,209.50506 64.350773,205.41452 60.3235,187.02577 60,183.79078 c -0.473827,-4.73828 0,-9.52381 0,-14.28572 0,-2.85714 0.469711,-5.75316 0,-8.57143 -2.095029,-12.57017 -5.344959,-5.0731 -2.857143,-20 0.350102,-2.10061 2.066234,-3.73701 2.857143,-5.71428 1.118515,-2.79629 2.029767,-5.67562 2.857143,-8.57143 1.078766,-3.77568 1.101039,-7.91637 2.857143,-11.42857 4.259177,-8.51836 12.417724,-14.58816 17.142857,-22.857145 1.494218,-2.614882 0.975753,-6.219692 2.857143,-8.571429 4.332104,-5.41513 21.703324,-11.996347 28.571424,-14.285714 2.85715,-0.952381 5.64966,-2.1267 8.57143,-2.857143 0.533,-0.133248 8.2445,-0.163464 8.57143,0 3.07134,1.535668 6.14333,3.286181 8.57143,5.714286 3.58676,3.586757 9.74789,16.07842 11.42857,20 1.18637,2.768182 1.73863,5.775142 2.85714,8.571425 3.95191,9.87976 1.49034,1.98711 8.57143,11.42857 2.55551,3.40735 3.15878,8.02123 5.71429,11.42858 1.61624,2.15499 4.22007,3.47295 5.71428,5.71428 0.52829,0.79243 -0.67343,2.18371 0,2.85714 0.67344,0.67344 1.95364,-0.30116 2.85715,0 16.18767,8.09384 -4.25918,-1.06479 11.42857,2.85715 2.066,0.5165 3.69398,2.18371 5.71428,2.85714 0.90351,0.30117 1.9332,-0.23099 2.85715,0 2.92177,0.73044 5.60071,2.36202 8.57143,2.85714 3.48943,0.58158 12.98323,0 17.14285,0 10.47619,0 20.95238,0 31.42857,0 13.48922,0 11.32225,0 22.85715,0 3.07231,0 8.21043,0.64363 11.42857,0 3.85051,-0.7701 7.61905,-1.90476 11.42857,-2.85714 z"
       id="path4136"
       inkscape:connector-curvature="0" />
  </g>
</svg>
