<?xml version="1.0" encoding="UTF-8" standalone="no"?>
<!-- Created with Inkscape (http://www.inkscape.org/) -->

<svg
   xmlns:dc="http://purl.org/dc/elements/1.1/"
   xmlns:cc="http://creativecommons.org/ns#"
   xmlns:rdf="http://www.w3.org/1999/02/22-rdf-syntax-ns#"
   xmlns:svg="http://www.w3.org/2000/svg"
   xmlns="http://www.w3.org/2000/svg"
   xmlns:sodipodi="http://sodipodi.sourceforge.net/DTD/sodipodi-0.dtd"
   xmlns:inkscape="http://www.inkscape.org/namespaces/inkscape"
   width="210mm"
   height="297mm"
   viewBox="0 0 744.09448819 1052.3622047"
   id="svg4365"
   version="1.1"
   inkscape:version="0.91 r13725"
   sodipodi:docname="filter-shadow-ridge.svg">
  <defs
     id="defs4367">
    <filter
       inkscape:label="Dark And Glow"
       inkscape:menu="Shadows and Glows"
       inkscape:menu-tooltip="Darkens the edge with an inner blur and adds a flexible glow"
       height="1.5"
       width="1.5"
       y="-0.25"
       x="-0.25"
       style="color-interpolation-filters:sRGB;"
       id="filter5581">
      <feGaussianBlur
         stdDeviation="4"
         result="result1"
         id="feGaussianBlur5583" />
      <feComposite
         in="result1"
         in2="result1"
         result="result4"
         operator="in"
         id="feComposite5585" />
      <feGaussianBlur
         stdDeviation="2"
         result="result6"
         in="result4"
         id="feGaussianBlur5587" />
      <feComposite
         operator="xor"
         in="result6"
         in2="result4"
         result="result8"
         id="feComposite5589" />
      <feComposite
         operator="atop"
         result="fbSourceGraphic"
         in="result4"
         in2="result8"
         id="feComposite5591" />
      <feSpecularLighting
         specularExponent="10"
         specularConstant="1.3"
         surfaceScale="3"
         lighting-color="rgb(255,255,255)"
         result="result1"
         in="fbSourceGraphic"
         id="feSpecularLighting5593">
        <feDistantLight
           azimuth="235"
           elevation="55"
           id="feDistantLight5595" />
      </feSpecularLighting>
      <feComposite
         operator="atop"
         result="result2"
         in="result1"
         in2="fbSourceGraphic"
         id="feComposite5597" />
      <feComposite
         k3="1"
         k2="1"
         operator="arithmetic"
         result="result4"
         in="fbSourceGraphic"
         in2="result2"
         id="feComposite5599" />
      <feComposite
         operator="over"
         in="result4"
         in2="SourceGraphic"
         id="feComposite5601" />
      <feBlend
         mode="multiply"
         in2="result2"
         id="feBlend5603"
         result="fbSourceGraphic" />
      <feColorMatrix
         result="fbSourceGraphicAlpha"
         in="fbSourceGraphic"
         values="0 0 0 -1 0 0 0 0 -1 0 0 0 0 -1 0 0 0 0 1 0"
         id="feColorMatrix5627" />
      <feGaussianBlur
         id="feGaussianBlur5629"
         stdDeviation="5"
         result="result6"
         in="fbSourceGraphic" />
      <feComposite
         id="feComposite5631"
         in2="result6"
         result="result8"
         in="fbSourceGraphic"
         operator="atop" />
      <feComposite
         id="feComposite5633"
         in2="fbSourceGraphicAlpha"
         result="result9"
         operator="over"
         in="result8" />
      <feColorMatrix
         id="feColorMatrix5635"
         values="1 0 0 0 0 0 1 0 0 0 0 0 1 0 0 0 0 0 1 0 "
         result="result10" />
      <feBlend
         id="feBlend5637"
         in2="result6"
         in="result10"
         mode="normal" />
    </filter>
  </defs>
  <sodipodi:namedview
     id="base"
     pagecolor="#ffffff"
     bordercolor="#666666"
     borderopacity="1.0"
     inkscape:pageopacity="0.0"
     inkscape:pageshadow="2"
     inkscape:zoom="0.35"
     inkscape:cx="-126.42857"
     inkscape:cy="520"
     inkscape:document-units="px"
     inkscape:current-layer="layer1"
     showgrid="false"
     inkscape:window-width="1920"
     inkscape:window-height="1058"
     inkscape:window-x="-8"
     inkscape:window-y="-8"
     inkscape:window-maximized="1" />
  <metadata
     id="metadata4370">
    <rdf:RDF>
      <cc:Work
         rdf:about="">
        <dc:format>image/svg+xml</dc:format>
        <dc:type
           rdf:resource="http://purl.org/dc/dcmitype/StillImage" />
        <dc:title></dc:title>
      </cc:Work>
    </rdf:RDF>
  </metadata>
  <g
     inkscape:label="Layer 1"
     inkscape:groupmode="layer"
     id="layer1">
    <path
       style="fill:#ff0000;fill-opacity:1;fill-rule:evenodd;stroke:#000000;stroke-width:1;stroke-linejoin:round;stroke-miterlimit:4;stroke-dasharray:none;stroke-opacity:1;filter:url(#filter5581)"
       d="m 502.85714,206.64792 c -15.23809,0 -30.47619,0 -45.71428,0 -5.71429,0 -11.44831,-0.47455 -17.14286,0 -69.01971,5.75164 81.94545,1.1354 -60,5.71428 -36.276,1.1702 -39.21877,-2.4797 -68.57143,2.85715 -13.41607,2.43928 -26.73479,5.41304 -40,8.57143 -7.54922,1.79743 -21.35243,0.89557 -22.85714,11.42857 -0.67344,4.71404 0,9.52381 0,14.28571 0,13.33334 0,26.66667 0,40 0,75.65799 0.8269,-41.8758 -2.85714,42.85714 -0.62054,14.27224 1.29336,28.6301 0,42.85715 -0.62773,6.90496 -4.66001,13.14718 -5.71429,20 -0.8689,5.64784 0.56859,11.45693 0,17.14285 -1.47862,14.7862 -7.94263,12.7818 -2.85714,31.42858 1.25294,4.59411 4.79703,8.52518 8.57143,11.42857 26.51297,20.39459 37.4568,20.07849 71.42857,28.57143 8.51835,2.12958 17.10428,3.99228 25.71428,5.71428 0.93389,0.18678 2.43123,-0.85183 2.85715,0 0.85183,1.70367 0,3.80953 0,5.71429 0,0.95238 0.79242,2.32885 0,2.85714 -2.50588,1.67059 -5.98893,1.30764 -8.57143,2.85714 -7.02518,4.21511 -12.90361,10.19165 -20,14.28572 -56.72006,32.72311 -53.38982,26.88256 -114.28572,54.28571 -30.95155,13.9282 -72.31798,28.14901 -91.42857,60 -3.69109,6.15182 -4.1864,27.4408 -2.85714,31.42857 1.08588,3.25765 7.03576,2.64295 8.57143,5.71429 3.5122,7.02441 3.80952,15.23809 5.71428,22.85714 3.80953,9.52381 6.48531,19.58368 11.42857,28.57143 5.60245,10.18627 12.30846,19.85435 20,28.57143 12.05078,13.65754 39.0328,32.37354 54.28572,40 11.86469,5.93235 24.36166,10.73538 37.14286,14.28571 5.37612,1.49337 13.8195,-3.78956 17.14285,2.85715 4.06182,8.12364 2.85715,10.69757 2.85715,20 0,3.80952 0,7.61904 0,11.42857 0,3.80952 0,7.61905 0,11.42857 0,2.85714 -0.40407,5.743 0,8.57143 0.55532,3.8873 2.08704,7.57806 2.85714,11.42857 1.13612,5.68061 -0.017,12.11303 2.85714,17.14286 1.49422,2.61488 5.87769,1.51027 8.57143,2.85714 7.75885,3.87942 12.97045,11.42857 22.85714,11.42857 2.12959,0 0.83684,-5.04085 2.85715,-5.71429 10.68859,-3.56286 21.0123,3.55157 31.42857,2.85715 26.25346,-1.75023 26.89608,-8.55649 51.42857,-17.14286 10.24918,-3.58721 21.31638,-4.61448 31.42857,-8.57143 12.30026,-4.81314 51.07434,-25.60365 62.85714,-34.28571 9.23253,-6.80292 17.93565,-14.43028 25.71429,-22.85715 3.76668,-4.08057 5.87451,-9.43126 8.57143,-14.28571 4.82332,-8.68198 4.12685,-13.75657 14.28571,-17.14286 2.71053,-0.9035 5.71429,0 8.57143,0 12.5502,0 4.63762,-1.27775 14.28571,2.85715 4.71405,2.0203 9.78323,3.25838 14.28572,5.71428 25.23627,13.76524 8.65646,10.50454 37.14286,20 1.80701,0.60234 3.80952,0 5.71428,0 0.95238,0 -3.80952,0 -2.85714,0 13.01587,0 2.53968,1.90476 5.71428,-2.85714 1.49422,-2.24133 4.50961,-3.30493 5.71429,-5.71429 8.72598,-17.45195 5.71429,-24.91645 5.71429,-45.71428 0,-6.66667 0,-13.33334 0,-20 0,-7.61905 0.50681,-15.25497 0,-22.85715 -0.44797,-6.71943 -1.42657,-13.41935 -2.85715,-20 -13.76477,-63.31795 -8.87259,-32.33207 -31.42857,-100 -4.38509,-13.15527 -6.6124,-26.99635 -11.42857,-40 -4.73599,-12.78716 -11.04464,-24.94643 -17.14286,-37.14285 -2.4835,-4.96701 -7.11026,-8.92811 -8.57143,-14.28572 -1.50352,-5.51293 0,-11.42857 0,-17.14285 0,-6.66667 0,-13.33334 0,-20 0,-2.85715 -0.56033,-5.76977 0,-8.57143 0.41765,-2.08824 1.90477,-3.80953 2.85715,-5.71429 0.95238,-6.66666 2.37734,-13.28276 2.85714,-20 0.47498,-6.64972 0,-13.33333 0,-20 0,-12.38095 0,-24.7619 0,-37.14286 0,-7.61904 0,-15.23809 0,-22.85714 0,-0.4902 -0.34924,-16.09515 0,-17.14286 0.42592,-1.27775 2.16418,-1.70221 2.85714,-2.85714 2.19133,-3.65221 2.7026,-8.41688 5.71429,-11.42857 3.01169,-3.01169 7.61905,-3.80952 11.42857,-5.71429 1.90476,-0.95238 4.43653,-1.15347 5.71429,-2.85714 4.39006,-5.85342 2.85714,-18.29949 2.85714,-25.71428 0,-1.28674 0.43476,-7.70191 0,-8.57143 -0.60234,-1.20468 -2.25481,-1.65247 -2.85714,-2.85715 -1.34687,-2.69374 -1.05013,-6.16207 -2.85715,-8.57142 -1.27775,-1.70367 -3.80952,-1.90477 -5.71428,-2.85715 -1.90476,-0.95238 -3.64828,-2.34064 -5.71429,-2.85714 -2.55081,-0.6377 -10.97849,0 -14.28571,0 -0.95238,0 -2.18371,0.67344 -2.85715,0 -1.50584,-1.50585 -0.95238,-4.7619 -2.85714,-5.71429 -2.5555,-1.27775 -5.8609,0.90351 -8.57143,0 -0.90351,-0.30116 0.67344,-2.1837 0,-2.85714 -1.34687,-1.34687 -3.90727,0.60234 -5.71428,0 -2.02031,-0.67343 -3.69398,-2.18371 -5.71429,-2.85714 -0.90351,-0.30117 -2.18371,0.67343 -2.85714,0 -0.67344,-0.67344 0.67343,-2.18371 0,-2.85714 -1.42857,-1.42858 -7.14286,1.42857 -8.57143,0 -1.34687,-1.34687 1.34687,-4.36742 0,-5.71429 -0.67344,-0.67343 -2.00531,0.42592 -2.85714,0 -1.20468,-0.60234 -1.90476,-1.90476 -2.85715,-2.85714 -0.95238,-0.95238 -2.2548,-1.65247 -2.85714,-2.85715 -0.42592,-0.85183 0.67344,-2.1837 0,-2.85714 -0.67343,-0.67343 -2.18371,0.67344 -2.85714,0 -1.42857,-1.42857 1.42857,-7.14286 0,-8.57143 -1.34687,-1.34687 -4.36742,1.34687 -5.71429,0 -0.67343,-0.67343 -0.67343,-2.1837 0,-2.85714 0.67344,-0.67343 1.90476,0 2.85715,0 0.95238,0 2.85714,-0.95238 2.85714,0 0,0.95238 -2.43123,0.85184 -2.85714,0 -1.75611,-3.51221 -1.90477,-7.61905 -2.85715,-11.42857 z"
       id="path4913"
       inkscape:connector-curvature="0" />
  </g>
</svg>
