<?xml version="1.0" encoding="UTF-8" standalone="no"?>
<!--
************* Copyright (c) 2015 Pareto Softare, LLC DBA Simplemaps.com *******************		
************* Free for Commercial Use, full terms at  http://simplemaps.com/resources/svg-license ************
************* Attribution is appreciated! http://simplemaps.com ***************************
-->

<svg
   xmlns:dc="http://purl.org/dc/elements/1.1/"
   xmlns:cc="http://creativecommons.org/ns#"
   xmlns:rdf="http://www.w3.org/1999/02/22-rdf-syntax-ns#"
   xmlns:svg="http://www.w3.org/2000/svg"
   xmlns="http://www.w3.org/2000/svg"
   xmlns:sodipodi="http://sodipodi.sourceforge.net/DTD/sodipodi-0.dtd"
   xmlns:inkscape="http://www.inkscape.org/namespaces/inkscape"
   enable_background="new 0 0 1000 1045"
   height="2006"
   pretty_print="True"
   style="fill:none;stroke:#000000;stroke-linejoin:round"
   version="1.1"
   viewBox="0 0 1920 2006"
   width="1920"
   id="svg2"
   inkscape:version="0.91 r13725"
   sodipodi:docname="Italy.svg">
  <sodipodi:namedview
     pagecolor="#ffffff"
     bordercolor="#666666"
     borderopacity="1"
     objecttolerance="10"
     gridtolerance="10"
     guidetolerance="10"
     inkscape:pageopacity="0"
     inkscape:pageshadow="2"
     inkscape:window-width="1920"
     inkscape:window-height="1058"
     id="namedview121"
     showgrid="false"
     inkscape:zoom="1.2775288"
     inkscape:cx="666.52407"
     inkscape:cy="1631.0673"
     inkscape:window-x="-8"
     inkscape:window-y="-8"
     inkscape:window-maximized="1"
     inkscape:current-layer="svg2" />
  <defs
     id="defs4">
    <style
       type="text/css"
       id="style6"><![CDATA[path { fill-rule: evenodd; }]]></style>
  </defs>
  <metadata
     id="metadata8">
    <views>
      <view
         h="1045.25675987"
         padding="0"
         w="1000">
        <proj
           flip="auto"
           id="robinson"
           lon0="10.9462048711" />
        <bbox
           h="172.35"
           w="165.04"
           x="87.6"
           y="-787.46" />
      </view>
    </views>
    <rdf:RDF>
      <cc:Work
         rdf:about="">
        <dc:format>image/svg+xml</dc:format>
        <dc:type
           rdf:resource="http://purl.org/dc/dcmitype/StillImage" />
        <dc:title></dc:title>
      </cc:Work>
    </rdf:RDF>
  </metadata>
  <g
     class=""
     id="provinces"
     transform="matrix(1.7574266,0,0,1.6999489,154.97025,186.45983)">
    <path
       d="m 369.4,213.1 -8.4,-3 -6.6,0.9 -1.9,1.7 -6.8,2.2 -0.1,0 -0.7,1.4 0,2.7 -2.6,1.3 -2,5.1 2.1,1.7 -2,6.2 1.2,5.5 -3,4.2 -0.4,6.8 -3.3,5.5 -4.2,3.1 -1.6,3.9 -1.4,1.1 -2.8,5.2 -4.9,1.4 -0.8,1.3 -0.3,4.6 -2.8,6.2 -0.5,0.5 0.4,1.1 0.8,2.6 2.6,2.4 5.6,3.8 2.3,-0.2 0.5,-0.5 7.1,-3.1 2.2,0.8 5.6,3.6 1.2,0.4 -0.6,-1.7 0.8,-5.2 2.4,-4.6 5.2,1.6 1.5,-0.1 2.3,-3 0.1,-1.4 -1.7,-2.7 0.8,-1.4 4.8,-0.5 1,-9 -0.4,-2.3 -2.9,-1.4 0.4,-2.5 2.3,-0.6 1.7,-2 0.2,-3 4.3,-1.5 1.3,-3.3 -0.5,-3.3 -1.9,-2.7 -2.7,-1.8 2.1,-5.9 1.3,-7.2 1.6,-1.1 9.1,-1.2 2.4,0.1 0.9,-1.7 4.9,-2.2 -2.7,-2.6 -7.3,-2.9 -1.1,-0.7 1.1,-1.7 0.5,-2.4 -5.7,1.5 z"
       data-id="IT.MO"
       data-name="Modena"
       id="IT.MO"
       inkscape:connector-curvature="0"
       style="fill-rule:evenodd" />
    <path
       d="m 344.7,214.4 -1.4,-0.8 -7.8,-1.6 -1,-3.3 -1.1,-0.8 -4.9,-0.2 -3.5,4.7 -2.5,1.6 -2.8,0.7 -5,-0.3 -0.2,-0.1 -0.5,0.8 -1.9,1.1 -0.2,4.7 -2.2,5.6 -0.1,2.5 0.7,6 -1.2,3.6 -1,10.2 -2.8,2.8 -3.8,5.2 -3.8,3.6 -3.3,4.4 -5.5,3.7 -1,2.6 2.8,1.5 3.8,2.9 2.9,2.7 0.4,-0.1 0.8,-0.2 7,-0.2 5.5,4.2 4.5,0.7 0.5,-0.5 2.8,-6.2 0.3,-4.6 0.8,-1.3 4.9,-1.4 2.8,-5.2 1.4,-1.1 1.6,-3.9 4.2,-3.1 3.3,-5.5 0.4,-6.8 3,-4.2 -1.2,-5.5 2,-6.2 -2.1,-1.7 2,-5.1 2.6,-1.3 0,-2.7 0.7,-1.4 -0.9,-0.5 z"
       data-id="IT.RE"
       data-name="Reggio Emilia"
       id="IT.RE"
       inkscape:connector-curvature="0"
       style="fill-rule:evenodd" />
    <path
       d="m 312.6,213.9 -2.8,-1.3 -2.7,-4.7 -1.2,-0.6 -3.9,0.7 -1.9,-0.7 -8.5,-4.7 -3.3,-0.8 -6.2,1.1 -2.7,-0.2 -1.1,0.9 -1.5,3.6 -2.8,3.1 1,8.7 -1.3,1.7 -4.8,2.1 -2.6,2.2 -1.9,4.5 -4.3,1.6 -3.7,4.2 0.2,1.8 -1.1,1.1 -9.2,0.9 -2.5,3.8 -7.5,7.1 -1.3,0.5 0.4,2.2 -0.6,3 -2.7,2.9 -0.8,5.4 1.2,0.3 1.9,-0.1 0.9,-0.3 1.4,-1.2 7.5,0 4.3,2.1 2,3.6 1.4,1.1 -0.3,-0.5 4.5,-2.2 2.5,-3.9 1.9,-2 5,-3.7 5.6,1.3 5.2,2.9 -0.9,2.7 5.6,4.3 1.8,1.7 5.1,1 0,0 1,-2.6 5.5,-3.7 3.3,-4.4 3.8,-3.6 3.8,-5.2 2.8,-2.8 1,-10.2 1.2,-3.6 -0.7,-6 0.1,-2.5 2.2,-5.6 0.2,-4.7 1.9,-1.1 0.5,-0.8 -1.9,-0.4 z"
       data-id="IT.PR"
       data-name="Parma"
       id="IT.PR"
       inkscape:connector-curvature="0"
       style="fill-rule:evenodd" />
    <path
       d="m 277.2,199.9 -2.2,-4.4 -2.9,-1.8 -5.6,2.1 0.5,-2.2 -1.6,-0.8 -1.6,0.4 0.2,1.6 1.3,1.8 -5.2,3.1 -1.8,-1.6 -4.9,-2.3 0.1,2.5 -2.3,1 -3.3,-0.3 -3.9,-2.3 -0.6,-3 -3,1.6 -1.4,-0.2 -1.8,-2 -0.5,0.2 0,0 0.2,3.5 -1.1,0.9 -1.7,-1.3 -7,0 -3.1,5.6 -5.8,12.9 -0.1,1.1 2,2.3 1.5,0.6 1.2,4.6 -3.7,6.6 1.1,2.8 0.2,2.7 -1.3,0.9 -3.3,-0.8 -1.2,-1.2 -0.3,3.1 -0.7,0.4 -2.6,-0.3 0.5,6.7 0.9,-0.4 5.5,0.7 6.4,2.8 6.5,0.9 4.1,1.8 0.1,0.3 1.3,-0.5 7.5,-7.1 2.5,-3.8 9.2,-0.9 1.1,-1.1 -0.2,-1.8 3.7,-4.2 4.3,-1.6 1.9,-4.5 2.6,-2.2 4.8,-2.1 1.3,-1.7 -1,-8.7 2.8,-3.1 1.5,-3.6 1.1,-0.9 -2.2,-2.8 z"
       data-id="IT.PC"
       data-name="Piacenza"
       id="IT.PC"
       inkscape:connector-curvature="0"
       style="fill-rule:evenodd" />
    <path
       d="m 376.4,225.7 -9.1,1.2 -1.6,1.1 -1.3,7.2 -2.1,5.9 2.7,1.8 1.9,2.7 0.5,3.3 -1.3,3.3 -4.3,1.5 -0.2,3 -1.7,2 -2.3,0.6 -0.4,2.5 2.9,1.4 0.4,2.3 -1,9 -4.8,0.5 -0.8,1.4 1.7,2.7 -0.1,1.4 -2.3,3 -1.5,0.1 -5.2,-1.6 -2.4,4.6 -0.8,5.2 0.6,1.7 0,0 9,4.5 2.9,-3.4 2.1,-3.7 2.1,1.2 -1,1.1 3.3,2.4 0.5,0 12,-1.3 0.2,0.1 0,0 1.2,0.2 2.6,-2 -4.3,-2.7 0.5,-0.9 7,-1.1 3.9,-3.7 1.5,0 2,-1.9 3.7,0 4.5,5.2 3.5,1.2 0,0 1,-3.8 2.4,-2.8 3.8,-1.4 4.6,-7.3 2.7,1.1 3.2,-1.2 4.7,-7.5 -0.1,-1.7 -2.4,-1.7 -0.3,-2.9 -3.6,-3.4 -0.4,-1.6 3.1,-1.9 0.3,-2.4 -2.3,-1.7 2.5,-4.8 -2.2,-2.6 -1.7,-0.4 -4.4,2.1 -1.7,-0.6 -5.7,-5.9 -11.5,-5.5 -4.5,-1.1 -3.1,-1.4 -1.6,0.7 -5.1,5.7 -2.4,0 0.3,-6.8 2.1,-2.1 -2.4,-0.1 z"
       data-id="IT.BO"
       data-name="Bologna"
       id="IT.BO"
       inkscape:connector-curvature="0"
       style="fill-rule:evenodd" />
    <path
       d="m 388.3,211.3 -4.1,-0.8 -5.5,-0.2 -2.1,1.8 -1.5,-0.5 -0.5,2.4 -1.1,1.7 1.1,0.7 7.3,2.9 2.7,2.6 -4.9,2.2 -0.9,1.7 -2.1,2.1 -0.3,6.8 2.4,0 5.1,-5.7 1.6,-0.7 3.1,1.4 4.5,1.1 11.5,5.5 5.7,5.9 1.7,0.6 4.4,-2.1 1.7,0.4 2.2,2.6 -2.5,4.8 2.3,1.7 3,-0.6 2.1,0.5 2,-2.4 10.1,-1.6 1.6,3.2 3.6,1.2 8.8,-1.2 3.6,-2 3.5,-4.5 -0.4,-0.6 -1.2,-3.2 -0.8,-4.2 0.4,-3.9 1.7,-6.8 -1.2,-0.6 2,-1.7 2.4,1 4.6,4 1.5,-0.1 -3.7,-2.4 -1.5,-3.2 -3.3,-1.4 -1.4,-7 -4.6,1 -6.1,-0.8 -2.7,-2.5 -2.4,-1.1 -12.6,-0.8 -5,-0.7 -5.7,0.8 -13.7,8.1 -1.3,-0.3 -4.4,-3 -5.3,-1.4 -4.5,0.5 -0.9,-1.2 z"
       data-id="IT.FE"
       data-name="Ferrara"
       id="IT.FE"
       inkscape:connector-curvature="0"
       style="fill-rule:evenodd" />
    <path
       d="m 468.6,280 -4.7,-10.8 -0.5,-2.6 -3.1,-9.8 -1.5,-13.1 -0.4,-0.9 -3.5,4.5 -3.6,2 -8.8,1.2 -3.6,-1.2 -1.6,-3.2 -10.1,1.6 -2,2.4 -2.1,-0.5 -3,0.6 -0.3,2.4 -3.1,1.9 0.4,1.6 3.6,3.4 0.3,2.9 2.4,1.7 0.1,1.7 -4.7,7.5 -3.2,1.2 -2.7,-1.1 -4.6,7.3 -3.8,1.4 -2.4,2.8 -1,3.8 2,0 4.5,1.5 -1,0.9 0.9,1.4 4.1,0.5 2,-0.9 3.3,-0.4 0,0 0.2,-2.4 3,-4 2,0.9 2.9,-0.7 4,1.8 2.8,-2.7 2.2,-3 2.7,-2 4.2,-7.4 2.8,2.8 1,0 3.6,3.6 8.4,4.9 3.5,-1.6 1.9,0.3 5.1,3.6 2.9,-3.6 -1.5,-2.2 z"
       data-id="IT.RA"
       data-name="Ravenna"
       id="IT.RA"
       inkscape:connector-curvature="0"
       style="fill-rule:evenodd" />
    <path
       d="m 416.9,291.7 0.2,0 2,1 -3.7,8.2 -3.4,2.5 0.9,3.1 1.9,1.5 2.6,7.9 0.6,0.6 0.4,0.3 7.4,4.8 5.4,0.9 7.8,4.4 9.1,1.8 1.8,-0.5 0.7,-3.4 2.2,-3.8 0.9,-9.1 6.8,0.4 6.4,-3.6 5.1,-7 -2.8,-2.3 4.8,-2.9 1.6,-4.2 -1.6,-2.1 2.3,-1.9 0,0 -3.5,-2.8 -2.3,-2.7 -0.4,-0.6 -2.9,3.6 -5.1,-3.6 -1.9,-0.3 -3.5,1.6 -8.4,-4.9 -3.6,-3.6 -1,0 -2.8,-2.8 -4.2,7.4 -2.7,2 -2.2,3 -2.8,2.7 -4,-1.8 -2.9,0.7 -2,-0.9 -3,4 -0.2,2.4 z"
       data-id="IT.FC"
       data-name="Forlì-Cesena"
       id="IT.FC"
       inkscape:connector-curvature="0"
       style="fill-rule:evenodd" />
    <path
       d="m 501.3,307.3 -7.7,-3.5 -2.5,-2.1 -4.9,-5.5 -2.3,-0.7 -5.8,-4.5 -1.8,-2.7 -2.3,1.9 1.6,2.1 -1.6,4.2 -4.8,2.9 2.8,2.3 -5.1,7 -6.4,3.6 -6.8,-0.4 -0.9,9.1 -2.2,3.8 -0.7,3.4 1,-0.3 2.1,0 2.5,1.6 8.9,-2.3 0.3,0.1 0.2,-0.7 -0.4,-1.9 3.8,-3.2 1.8,-4.6 4.8,-2 -1.8,-0.8 -1.2,-2.1 0.6,-2.3 6.8,-3.4 0.6,1 -0.2,4.3 0,0 5.4,3 1.1,2.3 1.8,-2.1 1.1,0.9 7.4,3.6 4.2,-4.7 0.7,-7.3 -0.1,0 z m -43.7,18.8 -2.4,-2.3 1,-1.4 3.4,0.4 -2,3.3 z"
       data-id="IT.RN"
       data-name="Rimini"
       id="IT.RN"
       inkscape:connector-curvature="0"
       style="fill-rule:evenodd" />
    <path
       d="m 211.2,245.8 -2.3,1.5 -2.8,0.1 -2.3,-1.4 -0.7,-1.7 -11.6,-6.7 -3.6,0.6 -0.3,1.3 -2.5,3.2 2.8,6 -6,0.9 -1.9,3.1 -3.1,2.7 -0.2,-2.1 -11.1,-6.4 -2.7,2.9 0.4,0.9 -1.5,2.4 -1.4,0.9 3,2.4 4.1,0.3 1.5,3.2 -0.7,0.9 -5.6,2.2 0.4,1.5 3.2,2.7 1.9,-1.3 6.5,-3.3 2,-0.4 5.3,0.4 3.4,1.8 3.7,0.1 7.1,2.1 8.2,1.3 2.3,1.1 1.6,2.3 5.1,3.4 -0.1,-1.6 1.5,-3.2 2.7,1.7 8.7,4.1 0.6,2.3 3.9,1.4 1.3,1.7 4.3,0.9 0.8,0.9 1,0.6 2.7,-4.1 2,0.4 -0.9,-3 -4.9,-4.3 1,-2.7 -3.7,-4.1 0.1,-1.5 -1.9,0.1 -1.2,-0.3 0.8,-5.4 2.7,-2.9 0.6,-3 -0.4,-2.2 -0.1,-0.3 -4.1,-1.8 -6.5,-0.9 -6.4,-2.8 -5.5,-0.7 -0.9,0.4 -0.3,1.4 z"
       data-id="IT.GE"
       data-name="Genova"
       id="IT.GE"
       inkscape:connector-curvature="0"
       style="fill-rule:evenodd" />
    <path
       d="m 135.9,252.9 -0.9,-0.7 -1.1,0.2 -2,10.8 -3.7,2.8 -1.7,4.3 -3.5,3 -1.4,6.2 0.3,4 0.8,1 -1.8,4.1 -0.9,0.5 -4,-0.2 0.7,3.8 -0.1,0.3 2.7,3.3 0.5,1.7 -3.6,4.5 0.7,2.1 2.5,1.3 5.1,0.8 3.2,3.8 1.1,-1.2 0.5,-3 1.3,-2.3 3.6,-3.8 1.2,-5.7 3.9,-4.4 2.3,-1.2 6.5,-2.2 1.2,-4.3 1.8,-1.4 1.1,-2.3 -0.5,-1.9 1.7,-2 10,-5.8 2.9,-1.8 -3.2,-2.7 -0.4,-1.5 5.6,-2.2 0.7,-0.9 -1.5,-3.2 -4.1,-0.3 -3,-2.4 -7.1,-0.2 -6.9,1.1 -1.4,2 -4.8,-1 -3.7,-2.3 -0.2,-0.2 -0.4,-0.5 z"
       data-id="IT.SV"
       data-name="Savona"
       id="IT.SV"
       inkscape:connector-curvature="0"
       style="fill-rule:evenodd" />
    <path
       d="m 116.5,293.2 -15.6,-1.2 -4.1,-1.5 -2.2,2.9 0.7,1.1 -3.9,1.2 0.3,0.6 -0.1,1.7 -2.9,2.7 -3.3,6.3 -4.1,3.1 -1.6,2.3 -3.3,3.4 -1.2,2 0.5,2.5 1.7,4.7 15.6,0.1 3.4,-0.7 3.9,-2.3 13.9,-3.1 5.7,-3.3 2.9,-0.9 1,-1.9 2.7,-1.2 1.2,-1.2 -3.2,-3.8 -5.1,-0.8 -2.5,-1.3 -0.7,-2.1 3.6,-4.5 -0.5,-1.7 -2.7,-3.3 -0.1,0.2 z"
       data-id="IT.IM"
       data-name="Imperia"
       id="IT.IM"
       inkscape:connector-curvature="0"
       style="fill-rule:evenodd" />
    <path
       d="m 250.5,268.4 -2,-3.6 -4.3,-2.1 -7.5,0 -1.4,1.2 -0.9,0.3 -0.1,1.5 3.7,4.1 -1,2.7 4.9,4.3 0.9,3 -2,-0.4 -2.7,4.1 3.7,1.5 5.5,5.1 4.2,0.7 8.3,6 3.9,1.6 1.2,1.1 -1.3,-4 1.9,-1.5 2.7,2 7.2,4.2 4.1,-0.7 1.1,0.3 1.8,-4.9 -3,-1.7 -4.2,-4.3 -5.7,-0.8 0.2,-3.1 -3.2,1.4 -0.9,-6.2 -1.4,-1.3 -7.1,-4.2 -3,-2.4 -2.2,-2.8 -1.4,-1.1 z"
       data-id="IT.SP"
       data-name="La Spezia"
       id="IT.SP"
       inkscape:connector-curvature="0"
       style="fill-rule:evenodd" />
    <path
       d="m 164.1,789.5 -0.7,5.7 1.4,3.4 3.2,4.9 1.8,2.1 1.9,-3.5 2.8,-7.7 -1.7,0.5 -1.6,-3.8 -4.9,-0.3 -2.2,-1.3 z m -4.5,1.4 0.5,-1.6 -0.8,-7.5 -4.9,1.3 -1.3,0.8 2.3,6.7 1.2,0.7 3,-0.4 z m 7,-33.8 -0.5,3.2 -1.4,1.7 0.4,2.9 3,2.1 -0.1,1.5 1.4,2.3 -0.4,1.9 -4.2,6.2 5.4,5.7 0.3,1.3 3.9,7.5 1.8,-1.1 1.1,0.7 0.3,2.3 2,1 1.3,-0.5 1.2,4.4 0.8,5.4 1.9,-0.4 0.6,1 2.9,-4.5 0.8,-3.8 4,0.6 3.1,-2 5.8,0.3 2.3,-1.9 0.5,-2.3 -2.9,-7.4 -4.5,-2.7 -0.8,-2 -1.2,-6.2 -2.3,-2.6 -1.5,-4.9 0.3,-2.7 -0.6,-0.8 -3.5,-0.3 -8.8,-7.8 -4.5,-2.8 -3.8,1.7 -2.1,-0.3 -2.5,2.3 0.5,1 z"
       data-id="IT.CI"
       data-name="Carbonia-Iglesias"
       id="IT.CI"
       inkscape:connector-curvature="0"
       style="fill-rule:evenodd" />
    <path
       d="m 213.2,722.5 -3,-0.9 -1,0.7 -3,7.1 -3.9,4.2 -7.5,3.6 -3.5,-0.7 -2.7,0.5 -4.2,-2.6 -3.2,-3.5 -3.5,-0.4 -0.8,0.2 -3.3,-2 -2.7,-3.9 -2,-0.3 1.5,17.5 0.7,0.8 -3.2,6.9 -2.2,2.8 -0.3,1.9 0.7,1.7 2.5,-2.3 2.1,0.3 3.8,-1.7 4.5,2.8 8.8,7.8 3.5,0.3 4.1,-2.2 2.7,-0.7 12.3,0.4 3.9,-2.3 -1,-3.5 3.4,-3.1 -0.2,-3.3 -1.1,-2.2 1,-4.8 2.4,-5.1 1.6,-11.2 -0.7,-0.3 -4.6,-0.8 -1.9,-1.7 z"
       data-id="IT.VS"
       data-name="Medio Campidano"
       id="IT.VS"
       inkscape:connector-curvature="0"
       style="fill-rule:evenodd" />
    <path
       d="m 180.9,667.3 -3.8,-4.9 -3.5,-3.8 -1.7,-1.1 -4.7,2.5 -5,-1.5 -0.5,4.1 0.3,2 1.8,1.4 0.6,-0.7 4,3.1 1.2,2.2 0.1,3 -1.2,4.7 2.8,12.7 -0.7,1.5 -7.7,3.3 2,2 -1,4.5 0.8,3.8 -0.6,1.9 2.2,2.9 1.5,3.4 1.2,-3.5 -1.4,-0.6 2.3,-1.5 2.6,0.1 2.4,1.4 2.6,3.5 0.2,1.2 -1,6.4 0.4,0.6 -3,4.5 0.7,2.5 4.3,1.3 -1.4,0.3 3.5,0.4 3.2,3.5 4.2,2.6 2.7,-0.5 3.5,0.7 7.5,-3.6 3.9,-4.2 3,-7.1 1,-0.7 3,0.9 1.9,1.7 2.1,-3.1 2.6,-2.6 3.1,-1.5 4.5,0.1 0.4,0.1 -0.3,-3.4 -2.1,-1.3 -4.3,-1.2 -4,-2.2 -2.6,-0.8 -1.3,-1.4 1.8,-5 -0.4,-0.8 -4.1,-0.9 -0.3,-3.1 2.3,-2.4 3.5,1.5 1.3,-3.2 -2.1,-4.7 -0.3,-3.1 -1.6,-5.3 -3.1,-1.6 -16.2,1.8 -3.6,-1.3 -2.9,0 -2.4,-4.5 -2.9,-1.2 -1.5,-4 0.7,-1.2 -0.5,-0.6 z"
       data-id="IT.OR"
       data-name="Oristrano"
       id="IT.OR"
       inkscape:connector-curvature="0"
       style="fill-rule:evenodd" />
    <path
       d="m 162.2,658.5 5,1.5 4.7,-2.5 1.7,1.1 3.5,3.8 3.8,4.9 0.5,0.6 0.4,0.2 0.9,0.8 2.9,-0.1 3.2,-3.1 8.7,-3.4 -0.3,-3.1 0.8,-0.7 2.8,2 1.9,0.2 5,1.8 5.1,5.6 3.4,-0.5 1.4,-1.1 10,-3.8 1.4,-2.9 3.8,-6.4 2,-1.3 -1.5,-2.9 -3.8,0.3 -2,-2.1 0,-1.3 -0.3,-1 0.6,-5.2 -0.3,-2 -1.5,-3.6 -1.4,-0.8 -3.4,1.6 -8.3,-3.1 -1.1,-1.9 1,-1.5 0.3,-7.1 -2.9,-5.9 -1.7,-1.1 -5.7,-0.4 -0.7,-2 6.8,-2.6 0.3,-1.6 -1.7,-3.3 -2.5,-0.5 -3.4,2.2 -6.8,-0.5 -3.7,2.7 -4.6,-0.7 -5.5,2.4 -3.4,4.3 -6.3,2.6 -17.4,-2.4 -2.7,-1.4 -3.8,-4.5 0.1,-4.4 -2.9,-2.1 -1.8,4.7 2.6,1.4 0.6,1.5 -0.4,3.4 -5.8,13.6 4.7,4.8 -0.2,2.4 -3.5,3.1 1.9,6.2 2.4,-5.4 1.9,0.5 -1.5,3.5 1.7,0.7 4.1,-2.3 2,-0.2 1.8,1.8 1.8,6.7 2.9,1.9 1.2,2.3 1.4,4.5 -0.2,1.1 z m -7.4,-69.1 -0.6,-2.1 -3.9,5.6 -1.2,0.6 -4,6.8 3.1,0.2 0.2,-5 1.9,-1.3 4.7,-0.7 0.6,-3.3 -0.8,-0.8 z"
       data-id="IT.SS"
       data-name="Sassari"
       id="IT.SS"
       inkscape:connector-curvature="0"
       style="fill-rule:evenodd" />
    <path
       d="m 271.5,613.8 0.4,-0.9 -2.6,-0.4 2.2,1.3 z m -0.2,-5.2 -0.6,-1.2 -4.5,3.2 1.2,0.4 3.9,-2.4 z m -11.8,-15.8 0.1,-0.8 -0.5,0.1 0.4,0.7 z m -15.9,-12.8 -0.8,-0.7 0,2.2 0.8,-1.5 z m 4.4,1 0.6,-2.7 -1.7,-2.5 -1.7,5.6 2.8,1.4 0,-1.8 z m -27.3,-5.6 0.5,1.6 0.5,-0.3 -1,-1.3 z m 17.3,1.4 0.1,-1.5 -1.7,-0.3 1.6,1.8 z m 7,1.5 -1.3,-4.3 -2,0.4 -1.9,3.4 5.2,0.5 z m -50.2,27.5 6.8,0.5 3.4,-2.2 2.5,0.5 1.7,3.3 -0.3,1.6 -6.8,2.6 0.7,2 5.7,0.4 1.7,1.1 2.9,5.9 -0.3,7.1 -1,1.5 1.1,1.9 8.3,3.1 3.4,-1.6 1.4,0.8 1.5,3.6 0.3,2 -0.6,5.2 0.3,1 10.6,-1.4 5.3,-3.7 3,-6.6 1,-0.6 6.9,0.6 4.3,-3.6 2.2,-0.9 3.9,0.9 2.7,2.3 5.7,0.6 -0.1,-0.7 -3,-5.9 -1,-3.3 -2.5,-2.9 0.3,-4.1 3.5,-1.5 -2.9,-1.1 -0.6,-0.9 -2.1,0.1 -0.2,-1.2 -3.5,-2.3 2.2,-2.1 -1.6,-0.3 -4,1.7 -2.9,-1.4 -2.9,-0.6 0.6,-0.8 4.5,-1.4 1.5,-4.7 1.3,-0.7 4,1.2 0.8,-1.2 -3.9,-1.7 -2.3,-0.1 -2.8,1.1 -0.9,-2.7 -1.5,0.6 0.7,1.5 -1.7,0 0.7,-1.6 1.2,-6 1.5,0.4 0.7,-3.1 -6.1,-2.3 -4,5 -0.2,-4 -2.9,-2.8 1.1,-2 -2.8,0 -3.1,-2.6 -1.4,-0.4 -0.1,2.3 -1.7,-1.3 -2.3,0.6 -1.4,-0.7 -0.1,-3.4 -3.2,-2.6 -4.8,2 -0.6,1.7 0.2,4.1 -1.7,3.1 -0.5,-0.8 -10.5,3.9 -2.3,3.9 -2.9,2.1 -2.1,2.8 -2.6,0.9 -0.4,1.6 -2.7,4.6 -1.4,1.4 -0.9,0.7 z m 43,-33.3 -1.3,-1 -0.3,0.5 1.6,0.5 z m 2.2,-2 -1.7,-0.1 0.6,0.9 1.1,-0.8 z m -2.1,-0.3 -1.5,-0.9 -0.4,0.3 1.9,0.6 z"
       data-id="IT.OT"
       data-name="Olbia-Tempio"
       id="IT.OT"
       inkscape:connector-curvature="0"
       style="fill-rule:evenodd" />
    <path
       d="m 227.5,646.1 0,1.3 2,2.1 3.8,-0.3 1.5,2.9 -2,1.3 -3.8,6.4 -1.4,2.9 -10,3.8 -1.4,1.1 -3.4,0.5 -5.1,-5.6 -5,-1.8 -1.9,-0.2 -2.8,-2 -0.8,0.7 0.3,3.1 -8.7,3.4 -3.2,3.1 -2.9,0.1 -0.9,-0.8 -0.4,-0.2 -0.7,1.2 1.5,4 2.9,1.2 2.4,4.5 2.9,0 3.6,1.3 16.2,-1.8 3.1,1.6 1.6,5.3 0.3,3.1 2.1,4.7 -1.3,3.2 -3.5,-1.5 -2.3,2.4 0.3,3.1 4.1,0.9 0.4,0.8 -1.8,5 1.3,1.4 2.6,0.8 4,2.2 4.3,1.2 2.1,1.3 0.3,3.4 3.4,0.3 -0.2,-0.2 -0.4,-6.4 1.2,-1.8 5.6,-0.8 0.5,-0.8 -0.3,-3.3 2.4,-5.4 -1.2,-0.7 -0.2,-2.4 3,-2.5 7.2,-3.6 7.7,-11.6 2.9,2.2 1.4,-0.1 2.4,-2.1 1.7,-0.6 -0.3,-2.3 0.6,-3.5 3.9,-4.2 1.3,-2.9 3.9,-2.4 2.2,-5 1.7,-2.9 1,-4.7 0.9,-1.7 -0.6,-1.7 -2.4,-2 -1,-2.5 -1.1,-0.3 -1.3,-2.1 -0.6,-5.5 -5.7,-0.6 -2.7,-2.3 -3.9,-0.9 -2.2,0.9 -4.3,3.6 -6.9,-0.6 -1,0.6 -3,6.6 -5.3,3.7 -10.6,1.4 z"
       data-id="IT.NU"
       data-name="Nuoro"
       id="IT.NU"
       inkscape:connector-curvature="0"
       style="fill-rule:evenodd" />
    <path
       d="m 269.6,743.8 0.2,-2.8 -0.7,-5.9 1.9,-6.6 -0.9,-5.2 0.1,-2.5 1.3,-7.9 -0.2,-3.5 2,-1.8 -1.5,-0.9 -0.9,-2.8 0.4,-3.2 2.7,-7.6 0.1,-1.6 -6.6,-6.1 -2.4,-6.1 -0.2,-1.9 -1.7,0.6 -2.4,2.1 -1.4,0.1 -2.9,-2.2 -7.7,11.6 -7.2,3.6 -3,2.5 0.2,2.4 1.2,0.7 -2.4,5.4 0.3,3.3 -0.5,0.8 -0.3,1 0.4,7 2.7,4.1 4.6,4.5 1.3,0.5 0.2,2.4 -1.4,0.8 -0.1,3.5 1.6,-0.8 2,1.1 1.6,4.8 4.5,-0.1 1.7,1.1 5,4.7 3.7,0.3 4.3,2.4 0.4,-1.8 z"
       data-id="IT.OG"
       data-name="Ogliastra"
       id="IT.OG"
       inkscape:connector-curvature="0"
       style="fill-rule:evenodd" />
    <path
       d="m 237.4,708.3 -5.6,0.8 -1.2,1.8 0.4,6.4 0.2,0.2 -3.4,-0.3 -0.4,-0.1 -4.5,-0.1 -3.1,1.5 -2.6,2.6 -2.1,3.1 4.6,0.8 0.7,0.3 -1.6,11.2 -2.4,5.1 -1,4.8 1.1,2.2 0.2,3.3 -3.4,3.1 1,3.5 -3.9,2.3 -12.3,-0.4 -2.7,0.7 -4.1,2.2 0.6,0.8 -0.3,2.7 1.5,4.9 2.3,2.6 1.2,6.2 0.8,2 4.5,2.7 2.9,7.4 -0.5,2.3 -2.3,1.9 -5.8,-0.3 -3.1,2 -4,-0.6 -0.8,3.8 -2.9,4.5 0.5,0.7 0,2.5 -1.1,2.5 3.6,0.9 -0.7,1.9 1.7,0 -0.3,-2 1.3,-2 3.9,-2.2 1.9,0.2 5.7,4.6 -0.1,-2.1 4.1,2.8 1.5,-1.8 1.8,-0.6 8.2,-8.3 1.8,-1.3 0.8,-3.5 1.2,-2.2 -1.8,-3.5 -0.8,-6.2 4.8,-6.7 -0.4,-1.8 -4,-0.6 -0.2,-2.1 1.1,-0.6 2.1,2 0.8,-0.6 5.5,5.5 2.4,0.8 2.5,-3.5 1.6,-0.7 5.7,1.4 8.3,4.6 2.2,2.3 7.3,1.3 5.1,-0.6 1.5,-4 -1.1,-2.7 0,-3.3 1.1,-2.9 2,-2.3 2.3,-1.5 -2,-1.3 -0.9,-4 0.8,-4.5 1.8,-5.4 0.4,-3.2 -1.4,-1.8 1.3,-4.8 -4.3,-2.4 -3.7,-0.3 -5,-4.7 -1.7,-1.1 -4.5,0.1 -1.6,-4.8 -2,-1.1 -1.6,0.8 0.1,-3.5 1.4,-0.8 -0.2,-2.4 -1.3,-0.5 -4.6,-4.5 -2.7,-4.1 -0.4,-7 0.3,-1 z"
       data-id="IT.CA"
       data-name="Cagliari"
       id="IT.CA"
       inkscape:connector-curvature="0"
       style="fill-rule:evenodd" />
    <path
       d="m 363,468.4 -2.3,-4.4 -3.2,-1.2 -1,2.1 5.3,4.6 1.2,-1.1 z m -6.4,-81.7 -5.7,1 -4.3,-0.4 -0.9,1.5 -3.2,-0.4 -0.7,2.4 -0.8,1.2 0.4,1.1 1.5,2.6 2.3,0 1.8,1.5 0.5,4 -0.4,1.7 -2.4,-1.7 -1.7,1.1 0.2,2.5 -2.3,3.6 3.8,1.6 1.4,4.7 0.2,2.2 -2.6,4.9 13.2,4 4.4,2.1 3.9,3.2 1.5,4.1 6.1,3.5 0.3,1.9 4.2,5.4 2.4,-0.6 2.5,4.3 -0.2,6.3 -1.2,1.6 -5.3,-0.3 -0.9,1.4 1.8,3.7 6.4,2.5 1.9,-5.2 3.9,-0.2 6.2,2 5.1,0 2.1,1.4 2.6,1.2 3.5,-5.9 7.4,-0.8 1,-0.5 0.4,-3.4 -3.3,-2.9 1.2,-3.5 -0.1,-1.9 6.7,-1 1.8,-2.1 2.7,-1.3 2.6,-3.5 1.3,-0.2 1.8,-9.2 -2.9,-3.7 -2.3,-1.8 -6.3,0.3 -2.8,-0.4 -1.7,-8 -0.3,-4.7 -0.7,-1.8 -3.1,-1.9 -6.7,-0.3 -3.4,1.6 -4.4,-1.3 -3.2,-3.2 0.1,-5.3 -0.4,-2.9 -11.8,-0.9 -4.7,1.2 -2.7,-1.1 -3.6,0.3 -2.2,-5.1 0,-3.6 -1.7,-1.5 -3,1.3 -5.7,1.6 -1.5,0 z"
       data-id="IT.GR"
       data-name="Grosseto"
       id="IT.GR"
       inkscape:connector-curvature="0"
       style="fill-rule:evenodd" />
    <path
       d="m 312.1,467.4 -1.7,1.2 1.5,0.4 0.2,-1.6 z m -19.1,-23.2 -1.5,-3.7 -2.2,3.2 2.9,0.9 0.8,-0.4 z m 26.2,-23.5 0.9,-2.9 -1.9,-2.5 -2.4,1.3 -0.7,2.5 -2.1,2.4 -2.6,-0.4 0.3,-1.4 -4.9,2.1 -1.9,0.2 -5.2,-1.6 -5.4,1.7 -0.8,1.7 0.6,2.6 3.4,2 6.7,0.2 1.2,-2.1 1.7,1.2 3.1,-1.5 0.8,1.7 0.8,-2.2 3.3,1.5 1.5,2.7 2.9,1.3 1.1,-1.3 -2,-3.4 -1.6,-0.7 3.3,-2.3 -0.1,-2.8 z m -50.4,-18.9 2.5,-3.5 -2.5,-3 -1.5,0.8 -1.7,3.8 1.5,2 1.7,-0.1 z m 35.7,-54.9 2.2,7.5 0.8,1.5 9.4,8.7 7.1,11.9 3,11.7 -0.5,1.3 0.2,5.4 -1.5,5.4 -3.1,3.3 2.1,4.9 1.6,1.5 1.5,-2.4 3.6,-1 4,0.1 4,0.9 2,0.8 2.3,-3.6 -0.2,-2.5 1.7,-1.1 2.4,1.7 0.4,-1.7 -0.5,-4 -1.8,-1.5 -2.3,0 -1.5,-2.6 -0.4,-1.1 -0.6,-1.7 -5.4,-3.2 -0.8,-2.6 3.5,-1.2 0.3,-1.6 -1.5,-2.4 2.3,-6.4 -9.4,1.3 -3.7,-2.8 -1.1,-4.9 -2.4,-0.7 -0.9,-8.5 -2.2,-6 -0.2,-2.6 1.8,-5.7 -0.7,-2.3 -1.8,-0.4 -13.9,5.6 0.2,1 z"
       data-id="IT.LI"
       data-name="Livorno"
       id="IT.LI"
       inkscape:connector-curvature="0"
       style="fill-rule:evenodd" />
    <path
       d="m 336.2,324.6 -3.8,-0.6 -1.2,2.7 -2.6,1.7 -10.1,0.2 -2.8,-1.8 -1.5,-4.7 -4.7,0.7 -5.4,-0.8 -3.5,0.6 0.2,0.7 3.5,22.6 13.9,-5.6 1.8,0.4 0.7,2.3 -1.8,5.7 0.2,2.6 2.2,6 0.9,8.5 2.4,0.7 1.1,4.9 3.7,2.8 9.4,-1.3 -2.3,6.4 1.5,2.4 -0.3,1.6 -3.5,1.2 0.8,2.6 5.4,3.2 0.6,1.7 0.8,-1.2 0.7,-2.4 3.2,0.4 0.9,-1.5 4.3,0.4 5.7,-1 0,-1.1 1.5,-6.5 3.7,0.5 0.9,-3.4 -2.8,-2.8 -0.7,-1.9 3.4,-2.9 0.4,-3.5 -0.9,-2 -3.7,-4.8 -5.5,-0.7 -2.1,-1.2 -1.5,-2.7 -2.5,-11.2 0.7,-0.9 4.9,-0.5 1.6,-2.3 -0.4,-2.8 -1.7,-2.8 -1.9,-2.2 -4.8,0.6 -6.6,-3.8 -1.5,-2.2 -0.9,-1 z"
       data-id="IT.PI"
       data-name="Pisa"
       id="IT.PI"
       inkscape:connector-curvature="0"
       style="fill-rule:evenodd" />
    <path
       d="m 287.9,271.1 -5.1,-1 -1.8,-1.7 -5.6,-4.3 0.9,-2.7 -5.2,-2.9 -5.6,-1.3 -5,3.7 -1.9,2 -2.5,3.9 -4.5,2.2 0.3,0.5 2.2,2.8 3,2.4 7.1,4.2 1.4,1.3 0.9,6.2 3.2,-1.4 -0.2,3.1 5.7,0.8 4.2,4.3 3,1.7 -1.8,4.9 0.6,0.1 5.8,3.1 2.7,3.7 0.6,0.4 2.9,-2.5 2.6,-3.9 1.1,-4.3 -1.6,-3.4 -2.1,-1 0.6,-3.9 -1.1,-2.5 0.4,-1.7 3.1,-1.7 1.5,-3.1 0.1,-1 -0.4,0.1 -2.9,-2.7 -3.8,-2.9 -2.8,-1.5 0,0 z"
       data-id="IT.MS"
       data-name="Massa-Carrara"
       id="IT.MS"
       inkscape:connector-curvature="0"
       style="fill-rule:evenodd" />
    <path
       d="m 311.1,281.9 -5.5,-4.2 -7,0.2 -0.8,0.2 -0.1,1 -1.5,3.1 -3.1,1.7 -0.4,1.7 1.1,2.5 -0.6,3.9 2.1,1 1.6,3.4 -1.1,4.3 -2.6,3.9 -2.9,2.5 3.1,1.9 2.5,3.4 3.8,7.3 0.9,2.9 3.5,-0.6 5.4,0.8 4.7,-0.7 1.5,4.7 2.8,1.8 10.1,-0.2 2.6,-1.7 1.2,-2.7 3.8,0.6 0.9,1 1.3,-2.8 -0.5,-1.2 -6.6,-5.1 0.2,-1.6 4.1,-11.7 2.3,-1.7 -1.5,-4.2 -1.6,-1.9 -5.9,-2 -1.6,-1.1 -2.3,0.2 -5.6,-3.8 -2.6,-2.4 -0.8,-2.6 -0.4,-1.1 -4.5,-0.7 z"
       data-id="IT.LU"
       data-name="Lucca"
       id="IT.LU"
       inkscape:connector-curvature="0"
       style="fill-rule:evenodd" />
    <path
       d="m 342.7,293.1 -5.6,-3.6 -2.2,-0.8 -7.1,3.1 -0.5,0.5 1.6,1.1 5.9,2 1.6,1.9 1.5,4.2 -2.3,1.7 -4.1,11.7 -0.2,1.6 6.6,5.1 0.5,1.2 2.9,1.3 3.9,-1.6 3.6,2.1 4,-0.3 3.3,-2.1 1.4,0.8 3.2,-1.6 1.6,-2.4 -0.9,-1.6 0.6,-2.6 -0.2,-3.5 2.8,-4.1 -3.9,-2.1 2.5,-7.2 -0.4,-2.3 -0.5,0 -3.3,-2.4 1,-1.1 -2.1,-1.2 -2.1,3.7 -2.9,3.4 -9,-4.5 0,0 -1.2,-0.4 z"
       data-id="IT.PT"
       data-name="Pistoia"
       id="IT.PT"
       inkscape:connector-curvature="0"
       style="fill-rule:evenodd" />
    <path
       d="m 375,294.4 -0.2,-0.1 -12,1.3 0.4,2.3 -2.5,7.2 3.9,2.1 -2.8,4.1 0.2,3.5 -0.6,2.6 0.9,1.6 -1.6,2.4 -3.2,1.6 0.5,0.6 1.5,2.5 5.8,2.1 0,-5.1 2.8,-1.4 3.3,-2.8 -0.5,-3.6 1.7,-3.7 1.2,-7.7 0.9,-2.3 0.8,-6.6 -0.5,-0.6 0,0 z"
       data-id="IT.PO"
       data-name="Prato"
       id="IT.PO"
       inkscape:connector-curvature="0"
       style="fill-rule:evenodd" />
    <path
       d="m 401.1,288.7 -3.5,-1.2 -4.5,-5.2 -3.7,0 -2,1.9 -1.5,0 -3.9,3.7 -7,1.1 -0.5,0.9 4.3,2.7 -2.6,2 -1.2,-0.2 0.5,0.6 -0.8,6.6 -0.9,2.3 -1.2,7.7 -1.7,3.7 0.5,3.6 -3.3,2.8 -2.8,1.4 0,5.1 -5.8,-2.1 -1.5,-2.5 -0.5,-0.6 -1.4,-0.8 -3.3,2.1 -4,0.3 -3.6,-2.1 -3.9,1.6 -2.9,-1.3 -1.3,2.8 1.5,2.2 6.6,3.8 4.8,-0.6 1.9,2.2 1.7,2.8 0.4,2.8 -1.6,2.3 -4.9,0.5 -0.7,0.9 2.5,11.2 1.5,2.7 2.1,1.2 5.5,0.7 0.2,-4.7 5.4,-4.1 1.9,0.4 5.1,4.1 1.2,2.1 3.9,-4.1 1,-0.1 0.7,3 1,0.6 3.3,-1.9 2.3,-3.8 1.7,1.9 5.2,-0.6 1.9,-1.8 0.8,-0.4 0.8,-1.3 1.1,-0.8 5.5,-1 1.6,-5.7 2,0.1 2.1,-3.3 2.5,-1.4 -2,-7 3.3,-6 0.5,-2.7 1.3,-1.7 4.1,-1.2 1.2,-0.4 -0.6,-0.6 -2.6,-7.9 -1.9,-1.5 -0.9,-3.1 3.4,-2.5 3.7,-8.2 -2,-1 -0.2,0 0,0 -3.3,0.4 -2,0.9 -4.1,-0.5 -0.9,-1.4 1,-0.9 -4.5,-1.5 -2,0 0,0 z"
       data-id="IT.FI"
       data-name="Firenze"
       id="IT.FI"
       inkscape:connector-curvature="0"
       style="fill-rule:evenodd" />
    <path
       d="m 457.6,326.1 2,-3.3 -3.4,-0.4 -1,1.4 2.4,2.3 z m -39.6,-9.6 -1.2,0.4 -4.1,1.2 -1.3,1.7 -0.5,2.7 -3.3,6 2,7 -2.5,1.4 -2.1,3.3 -2,-0.1 -1.6,5.7 -5.5,1 -1.1,0.8 -0.8,1.3 0.6,0.1 6,6.3 5.2,3 0.7,2 -0.5,3.8 2.9,3 7.5,4.1 2.8,4.6 8.8,4.8 2.6,0.4 3.3,4.6 1.6,1.3 1.8,-1.2 3.8,-0.1 0.2,-0.2 4.3,-2.1 1.2,-5.2 0.7,-0.4 4.1,0.9 3.1,-1.5 1.9,0 5.1,-3.9 -2.3,-1.3 -0.4,0.9 -5.3,-5.7 -4,-2.2 0.1,-1.6 -3.2,-1.5 1.5,-2 1.6,-0.6 3.9,-3.1 -1.6,-5.2 2,-0.4 1.3,-1.6 3.7,-6.7 -1.1,-2.7 0.5,-1.1 6.1,-3.4 1.7,-3.8 1.2,3.6 0.9,0.9 2.3,-2.8 -4.3,-4.6 -1.2,-0.8 -0.4,-0.2 -0.3,-0.1 -8.9,2.3 -2.5,-1.6 -2.1,0 -1,0.3 -1.8,0.5 -9.1,-1.8 -7.8,-4.4 -5.4,-0.9 -7.4,-4.8 -0.4,-0.3 z"
       data-id="IT.AR"
       data-name="Arezzo"
       id="IT.AR"
       inkscape:connector-curvature="0"
       style="fill-rule:evenodd" />
    <path
       d="m 437.3,385.7 -1.8,1.2 -1.6,-1.3 -3.3,-4.6 -2.6,-0.4 -8.8,-4.8 -2.8,-4.6 -7.5,-4.1 -2.9,-3 0.5,-3.8 -0.7,-2 -5.2,-3 -6,-6.3 -0.6,-0.1 -0.8,0.4 -1.9,1.8 -5.2,0.6 -1.7,-1.9 -2.3,3.8 -3.3,1.9 -1,-0.6 -0.7,-3 -1,0.1 -3.9,4.1 -1.2,-2.1 -5.1,-4.1 -1.9,-0.4 -5.4,4.1 -0.2,4.7 3.7,4.8 0.9,2 -0.4,3.5 -3.4,2.9 0.7,1.9 2.8,2.8 -0.9,3.4 -3.7,-0.5 -1.5,6.5 0,1.1 1.5,0 5.7,-1.6 3,-1.3 1.7,1.5 0,3.6 2.2,5.1 3.6,-0.3 2.7,1.1 4.7,-1.2 11.8,0.9 0.4,2.9 -0.1,5.3 3.2,3.2 4.4,1.3 3.4,-1.6 6.7,0.3 3.1,1.9 0.7,1.8 0.3,4.7 1.7,8 2.8,0.4 6.3,-0.3 0.2,-0.8 1.5,-1.3 2.6,0.9 3.1,-2.4 3.9,-1.5 3.3,-2.1 0.4,-0.2 1.1,-1.9 -1.7,-2.6 0.4,-3.5 2.6,-7.1 0,-1.8 -2.4,-2.4 -1.8,-0.5 -0.8,-6 1.6,-3 0.7,-0.6 -3.8,0.1 z"
       data-id="IT.SI"
       data-name="Siena"
       id="IT.SI"
       inkscape:connector-curvature="0"
       style="fill-rule:evenodd" />
    <path
       d="m 786.5,636.6 -2.4,-1.6 -1,1 2.2,2.9 1.7,0.3 -0.5,-2.6 z m 20.4,-20.5 -1.3,0.9 -5.5,2.3 -3.3,3.5 2.9,4.7 0,2.7 -4.3,2.6 -3,3.7 1.6,2 4.2,3 -1.5,2.8 0,2.5 3.2,5.7 0.7,2.8 -2.2,2.9 0.2,1.3 3.9,2.9 2.4,7.5 3.5,3.4 4.3,-0.9 2.8,0.1 1.7,-1.3 0.1,-1.5 2,-1 1.9,0.1 0,3.7 -1.2,6.7 0.2,1.4 3.5,2.4 0.2,1.1 -2.9,3 2.5,6.3 1.5,1 0.5,-1.5 0.5,-5.9 9.1,0.8 2.6,-0.6 6.7,0.8 0,0 3.1,-2.7 2.7,-4.8 4.7,-10.8 6,-9 -8,-8.3 -1.8,0.7 -2,-1.8 -1.4,-5.3 -1.1,-9.9 0.6,-2.8 -0.8,-4.1 0,-1 -1.8,-1.8 -5.3,-1.9 -3.8,-0.9 -4.9,2 -2.4,-1.6 -6,5.4 -0.8,-0.2 -6.1,-4.6 -8.4,-8.5 z"
       data-id="IT.MT"
       data-name="Matera"
       id="IT.MT"
       inkscape:connector-curvature="0"
       style="fill-rule:evenodd" />
    <path
       d="m 801,608 -1.8,-0.4 -3.6,1.9 -10.7,-4.6 2.5,-7.5 -6.3,-6 -5.9,-2.6 -1.6,-1.9 -0.7,-0.6 -0.7,0.5 -6.2,2.7 -1.5,0.2 -12.9,-0.7 -2.7,2.3 -0.4,1.7 0.4,1.4 1.6,2.8 -2.1,8.3 -4.2,3.6 -1.5,0.6 -8.3,0.2 -0.2,6.5 -1.4,1.3 1.2,1.2 1.5,4 0.7,3.9 2.9,2.8 6.8,4.8 -2.1,2.2 -1.2,2.6 3.2,1.6 3,2.5 2.1,4.5 0.1,3.5 3.7,3.2 1.1,1.9 2.6,1 3,3 3.8,1.4 1.4,5.6 5.8,5 1,1.8 -0.3,2.2 -7.1,7.3 0.2,3.1 -3.3,5.4 1.3,1.1 -1.3,2 0.4,0.3 2.5,3.5 3,2.8 2.7,5.2 0.4,0.5 1.6,-3.1 6.5,-5.3 7.2,0.2 3.8,2.7 2.8,-0.8 0.2,3.9 4.7,4.2 10.6,-0.8 2.7,-2.2 6.2,0.1 2.5,2 2.1,0.6 -1.5,-2.6 1.4,-4 1.4,-1.8 0.6,-5.7 0.3,-0.6 -1.5,-1 -2.5,-6.3 2.9,-3 -0.2,-1.1 -3.5,-2.4 -0.2,-1.4 1.2,-6.7 0,-3.7 -1.9,-0.1 -2,1 -0.1,1.5 -1.7,1.3 -2.8,-0.1 -4.3,0.9 -3.5,-3.4 -2.4,-7.5 -3.9,-2.9 -0.2,-1.3 2.2,-2.9 -0.7,-2.8 -3.2,-5.7 0,-2.5 1.5,-2.8 -4.2,-3 -1.6,-2 3,-3.7 4.3,-2.6 0,-2.7 -2.9,-4.7 3.3,-3.5 5.5,-2.3 1.3,-0.9 -1,-1 -0.7,-1.3 -1.2,-3.1 -1.1,-1.6 -0.6,-0.4 -1.3,-0.7 z m -14.5,28.6 0.5,2.6 -1.7,-0.3 -2.2,-2.9 1,-1 2.4,1.6 z"
       data-id="IT.PZ"
       data-name="Potenza"
       id="IT.PZ"
       inkscape:connector-curvature="0"
       style="fill-rule:evenodd" />
    <path
       d="m 825,694.4 -0.3,0.6 -0.6,5.7 -1.4,1.8 -1.4,4 1.5,2.6 -2.1,-0.6 -2.5,-2 -6.2,-0.1 -2.7,2.2 -10.6,0.8 -4.7,-4.2 -0.2,-3.9 -2.8,0.8 -3.8,-2.7 -7.2,-0.2 -6.5,5.3 -1.6,3.1 2.6,3.4 0.7,2.3 0.1,4.9 0.5,1 2.6,11.6 2.8,4.3 3.1,9 0.8,1.3 5,3.8 2.3,3.7 3.3,3.9 3.8,9.6 0.9,3.5 5,24 1.3,2.5 5.3,-1.2 8,-4.3 4.1,-0.6 6.1,1.5 4.1,4 1.7,1 1.6,-0.3 0.9,-1.5 0.2,-8.2 4,-1 3.7,-1.5 1.2,-2.1 1,-0.5 2.4,-0.9 8.6,1.4 1.5,-2.7 -1.5,-6.6 -0.8,-2.1 -3.3,-3.5 1.9,-2.4 10.4,1.1 2.8,-2 0.1,-2.3 1.8,-1.6 3.1,0.8 0.7,-0.5 0.9,-4.6 3.1,-3.1 -0.7,-0.7 -4.9,-1.3 -4.1,-3.1 -5.2,-2.3 -1.4,-2.4 -4.2,-3.6 -2.8,-0.9 -10.4,-0.5 -2.8,-1.2 -4,-2.4 -2.7,-2.9 -1.5,-5.8 -1.2,-2.9 0,-3.1 1.1,-3.2 2.5,-4.8 3.6,-3.5 3.2,-4.7 -1.7,-3.1 -1.3,-8.8 1.4,-2.4 1.2,-1.1 -6.7,-0.8 -2.6,0.6 -9.1,-0.8 -0.5,5.9 -0.5,1.5 z"
       data-id="IT.CS"
       data-name="Cosenza"
       id="IT.CS"
       inkscape:connector-curvature="0"
       style="fill-rule:evenodd" />
    <path
       d="m 877,807.8 5.2,1 2.3,2.4 3.9,-1.7 2,0.3 0.9,2.1 5.3,-6.3 -0.3,-4.6 1.5,-2.6 -2.9,-1 -3.2,-5.1 -0.4,-3.1 1.1,-5.9 -0.1,-4.4 -2.7,-4.8 0.2,-7 2.5,-7 -2.8,-0.2 -3.1,-1.4 -5.7,-5.4 -0.4,-0.4 -3.1,3.1 -0.9,4.6 -0.7,0.5 -3.1,-0.8 -1.8,1.6 -0.1,2.3 -2.8,2 -10.4,-1.1 -1.9,2.4 3.3,3.5 0.8,2.1 1.5,6.6 -1.5,2.7 -8.6,-1.4 -2.4,0.9 1.2,2.6 3,2 0.4,3.4 1.4,2.2 1.8,0.8 3,2.5 3.7,-0.3 3,1.1 5.4,4 1.4,2 1.2,3.7 -0.6,3.1 3.5,-1 z"
       data-id="IT.KR"
       data-name="Crotene"
       id="IT.KR"
       inkscape:connector-curvature="0"
       style="fill-rule:evenodd" />
    <path
       d="m 848.6,781.7 -1,0.5 -1.2,2.1 -3.7,1.5 -4,1 -0.2,8.2 -0.9,1.5 -1.6,0.3 -1.7,-1 -4.1,-4 -6.1,-1.5 -4.1,0.6 -8,4.3 -5.3,1.2 4,7.8 5.7,4.1 1.9,7.9 -0.3,4.4 -0.1,0.4 3.9,1.2 1.4,-2.8 1.2,0.4 6.4,4.3 -1.3,6.1 0.1,1.7 -0.9,3.3 1,2.8 7.2,6.1 1,1.3 -1.2,1.9 0.8,0.6 0.2,3.5 2.6,0.9 6.7,4.1 3.1,-0.2 0.1,-3.7 -0.2,-2.6 -2,-7 -1.3,-7.8 -1.4,-2.8 0.2,-2.4 1.9,-3.4 0.7,-2.9 2.8,-3.3 4.8,-2.4 4.5,-3.9 8.9,-4.1 4.4,-1.1 0.6,-3.1 -1.2,-3.7 -1.4,-2 -5.4,-4 -3,-1.1 -3.7,0.3 -3,-2.5 -1.8,-0.8 -1.4,-2.2 -0.4,-3.4 -3,-2 -1.2,-2.6 z"
       data-id="IT.CZ"
       data-name="Catanzaro"
       id="IT.CZ"
       inkscape:connector-curvature="0"
       style="fill-rule:evenodd" />
    <path
       d="m 837.9,845.4 -1,-1.3 -7.2,-6.1 -1,-2.8 0.9,-3.3 -0.1,-1.7 1.3,-6.1 -6.4,-4.3 -1.2,-0.4 -1.4,2.8 -3.9,-1.2 -0.8,3.4 -1.6,2.9 -4.7,2.8 -6.1,-0.7 -3.8,0.3 -2.8,1.3 -5,3.4 -4.9,1.9 0.2,4.4 2.3,1.4 2.6,2.7 1.5,2.8 0.4,3.5 -0.2,1.1 4.1,-1.6 5.4,-0.8 1.8,-2.2 4.6,1.2 12,5.1 2.6,4.9 1.8,0.9 5.6,0.1 2,-2 -3.3,-5 0.1,-4.3 1,-1.9 2.3,-0.6 1.7,1.3 1.2,-1.9 z"
       data-id="IT.VV"
       data-name="Vibo Valentia"
       id="IT.VV"
       inkscape:connector-curvature="0"
       style="fill-rule:evenodd" />
    <path
       d="m 835,846 -2.3,0.6 -1,1.9 -0.1,4.3 3.3,5 -2,2 -5.6,-0.1 -1.8,-0.9 -2.6,-4.9 -12,-5.1 -4.6,-1.2 -1.8,2.2 -5.4,0.8 -4.1,1.6 -0.6,3.3 -8.7,20.1 -8.3,2.6 -2.8,1.2 -1.3,2.2 1.5,6 -1.5,7.2 3.2,5.1 -1.6,1.5 -0.2,1.9 2.8,4.4 6,3.7 2.3,0.6 15,-0.9 5,1.5 5.1,-1.4 3,-2.9 1.8,-4.5 1.5,-11 1.3,-3.3 10.5,-13.8 2.7,-2.4 7.7,-4.1 2.6,-0.9 7.4,-6.9 0.6,-1.4 0.1,-3.8 -3.1,0.2 -6.7,-4.1 -2.6,-0.9 -0.2,-3.5 -0.8,-0.6 -1.7,-1.3 z"
       data-id="IT.RC"
       data-name="Reggio Calabria"
       id="IT.RC"
       inkscape:connector-curvature="0"
       style="fill-rule:evenodd" />
    <path
       d="m 648.7,555.6 -8.7,-3.9 -2.3,-0.4 -8.9,-0.4 -3.3,3.3 -0.2,2.2 0.7,4.9 -5.3,-1.5 -3.7,-5.7 -1.9,-0.9 -0.8,0 -4.3,3.4 -3,1.7 1.2,1.9 0,4.1 0.4,2.3 -0.3,1.3 -1.5,3.4 -2,0.7 -6.2,4.3 4.1,3.1 5.3,5.8 5.4,8.3 0.8,4 4.1,2.7 4,6 0.9,-0.7 5.8,-1.9 2.5,-1.9 1.3,0.3 1.9,2.7 2.4,-0.2 4.6,0.9 2.2,-0.3 3.1,-5.7 13.2,2.3 3.3,-0.4 1.3,-0.9 -0.1,-1.8 -0.5,-1.9 -3.8,-2 -2.8,0.6 -2.2,-1.4 0.9,-3.4 -1.1,-1.7 -3,-0.9 -2.5,-4 1.5,-0.3 3.6,1.3 2.6,-1.5 0.4,-1.2 -3.7,-6.5 1.4,-3.6 3.8,-2.7 -0.6,-1.4 -3.2,-2.4 0.6,-1.8 3.5,-1.3 1.3,-1.2 -1.5,-0.2 -1.3,-1.3 -1.7,-1.9 -2.3,-0.3 -4.3,-1.6 -1.1,-0.4 z"
       data-id="IT.CE"
       data-name="Caserta"
       id="IT.CE"
       inkscape:connector-curvature="0"
       style="fill-rule:evenodd" />
    <path
       d="m 644.9,645.1 -4.7,-1.2 0.9,2.1 3.8,-0.9 z m -25.4,-16.5 0.4,-2.3 -1.7,-1 -5.3,-1.8 -1.6,1.9 -0.9,2.8 3.5,2.2 5.6,-1.8 z m 5.6,-5.2 -2.3,2 1.3,0.7 1,-2.7 z m 43,-24.5 -1.8,-0.7 -0.8,-0.1 -0.8,0.5 0.1,1.8 -1.3,0.9 -3.3,0.4 -13.2,-2.3 -3.1,5.7 -2.2,0.3 -4.6,-0.9 -2.4,0.2 -1.9,-2.7 -1.3,-0.3 -2.5,1.9 -5.8,1.9 -0.9,0.7 1.1,1.5 2.1,4.7 0.9,3.6 -0.7,4.1 3.5,1.3 -0.7,-3.8 0.4,-0.9 7,1.5 1.4,1.5 1.8,0 1.4,-3 2,-0.7 3.8,-0.1 1.6,1.1 4.7,4.8 4.7,2.9 1.7,-0.4 3.4,4.3 -0.2,1.7 -2.6,0.9 -3.1,3 -0.4,1.2 -4.9,1.9 0.8,5.4 1,-1.3 5.2,-3.2 4,-0.9 0,0 0.1,-1.2 2.5,-1.5 3.3,0.6 2.4,-3 0,-3.7 -5.6,-3 -0.2,-2.1 5.7,-3.7 -0.6,-4.6 2.1,-0.1 -2.5,-2.7 0,-2.4 1.2,-0.4 6.2,0.2 -0.1,-0.7 -5.8,-2.3 -1.5,-1.1 -0.5,-4.5 -0.8,-2.2 z"
       data-id="IT.NA"
       data-name="Napoli"
       id="IT.NA"
       inkscape:connector-curvature="0"
       style="fill-rule:evenodd" />
    <path
       d="m 678.7,601.8 0.5,-2.6 -1.4,-2.2 -1.3,4 0.3,1.2 1.9,-0.4 z m 21.1,-49.7 -4.7,2.6 -4.4,1.3 -2.4,1.1 -6.6,-0.5 -0.3,1.1 -2.7,1.9 -5.4,0.2 -5.1,3 -3.1,-1.2 -3.2,-0.2 -1,-0.1 -1.3,1.2 -3.5,1.3 -0.6,1.8 3.2,2.4 0.6,1.4 -3.8,2.7 -1.4,3.6 3.7,6.5 -0.4,1.2 -2.6,1.5 -3.6,-1.3 -1.5,0.3 2.5,4 3,0.9 1.1,1.7 -0.9,3.4 2.2,1.4 2.8,-0.6 3.8,2 0.5,1.9 0.8,-0.5 0.8,0.1 1.8,0.7 0,-1.4 2,-2.7 3.8,0.3 4.9,-1 3.1,4.1 2.6,-1.2 0.1,-2.4 2.3,0.2 2.6,1.3 12.6,-6.8 -0.1,-3.5 -2.3,-1.4 -0.3,-2 2.4,-3 -1.4,-3.4 0.4,-3.1 6.3,0.8 3.1,1.5 3,-2.1 0.1,-0.5 -1.5,-3.3 -4.8,-2.7 -0.5,-1.3 2.2,-3.7 -0.5,-4.4 -1.8,-0.8 -6.2,-4.1 -0.4,-0.2 z"
       data-id="IT.BN"
       data-name="Benevento"
       id="IT.BN"
       inkscape:connector-curvature="0"
       style="fill-rule:evenodd" />
    <path
       d="m 740.2,592 -3.7,-2.5 -2.4,0.7 -8.9,-0.8 -1,-1.5 -4.7,-2.9 -0.6,-1.6 3.9,-4.4 -0.7,-1.9 1.1,-1.8 -1.9,-1.9 -5.5,-2.1 -1.5,1.3 -1,0 -0.1,0.5 -3,2.1 -3.1,-1.5 -6.3,-0.8 -0.4,3.1 1.4,3.4 -2.4,3 0.3,2 2.3,1.4 0.1,3.5 -12.6,6.8 -2.6,-1.3 -2.3,-0.2 -0.1,2.4 -2.6,1.2 -3.1,-4.1 -4.9,1 -3.8,-0.3 -2,2.7 0,1.4 0.8,2.2 0.5,4.5 1.5,1.1 5.8,2.3 0.1,0.7 -6.2,-0.2 -1.2,0.4 0,2.4 2.5,2.7 4,2.1 6.4,-1.4 2.7,3.5 8.9,0.7 9.7,1.9 10.4,1.4 4.1,4.7 1.3,0.7 5.3,-1.2 0,-4.1 2.9,-3.4 1.3,-3.7 2,-0.1 1.9,1.6 1.4,-1.3 0.2,-6.5 8.3,-0.2 1.5,-0.6 4.2,-3.6 2.1,-8.3 -1.6,-2.8 -8.7,-2.4 z m -61.5,9.8 -1.9,0.4 -0.3,-1.2 1.3,-4 1.4,2.2 -0.5,2.6 z"
       data-id="IT.AV"
       data-name="Avellino"
       id="IT.AV"
       inkscape:connector-curvature="0"
       style="fill-rule:evenodd" />
    <path
       d="m 730.9,616.1 -2,0.1 -1.3,3.7 -2.9,3.4 0,4.1 -5.3,1.2 -1.3,-0.7 -4.1,-4.7 -10.4,-1.4 -9.7,-1.9 -8.9,-0.7 -2.7,-3.5 -6.4,1.4 -4,-2.1 -2.1,0.1 0.6,4.6 -5.7,3.7 0.2,2.1 5.6,3 0,3.7 -2.4,3 -3.3,-0.6 -2.5,1.5 -0.1,1.2 1.2,-0.8 4.9,1.9 2.2,-0.4 14.5,-5.9 2.5,0.7 7,6.2 2.4,3.5 10.2,17.5 -0.1,4 -4.9,2.4 0.7,2.7 -0.5,2.2 -1.9,2.7 2.8,3.1 1.5,-0.4 4,2.1 3.9,4.2 6.6,-0.1 5.5,5.1 3.7,1.9 2.6,2.7 1.5,2.6 -1.4,1.8 4.4,-0.4 2.6,3 5.6,1 1.6,-0.6 2.3,-3 2.8,-1.7 1.3,-2.1 1.7,-1 6.3,0.4 1.8,1.6 1.4,1.1 1.3,-2 -1.3,-1.1 3.3,-5.4 -0.2,-3.1 7.1,-7.3 0.3,-2.2 -1,-1.8 -5.8,-5 -1.4,-5.6 -3.8,-1.4 -3,-3 -2.6,-1 -1.1,-1.9 -3.7,-3.2 -0.1,-3.5 -2.1,-4.5 -3,-2.5 -3.2,-1.6 1.2,-2.6 2.1,-2.2 -6.8,-4.8 -2.9,-2.8 -0.7,-3.9 -1.5,-4 -1.2,-1.2 -1.9,-1.6 z"
       data-id="IT.SA"
       data-name="Salerno"
       id="IT.SA"
       inkscape:connector-curvature="0"
       style="fill-rule:evenodd" />
    <path
       d="m 707.2,507.4 -14.6,-8.6 -6.7,-1 -3,-1.2 -4.7,-3.1 -1.4,-0.3 -1,4 0.2,1.9 -5.8,5.8 -2.1,1.2 0,2.8 -5.1,6.2 -4.6,6.9 -2,1 -0.5,3 3,1.9 0.4,2 -0.8,1.5 -6.7,4.6 5.6,3.1 0.8,3 -2.8,5.4 -4.3,1.8 -1.7,5 0.4,1.7 4.3,1.6 2.3,0.3 1.7,1.9 1.3,1.3 1.5,0.2 1,0.1 3.2,0.2 3.1,1.2 5.1,-3 5.4,-0.2 2.7,-1.9 0.3,-1.1 6.6,0.5 2.4,-1.1 4.4,-1.3 4.7,-2.6 -4.3,-3.4 -0.9,-3.4 -0.9,-6.4 2.4,-1.9 3.8,1.4 4.9,-3.3 3.2,-3.2 3.5,-1.6 -4.4,-3.4 -0.5,-3.7 0.6,-2.2 -0.5,-4.4 1.6,-2.8 0.6,-6.1 -1.7,-0.3 z"
       data-id="IT.CB"
       data-name="Campobasso"
       id="IT.CB"
       inkscape:connector-curvature="0"
       style="fill-rule:evenodd" />
    <path
       d="m 655.1,523.7 -2,0.2 -0.5,-2.9 -1.7,-4.5 -4.4,-3.1 -7.9,-3.2 -4.1,2.8 -0.1,0 -0.1,0.1 -0.7,1.5 -4.6,1.9 -1.4,2.3 4.1,5.2 -2.6,1.1 -9.5,5.1 -5.7,1.1 -1.5,0.4 0.5,0.9 4,6.1 0.1,3.4 1.3,2.4 0.3,3.3 -2,3.8 -1.5,1.6 1.9,0.9 3.7,5.7 5.3,1.5 -0.7,-4.9 0.2,-2.2 3.3,-3.3 8.9,0.4 2.3,0.4 8.7,3.9 1.1,0.4 -0.4,-1.7 1.7,-5 4.3,-1.8 2.8,-5.4 -0.8,-3 -5.6,-3.1 6.7,-4.6 0.8,-1.5 -0.4,-2 -3,-1.9 0.5,-3 -1.3,0.7 z"
       data-id="IT.IS"
       data-name="Isernia"
       id="IT.IS"
       inkscape:connector-curvature="0"
       style="fill-rule:evenodd" />
    <path
       d="m 899.5,609.6 -2.5,-1 -3.4,-4.2 -3,-2.6 -6.3,-4 -12.5,-6.1 -14.4,-4.1 -1.8,-1.7 -1.1,0.8 -1.8,-1.4 -19.9,-6 -3.3,-2 -0.9,-0.8 -0.3,1.5 -2.1,3.7 -0.3,2.8 -3.2,-0.5 -2.9,-2.7 -1.7,-0.7 -5.5,3.1 0.2,3.1 -4.7,7.6 -0.8,2 -0.2,4.2 -0.6,2 -3.3,4.5 -0.9,1.6 0.6,0.4 1.1,1.6 1.2,3.1 0.7,1.3 1,1 8.4,8.5 6.1,4.6 0.8,0.2 6,-5.4 2.4,1.6 4.9,-2 3.8,0.9 5.3,1.9 1.8,1.8 1.4,0.1 4.3,-1.7 1.9,3.5 1.4,0.1 1.8,-2 6.4,1.5 1.6,-4.3 0.8,-0.7 4,-1.1 1.9,4.6 3.1,-0.5 6.8,1.1 4.8,-5.4 4.1,-0.1 6.9,2.3 1.1,-0.7 1.7,0 1.6,-3.7 -6.7,-2.5 -0.2,-2.2 2.1,-3.3 3.6,-2.7 -1.3,-0.9 z"
       data-id="IT.BA"
       data-name="Bari"
       id="IT.BA"
       inkscape:connector-curvature="0"
       style="fill-rule:evenodd" />
    <path
       d="m 708.9,507.7 -0.6,6.1 -1.6,2.8 0.5,4.4 -0.6,2.2 0.5,3.7 4.4,3.4 -3.5,1.6 -3.2,3.2 -4.9,3.3 -3.8,-1.4 -2.4,1.9 0.9,6.4 0.9,3.4 4.3,3.4 0.4,0.2 6.2,4.1 1.8,0.8 0.5,4.4 -2.2,3.7 0.5,1.3 4.8,2.7 1.5,3.3 1,0 1.5,-1.3 5.5,2.1 1.9,1.9 -1.1,1.8 0.7,1.9 -3.9,4.4 0.6,1.6 4.7,2.9 1,1.5 8.9,0.8 2.4,-0.7 3.7,2.5 8.7,2.4 -0.4,-1.4 0.4,-1.7 2.7,-2.3 12.9,0.7 1.5,-0.2 6.2,-2.7 0.7,-0.5 5.1,-3.6 2,-0.9 5.5,-5.3 -3.9,-11.2 4.1,-1.9 -6.3,-5.3 -1.8,-0.9 2.4,-2.4 -0.9,-0.5 -4.3,-4.3 -1.6,-3.3 -0.6,-4 0.4,-3.8 1.9,-2.5 8.1,-3.9 2.7,-2.1 3.4,-3.6 4.7,-2.6 1.9,-2.7 -1.9,-10.1 -1.4,0.1 -1.9,-2.7 -9.5,-2.4 -20.5,2.3 -13.4,-0.7 -13.3,2.1 -3.8,-0.1 -9.8,-2 -9.5,0 -1.8,-0.3 0,0 z m 27.2,-17.4 -1.1,-0.6 0,1 1.1,-0.4 z"
       data-id="IT.FG"
       data-name="Foggia"
       id="IT.FG"
       inkscape:connector-curvature="0"
       style="fill-rule:evenodd" />
    <path
       d="m 828.1,576.1 -1.6,-1.1 -5,-1.2 -13.5,-6.5 -15.9,-6.4 -2.5,-2 -5.3,-1.5 -4.3,-2.6 -2.4,2.4 1.8,0.9 6.3,5.3 -4.1,1.9 3.9,11.2 -5.5,5.3 -2,0.9 -5.1,3.6 0.7,0.6 1.6,1.9 5.9,2.6 6.3,6 -2.5,7.5 10.7,4.6 3.6,-1.9 1.8,0.4 1.3,0.7 0.9,-1.6 3.3,-4.5 0.6,-2 0.2,-4.2 0.8,-2 4.7,-7.6 -0.2,-3.1 5.5,-3.1 1.7,0.7 2.9,2.7 3.2,0.5 0.3,-2.8 2.1,-3.7 0.3,-1.5 -0.5,-0.4 z"
       data-id="IT.BT"
       data-name="Barletta-Andria Trani"
       id="IT.BT"
       inkscape:connector-curvature="0"
       style="fill-rule:evenodd" />
    <path
       d="m 956.5,644.1 -0.3,-5.2 -2,-1.7 -1,-2.5 -4.2,0.4 -0.1,-2.4 -2.9,-1.2 -6.5,-1.1 -8.3,-5.4 -9.7,-3.7 -7.2,-1.7 -6.1,-2.8 -5.6,-5.1 -1.8,-1.2 -3.6,2.7 -2.1,3.3 0.2,2.2 6.7,2.5 -1.6,3.7 -1.7,0 0.1,1.1 5.1,5.2 1.5,4.3 3.6,3.5 -0.7,6.4 3.2,5.6 2.8,1.4 2.2,3 2.9,0.3 1.1,-2 3.5,0.1 2,1 5,4.4 5.6,1.2 1.5,1.4 1.7,-1.7 1.9,-1.3 8,-2.2 12.2,-8.6 -5.4,-3.9 z"
       data-id="IT.BR"
       data-name="Brindisi"
       id="IT.BR"
       inkscape:connector-curvature="0"
       style="fill-rule:evenodd" />
    <path
       d="m 942.9,670.8 1.3,0.5 4.3,3 1.7,7.9 6.3,5.7 1.3,2.4 -0.5,2.2 -2.8,1.7 4.2,2.1 -0.2,3.4 -1.2,0 6.9,9.2 5.1,2.9 2.8,2.3 2.1,0.9 8,1.8 4.3,3.1 4.4,-2.3 0.7,-5.3 -0.8,-4.8 2.5,-9.8 3.9,-3.3 0.4,-2.9 1.6,-5.5 -1.4,-1.4 -6.1,-11.6 -6.1,-7.1 -3.6,-2.8 -2.4,-3.3 -3.9,-3.1 -1.9,-2.7 -2.2,-0.7 -7.9,-4 -1.8,-1.3 -12.2,8.6 -8,2.2 -1.9,1.3 -1.7,1.7 -0.2,2.4 -1.7,4.1 -0.2,2.2 6.9,0.3 z"
       data-id="IT.LE"
       data-name="Lecce"
       id="IT.LE"
       inkscape:connector-curvature="0"
       style="fill-rule:evenodd" />
    <path
       d="m 897.6,625.6 -6.9,-2.3 -4.1,0.1 -4.8,5.4 -6.8,-1.1 -3.1,0.5 -1.9,-4.6 -4,1.1 -0.8,0.7 -1.6,4.3 -6.4,-1.5 -1.8,2 -1.4,-0.1 -1.9,-3.5 -4.3,1.7 -1.4,-0.1 0,1 0.8,4.1 -0.6,2.8 1.1,9.9 1.4,5.3 2,1.8 1.8,-0.7 8,8.3 0,0 3.7,-5.4 4.9,-4.8 5.9,-2.6 8.8,0.6 3,3.1 4.6,-2.1 1.8,0.7 4.5,-0.3 -0.5,1.7 -1.6,0.8 -4,-0.7 -1.6,0.6 1.8,1.7 -0.3,1.6 -3.4,2.1 1.2,1.5 7,2.6 8.9,4.9 3.4,0 6.1,2.7 20.9,1.1 0.2,-2.2 1.7,-4.1 0.2,-2.4 -1.5,-1.4 -5.6,-1.2 -5,-4.4 -2,-1 -3.5,-0.1 -1.1,2 -2.9,-0.3 -2.2,-3 -2.8,-1.4 -3.2,-5.6 0.7,-6.4 -3.6,-3.5 -1.5,-4.3 -5.1,-5.2 -0.1,-1.1 -1.1,0.7 z"
       data-id="IT.TA"
       data-name="Taranto"
       id="IT.TA"
       inkscape:connector-curvature="0"
       style="fill-rule:evenodd" />
    <path
       d="m 475.1,1025.4 -3.9,-0.9 -0.7,2.5 3.3,4.8 3,2.1 2.9,0.4 1.8,-2.7 -0.2,-2.4 -4.6,-4.7 -1.6,0.9 z m 23.5,-115 -4,0.1 2.3,2.1 1.2,-0.6 3.6,1.1 0.9,-1.1 -4,-1.6 z m -20.4,-2 -2.2,-3.4 -1.5,0.2 1.1,3.1 1.5,1 1.1,-0.9 z m 70,39.9 0.8,-3.2 0.4,-4.3 -0.8,-4.5 2.9,-2.7 3.3,-2.1 2.6,-0.7 1.1,0.2 5,-3.1 -0.9,-2.4 0.1,-2.7 -4.3,0.7 -5.3,-1.1 -1.3,-0.6 -0.4,-4.6 -1.3,-0.8 0.2,-2.3 4.4,0.5 2.3,-0.7 1.8,-2.3 0.4,-2.6 -4.1,-4.5 -2.4,-4.8 -2.6,1.2 -3.6,0.5 -2.7,-1.5 -6.9,-7.7 -2.8,-6.6 -2.5,-1.2 -0.9,1.8 0.7,5.1 -1.7,1.5 -3.5,-0.5 -1.8,3.8 -2.5,1.7 -2.7,-0.9 -4.2,4.1 -2.5,1 1,1.1 -0.9,5.9 -1.7,3.9 1.1,4.5 -1,4.8 -2.9,1.7 4.4,11 4.3,4.6 3.3,0.1 2.7,2 3.8,5.8 2,1.7 3.2,0.3 6.9,-1.2 6.8,-0.2 2.7,0.3 z"
       data-id="IT.TP"
       data-name="Trapani"
       id="IT.TP"
       inkscape:connector-curvature="0"
       style="fill-rule:evenodd" />
    <path
       d="m 571.2,943.7 0.3,-1.8 -1.3,-0.7 -1.7,1.3 0.5,1.5 2.2,-0.3 z m -18.5,-44 2.4,4.8 4.1,4.5 -0.4,2.6 -1.8,2.3 -2.3,0.7 -4.4,-0.5 -0.2,2.3 1.3,0.8 0.4,4.6 1.3,0.6 5.3,1.1 4.3,-0.7 -0.1,2.7 0.9,2.4 -5,3.1 0.5,0.5 2,3.1 1.7,1 4.9,-0.3 4.5,1.4 1.3,1.1 1.4,3.3 2.8,2.3 7.2,-4.4 1,2.2 -1.6,4.7 2.8,5.9 3.5,-1.8 0.3,-1.4 -1.9,-2.2 0.2,-2.1 4.8,-3.7 12.9,0.4 3.7,-1.2 3.6,-4.4 3.6,1.6 3.2,-4.4 1.3,-0.9 6.8,5 2.5,3.8 1.1,4.3 4.3,2.2 3.4,-0.4 1.6,-1.3 2.3,-3.7 1.1,-0.5 5.7,2 0.7,0.7 1.1,-0.7 1.8,-5 5.4,-1.8 2.1,-1.4 2,-4.6 -2.8,-4.2 0.2,-4.2 1.1,-1.2 -1,-3.2 0.3,-5.1 -3.3,-2.8 -5.4,-8 -2.4,-0.3 -5.6,0.5 -5.4,-2.6 -1,1.1 -5.7,1 -3.3,2.5 -3.3,0.8 -5.5,2.4 -5.3,-0.8 -2.5,-1.3 -4,-0.7 -5.5,-4 -3.4,-1.7 -0.7,-3.9 -2.4,-1.7 -10.2,0.7 -1.9,-7.2 -3.8,-2.8 -1,-2.1 -6.5,1.4 -0.6,2.3 -1.9,0.9 -4.2,-0.4 -2.9,-1.1 -2.7,0.8 0,1.7 -2.7,2.5 1.6,4.8 -3.5,3.4 -4.2,1.9 z m 88.2,37.8 1,-3 2.2,-1.6 1.5,0.3 1.1,3.3 -1.1,0.8 -4.7,0.2 z M 566.1,833 l 0.6,-2.5 -1.3,0 -1.2,2.3 1.9,0.2 z"
       data-id="IT.PA"
       data-name="Palermo"
       id="IT.PA"
       inkscape:connector-curvature="0"
       style="fill-rule:evenodd" />
    <path
       d="m 653.2,901.6 5.4,8 3.3,2.8 -0.3,5.1 1,3.2 2.1,0.4 8.5,-2.5 7.5,4.5 0,-1.8 1.3,-2.4 1.8,-1.2 2.7,-0.6 -0.5,3.7 3.7,3.2 5.8,0.9 3.3,-1.3 2.5,-0.6 0.8,-0.3 3.2,1.3 0.7,-2.8 -2.2,-2.8 -3.7,-0.7 0.1,-1.2 2.2,-2.4 0.1,-3.3 4.4,-1.2 1,-1.6 1.7,0.9 2,2.2 2.5,-1.9 3.1,0.2 1.3,3.9 2.2,2 3.5,0.2 6.2,-1.4 4,0.7 3.7,2.5 6.5,6.8 0.5,-0.5 2.8,-5.4 6.8,-11.5 8.3,-11.2 2,-5.3 3.6,-6.6 -1.3,0.1 1.8,-4.2 5.4,-3.6 -3,-0.5 -4.8,-2.1 -3.9,0.3 -3.1,3.1 -5.9,3.6 -6.5,2.2 -5.3,0.1 -1.5,-3.2 -2.8,6 -2,2.7 -7.3,2.9 -9,-3.1 -6.4,-3 -2.7,1.3 -6.3,1.5 -5.3,0.3 -3,3.8 -4.8,4.1 -10.1,3.8 -3.9,0.7 -2.8,-1.2 -3.8,2 -4.4,1.2 -4.8,0.3 -7.9,-1.1 z m 66.3,-35.5 0.7,-0.7 -2.3,-3.6 -1.3,-0.6 -1.8,0.6 0.4,1.6 3.4,3.4 0.9,-0.7 z m -3.1,-8.5 -1.4,-2.9 2.3,0 -1.9,-2.1 0.6,-1.5 -3.5,-0.6 -1.2,0.7 -0.7,3.5 4.3,3.1 1.5,-0.2 z m -9.2,-9.8 1,-2.1 -0.9,-1.2 -4.3,-0.3 -1.7,1.2 2.6,2.1 3.2,1.3 0.1,-1 z m -23.2,-0.9 -1.9,-2.8 -1.6,1 0.7,1.4 2.8,0.4 z m 51.9,-22.5 -0.7,-3.6 -2.5,2.4 3.2,1.2 z"
       data-id="IT.ME"
       data-name="Messina"
       id="IT.ME"
       inkscape:connector-curvature="0"
       style="fill-rule:evenodd" />
    <path
       d="m 698.8,923.6 -3.3,1.3 -5.8,-0.9 -3.7,-3.2 0.5,-3.7 -2.7,0.6 -1.8,1.2 -1.3,2.4 0,1.8 -7.5,-4.5 -8.5,2.5 -2.1,-0.4 -1.1,1.2 -0.2,4.2 2.8,4.2 -2,4.6 -2.1,1.4 -5.4,1.8 -1.8,5 -1.1,0.7 1.1,0.2 0.6,3.2 -1,0.3 -0.8,5.7 1.4,4.4 -5.2,5.6 0.1,5.6 1.5,3 3.4,0.4 9.3,-0.2 7.4,4.3 2.1,-0.4 4.4,1.3 2.3,0 1.8,-1.1 -1.4,-1.6 0.6,-2.6 2.6,2.4 3.4,0.3 -0.3,-4 4.5,-0.5 1.3,-1.9 -0.6,-1.4 1.4,-1.8 1.7,-0.5 -0.8,-2.4 -2.8,-1.2 -4.7,-0.4 -0.7,-0.8 -0.5,-4.1 0.4,-1.7 2,-2.4 7,0.2 5.2,-1.6 2.4,1.3 4.8,4.2 2,-3.6 -0.5,-3.1 3.3,-3 -1.8,-4.3 -2.2,-2.2 0.1,-5.5 -4.1,2.6 -2.7,-1 -0.1,-3.5 1.1,-1.8 -1.4,-2.8 1.9,-3.9 0.1,-0.5 -2.5,0.6 z"
       data-id="IT.EN"
       data-name="Enna"
       id="IT.EN"
       inkscape:connector-curvature="0"
       style="fill-rule:evenodd" />
    <path
       d="m 701.3,923 -0.1,0.5 -1.9,3.9 1.4,2.8 -1.1,1.8 0.1,3.5 2.7,1 4.1,-2.6 -0.1,5.5 2.2,2.2 1.8,4.3 -3.3,3 0.5,3.1 -2,3.6 -4.8,-4.2 -2.4,-1.3 -5.2,1.6 -7,-0.2 -2,2.4 -0.4,1.7 0.5,4.1 0.7,0.8 4.7,0.4 2.8,1.2 0.8,2.4 -1.7,0.5 -1.4,1.8 0.6,1.4 -1.3,1.9 -4.5,0.5 0.3,4 -3.4,-0.3 -2.6,-2.4 -0.6,2.6 1.4,1.6 -1.8,1.1 -2.3,0 -4.4,-1.3 0.2,2.2 2,2.8 0.7,2 0,4.1 0.7,1.5 4.2,1.3 2,1.6 1.1,2.3 -2.1,7.5 0.2,0.9 1.1,0.1 5.1,-2 3.9,1.8 2.2,-2.1 2.9,-1.1 6.2,-4 2.7,2 4.1,-3.1 0.6,0.2 1.6,0.7 4.2,-5.1 -0.9,-2.9 -4.1,0.5 -1.9,-1.1 -0.8,-2 0.8,-1.2 5.7,-3.3 0.9,-2.3 -0.3,-2.2 -2.1,-1 -2.9,0.8 -1.2,-0.7 -0.1,-1.9 2.9,-1.7 1.6,-2.9 7.9,-1.6 3.1,2.9 9.4,1.5 -0.1,-0.1 -0.7,-10.3 1.8,-6.4 3.8,-4.7 2.5,-12.2 1.1,-1.2 -1.1,-5.2 2.6,-5 1.5,-1.2 -6.5,-6.8 -3.7,-2.5 -4,-0.7 -6.2,1.4 -3.5,-0.2 -2.2,-2 -1.3,-3.9 -3.1,-0.2 -2.5,1.9 -2,-2.2 -1.7,-0.9 -1,1.6 -4.4,1.2 -0.1,3.3 -2.2,2.4 -0.1,1.2 3.7,0.7 2.2,2.8 -0.7,2.8 -3.2,-1.3 -0.8,0.3 z"
       data-id="IT.CT"
       data-name="Catania"
       id="IT.CT"
       inkscape:connector-curvature="0"
       style="fill-rule:evenodd" />
    <path
       d="m 733.2,970.4 -9.4,-1.5 -3.1,-2.9 -7.9,1.6 -1.6,2.9 -2.9,1.7 0.1,1.9 1.2,0.7 2.9,-0.8 2.1,1 0.3,2.2 -0.9,2.3 -5.7,3.3 -0.8,1.2 0.8,2 1.9,1.1 4.1,-0.5 0.9,2.9 -4.2,5.1 -1.6,-0.7 0.3,1.1 3.7,8.3 5.9,5.2 2.1,5.4 -1.4,0.8 -5.1,-4.4 -1,-0.1 1.3,4.7 3.7,3.4 3.2,1.5 -0.7,3.2 -3.7,-1.2 -1.9,0.1 -0.9,1.4 2,2.5 9.2,3 2.3,3 0.7,6.5 0.6,0 1.2,0.4 4.6,4.1 5,-1.6 0,-1.3 -1.8,-6.2 -2.3,-5.4 1.1,-2.1 3.6,-10.8 1.3,-2.1 5.7,-2.9 2,-0.1 -0.2,-2.8 3.8,-1.2 1.5,0.1 -1.8,-3.4 -1.7,0.2 -0.5,-2.8 1.3,0.7 -0.2,-4 -4.8,-1.8 -1.4,-4.8 -1.4,1 -1.9,-2.2 -1.1,-3.2 1.2,-2.1 -0.6,-1.3 2.4,0.3 0,1.8 1.9,-2.7 1.4,1.3 -3.9,-5.3 -3.2,-0.6 -6,-3.2 -1.3,-2.3 -0.4,-1.6 z"
       data-id="IT.SR"
       data-name="Siracusa"
       id="IT.SR"
       inkscape:connector-curvature="0"
       style="fill-rule:evenodd" />
    <path
       d="m 708.8,993.7 -4.1,3.1 -2.7,-2 -6.2,4 -2.9,1.1 -2.2,2.1 -3.9,-1.8 -5.1,2 -1.1,-0.1 -7.5,5.2 -1.4,0.2 3.1,2.8 2.2,2.9 7.6,14.5 1,1.2 9.6,2.2 5,1.9 2.3,2.9 5,0.7 3.2,2.1 5.4,-2.8 2.9,-0.5 3.2,1.1 5.5,3.2 1.2,-1.3 0.2,-0.1 -0.7,-6.5 -2.3,-3 -9.2,-3 -2,-2.5 0.9,-1.4 1.9,-0.1 3.7,1.2 0.7,-3.2 -3.2,-1.5 -3.7,-3.4 -1.3,-4.7 1,0.1 5.1,4.4 1.4,-0.8 -2.1,-5.4 -5.9,-5.2 -3.7,-8.3 -0.3,-1.1 -0.6,-0.2 z"
       data-id="IT.RG"
       data-name="Ragusa"
       id="IT.RG"
       inkscape:connector-curvature="0"
       style="fill-rule:evenodd" />
    <path
       d="m 645.6,937.3 1.1,-0.8 -1.1,-3.3 -1.5,-0.3 -2.2,1.6 -1,3 4.7,-0.2 z m -27.9,-0.3 1.2,0.3 4.2,1.3 2.2,3.8 -0.2,1.1 -6.8,3.5 -2,0.3 -2.4,-1.1 -0.9,2.1 2,3.7 -0.3,4 -3.4,2.4 0.6,2 2.3,-0.1 4,2.3 1.3,0.2 8.4,-0.4 2,3.4 1.8,-0.2 0.2,4.7 2.9,2.6 3.3,0.3 5,4.6 0.7,3.6 -2,4.8 0.6,2.7 2.6,3 1.3,3.8 4.2,-0.3 3.1,0.5 7.1,3.3 6.1,3.8 4.9,4.5 1.4,-0.2 7.5,-5.2 -0.2,-0.9 2.1,-7.5 -1.1,-2.3 -2,-1.6 -4.2,-1.3 -0.7,-1.5 0,-4.1 -0.7,-2 -2,-2.8 -0.2,-2.2 -2.1,0.4 -7.4,-4.3 -9.3,0.2 -3.4,-0.4 -1.5,-3 -0.1,-5.6 5.2,-5.6 -1.4,-4.4 0.8,-5.7 1,-0.3 -0.6,-3.2 -1.1,-0.2 -0.7,-0.7 -5.7,-2 -1.1,0.5 -2.3,3.7 -1.6,1.3 -3.4,0.4 -4.3,-2.2 -1.1,-4.3 -2.5,-3.8 -6.8,-5 -1.3,0.9 -3.2,4.4 z"
       data-id="IT.CL"
       data-name="Caltanissetta"
       id="IT.CL"
       inkscape:connector-curvature="0"
       style="fill-rule:evenodd" />
    <path
       d="m 558.5,931 -1.1,-0.2 -2.6,0.7 -3.3,2.1 -2.9,2.7 0.8,4.5 -0.4,4.3 -0.8,3.2 4.1,0.5 2.7,1.1 3.8,6.2 2.9,-0.3 10.3,1.4 6.9,5.7 2.3,3.9 2.8,1.4 1.6,1.5 3.7,2.1 7,4.8 3,1.1 6.8,1.6 2.6,1.7 7.4,7 2.8,1.8 3.1,1.3 3.6,0.7 3.3,1.3 5.4,4 3.7,0.5 3.1,-1.5 5.2,-0.4 -1.3,-3.8 -2.6,-3 -0.6,-2.7 2,-4.8 -0.7,-3.6 -5,-4.6 -3.3,-0.3 -2.9,-2.6 -0.2,-4.7 -1.8,0.2 -2,-3.4 -8.4,0.4 -1.3,-0.2 -4,-2.3 -2.3,0.1 -0.6,-2 3.4,-2.4 0.3,-4 -2,-3.7 0.9,-2.1 2.4,1.1 2,-0.3 6.8,-3.5 0.2,-1.1 -2.2,-3.8 -4.2,-1.3 -1.2,-0.3 -3.6,-1.6 -3.6,4.4 -3.7,1.2 -12.9,-0.4 -4.8,3.7 -0.2,2.1 1.9,2.2 -0.3,1.4 -3.5,1.8 -2.8,-5.9 1.6,-4.7 -1,-2.2 -7.2,4.4 -2.8,-2.3 -1.4,-3.3 -1.3,-1.1 -4.5,-1.4 -4.9,0.3 -1.7,-1 -2,-3.1 -0.5,-0.5 z m 10.5,13 -0.5,-1.5 1.7,-1.3 1.3,0.7 -0.3,1.8 -2.2,0.3 z"
       data-id="IT.AG"
       data-name="Agrigento"
       id="IT.AG"
       inkscape:connector-curvature="0"
       style="fill-rule:evenodd" />
    <path
       d="m 593.1,459.6 0.8,0.6 3.4,6.8 3.1,7.4 -0.7,2.3 -1.8,-0.1 -0.7,3.2 0.8,3 -1.2,2.1 2.3,2.2 5.7,-2.2 2.5,2.4 3.6,2 5.1,4.2 5.3,-1.1 0.6,-0.8 1.6,-1.7 -0.4,-4.5 -1.9,-3.2 1.7,-2 0.8,-2.1 -4.8,-8.1 0.2,-1.3 5.4,-6.1 1.3,-3.6 0.8,-0.7 3.5,0.8 0.8,0.8 2.1,-2.9 -3.1,-2.3 -6.1,-6.1 -3.8,-0.1 -2.1,-1.3 -2,1.4 -4.9,-0.9 -4.3,3.9 -3.3,-0.8 -2,2.2 -3.9,-0.8 -1.1,1 -2.7,4.6 -0.6,1.8 z"
       data-id="IT.PE"
       data-name="Pescara"
       id="IT.PE"
       inkscape:connector-curvature="0"
       style="fill-rule:evenodd" />
    <path
       d="m 617.2,442 -1.1,-2.5 -5.6,-7.3 -1.9,-3.1 -3.3,-6.7 -3.9,-10.1 0,0 -7.1,1.4 -9.2,3.9 -1.3,3 -1.4,0.5 -4.3,0 -2.7,0.9 -3.9,-0.5 -3.2,6.6 -3.4,1.2 -2.4,3.3 -6,0.7 -0.1,0.8 2.2,2.5 0.9,0.2 0.7,4.7 0,0 1.9,2.8 1.9,4.5 3.6,3.6 3.6,1.6 2.7,3.2 4.2,-0.7 12.7,1.3 1.3,0.7 1,1.1 0.6,-1.8 2.7,-4.6 1.1,-1 3.9,0.8 2,-2.2 3.3,0.8 4.3,-3.9 4.9,0.9 2,-1.4 2.1,1.3 3.8,0.1 -6.6,-6.6 z"
       data-id="IT.TE"
       data-name="Teramo"
       id="IT.TE"
       inkscape:connector-curvature="0"
       style="fill-rule:evenodd" />
    <path
       d="m 592.1,458.5 -1.3,-0.7 -12.7,-1.3 -4.2,0.7 -2.7,-3.2 -3.6,-1.6 -3.6,-3.6 -1.9,-4.5 -1.9,-2.8 -0.5,1.8 -3.2,1.2 -8,-0.6 -3.7,-0.7 -0.8,2.9 -2.2,0.8 0,2.3 0.9,0.6 -0.2,5.4 -0.7,4.3 2.9,1.6 -1,4.6 0.8,1.9 3.6,1.9 2.2,4.9 4.4,4.3 1.6,0.4 4.7,4.2 -3,0.6 -3.2,3.9 -3.3,0.4 -11.3,-4.4 -1.9,3.2 -3.4,2.5 0,0 -1.3,0.7 1.7,7.6 5.6,0.8 15.5,7.6 1.2,-0.1 0.2,0 0,0 1.6,0.6 3.6,6.9 0.3,4 4,-0.1 8.1,3.5 3,2.7 3.5,-0.1 5.3,-4 5.6,1.5 1.9,2.8 3.2,1.9 1.7,-0.6 5.4,2.3 2.8,0.7 4.6,3.5 1.5,-0.4 5.7,-1.1 9.5,-5.1 2.6,-1.1 -4.1,-5.2 1.4,-2.3 4.6,-1.9 0.7,-1.5 0.1,-0.1 -1.6,-1.3 -1.3,-0.5 -6.3,0.6 -0.9,-0.4 -2.3,-4.5 1.2,-1 -1.7,-5.5 1.3,-6.4 -1.5,-1.6 -5.3,1.1 -5.1,-4.2 -3.6,-2 -2.5,-2.4 -5.7,2.2 -2.3,-2.2 1.2,-2.1 -0.8,-3 0.7,-3.2 1.8,0.1 0.7,-2.3 -3.1,-7.4 -3.4,-6.8 -0.8,-0.6 -1,-1.1 z"
       data-id="IT.AQ"
       data-name="L'Aquila"
       id="IT.AQ"
       inkscape:connector-curvature="0"
       style="fill-rule:evenodd" />
    <path
       d="m 676.8,493.2 -1.9,-0.6 -1,-1.5 -2.2,-7.5 -1.3,-0.9 -3.3,-0.6 -4.9,-1.7 -3,-1.7 -11.3,-9.5 -3.8,-5 -2.6,-2 -6.2,-3.4 -2.3,-1.8 -2.1,2.9 -0.8,-0.8 -3.5,-0.8 -0.8,0.7 -1.3,3.6 -5.4,6.1 -0.2,1.3 4.8,8.1 -0.8,2.1 -1.7,2 1.9,3.2 0.4,4.5 -1.6,1.7 -0.6,0.8 1.5,1.6 -1.3,6.4 1.7,5.5 -1.2,1 2.3,4.5 0.9,0.4 6.3,-0.6 1.3,0.5 1.6,1.3 0.1,0 4.1,-2.8 7.9,3.2 4.4,3.1 1.7,4.5 0.5,2.9 2,-0.2 1.3,-0.7 2,-1 4.6,-6.9 5.1,-6.2 0,-2.8 2.1,-1.2 5.8,-5.8 -0.2,-1.9 1,-4 0,0 z"
       data-id="IT.CH"
       data-name="Chieti"
       id="IT.CH"
       inkscape:connector-curvature="0"
       style="fill-rule:evenodd" />
    <path
       d="m 532.2,488.6 -2,0.6 -1.5,2 -2.7,-1.5 -3.8,1.4 -3.6,-4.7 -2.9,-1.2 -2,-2.7 -6.3,4 -2.1,-0.6 -3.9,-2.2 -1.1,-2 -0.3,-4.2 1.6,1.5 -0.1,-1.9 -2.5,-3.5 -3.3,0.7 -1.3,-2.3 -2.2,-0.2 -0.5,1 -2.1,1.6 0,4.8 -4.6,3.8 -1.5,-5.4 -2.7,1.1 -0.2,5.2 -1.4,1.6 -2,0.7 -1.9,-0.4 -0.7,-1.7 -2,-0.9 -4,-0.2 -4.9,1 -1.6,1.6 -8.9,0.2 -1.7,-0.6 -3.2,-4.1 -2.5,-2 -2.7,-1.2 -2.2,0.3 -1.3,1.8 -1.9,4.9 -3.7,0.4 -4.8,-0.1 0.3,0.7 4.5,6.7 3.1,4.9 7.3,-0.3 4.4,2.6 1.1,1.1 14.1,9.5 4.1,5.6 1.1,1.9 1,5.9 2.2,3.1 3.8,0.9 13.9,9.5 8.4,8.6 6.6,8.4 1.3,1.2 1.5,-1.8 2,0.7 6,3.4 1.2,0.3 0.9,0 -0.6,-2.2 -4.1,-5.1 -3.3,-1.4 -1.8,-2.2 -5,-2.4 -2.4,-2.7 -1.5,-3.3 0.4,-1.9 4.2,-2.9 1.6,0.1 2.1,5.9 3.2,-0.2 4.1,3.2 1.3,-0.9 2,-3.4 2.7,-0.6 2.1,-3.5 -0.1,-4.2 4.7,-1.1 2.5,0.9 1.5,4.1 4,3.4 1.6,4.9 3.3,0.3 3.8,2.9 4.5,-2.5 1.1,-1.3 -1.5,-0.5 -0.2,-4.6 -1,-1.8 -4.5,-3.1 -0.2,-2.3 -1.3,-1.3 -5.1,-3.1 -1.9,-3.2 0.6,-2.9 4.3,-1.9 1.6,-2.4 4.6,1.2 2.5,0.1 5.5,-4.6 4.5,-5.5 -0.2,0 -1.2,0.1 -15.5,-7.6 -5.6,-0.8 -1.7,-7.6 1.3,-0.7 -2.7,-0.9 z"
       data-id="IT.RM"
       data-name="Roma"
       id="IT.RM"
       inkscape:connector-curvature="0"
       style="fill-rule:evenodd" />
    <path
       d="m 487.1,462.8 -2.7,-0.6 1.5,-2.1 -2.6,-1.3 -2.4,-3.4 -4.3,-2.9 -3.9,-0.5 -1.5,-2.1 -0.8,-4.7 -1,0.1 -5,-8.8 -4,-2 -1.4,1.1 -3.6,0.3 -6,1.2 -6,-4.2 -1.6,-1.7 1.1,-2.3 2.2,-2.3 -3.5,-3.5 -3.9,-5.8 -3.9,1.5 -3.1,2.4 -2.6,-0.9 -1.5,1.3 -0.2,0.8 2.3,1.8 2.9,3.7 -1.8,9.2 -1.3,0.2 -2.6,3.5 -2.7,1.3 -1.8,2.1 -6.7,1 0.1,1.9 -1.2,3.5 3.3,2.9 -0.4,3.4 -1,0.5 -7.4,0.8 -3.5,5.9 3.1,1.4 4.2,1.1 10,6.8 2.1,2.7 4.9,8.2 0.3,0.9 4.8,0.1 3.7,-0.4 1.9,-4.9 1.3,-1.8 2.2,-0.3 2.7,1.2 2.5,2 3.2,4.1 1.7,0.6 8.9,-0.2 1.6,-1.6 4.9,-1 4,0.2 2,0.9 0.7,1.7 1.9,0.4 2,-0.7 1.4,-1.6 0.2,-5.2 2.7,-1.1 1.5,5.4 4.6,-3.8 0,-4.8 2.1,-1.6 0.5,-1 0,0 -2.4,-0.3 -1.6,-1.9 1.1,-0.7 -3,-4.6 0.9,-1.5 -0.1,0 z"
       data-id="IT.VT"
       data-name="Viterbo"
       id="IT.VT"
       inkscape:connector-curvature="0"
       style="fill-rule:evenodd" />
    <path
       d="m 554.2,430.2 -3.1,-2.3 -1.1,-0.1 -1.5,0.8 -3.9,0.1 -0.7,1.1 0.5,2.5 -2,4.3 -1.4,1.1 -2.5,-0.2 -1.3,1.2 -8.6,2.4 -7.1,-0.1 -1.7,1.8 -0.6,3.1 -7.1,3.2 -1.9,2.6 -3.1,1 0.7,3.5 -6.4,0.9 -1.2,-1.7 -2.7,6 -4.3,3.2 -2.8,-2.1 -3.2,0.3 -0.9,1.5 3,4.6 -1.1,0.7 1.6,1.9 2.4,0.3 0,0 2.2,0.2 1.3,2.3 3.3,-0.7 2.5,3.5 0.1,1.9 -1.6,-1.5 0.3,4.2 1.1,2 3.9,2.2 2.1,0.6 6.3,-4 2,2.7 2.9,1.2 3.6,4.7 3.8,-1.4 2.7,1.5 1.5,-2 2,-0.6 2.7,0.9 0,0 3.4,-2.5 1.9,-3.2 11.3,4.4 3.3,-0.4 3.2,-3.9 3,-0.6 -4.7,-4.2 -1.6,-0.4 -4.4,-4.3 -2.2,-4.9 -3.6,-1.9 -0.8,-1.9 1,-4.6 -2.9,-1.6 0.7,-4.3 0.2,-5.4 -0.9,-0.6 0,-2.3 2.2,-0.8 0.8,-2.9 3.7,0.7 8,0.6 3.2,-1.2 0.5,-1.8 0,0 -0.7,-4.7 -0.9,-0.2 -2.2,-2.5 0.1,-0.8 -2.3,-3.1 z"
       data-id="IT.RI"
       data-name="Rieti"
       id="IT.RI"
       inkscape:connector-curvature="0"
       style="fill-rule:evenodd" />
    <path
       d="m 607.8,528.2 -2.8,-0.7 -5.4,-2.3 -1.7,0.6 -3.2,-1.9 -1.9,-2.8 -5.6,-1.5 -5.3,4 -3.5,0.1 -3,-2.7 -8.1,-3.5 -4,0.1 -0.3,-4 -3.6,-6.9 -1.6,-0.6 0,0 -4.5,5.5 -5.5,4.6 -2.5,-0.1 -4.6,-1.2 -1.6,2.4 -4.3,1.9 -0.6,2.9 1.9,3.2 5.1,3.1 1.3,1.3 0.2,2.3 4.5,3.1 1,1.8 0.2,4.6 1.5,0.5 1.4,-0.4 1.7,4.1 4.7,1.8 3,5.7 -2.9,2.2 -0.2,1.2 5.1,3.4 8.4,0.2 1.2,-2.3 -0.5,-3.5 2.9,0.4 6.9,3.9 5.4,8.3 2.8,1.1 2.6,-2 2.6,-0.7 4.3,3.4 2.4,0.4 3.1,-2.2 3.1,-0.2 0.7,-0.2 -0.4,-2.3 0,-4.1 -1.2,-1.9 3,-1.7 4.3,-3.4 0.8,0 1.5,-1.6 2,-3.8 -0.3,-3.3 -1.3,-2.4 -0.1,-3.4 -4,-6.1 -0.5,-0.9 -4.6,-3.5 z"
       data-id="IT.FR"
       data-name="Frosinone"
       id="IT.FR"
       inkscape:connector-curvature="0"
       style="fill-rule:evenodd" />
    <path
       d="m 575.2,620.7 0.4,-1 -1.3,1.5 0.9,-0.5 z m -39,-9.1 0,-2.1 2.4,-3 -3.5,1.5 -0.4,1.9 1.5,1.7 z m 7.9,-8.3 0.1,-1 -0.7,0.1 0.6,0.9 z m -20.6,-44.9 7,3.8 6,6.3 3.7,5.9 1.1,2.9 3.8,0.1 1.8,-2.4 2.9,-1 4.3,-2.3 6.6,-1.2 3.2,0.1 13.1,5.5 2.3,1.8 0.5,-0.8 5.2,2.1 -1.2,-3 2.5,-1.5 5,-0.6 5.4,0.7 1.9,1.5 6.2,-4.3 2,-0.7 1.5,-3.4 0.3,-1.3 -0.7,0.2 -3.1,0.2 -3.1,2.2 -2.4,-0.4 -4.3,-3.4 -2.6,0.7 -2.6,2 -2.8,-1.1 -5.4,-8.3 -6.9,-3.9 -2.9,-0.4 0.5,3.5 -1.2,2.3 -8.4,-0.2 -5.1,-3.4 0.2,-1.2 2.9,-2.2 -3,-5.7 -4.7,-1.8 -1.7,-4.1 -1.4,0.4 -1.1,1.3 -4.5,2.5 -3.8,-2.9 -3.3,-0.3 -1.6,-4.9 -4,-3.4 -1.5,-4.1 -2.5,-0.9 -4.7,1.1 0.1,4.2 -2.1,3.5 -2.7,0.6 -2,3.4 -1.3,0.9 -4.1,-3.2 -3.2,0.2 -2.1,-5.9 -1.6,-0.1 -4.2,2.9 -0.4,1.9 1.5,3.3 2.4,2.7 5,2.4 1.8,2.2 3.3,1.4 4.1,5.1 0.6,2.2 5.5,0.3 z"
       data-id="IT.LT"
       data-name="Latina"
       id="IT.LT"
       inkscape:connector-curvature="0"
       style="fill-rule:evenodd" />
    <path
       d="m 574,350.6 -1.8,-3.8 -1.6,-0.3 -3.1,-4 -4.4,-1 -3.5,0 -3.9,-1.2 -12.3,-6.6 -6.4,-4.7 -4.8,2.2 -4,0.7 -0.8,3.7 -4,2.6 -3.3,5.7 -3.8,3.5 -11.5,10 0.1,1.7 -0.6,6 0.7,1.7 3.1,4.1 0.7,3.7 5,7.6 0.1,0.2 0.9,-0.7 2.1,-1.3 -0.8,-4.5 0.3,-0.6 4.6,0.7 5.2,-3.6 3.6,-5 2.2,-6.8 0.5,-0.2 6.1,1.9 5.3,-4.1 1.4,-0.4 3.3,4.8 3.7,0.8 4.4,-2.1 10.9,-2.6 2.3,0.6 1.1,1.8 4,-1.1 -0.4,-2.5 2.2,-1.4 -2.8,-5.5 z"
       data-id="IT.AN"
       data-name="Ancona"
       id="IT.AN"
       inkscape:connector-curvature="0"
       style="fill-rule:evenodd" />
    <path
       d="m 517.4,314.7 -1.6,-1.8 -5.5,-1.9 -4.9,-3.1 -3.9,-0.5 -0.1,-0.1 -0.7,7.3 -4.2,4.7 -7.4,-3.6 -1.1,-0.9 -1.8,2.1 -1.1,-2.3 -5.4,-3 -0.1,0.1 -1.2,2.7 -2.8,0.8 -0.7,-0.3 -4.8,2 -1.8,4.6 -3.8,3.2 0.4,1.9 -0.2,0.7 0.4,0.2 1.2,0.8 4.3,4.6 -2.3,2.8 -0.9,-0.9 -1.2,-3.6 -1.7,3.8 -6.1,3.4 -0.5,1.1 1.1,2.7 0.4,0.6 4.2,0.8 1.6,0.9 2.4,-1.6 3.2,-1 0.8,0.5 -0.7,4.5 -3.5,0.7 1.3,1.5 5.2,2.1 4.8,-1.2 5.7,2.4 8.1,8.1 2.1,-1.1 4.9,0.7 3.2,-2.6 2.1,-0.1 11.5,-10 3.8,-3.5 3.3,-5.7 4,-2.6 0.8,-3.7 4,-0.7 4.8,-2.2 -19.6,-14.3 z m -39.9,30.1 -2,-2 2.3,-1.6 0.5,0.7 -0.8,2.9 z"
       data-id="IT.PU"
       data-name="Pesaro e Urbino"
       id="IT.PU"
       inkscape:connector-curvature="0"
       style="fill-rule:evenodd" />
    <path
       d="m 576.8,356.1 -2.2,1.4 0.4,2.5 -4,1.1 -1.1,-1.8 -2.3,-0.6 -10.9,2.6 -4.4,2.1 -3.7,-0.8 -3.3,-4.8 -1.4,0.4 -5.3,4.1 -6.1,-1.9 -0.5,0.2 -2.2,6.8 -3.6,5 -5.2,3.6 -4.6,-0.7 -0.3,0.6 0.8,4.5 -2.1,1.3 -0.9,0.7 0.4,1.5 -1.5,4.7 1,1.6 2.5,1.1 1.2,1.4 2.8,13.5 4.2,3.4 1.5,4.1 1.2,-0.9 0.1,-2 2.3,0.1 5.6,2.7 6.6,6.3 4.5,-2.3 1.2,-4.4 -2.3,-4.6 -0.1,-1.2 3.4,-2 6.4,-6.5 2.3,-0.8 4,3.4 3.1,-1.8 0.5,-1.8 -0.8,-2.7 -1.4,-0.9 -0.8,-2.7 0.6,-3.3 6.8,-6.4 4.6,0.1 0.9,-1 -0.4,-4.6 2.7,-1 8.9,-1.4 -9.1,-17.9 z"
       data-id="IT.MC"
       data-name="Macerata"
       id="IT.MC"
       inkscape:connector-curvature="0"
       style="fill-rule:evenodd" />
    <path
       d="m 595.6,393.6 -1.4,-3.4 -4.4,-7.2 -0.7,-3.5 -1.8,-2.7 -1.4,-2.8 -8.9,1.4 -2.7,1 0.4,4.6 -0.9,1 -4.6,-0.1 -6.8,6.4 -0.6,3.3 0.8,2.7 1.4,0.9 0.8,2.7 -0.5,1.8 -3.1,1.8 -4,-3.4 -2.3,0.8 -6.4,6.5 -3.4,2 0.1,1.2 2.3,4.6 0.7,-0.1 3.4,-3 4.5,1 3.3,2.2 0.6,-1 -0.2,-5.7 0.7,-0.9 11.5,-2.3 5.8,-3.7 12.3,-4.6 6,0.9 -0.5,-2.4 z"
       data-id="IT.FM"
       data-name="Fermo"
       id="IT.FM"
       inkscape:connector-curvature="0"
       style="fill-rule:evenodd" />
    <path
       d="m 547.5,413.2 -1.2,4.4 0.6,0.2 2.4,5.2 -1.3,3 -3.5,1.3 0.1,1.4 3.9,-0.1 1.5,-0.8 1.1,0.1 3.1,2.3 2.3,3.1 6,-0.7 2.4,-3.3 3.4,-1.2 3.2,-6.6 3.9,0.5 2.7,-0.9 4.3,0 1.4,-0.5 1.3,-3 9.2,-3.9 7.1,-1.4 -3.9,-10.4 -1.4,-5.9 -6,-0.9 -12.3,4.6 -5.8,3.7 -11.5,2.3 -0.7,0.9 0.2,5.7 -0.6,1 -3.3,-2.2 -4.5,-1 -3.4,3 -0.7,0.1 z"
       data-id="IT.AP"
       data-name="Ascoli Piceno"
       id="IT.AP"
       inkscape:connector-curvature="0"
       style="fill-rule:evenodd" />
    <path
       d="m 459,342.2 -3.7,6.7 -1.3,1.6 -2,0.4 1.6,5.2 -3.9,3.1 -1.6,0.6 -1.5,2 3.2,1.5 -0.1,1.6 4,2.2 5.3,5.7 0.4,-0.9 2.3,1.3 -5.1,3.9 -1.9,0 -3.1,1.5 -4.1,-0.9 -0.7,0.4 -1.2,5.2 -4.3,2.1 -0.2,0.2 -0.7,0.6 -1.6,3 0.8,6 1.8,0.5 2.4,2.4 0,1.8 -2.6,7.1 -0.4,3.5 1.7,2.6 -1.1,1.9 -0.4,0.2 0.8,0.6 3.3,-0.3 1.3,-0.8 1.3,-3.1 1.9,-2.1 2.2,-0.8 19,2.3 2.4,2.6 0.1,3 -2,5.9 -0.5,3 0.7,1.9 3.2,0.6 1.1,1.5 0.4,4.6 1.4,0.3 2.5,-3 3.9,1.5 3.4,-3.4 1.5,-0.4 2.8,2 2.1,-0.8 1.7,-2.7 1.6,1.8 1.3,4.3 6.9,5.6 1,2.6 1.6,-0.2 0.6,-2.4 2.3,-0.9 3.1,-2.3 3.2,-1.2 3,3 0.8,2.5 0.6,0.6 7.1,0.1 8.6,-2.4 1.3,-1.2 2.5,0.2 1.4,-1.1 2,-4.3 -0.5,-2.5 0.7,-1.1 -0.1,-1.4 3.5,-1.3 1.3,-3 -2.4,-5.2 -0.6,-0.2 -4.5,2.3 -6.6,-6.3 -5.6,-2.7 -2.3,-0.1 -0.1,2 -1.2,0.9 -1.5,-4.1 -4.2,-3.4 -2.8,-13.5 -1.2,-1.4 -2.5,-1.1 -1,-1.6 1.5,-4.7 -0.4,-1.5 -0.1,-0.2 -5,-7.6 -0.7,-3.7 -3.1,-4.1 -0.7,-1.7 0.6,-6 -0.1,-1.7 -2.1,0.1 -3.2,2.6 -4.9,-0.7 -2.1,1.1 -8.1,-8.1 -5.7,-2.4 -4.8,1.2 -5.2,-2.1 -1.3,-1.5 3.5,-0.7 0.7,-4.5 -0.8,-0.5 -3.2,1 -2.4,1.6 -1.6,-0.9 -4.2,-0.8 -0.4,-0.6 z m 18.5,2.6 0.8,-2.9 -0.5,-0.7 -2.3,1.6 2,2 z"
       data-id="IT.PG"
       data-name="Perugia"
       id="IT.PG"
       inkscape:connector-curvature="0"
       style="fill-rule:evenodd" />
    <path
       d="m 520.9,440.4 -0.8,-2.5 -3,-3 -3.2,1.2 -3.1,2.3 -2.3,0.9 -0.6,2.4 -1.6,0.2 -1,-2.6 -6.9,-5.6 -1.3,-4.3 -1.6,-1.8 -1.7,2.7 -2.1,0.8 -2.8,-2 -1.5,0.4 -3.4,3.4 -3.9,-1.5 -2.5,3 -1.4,-0.3 -0.4,-4.6 -1.1,-1.5 -3.2,-0.6 -0.7,-1.9 0.5,-3 2,-5.9 -0.1,-3 -2.4,-2.6 -19,-2.3 -2.2,0.8 -1.9,2.1 -1.3,3.1 -1.3,0.8 -3.3,0.3 -0.8,-0.6 -3.3,2.1 3.9,5.8 3.5,3.5 -2.2,2.3 -1.1,2.3 1.6,1.7 6,4.2 6,-1.2 3.6,-0.3 1.4,-1.1 4,2 5,8.8 1,-0.1 0.8,4.7 1.5,2.1 3.9,0.5 4.3,2.9 2.4,3.4 2.6,1.3 -1.5,2.1 2.7,0.6 0.1,0 3.2,-0.3 2.8,2.1 4.3,-3.2 2.7,-6 1.2,1.7 6.4,-0.9 -0.7,-3.5 3.1,-1 1.9,-2.6 7.1,-3.2 0.6,-3.1 1.7,-1.8 -0.6,-0.6 z"
       data-id="IT.TR"
       data-name="Terni"
       id="IT.TR"
       inkscape:connector-curvature="0"
       style="fill-rule:evenodd" />
    <path
       d="m 113.3,165.5 0.8,-2.4 -0.5,-1 -3.5,-1.8 -8.5,-6.6 0.9,-3.4 -1.3,-3.4 -7.7,2.1 -4.1,2 -14.9,-2.8 -3.9,1.3 -1.4,-0.1 -7.4,5.3 -13.7,4 -3.9,-0.5 -2,-1.1 0.2,-0.9 -5.2,4.2 0.5,0.7 6.5,6 -2.2,4.1 -2.9,3.3 1.5,6.3 -2.2,1.6 -1.4,2.5 -2.7,-1 -2.8,0.7 -6.3,5 -3.2,0.4 0.4,2.5 -2.6,1.1 -5.9,-2.3 -3.5,-0.1 -1.4,0.9 -3.4,0.5 -2.8,1.4 -2.3,2.2 2.8,2.9 1.3,3.8 3.7,0.8 2.2,1.4 0.6,2.8 0,5.5 1.5,2.1 2.7,2 5.6,2.8 1.5,0.3 5.4,-0.6 4.1,1.5 1.8,1.8 1.4,8.8 1.7,2.6 3.1,-0.2 6.1,-3.5 13.7,-3.5 1.5,0.5 0.7,2.3 10,-0.3 1.5,-0.4 8.6,-6.9 3.7,1 0.3,1.1 8,-0.2 3.6,-2.8 6,1.6 2.8,0 2.7,-1.9 -0.8,-0.7 -1.7,-2.9 -2.3,-2.6 1.1,-5.5 2.1,-2.1 0.5,-6.2 -1,-0.4 -2.2,-4 1.3,-0.3 5.6,-2.8 3.2,-0.7 1.5,0.5 2.8,2.6 1.2,-2.4 1.2,-0.2 1.4,0.5 0.6,-1.3 0.3,-2.4 0.7,-0.8 -1,-0.8 -3.9,-1 -2.5,0.4 -6.1,-8 -0.1,-4.3 -2.7,-2.1 1.3,-1.4 3,0.2 1.1,-1.1 -1.4,-5 1.4,0 -0.4,-1.2 z"
       data-id="IT.TO"
       data-name="Turin"
       id="IT.TO"
       inkscape:connector-curvature="0"
       style="fill-rule:evenodd" />
    <path
       d="m 120.6,169.1 2.6,-1.8 1.7,-3.9 2.8,-1.3 1.7,-2.8 1.9,-1.5 2.7,-4.9 0.1,-1.4 -2.2,-3.8 2,-3.6 -0.9,-3 -9.2,-8.5 -3.3,-0.9 -3.5,2.3 -0.4,1.2 -4.3,-1.4 -6.6,1.2 -2.1,-0.6 0,1.3 0.5,6.7 -0.5,1.3 -2.4,3.2 1.3,3.4 -0.9,3.4 8.5,6.6 3.5,1.8 0.5,1 -0.8,2.4 0.4,1.2 6.9,2.4 z"
       data-id="IT.BI"
       data-name="Biella"
       id="IT.BI"
       inkscape:connector-curvature="0"
       style="fill-rule:evenodd" />
    <path
       d="m 135.5,130.5 0.7,-5.8 -0.6,-2.6 -1.9,-1.5 -2.5,-3.6 -4.9,-2.2 -0.2,-1.7 -1.7,-0.3 -7.6,2.4 -4.1,-0.8 -5.1,2.8 -1.4,0.1 -4.7,-2.2 -1.8,-0.2 -1.7,0.7 -0.5,0.2 2.6,15.3 0.7,1 2.6,1.4 0.2,0.9 2.1,0.6 6.6,-1.2 4.3,1.4 0.4,-1.2 3.5,-2.3 3.3,0.9 9.2,8.5 0.9,3 -2,3.6 2.2,3.8 -0.1,1.4 -2.7,4.9 -1.9,1.5 -1.7,2.8 -2.8,1.3 -1.7,3.9 -2.6,1.8 -6.9,-2.4 -1.4,0 1.4,5 -1.1,1.1 -3,-0.2 -1.3,1.4 2.7,2.1 0.1,4.3 6.1,8 2.5,-0.4 3.9,1 1,0.8 0.6,0.1 1.1,0.8 2.1,-1.7 1.8,1.1 3.8,-1.3 5.3,0.7 2.7,-2.5 2.8,-0.8 7.4,0.7 3,2.4 1.9,0.9 -0.2,-0.5 0.3,-2.3 -2.3,-3.7 0.2,-0.7 -3,-5 0.8,-2.4 0.1,-0.1 -1.8,-0.5 -1.7,-1.7 2.3,-1.2 -4.1,-3.6 -3.6,-3.9 -2,-18 -0.6,-1.5 -2.7,-2.1 -3.6,-5.4 1.4,-0.5 3.3,0.3 1.2,-2.6 -2.3,-3.1 -0.7,-1.5 -2.6,0.3 z"
       data-id="IT.VC"
       data-name="Vercelli"
       id="IT.VC"
       inkscape:connector-curvature="0"
       style="fill-rule:evenodd" />
    <path
       d="m 166.6,96.8 -2.3,1.4 -1.4,-0.1 -6.1,-2.6 -5.3,-6.5 -2.4,-2 -5.9,-2.7 -0.9,-1.6 -0.3,-4.9 1.1,-5.2 -0.4,-8.1 -1.2,-1.3 -6.7,0.4 -3.7,2.6 0.3,3 -2.1,2.4 -2.2,0.9 -3.7,4.5 -1.7,1 -6.6,2.7 -0.7,1 4.4,6.5 0.3,3.6 -1.6,3.3 -6.6,3.5 -1.9,8 -0.9,1.1 -6.9,1.7 -1.2,0.8 -0.9,3.3 -1.7,0.1 0.6,2 1.7,-0.7 1.8,0.2 4.7,2.2 1.4,-0.1 5.1,-2.8 4.1,0.8 7.6,-2.4 1.7,0.3 0.2,1.7 4.9,2.2 2.5,3.6 1.9,1.5 0.6,2.6 -0.7,5.8 2.6,-0.3 1,-0.6 1.4,-3.4 0.5,-3.4 2.1,0.8 3.5,-3 2.9,2.3 0.3,1.2 4.3,-1.1 3.6,1.9 0.2,-0.4 -1,-8.7 9.8,-9.4 0.9,-2.2 -0.6,-7.3 -0.4,-0.1 z"
       data-id="IT.VB"
       data-name="Verbano-Cusio-Ossola"
       id="IT.VB"
       inkscape:connector-curvature="0"
       style="fill-rule:evenodd" />
    <path
       d="m 154.1,123 -4.3,1.1 -0.3,-1.2 -2.9,-2.3 -3.5,3 -2.1,-0.8 -0.5,3.4 -1.4,3.4 -1,0.6 0.7,1.5 2.3,3.1 -1.2,2.6 -3.3,-0.3 -1.4,0.5 3.6,5.4 2.7,2.1 0.6,1.5 2,18 3.6,3.9 4.1,3.6 -2.3,1.2 1.7,1.7 1.8,0.5 0,0 3.3,-5.2 5.6,0.9 2.8,4 3.6,1.2 1,-3.1 3,-1.8 -1.4,-1.6 2,-2 5.3,-1.8 -1.5,-1.5 -2.5,-5.1 -4.9,-3.6 -1.6,-3.8 -0.3,-0.6 -0.1,-0.5 -0.9,-4.5 -2.5,-3.2 0.8,-3.3 -2.5,-1.2 0.2,-2.7 -2.7,-1.5 -4.5,-7 2.4,-2.4 0.1,-0.3 -3.6,-1.9 z"
       data-id="IT.NO"
       data-name="Novara"
       id="IT.NO"
       inkscape:connector-curvature="0"
       style="fill-rule:evenodd" />
    <path
       d="m 155.2,189.3 -3,-2.4 -7.4,-0.7 -2.8,0.8 -2.7,2.5 -5.3,-0.7 -3.8,1.3 -1.8,-1.1 -2.1,1.7 -1.1,-0.8 -0.6,-0.1 -0.7,0.8 -0.3,2.4 -0.6,1.3 -1.2,1.5 1.3,3.8 2.8,3.1 2.5,-0.1 2.6,2.4 1,-4.1 5.2,-1.6 3.7,3.8 1.1,4.4 1.7,0.8 0.7,1.7 -0.2,2.9 -1.6,2.2 1,4.7 6.7,5.7 2.7,0.2 0.9,0.9 0.2,2.7 -1.6,1.5 -4.4,1.8 -0.9,4.1 -5,0.2 0.8,3.8 -0.4,1.9 -2.3,1.8 0.4,2.3 3,1.3 -2.4,1.7 -2.8,-0.1 -1.2,2.6 -1,1.2 0.2,0.2 3.7,2.3 4.8,1 1.4,-2 6.9,-1.1 7.1,0.2 1.4,-0.9 1.5,-2.4 -0.4,-0.9 2.7,-2.9 11.1,6.4 0.2,2.1 3.1,-2.7 1.9,-3.1 6,-0.9 -2.8,-6 2.5,-3.2 0.3,-1.3 3.6,-0.6 11.6,6.7 0.7,1.7 2.3,1.4 2.8,-0.1 2.3,-1.5 0.3,-1.4 -0.5,-6.7 0.2,-3.8 -3,-6.4 -2.6,-3 -3.8,-0.2 -3.8,-3 0,-3.4 -4.5,-3.4 -2.2,-2.6 -0.1,-2.3 -7.5,-7.8 -2.5,-1.2 -6,3.1 -8.5,0.3 -1.9,-1.7 -3.3,-6.5 -2.9,-2.9 -0.9,-1.9 -0.6,-0.8 -1.9,-0.9 z"
       data-id="IT.AL"
       data-name="Alessandria"
       id="IT.AL"
       inkscape:connector-curvature="0"
       style="fill-rule:evenodd" />
    <path
       d="m 121.6,193.8 -1.2,0.2 -1.2,2.4 -2.8,-2.6 -1.5,-0.5 -3.2,0.7 -5.6,2.8 -1.3,0.3 2.2,4 1,0.4 -0.5,6.2 -2.1,2.1 -1.1,5.5 2.3,2.6 1.7,2.9 0.8,0.7 1.4,-0.8 1.1,0.4 2.7,4 4.4,0.2 2.4,-1.1 3.1,0.7 -0.4,2.6 -2.3,3 5,4.2 2.9,-3.6 2.5,2.1 3.7,1.3 0,1.1 -5.2,6.9 0,1.8 3.8,3.7 0.2,2.8 0.6,1.4 0.9,0.7 0.4,0.5 1,-1.2 1.2,-2.6 2.8,0.1 2.4,-1.7 -3,-1.3 -0.4,-2.3 2.3,-1.8 0.4,-1.9 -0.8,-3.8 5,-0.2 0.9,-4.1 4.4,-1.8 1.6,-1.5 -0.2,-2.7 -0.9,-0.9 -2.7,-0.2 -6.7,-5.7 -1,-4.7 1.6,-2.2 0.2,-2.9 -0.7,-1.7 -1.7,-0.8 -1.1,-4.4 -3.7,-3.8 -5.2,1.6 -1,4.1 -2.6,-2.4 -2.5,0.1 -2.8,-3.1 -1.3,-3.8 1.2,-1.5 -1.4,-0.5 z"
       data-id="IT.AT"
       data-name="Asti"
       id="IT.AT"
       inkscape:connector-curvature="0"
       style="fill-rule:evenodd" />
    <path
       d="m 134.4,250.8 -0.2,-2.8 -3.8,-3.7 0,-1.8 5.2,-6.9 0,-1.1 -3.7,-1.3 -2.5,-2.1 -2.9,3.6 -5,-4.2 2.3,-3 0.4,-2.6 -3.1,-0.7 -2.4,1.1 -4.4,-0.2 -2.7,-4 -1.1,-0.4 -1.4,0.8 -2.7,1.9 -2.8,0 -6,-1.6 -3.6,2.8 -8,0.2 -0.3,-1.1 -3.7,-1 -8.6,6.9 -1.5,0.4 -10,0.3 -0.7,-2.3 -1.5,-0.5 -13.7,3.5 -6.1,3.5 -3.1,0.2 0.9,1.4 0.5,1.3 -5.8,-0.7 -1.8,0.9 -2,3.6 1,2 -1.1,0.8 -2.6,4.2 -4,2.7 -0.8,1.3 0.3,3.1 1.9,2.7 4.7,3.8 -4,6.3 0.4,0.9 5.1,6.6 5.5,5.7 3,-0.5 5.8,2.5 3.3,1 8.7,4.6 4.8,1.3 1.8,2.1 4,0.3 13.9,-3.6 2.4,-0.1 3.2,-1.9 2.5,0.4 -1,3.1 4,5.2 0,0 3.9,-1.2 -0.7,-1.1 2.2,-2.9 4.1,1.5 15.6,1.2 0.1,-0.2 0.1,-0.3 -0.7,-3.8 4,0.2 0.9,-0.5 1.8,-4.1 -0.8,-1 -0.3,-4 1.4,-6.2 3.5,-3 1.7,-4.3 3.7,-2.8 2,-10.8 1.1,-0.2 -0.6,-1.4 z"
       data-id="IT.CN"
       data-name="Cuneo"
       id="IT.CN"
       inkscape:connector-curvature="0"
       style="fill-rule:evenodd" />
    <path
       d="m 97.4,113.6 -0.2,1.7 -5.2,0.4 -3.9,-1.2 -3.1,0.2 -2.9,-3.1 -1.3,-0.6 -8.2,-1.8 -2.9,2.7 -4,1.1 -4.6,3 -2.5,0.8 -6.1,-0.6 -8.1,3.3 -7.4,0 -1.9,-1 -3.7,-3.5 -1.2,0.5 -2.9,5 -5,2.4 -2.5,0.1 -0.2,1.6 -2.2,-1 -2.2,0.6 -2.5,3.7 0,1.8 1.3,5.8 1.7,2.1 2.2,1.4 9.7,4.2 0.6,1.4 -1.2,3.2 2.6,8.2 3.7,1.8 3.9,2.6 0,0 5.2,-4.2 -0.2,0.9 2,1.1 3.9,0.5 13.7,-4 7.4,-5.3 1.4,0.1 3.9,-1.3 14.9,2.8 4.1,-2 7.7,-2.1 2.4,-3.2 0.5,-1.3 -0.5,-6.7 0,-1.3 -0.2,-0.9 -2.6,-1.4 -0.7,-1 -2.6,-15.3 0.5,-0.2 -0.6,-2 0,0 z"
       data-id="IT.AO"
       data-name="Aoste"
       id="IT.AO"
       inkscape:connector-curvature="0"
       style="fill-rule:evenodd" />
    <path
       d="m 277.5,102.3 -1.1,-0.3 -0.1,-3.4 -13.5,2.8 -4.3,1.9 -9.8,-1.9 -9.9,1.1 -6.8,4 -0.9,0 -2.8,0 3.9,5.7 -0.1,2.6 -2.5,5.8 -2,1.1 0.7,3.9 2.3,2.8 -4,2.9 -0.6,1.1 0.9,4.9 1.1,1.7 1.2,1.1 1.2,2.6 1.8,2.1 0.8,2 0.6,6.2 -1.5,2.9 0.9,0.9 3.7,4.4 3,-1.3 4.7,3.1 1.2,0.3 3,-4.5 1.5,0.5 3,4.6 4,-2.4 5.9,2.8 0,0 -0.3,-3.5 -2.7,-7.6 -0.5,-4 1,-2.4 1.7,-1.6 2.7,-4.5 8.5,-1.9 2.2,-1.2 0.5,-1.9 -1.1,-6.7 3.3,-5.7 1.9,-2.1 -1.9,-1.6 -1.1,-2.2 0,-2.6 1.5,-2.5 4.4,-2.5 2.2,-2.6 4.5,-1.3 -3.2,-3.2 -4.4,-0.7 -4.7,0.3 z"
       data-id="IT.BG"
       data-name="Bergamo"
       id="IT.BG"
       inkscape:connector-curvature="0"
       style="fill-rule:evenodd" />
    <path
       d="m 301.7,54.3 -1.5,0.3 -15.4,-4 -0.3,-4.2 -3.3,-0.9 -8.5,3 -0.8,3.2 -2.9,3.1 0,2.9 1.2,3.7 -1.3,2 1.3,1.4 8,2.9 -0.5,2.2 -2.7,2.9 -0.3,1.3 1.1,2.9 3.4,2.9 1.2,1.7 -1,1.9 -5.5,2.3 -2.6,0 -1.1,-3.9 -4.5,-3.8 -1.4,-5.8 -2,-1.1 -6.7,0.1 -5.2,2.3 -6.3,0.1 0.1,3 -2.6,2 -9.2,-0.1 -4.7,-2.7 -4.3,-5 -0.7,-2.5 -0.9,-9.5 -0.9,-0.5 -3.2,3 -4.5,-3.5 -3.8,0.4 -3.3,6.1 1.9,1.9 0.2,3.7 1.2,3.5 -0.2,3.5 -2.2,4.2 -1,3.5 2.1,-0.4 6.2,0 3.7,2.3 3.7,-0.7 1.6,0.5 -0.7,1.9 -0.3,3.5 -0.1,0.5 -0.7,1.8 1.9,5.2 6.1,2.1 1.1,3.6 0.5,1.5 0.9,0 6.8,-4 9.9,-1.1 9.8,1.9 4.3,-1.9 13.5,-2.8 0.1,3.4 1.1,0.3 4.7,-0.3 0.6,-1.9 -2.2,-5.8 0.4,-2.4 1.4,-1.4 8.7,-4.8 0.8,-1.4 1,-4.2 1,-1 2.9,-0.5 6,-5.5 2,-0.6 3.1,1.8 1.5,-0.6 0.4,-1.1 1.4,-1.1 3.6,-0.3 1.6,-0.8 1.5,-2.3 -1.1,-4.8 -0.3,-0.7 -0.7,-0.6 -6.1,-2.9 -3.8,-0.5 -3.7,-5.2 -0.5,0.9 z"
       data-id="IT.SO"
       data-name="Sondrio"
       id="IT.SO"
       inkscape:connector-curvature="0"
       style="fill-rule:evenodd" />
    <path
       d="m 307.9,74.3 -3.1,-1.8 -2,0.6 -6,5.5 -2.9,0.5 -1,1 -1,4.2 -0.8,1.4 -8.7,4.8 -1.4,1.4 -0.4,2.4 2.2,5.8 -0.6,1.9 4.4,0.7 3.2,3.2 -4.5,1.3 -2.2,2.6 -4.4,2.5 -1.5,2.5 0,2.6 1.1,2.2 1.9,1.6 -1.9,2.1 -3.3,5.7 1.1,6.7 -0.5,1.9 -2.2,1.2 -8.5,1.9 -2.7,4.5 -1.7,1.6 -1,2.4 0.5,4 2.7,7.6 0.3,3.5 0,0 0.1,1.9 -0.3,3.7 8.4,6.3 7.5,2.8 2.7,1.8 9.1,2.7 3.6,-1.7 3.5,3.1 0.7,1.3 1.1,0.2 2.4,-1.2 2.9,-6.2 2.5,-3.7 2.5,-2.3 -1.3,-5 2.8,-2.3 10.2,3 1.1,-0.6 2.3,-3 0,-0.1 -2.4,-14.1 0,-4.6 7.6,-10.7 1.1,-1.2 3.1,-5.9 3.1,-4.4 -1.5,-0.8 -4.7,0 -3.2,-0.7 -1.5,0.4 -3.3,3.3 -6.8,1.6 -1.8,-0.8 -3.9,-6.2 -0.5,-2.2 0.5,-3.4 -1.9,-4.6 -2.9,-1.2 1.2,-4 1,-0.5 1,-3.9 1.2,-2 3,-7 -0.1,-2.5 1.8,-5.1 -2.3,-8.8 -3.2,-2 -1.5,0.6 z"
       data-id="IT.BS"
       data-name="Brescia"
       id="IT.BS"
       inkscape:connector-curvature="0"
       style="fill-rule:evenodd" />
    <path
       d="m 370,195.3 -7.6,0.2 -2,1.2 -2.6,-1.8 -0.5,-3.5 -3.4,-0.1 -5.2,-5.6 -8.1,-5.2 -1.1,-1.8 -2.6,-2.2 -3,0.8 -2.3,-2.1 -3.4,-0.4 0.7,-0.9 -0.8,-9.2 -1.2,-0.1 -2.1,0.5 -2.3,3 -1.1,0.6 -10.2,-3 -2.8,2.3 1.3,5 -2.5,2.3 -2.5,3.7 -2.9,6.2 -2.4,1.2 -1.1,-0.2 0.5,2.1 5.8,3.1 7.1,0.6 1.1,2.3 -1.8,2.7 -4.3,1.3 0.1,3.9 4.5,-1.4 1.6,0 2.6,-2.3 0.9,1 -0.2,3 -4.8,2.8 -0.9,2.8 1.4,0 4.7,-2 2.4,-0.1 -0.1,2 -1.6,1.6 -4.2,1.4 -1.7,1.6 3.3,1.4 -0.2,0.3 0.2,0.1 5,0.3 2.8,-0.7 2.5,-1.6 3.5,-4.7 4.9,0.2 1.1,0.8 1,3.3 7.8,1.6 1.4,0.8 0.9,0.5 0.1,0 6.8,-2.2 1.9,-1.7 6.6,-0.9 8.4,3 5.7,-1.5 1.5,0.5 2.1,-1.8 5.5,0.2 4.1,0.8 -0.3,-1.6 -2.4,-0.7 -7,-3.9 -2.7,-2 -0.1,-2.6 -4.8,0.1 -1.5,-0.6 -0.1,-3.1 1.1,-0.8 -0.5,-0.8 z"
       data-id="IT.MN"
       data-name="Mantova"
       id="IT.MN"
       inkscape:connector-curvature="0"
       style="fill-rule:evenodd" />
    <path
       d="m 257.1,161.5 -4,2.4 -3,-4.6 -1.5,-0.5 -3,4.5 -1.2,-0.3 -4.7,-3.1 -3,1.3 -3.7,-4.4 -0.9,-0.9 -2.1,5 -0.6,1 -0.2,0.5 0.1,6.5 1.3,0.4 3.3,3 3.3,-0.5 0.1,-1.6 1.5,0.7 2.3,5.1 5.5,3.7 2.4,0.6 5.4,4.8 1.9,3.7 6.1,1.8 0.7,0.7 0.7,1.9 1.6,-0.4 1.6,0.8 -0.5,2.2 5.6,-2.1 2.9,1.8 2.2,4.4 2.2,2.8 2.7,0.2 6.2,-1.1 3.3,0.8 8.5,4.7 1.9,0.7 3.9,-0.7 1.2,0.6 2.7,4.7 2.8,1.3 1.9,0.4 0.2,-0.3 -3.3,-1.4 1.7,-1.6 4.2,-1.4 1.6,-1.6 0.1,-2 -2.4,0.1 -4.7,2 -1.4,0 0.9,-2.8 4.8,-2.8 0.2,-3 -0.9,-1 -2.6,2.3 -1.6,0 -4.5,1.4 -0.1,-3.9 4.3,-1.3 1.8,-2.7 -1.1,-2.3 -7.1,-0.6 -5.8,-3.1 -0.5,-2.1 -0.7,-1.3 -3.5,-3.1 -3.6,1.7 -9.1,-2.7 -2.7,-1.8 -7.5,-2.8 -8.4,-6.3 0.3,-3.7 -0.1,-1.9 -5.9,-2.8 z"
       data-id="IT.CR"
       data-name="Cremona"
       id="IT.CR"
       inkscape:connector-curvature="0"
       style="fill-rule:evenodd" />
    <path
       d="m 228.4,160.3 -3.5,2.1 0,3.8 -2,1.2 -2,3.5 1.7,4.1 -0.2,1.2 -1.8,-0.7 -1.3,0.1 -0.4,1 -1.5,5.5 1.5,-0.2 7.8,4.8 1.1,1.2 7.6,2.2 1.2,2.3 0.1,0.9 0.5,-0.2 1.8,2 1.4,0.2 3,-1.6 0.6,3 3.9,2.3 3.3,0.3 2.3,-1 -0.1,-2.5 4.9,2.3 1.8,1.6 5.2,-3.1 -1.3,-1.8 -0.2,-1.6 -0.7,-1.9 -0.7,-0.7 -6.1,-1.8 -1.9,-3.7 -5.4,-4.8 -2.4,-0.6 -5.5,-3.7 -2.3,-5.1 -1.5,-0.7 -0.1,1.6 -3.3,0.5 -3.3,-3 -1.3,-0.4 -0.1,-6.5 0.2,-0.5 -1,-1.6 z"
       data-id="IT.LO"
       data-name="Lodi"
       id="IT.LO"
       inkscape:connector-curvature="0"
       style="fill-rule:evenodd" />
    <path
       d="m 218.6,175.4 -2.7,-1.5 -1.8,0.6 -4.4,-0.4 -3.8,2.8 -10.3,-0.4 -2.5,-2.3 -2,0.5 2,4.2 -2.2,1.4 -3.5,-3.9 -6.4,-5.4 -2.8,-4.9 -5.3,1.8 -2,2 1.4,1.6 -3,1.8 -1,3.1 -3.6,-1.2 -2.8,-4 -5.6,-0.9 -3.3,5.2 0,0 -0.1,0.1 -0.8,2.4 3,5 -0.2,0.7 2.3,3.7 -0.3,2.3 0.2,0.5 0.6,0.8 0.9,1.9 2.9,2.9 3.3,6.5 1.9,1.7 8.5,-0.3 6,-3.1 2.5,1.2 7.5,7.8 0.1,2.3 2.2,2.6 4.5,3.4 0,3.4 3.8,3 3.8,0.2 2.6,3 3,6.4 -0.2,3.8 2.6,0.3 0.7,-0.4 0.3,-3.1 1.2,1.2 3.3,0.8 1.3,-0.9 -0.2,-2.7 -1.1,-2.8 3.7,-6.6 -1.2,-4.6 -1.5,-0.6 -2,-2.3 0.1,-1.1 5.8,-12.9 3.1,-5.6 7,0 1.7,1.3 1.1,-0.9 -0.2,-3.5 0,0 -0.1,-0.9 -1.2,-2.3 -7.6,-2.2 -1.1,-1.2 -7.8,-4.8 -1.5,0.2 1.5,-5.5 0.4,-1 -0.7,-0.2 z"
       data-id="IT.PV"
       data-name="Pavia"
       id="IT.PV"
       inkscape:connector-curvature="0"
       style="fill-rule:evenodd" />
    <path
       d="m 233.6,153 -0.6,-6.2 -0.8,-2 -1.8,-2.1 -1.1,2.9 -1.5,1.7 -6.9,4.1 -4.1,0.3 0.3,1.5 -1.4,0 -9.3,-3.7 -1.6,-1.4 -4.9,0.5 -0.5,-3.6 -4.4,-0.1 1,2.9 -4.6,1.7 -1.4,-0.3 -1.4,-3.5 -3.7,-0.1 -3.3,1.7 -0.8,1.8 -2.9,1.2 -2,-2.5 -1.5,-0.8 -3.7,3.7 -2.5,0.1 -0.8,0.7 0.3,0.6 1.6,3.8 4.9,3.6 2.5,5.1 1.5,1.5 2.8,4.9 6.4,5.4 3.5,3.9 2.2,-1.4 -2,-4.2 2,-0.5 2.5,2.3 10.3,0.4 3.8,-2.8 4.4,0.4 1.8,-0.6 2.7,1.5 0.7,0.2 1.3,-0.1 1.8,0.7 0.2,-1.2 -1.7,-4.1 2,-3.5 2,-1.2 0,-3.8 3.5,-2.1 1,1.6 0.6,-1 2.1,-5 1.5,-2.9 z"
       data-id="IT.MI"
       data-name="Milano"
       id="IT.MI"
       inkscape:connector-curvature="0"
       style="fill-rule:evenodd" />
    <path
       d="m 181.9,124.8 0.9,-3.9 -0.2,-1.7 -4.7,-7.3 -4.7,-2.1 -2.6,-0.5 1.7,-3.5 2.2,-2.4 1.1,-2.3 -2.2,-2.4 -6.4,-1.8 0,0 0.6,7.3 -0.9,2.2 -9.8,9.4 1,8.7 -0.2,0.4 -0.1,0.3 -2.4,2.4 4.5,7 2.7,1.5 -0.2,2.7 2.5,1.2 -0.8,3.3 2.5,3.2 0.9,4.5 0.1,0.5 0.8,-0.7 2.5,-0.1 3.7,-3.7 1.5,0.8 2,2.5 2.9,-1.2 0.8,-1.8 3.3,-1.7 3.7,0.1 1.4,3.5 1.4,0.3 4.6,-1.7 -1,-2.9 0.1,-1.2 0,-1.1 0.2,-1.5 -2.8,0.9 -2.4,0.5 -3,-1.3 -1.3,0.4 -2.8,-2.5 3.1,-5.2 -3.7,-4.4 0.2,-4.9 -0.7,0.2 z"
       data-id="IT.VA"
       data-name="Varese"
       id="IT.VA"
       inkscape:connector-curvature="0"
       style="fill-rule:evenodd" />
    <path
       d="m 222.6,88.3 0.7,-1.9 -1.6,-0.5 -3.7,0.7 -3.7,-2.3 -6.2,0 -2.1,0.4 0,0 -4.1,4.8 -6.2,4.4 -1.4,2 -0.2,4.7 -5.3,4.3 1.6,3.4 -2.5,3.1 1.6,2.6 5.1,3.6 -0.3,1.7 -1.8,3.4 -2.4,2.7 -5.1,-1.4 -2.4,0.6 -0.2,4.9 3.7,4.4 -3.1,5.2 2.8,2.5 1.3,-0.4 3,1.3 2.4,-0.5 2.8,-0.9 0.1,-1.6 5.4,-1.5 1.5,0.6 2.2,2.3 0.9,-0.1 1.1,-4.2 2.6,-2 0.9,-1.5 -0.3,-3.1 1.9,-3.3 4.4,-5.2 -3.7,-4 -2,-6 1.7,-0.6 -1.3,-5.5 1.4,-9.3 1.8,-2.7 1.6,-1 5,-0.8 1.8,0.2 0.3,-3.5 z"
       data-id="IT.CO"
       data-name="Como"
       id="IT.CO"
       inkscape:connector-curvature="0"
       style="fill-rule:evenodd" />
    <path
       d="m 220.5,91.6 -5,0.8 -1.6,1 -1.8,2.7 -1.4,9.3 1.3,5.5 -1.7,0.6 2,6 3.7,4 -4.4,5.2 -1.9,3.3 0.3,3.1 0.5,0.2 0.9,-0.2 4.4,7.6 2.5,-0.5 2.1,1.5 2.1,-1.7 2.8,2.1 1.4,-0.2 2.5,-1.8 -1.2,-1.1 -1.1,-1.7 -0.9,-4.9 0.6,-1.1 4,-2.9 -2.3,-2.8 -0.7,-3.9 2,-1.1 2.5,-5.8 0.1,-2.6 -3.9,-5.7 2.8,0 -0.5,-1.5 -1.1,-3.6 -6.1,-2.1 -1.9,-5.2 0.7,-1.8 0.1,-0.5 -1.8,-0.2 z"
       data-id="IT.LC"
       data-name="Lecco"
       id="IT.LC"
       inkscape:connector-curvature="0"
       style="fill-rule:evenodd" />
    <path
       d="m 226.7,141.9 -1.4,0.2 -2.8,-2.1 -2.1,1.7 -2.1,-1.5 -2.5,0.5 -4.4,-7.6 -0.9,0.2 -0.5,-0.2 -0.9,1.5 -2.6,2 -1.1,4.2 -0.9,0.1 -2.2,-2.3 -1.5,-0.6 -5.4,1.5 -0.1,1.6 -0.2,1.5 0,1.1 -0.1,1.2 4.4,0.1 0.5,3.6 4.9,-0.5 1.6,1.4 9.3,3.7 1.4,0 -0.3,-1.5 4.1,-0.3 6.9,-4.1 1.5,-1.7 1.1,-2.9 -1.2,-2.6 -2.5,1.8 z"
       data-id="IT.MB"
       data-name="Monza e Brianza"
       id="IT.MB"
       inkscape:connector-curvature="0"
       style="fill-rule:evenodd" />
    <path
       d="m 484.5,44.1 1.7,9.8 -7.7,2.5 -1.5,2.5 2,1.1 0.5,1.7 -6.3,0 -3.3,0.6 -2.4,1.5 -0.8,2 -0.5,1.8 1,0.6 2.3,3.4 4.3,0.1 4.1,2.3 3.7,0.5 4.9,-0.7 4,-1.5 4.2,0.6 5.1,1.3 2.5,0.1 1.8,1.6 1,5.4 -0.4,2.8 -1.4,2.3 -0.1,5.6 -1.9,19.4 0.2,2.6 1,2.4 4.7,4.2 0.2,2.6 1.6,0.9 1.1,5.1 4.4,6.2 2.1,4.5 1.8,2.1 0,0 0.5,-1.6 2.7,-2 0.8,-1.5 -5.9,0.7 -0.5,-1.6 0.7,-1.4 3.3,-1.7 -0.9,-0.4 0.5,-2.3 1.7,1.7 5.1,-2.3 12,3.7 1.3,-0.4 1.1,1.4 3.3,0.6 0.5,-5.4 -3.1,-10.9 0.2,-2.8 3.7,-8.8 0,0 1.4,-3.8 1.7,-2.1 8.5,-5.9 2,-3.6 -0.7,-1.8 -6.3,-0.4 -4.1,-3 -7,-1.4 1.2,1.7 -2.1,0.3 -2.3,-3.5 -1.8,-4.6 2,-1.1 3,-5.2 7.4,-3.4 5.3,-5.4 4.6,-0.3 2.2,-2.2 0,-2.6 -1.8,-2.5 -9.8,-2.7 -3.4,-0.1 -2.4,-1.6 -4.8,0.3 -3.5,-0.5 -8,1.4 -10.2,-3.3 -6.6,-1.3 -18.7,-1.2 -4.7,-2.5 -2,-0.6 0,0 z"
       data-id="IT.UD"
       data-name="Udine"
       id="IT.UD"
       inkscape:connector-curvature="0"
       style="fill-rule:evenodd" />
    <path
       d="m 507.2,120.6 -4.7,-4.2 -1,-2.4 -0.2,-2.6 1.9,-19.4 0.1,-5.6 1.4,-2.3 0.4,-2.8 -1,-5.4 -1.8,-1.6 -2.5,-0.1 -5.1,-1.3 -4.2,-0.6 -4,1.5 -4.9,0.7 -3.7,-0.5 -4.1,-2.3 -4.3,-0.1 -2.3,-3.4 -1,-0.6 -0.2,0.7 -4.4,6.4 -4,1.9 -3.2,3.1 1.4,3.7 2.1,1.5 2.6,0.3 3.1,1.7 0.7,2.4 2.7,2.3 1,3.4 -0.4,2.5 -3.4,1.5 -2.3,3.6 0.3,0.8 0,0.1 4.6,9.1 5,4.7 3.3,6.3 3.6,1.2 0.9,-0.5 3.4,1.7 0.7,1.2 1.4,0.2 3.1,-2.7 3,-1.1 3.4,-0.6 0.6,1.7 4,-1.9 2.1,2.1 5.3,-0.8 0.8,-0.9 -0.2,-2.6 z"
       data-id="IT.PN"
       data-name="Pordenone"
       id="IT.PN"
       inkscape:connector-curvature="0"
       style="fill-rule:evenodd" />
    <path
       d="m 545.4,107 -3.7,8.8 -0.2,2.8 3.1,10.9 -0.5,5.4 0.9,1.7 -0.5,0.9 -3.8,1.5 2.1,0.7 2,-0.5 4,-2.9 2.2,-0.4 3.6,-2.3 -2.1,-0.3 -0.5,-1.9 0.7,-2.2 1.3,-1 1.8,0.2 0.8,0.3 0.3,-1.9 -0.6,-0.3 -1.4,-2.1 0,-3.4 2.1,-4.7 1.5,-5.3 -1.4,-1.9 -5.2,1.6 -2.4,0.2 -3,-2.9 -1.1,-1 z"
       data-id="IT.GO"
       data-name="Gorizia"
       id="IT.GO"
       inkscape:connector-curvature="0"
       style="fill-rule:evenodd" />
    <path
       d="m 556.9,126.8 -0.3,1.9 3.7,1.4 8.3,6.8 2.8,4.9 -1.4,0.5 3.1,1.4 2.6,2.1 -6.2,0.1 -1.4,2 4,-0.3 3.2,1.5 3.8,-0.4 2.9,-3.4 0.5,-1.2 -3,-1.8 -7,-9.3 -9.8,-4.8 -4.1,-0.6 -1.7,-0.8 z"
       data-id="IT.TS"
       data-name="Trieste"
       id="IT.TS"
       inkscape:connector-curvature="0"
       style="fill-rule:evenodd" />
    <path
       d="m 302.2,53.4 3.7,5.2 3.8,0.5 6.1,2.9 0.7,0.6 2.6,0.5 6.8,-3.5 4.4,3.7 3.5,1.6 12.2,-4.8 4.5,3.3 1,-1.2 -1,-5.7 2.3,-0.8 2.7,3 3.4,0.4 2.6,-1.6 1.9,3.6 -0.3,12.9 -3.3,5.5 -0.1,1.8 3.1,3.8 2.2,0.4 1.9,-0.8 3.4,-2.7 3.1,-3.4 3.5,2.4 1.3,-1.2 1.4,-4.3 3.7,-1 1.6,-2.5 4.9,0.6 1.3,-0.3 3.1,-2.9 3.1,-8.6 3.3,-3.5 2.5,-0.6 5,0.4 2.5,-2 1,0.7 0.8,1.9 1.5,-1 12.1,-2.1 4.3,-6.4 1.6,-6.7 7.2,3.2 1.9,2.5 14.5,-0.8 1.2,-2.2 5.4,-3.6 -2,-0.2 -3.3,-1.2 -2.8,-2.1 -2.6,-5.3 -6.2,-3 -0.4,-7.3 -1.3,-0.7 -10.1,-3.3 1.1,-1 -2.1,-9.1 4.7,-2.3 1.5,-1.9 -0.1,-2.7 -1.9,-0.5 -5,0.9 -7.9,3.5 -5.6,0.3 -6.7,2.6 -2.7,1.8 -3.5,0.5 -3.3,1.8 -4.2,-2.1 -6.9,-0.9 -6.4,1.1 -3.6,-1.7 -4.6,3.6 -2.4,-0.1 -5.4,-1.6 -5.5,0.8 -6.8,2.3 -4.9,4.4 -1.2,4.7 -2.9,5.9 -2.7,3.6 -10.8,0.2 -1.4,-1 -9.6,-0.9 1,-4.3 -6.2,-3.1 -10.7,1.7 -3.3,-0.3 -2.6,-1.8 -0.3,3.2 -2.3,3.3 0.2,5.6 -1.3,0.7 -0.2,3.5 -0.7,1.1 -0.4,3.6 1.5,1.4 3.4,0.3 1.7,1.2 0.7,1.9 -0.9,5.7 0,0 z"
       data-id="IT.BZ"
       data-name="Bozen"
       id="IT.BZ"
       inkscape:connector-curvature="0"
       style="fill-rule:evenodd" />
    <path
       d="m 411.6,55.8 -1,-0.7 -2.5,2 -5,-0.4 -2.5,0.6 -3.3,3.5 -3.1,8.6 -3.1,2.9 -1.3,0.3 -4.9,-0.6 -1.6,2.5 -3.7,1 -1.4,4.3 -1.3,1.2 -3.5,-2.4 -3.1,3.4 -3.4,2.7 -1.9,0.8 -2.2,-0.4 -3.1,-3.8 0.1,-1.8 3.3,-5.5 0.3,-12.9 -1.9,-3.6 -2.6,1.6 -3.4,-0.4 -2.7,-3 -2.3,0.8 1,5.7 -1,1.2 -4.5,-3.3 -12.2,4.8 -3.5,-1.6 -4.4,-3.7 -6.8,3.5 -2.6,-0.5 0.3,0.7 1.1,4.8 -1.5,2.3 -1.6,0.8 -3.6,0.3 -1.4,1.1 -0.4,1.1 3.2,2 2.3,8.8 -1.8,5.1 0.1,2.5 -3,7 -1.2,2 -1,3.9 -1,0.5 -1.2,4 2.9,1.2 1.9,4.6 -0.5,3.4 0.5,2.2 3.9,6.2 1.8,0.8 6.8,-1.6 3.3,-3.3 1.5,-0.4 3.2,0.7 4.7,0 1.5,0.8 3.3,1.6 1.1,4 -1,0.9 -0.8,4.5 2.7,1.4 2.9,2.6 1.6,-1.2 1.7,0.2 2.1,-2.1 4.6,0.1 4,1.2 1.4,0.1 1.3,-1.1 2.7,-4.4 -0.3,-2.3 1.3,-1 0,-2.3 4.2,-7.2 1.4,-3.4 3.2,-2.1 1.8,1.5 3.2,-2 -0.1,-3 4.5,-1.2 3.5,-2.2 6.9,-0.1 3.5,3.4 3.2,0.1 2.4,-0.9 -0.4,-2 1.2,-9 3.3,-1 4.4,0 6.6,-2.3 3.6,-4 2.3,-3.2 -2.5,-1.1 -1.1,-2.1 0.4,-1.7 -6.3,-2.6 -4.1,-6.8 1.7,-3.1 1.3,-0.2 1.1,-4.8 2.6,-2.7 -1.3,-1.7 -3.7,-1.2 -0.3,-2 -0.8,-1.9 z"
       data-id="IT.TN"
       data-name="Trento"
       id="IT.TN"
       inkscape:connector-curvature="0"
       style="fill-rule:evenodd" />
    <path
       d="m 448.9,179.3 0.4,2.7 -3.1,2.8 -0.6,2.5 -4.5,-1.2 -8.7,1.5 -1.4,3.6 -0.4,1.1 5.4,-0.2 1,2.2 3,3 3.5,2.5 2.6,0.9 1.1,-2.9 1.8,-2.7 3.2,0.6 3,-1.2 1.5,-2.4 2.7,-1.9 -0.1,-0.8 -2.1,-4.2 0.6,-1.5 -3,3.3 -1.6,0 -2.2,-1.9 0.1,-3.5 -0.9,-4.2 -1.2,0.6 -0.1,1.3 z m 15.8,-15.4 -4.3,2.5 -1.7,3.3 -0.4,2.4 3.9,-7.4 4.5,0.7 -2,-1.5 z m -4.5,-0.3 -0.5,-2.5 -1.4,0 -1,1.6 2.9,0.9 z m 3.5,-1.5 -1.7,-0.5 0.8,0.8 0.9,-0.3 z m 20,-34.9 -0.6,2.3 1,6.4 -0.6,1.2 -4.6,1.6 -6.5,0 -1.9,0.9 -1.9,3.5 -2.6,0.4 0,5.1 -1.3,1.1 -10.6,0.9 -0.9,2.5 -1.3,0.7 -5.7,-5.1 -6.3,-1.6 -1.4,0.3 -0.6,1.3 -4,2.2 0,2 -2,2.8 -1.5,5.1 3.6,0.6 -1.4,3.3 -2.3,2.5 0.6,1.3 4.2,2.4 -1.2,1.7 0.4,1.7 1.3,1 3.7,-1.1 5.5,3.4 0.3,-2.1 4.4,0.4 1.7,-3.1 -0.8,-1.3 2.6,-4.1 -0.9,-2.5 1.6,-4.2 2.8,-2.5 3.2,-1.6 2.6,0 0.9,1.3 2.4,-1.3 -3.3,-1.8 0.9,-1.6 3.2,2.7 0.4,-1.8 5,-4.3 2.6,3.7 3.5,-1.6 -0.6,1.2 -4,2.1 -0.4,2.6 -2.3,-1.1 -3.9,2.9 -1.8,3.8 8,-3.4 7.7,-2.5 13.2,-5.7 12.6,-7.4 3,-0.6 6.3,-0.2 2.7,-1.6 0,0 -1.8,-2.1 -2.1,-4.5 -4.4,-6.2 -1.1,-5.1 -1.6,-0.9 -0.8,0.9 -5.3,0.8 -2.1,-2.1 -4,1.9 -0.6,-1.7 -3.4,0.6 -3,1.1 -3.1,2.7 -1.4,-0.2 z"
       data-id="IT.VE"
       data-name="Venezia"
       id="IT.VE"
       inkscape:connector-curvature="0"
       style="fill-rule:evenodd" />
    <path
       d="m 467.7,226.7 2,-2.6 -0.8,-3.1 -2.1,-1.6 3.5,-3.3 -0.8,4.6 1.8,3.4 2.2,-2.5 1.4,-3.2 -0.1,-3.2 2.8,-5.9 -2.6,-2.1 -1.3,1.5 -6.4,-5.5 0.2,-1 -3.7,-2.3 1.4,3.9 -1.1,1.5 -1.2,-1.3 1.6,-1.4 -3.1,-4.2 -3.6,-0.7 0,-1.8 2.5,0.5 -0.7,-3.7 -0.2,-2.5 -2.7,1.9 -1.5,2.4 -3,1.2 -3.2,-0.6 -1.8,2.7 -1.1,2.9 -2.6,-0.9 -3.5,-2.5 -3,-3 -1,-2.2 -5.4,0.2 -9.7,0.4 -3.1,1.1 -3.6,2.9 -2.9,-1.2 -4.5,0.3 -2.1,-1.1 -7.9,-0.9 -3.4,1.6 -4.1,-1.5 -2.2,-0.5 -0.1,0.2 -0.5,0.8 2.9,2.9 -1.4,2.6 -3.1,1.3 -2.3,-1.1 -2.2,-2.5 -9.9,-1.5 -1.1,0.8 0.1,3.1 1.5,0.6 4.8,-0.1 0.1,2.6 2.7,2 7,3.9 2.4,0.7 0.3,1.6 0.9,1.2 4.5,-0.5 5.3,1.4 4.4,3 1.3,0.3 13.7,-8.1 5.7,-0.8 5,0.7 12.6,0.8 2.4,1.1 2.7,2.5 6.1,0.8 4.6,-1 1.4,7 3.3,1.4 1.5,3.2 3.7,2.4 0.3,0 z"
       data-id="IT.RO"
       data-name="Rovigo"
       id="IT.RO"
       inkscape:connector-curvature="0"
       style="fill-rule:evenodd" />
    <path
       d="m 437.2,144.4 -2.6,-1.7 -2.2,0 -1.6,2.1 -3.4,1.4 -4.1,-1.4 -4.5,-5.6 -1.8,-0.2 -0.7,-0.4 -7.8,0.7 -1,0.4 -4.7,4 -0.1,2.9 2,3 -0.7,3.6 4.8,-2 2,2.4 0.5,5.6 -3.5,2.8 -0.7,1.2 -5.6,5 1.1,5.3 -2.7,2 -0.7,1.6 2.6,4.9 -5.4,0.1 -4.6,-1.9 -1,0.6 -5.4,0.7 -0.3,2.2 1.3,5.5 1.2,3.2 -0.5,1 2.2,0.5 4.1,1.5 3.4,-1.6 7.9,0.9 2.1,1.1 4.5,-0.3 2.9,1.2 3.6,-2.9 3.1,-1.1 9.7,-0.4 0.4,-1.1 1.4,-3.6 8.7,-1.5 4.5,1.2 0.6,-2.5 3.1,-2.8 -0.4,-2.7 -0.5,1.2 -2.7,-2 -0.9,-0.9 0,0 -5.5,-3.4 -3.7,1.1 -1.3,-1 -0.4,-1.7 1.2,-1.7 -4.2,-2.4 -0.6,-1.3 2.3,-2.5 1.4,-3.3 -3.6,-0.6 1.5,-5.1 2,-2.8 0,-2 4,-2.2 0.6,-1.3 -1.3,-3 z"
       data-id="IT.PD"
       data-name="Padova"
       id="IT.PD"
       inkscape:connector-curvature="0"
       style="fill-rule:evenodd" />
    <path
       d="m 359.5,137.3 -4,-1.2 -4.6,-0.1 -2.1,2.1 -1.7,-0.2 -1.6,1.2 -2.9,-2.6 -2.7,-1.4 0.8,-4.5 1,-0.9 -1.1,-4 -3.3,-1.6 -3.1,4.4 -3.1,5.9 -1.1,1.2 -7.6,10.7 0,4.6 2.4,14.1 0,0.1 2.1,-0.5 1.2,0.1 0.8,9.2 -0.7,0.9 3.4,0.4 2.3,2.1 3,-0.8 2.6,2.2 1.1,1.8 8.1,5.2 5.2,5.6 3.4,0.1 0.5,3.5 2.6,1.8 2,-1.2 7.6,-0.2 0.5,0.8 9.9,1.5 2.2,2.5 2.3,1.1 3.1,-1.3 1.4,-2.6 -2.9,-2.9 0.5,-0.8 0.1,-0.2 0.5,-1 -1.2,-3.2 -1.3,-5.5 0.3,-2.2 5.4,-0.7 1,-0.6 -0.1,-1.3 -5.6,-6 -4.2,-0.9 -0.8,-0.8 -3,-8.4 -0.1,-4.1 -0.7,-1.2 -3.4,-1.5 -2.7,-3.6 -2,-6.2 -4.3,-1.2 -1.6,-1.5 -0.6,-3.5 -1.8,-2.6 -1.4,-0.1 z"
       data-id="IT.VR"
       data-name="Verona"
       id="IT.VR"
       inkscape:connector-curvature="0"
       style="fill-rule:evenodd" />
    <path
       d="m 401.2,110.1 -3.2,-0.1 -3.5,-3.4 -6.9,0.1 -3.5,2.2 -4.5,1.2 0.1,3 -3.2,2 -1.8,-1.5 -3.2,2.1 -1.4,3.4 -4.2,7.2 0,2.3 -1.3,1 0.3,2.3 -2.7,4.4 -1.3,1.1 1.8,2.6 0.6,3.5 1.6,1.5 4.3,1.2 2,6.2 2.7,3.6 3.4,1.5 0.7,1.2 0.1,4.1 3,8.4 0.8,0.8 4.2,0.9 5.6,6 0.1,1.3 4.6,1.9 5.4,-0.1 -2.6,-4.9 0.7,-1.6 2.7,-2 -1.1,-5.3 5.6,-5 0.7,-1.2 3.5,-2.8 -0.5,-5.6 -2,-2.4 -4.8,2 0.7,-3.6 -2,-3 0.1,-2.9 4.7,-4 1,-0.4 7.8,-0.7 -0.8,-2.7 1.1,-4.6 -2.4,-3.5 -3.6,-0.7 -0.8,-0.8 0.1,-4.3 2.8,-1.3 0.7,-1.2 -1.2,-0.3 -1.1,-4.3 -2.7,-0.5 -3.9,-4.8 -0.9,-0.4 -2.4,0.9 z"
       data-id="IT.VI"
       data-name="Vicenza"
       id="IT.VI"
       inkscape:connector-curvature="0"
       style="fill-rule:evenodd" />
    <path
       d="m 454.6,99.5 -2,0.8 -5.2,5.1 -4.6,2 -4,-0.4 -4.8,4.2 -6.1,-0.4 -1.1,0.5 -1.9,3.4 -0.2,2.7 -1.3,1.6 -5.1,0.2 -3.3,-1.6 -1.6,1.9 -0.7,1.2 -2.8,1.3 -0.1,4.3 0.8,0.8 3.6,0.7 2.4,3.5 -1.1,4.6 0.8,2.7 0.7,0.4 1.8,0.2 4.5,5.6 4.1,1.4 3.4,-1.4 1.6,-2.1 2.2,0 2.6,1.7 1.3,3 1.4,-0.3 6.3,1.6 5.7,5.1 1.3,-0.7 0.9,-2.5 10.6,-0.9 1.3,-1.1 0,-5.1 2.6,-0.4 1.9,-3.5 1.9,-0.9 6.5,0 4.6,-1.6 0.6,-1.2 -1,-6.4 0.6,-2.3 -0.7,-1.2 -3.4,-1.7 -0.9,0.5 -3.6,-1.2 -3.3,-6.3 -5,-4.7 -4.6,-9.1 0,-0.1 -7.6,-3.9 z"
       data-id="IT.TV"
       data-name="Treviso"
       id="IT.TV"
       inkscape:connector-curvature="0"
       style="fill-rule:evenodd" />
    <path
       d="m 462.1,40.6 -5.4,3.6 -1.2,2.2 -14.5,0.8 -1.9,-2.5 -7.2,-3.2 -1.6,6.7 -4.3,6.4 -12.1,2.1 -1.5,1 0.3,2 3.7,1.2 1.3,1.7 -2.6,2.7 -1.1,4.8 -1.3,0.2 -1.7,3.1 4.1,6.8 6.3,2.6 -0.4,1.7 1.1,2.1 2.5,1.1 -2.3,3.2 -3.6,4 -6.6,2.3 -4.4,0 -3.3,1 -1.2,9 0.4,2 0.9,0.4 3.9,4.8 2.7,0.5 1.1,4.3 1.2,0.3 1.6,-1.9 3.3,1.6 5.1,-0.2 1.3,-1.6 0.2,-2.7 1.9,-3.4 1.1,-0.5 6.1,0.4 4.8,-4.2 4,0.4 4.6,-2 5.2,-5.1 2,-0.8 7.6,3.9 -0.3,-0.8 2.3,-3.6 3.4,-1.5 0.4,-2.5 -1,-3.4 -2.7,-2.3 -0.7,-2.4 -3.1,-1.7 -2.6,-0.3 -2.1,-1.5 -1.4,-3.7 3.2,-3.1 4,-1.9 4.4,-6.4 0.2,-0.7 0.5,-1.8 0.8,-2 2.4,-1.5 3.3,-0.6 6.3,0 -0.5,-1.7 -2,-1.1 1.5,-2.5 7.7,-2.5 -1.7,-9.8 -0.7,-0.2 -9.6,-1.3 -4.6,0.5 -5.1,-2.1 -2.4,-0.4 0,0 z"
       data-id="IT.BL"
       data-name="Belluno"
       id="IT.BL"
       inkscape:connector-curvature="0"
       style="fill-rule:evenodd" />
  </g>
</svg>
