<?xml version="1.0" ?>
<!--
************* Copyright (c) 2015 Pareto Softare, LLC DBA Simplemaps.com *******************		
************* Free for Commercial Use, full terms at  http://simplemaps.com/resources/svg-license ************
************* Attribution is appreciated! http://simplemaps.com ***************************
-->
<!DOCTYPE svg
  PUBLIC '-//W3C//DTD SVG 1.1//EN'
  'http://www.w3.org/Graphics/SVG/1.1/DTD/svg11.dtd'>
<svg enable_background="new 0 0 1000 2312" height="2312px" pretty_print="True" style="stroke-linejoin: round; stroke:#000; fill: none;" version="1.1" viewBox="0 0 1000 2312" width="1000px" xmlns="http://www.w3.org/2000/svg" xmlns:xlink="http://www.w3.org/1999/xlink">
utf-8<defs>
utf-8utf-8<style type="text/css">
<![CDATA[path { fill-rule: evenodd; }]]>utf-8utf-8</style>
utf-8</defs>
utf-8<metadata>
utf-8utf-8<views>
utf-8utf-8utf-8<view h="2312.20466649" padding="0" w="1000">
utf-8utf-8utf-8utf-8<proj flip="auto" id="robinson" lon0="132.760098275"/>
utf-8utf-8utf-8utf-8<bbox h="324.43" w="140.37" x="1821.06" y="-761.85"/>
utf-8utf-8utf-8</view>
utf-8utf-8</views>
utf-8</metadata>
utf-8<g class="" id="provinces">
utf-8utf-8<path d="M261.7,1370.0L262.9,1369.0L261.7,1367.6L261.7,1370.0Z M240.2,1345.0L239.6,1345.5L242.4,1348.6L243.6,1347.0L240.2,1345.0Z M259.0,1351.6L256.0,1347.3L255.5,1345.0L252.3,1346.0L251.9,1347.3L254.5,1350.3L254.0,1352.1L252.3,1353.5L251.3,1355.6L254.0,1356.5L259.3,1356.3L262.1,1357.6L263.4,1357.1L263.2,1354.2L261.9,1351.9L259.8,1353.1L259.0,1351.6Z M281.3,1345.4L278.6,1343.6L278.6,1346.0L280.2,1346.8L281.3,1345.4Z M286.2,1347.1L287.1,1344.2L285.1,1342.6L282.5,1343.9L281.9,1345.1L282.9,1347.6L286.2,1347.1Z M232.3,1343.3L229.6,1342.6L230.1,1343.7L232.3,1343.3Z M277.2,1344.9L276.0,1343.5L270.6,1341.8L270.7,1344.4L275.3,1345.9L277.2,1344.9Z M268.6,1344.8L268.9,1343.7L266.2,1342.3L265.3,1343.6L266.8,1345.2L268.6,1344.8Z M289.2,1333.2L288.3,1332.1L286.6,1335.3L285.5,1335.3L282.4,1337.3L284.1,1340.3L289.8,1340.6L290.4,1339.5L289.2,1333.2Z M227.4,1337.0L230.2,1332.3L228.4,1329.6L227.3,1329.4L224.6,1332.6L224.0,1335.7L227.4,1337.0Z M238.8,1329.8L236.8,1327.4L236.7,1329.4L238.8,1329.8Z M191.7,1311.2L194.0,1313.9L198.9,1323.0L210.2,1336.3L216.4,1340.3L219.9,1342.0L224.6,1343.4L223.6,1341.6L220.3,1337.5L224.6,1326.9L226.9,1324.3L229.7,1322.2L231.8,1322.0L236.3,1324.1L240.0,1323.6L241.2,1322.6L245.0,1324.7L246.0,1325.9L243.6,1326.7L245.8,1331.7L248.4,1333.8L251.0,1336.8L255.0,1339.9L254.2,1341.6L257.0,1343.1L260.3,1339.9L265.6,1342.2L268.9,1339.1L270.9,1338.3L275.2,1337.9L275.5,1337.0L272.5,1333.7L275.4,1332.1L276.3,1329.7L277.7,1328.8L280.6,1331.7L282.7,1329.6L285.1,1328.4L295.2,1327.3L298.8,1326.2L300.5,1324.0L298.2,1320.2L303.7,1320.2L305.9,1321.3L306.9,1328.0L305.2,1328.4L303.3,1323.9L300.9,1328.0L302.8,1332.9L304.3,1335.0L311.5,1331.1L313.3,1332.2L315.4,1331.5L315.0,1329.2L313.3,1326.7L310.6,1325.2L313.5,1321.0L312.6,1314.9L314.9,1315.6L316.8,1317.9L316.1,1320.2L320.9,1320.8L322.5,1322.2L322.5,1324.3L319.5,1325.4L320.3,1327.4L325.1,1325.7L326.1,1324.4L329.2,1315.2L328.4,1309.3L329.7,1309.4L328.4,1305.0L323.9,1299.7L320.2,1296.3L317.5,1293.0L315.4,1288.1L309.5,1281.0L305.6,1272.3L304.6,1270.8L298.0,1264.7L294.9,1260.6L292.9,1256.8L290.0,1249.7L287.9,1246.1L281.0,1239.7L277.1,1238.5L270.7,1238.3L266.6,1237.6L263.3,1237.1L259.5,1238.1L252.5,1236.0L240.9,1236.4L239.0,1236.9L236.9,1242.4L234.4,1250.3L232.1,1252.6L230.4,1253.3L227.8,1257.4L228.0,1259.8L233.3,1263.1L233.1,1265.3L226.1,1267.8L219.9,1271.2L215.8,1270.9L210.9,1270.0L208.6,1272.5L204.4,1271.5L200.5,1272.8L199.2,1273.8L194.2,1272.0L192.0,1276.2L188.3,1280.0L190.8,1286.9L190.2,1289.4L191.1,1299.6L188.8,1305.0L190.6,1309.3L191.7,1311.2Z " data-id="JP.HS" data-name="Hiroshima" id="JP.HS"/>
utf-8utf-8<path d="M365.6,1315.3L363.6,1314.8L364.4,1315.8L365.6,1315.3Z M281.0,1239.7L287.9,1246.1L290.0,1249.7L292.9,1256.8L294.9,1260.6L298.0,1264.7L304.6,1270.8L305.6,1272.3L309.5,1281.0L315.4,1288.1L317.5,1293.0L320.2,1296.3L323.9,1299.7L328.4,1305.0L329.7,1309.4L331.0,1309.4L334.4,1307.0L337.0,1308.1L336.8,1310.6L335.0,1315.2L340.0,1312.7L341.2,1311.3L342.9,1310.9L347.8,1305.9L352.5,1303.0L354.7,1302.8L357.4,1305.8L357.9,1305.4L361.3,1307.5L366.3,1312.9L369.7,1313.6L368.0,1310.6L371.7,1310.5L380.0,1311.9L380.5,1309.2L380.1,1305.3L380.5,1302.6L383.9,1303.7L382.4,1302.0L384.9,1298.4L384.0,1296.3L382.3,1294.8L377.4,1295.4L375.1,1299.4L373.5,1298.7L372.1,1296.7L376.0,1293.3L377.4,1293.0L382.9,1293.5L386.1,1295.7L387.7,1296.3L390.4,1295.8L393.3,1294.4L395.3,1292.3L395.3,1289.6L391.9,1289.6L400.9,1282.2L395.2,1281.0L392.3,1278.6L396.8,1279.8L399.8,1280.1L402.9,1280.9L402.2,1276.7L399.3,1272.6L396.4,1270.0L392.4,1267.3L386.1,1253.4L383.1,1245.4L385.8,1240.8L386.9,1232.3L388.4,1228.8L388.1,1227.4L385.3,1223.1L384.4,1219.6L383.8,1218.0L380.3,1220.8L377.4,1223.2L371.4,1223.3L364.2,1225.5L358.5,1218.3L354.0,1214.2L349.8,1212.0L341.9,1210.9L339.7,1207.5L337.9,1206.4L334.2,1206.3L332.5,1207.1L331.1,1210.4L327.8,1212.8L327.2,1216.4L325.0,1216.5L320.8,1213.1L314.6,1210.0L300.4,1206.8L298.9,1206.9L298.0,1211.7L298.6,1216.6L296.5,1219.0L297.8,1224.4L293.4,1226.6L288.5,1226.8L287.9,1228.6L289.4,1231.9L288.1,1234.3L281.7,1237.8L281.0,1239.7Z " data-id="JP.OY" data-name="Okayama" id="JP.OY"/>
utf-8utf-8<path d="M143.1,1285.3L147.1,1292.1L150.7,1296.3L151.2,1303.2L152.9,1308.6L154.4,1309.9L156.2,1313.6L157.9,1314.6L165.8,1316.2L166.8,1317.7L166.3,1320.3L167.6,1323.9L168.9,1325.6L172.8,1329.4L179.3,1329.8L184.7,1327.8L189.3,1329.4L189.3,1324.9L191.5,1323.7L188.4,1317.9L188.2,1316.5L191.7,1311.2L190.6,1309.3L188.8,1305.0L191.1,1299.6L190.2,1289.4L190.8,1286.9L188.3,1280.0L192.0,1276.2L194.2,1272.0L199.2,1273.8L200.5,1272.8L204.4,1271.5L208.6,1272.5L210.9,1270.0L215.8,1270.9L219.9,1271.2L226.1,1267.8L233.1,1265.3L233.3,1263.1L228.0,1259.8L227.8,1257.4L230.4,1253.3L232.1,1252.6L234.4,1250.3L236.9,1242.4L239.0,1236.9L240.9,1236.4L252.5,1236.0L259.5,1238.1L263.3,1237.1L266.6,1237.6L265.6,1231.0L266.1,1226.7L262.7,1220.9L264.1,1218.9L270.7,1214.8L272.1,1213.2L269.0,1205.4L266.5,1197.8L267.6,1196.6L266.0,1194.5L262.6,1193.3L257.6,1190.6L250.5,1184.2L249.6,1182.7L254.0,1180.8L254.5,1179.2L259.0,1176.9L256.8,1175.9L252.8,1176.2L251.1,1177.1L248.8,1176.9L248.9,1175.7L245.3,1176.5L242.5,1177.6L235.5,1173.4L233.9,1172.9L234.4,1176.1L232.4,1175.5L231.2,1179.7L229.6,1180.3L225.4,1180.2L226.5,1183.2L224.1,1183.0L222.0,1183.6L216.4,1183.9L211.3,1185.8L209.1,1187.5L204.7,1188.8L207.0,1189.7L208.1,1191.1L197.4,1192.4L196.8,1193.6L201.1,1196.5L203.2,1197.4L205.7,1202.8L206.3,1205.9L205.7,1210.1L204.5,1211.4L200.6,1212.7L197.1,1214.6L197.6,1216.1L194.9,1217.7L189.2,1224.6L188.7,1228.2L189.5,1229.5L185.6,1234.6L186.2,1238.2L179.7,1241.6L178.8,1244.1L175.0,1248.7L169.3,1256.9L170.2,1261.2L168.0,1260.7L166.4,1265.4L163.7,1268.4L160.3,1274.4L158.3,1274.8L159.1,1280.2L153.8,1283.7L150.0,1285.0L146.7,1285.4L143.5,1285.0L143.1,1285.3Z M209.1,1123.7L203.8,1121.4L203.2,1122.7L209.1,1123.7Z M210.6,1120.0L211.5,1116.9L211.2,1113.6L208.7,1111.2L206.4,1112.0L206.4,1114.8L209.5,1122.0L210.6,1120.0Z M199.4,1108.6L198.1,1111.0L195.2,1114.5L194.4,1117.0L200.2,1119.9L200.5,1118.6L197.6,1115.2L200.3,1115.4L200.9,1116.6L204.9,1117.0L203.2,1114.1L202.8,1112.0L204.0,1111.4L204.4,1109.1L199.4,1108.6Z M228.7,1099.2L226.2,1093.2L220.7,1088.3L219.2,1087.9L213.3,1084.3L212.5,1082.9L206.9,1088.4L206.7,1090.7L209.3,1098.2L211.6,1099.9L219.0,1104.5L227.0,1104.4L226.8,1103.2L224.4,1101.2L226.3,1099.8L227.8,1101.2L228.7,1099.2Z " data-id="JP.SM" data-name="Shimane" id="JP.SM"/>
utf-8utf-8<path d="M385.9,1218.4L389.6,1219.3L392.5,1216.2L392.8,1212.9L388.7,1205.6L384.7,1202.0L377.1,1192.7L368.5,1179.9L364.8,1175.7L360.4,1173.1L360.2,1173.6L354.0,1174.8L354.0,1177.4L350.6,1179.6L344.9,1180.8L332.0,1182.9L328.4,1180.7L320.0,1183.5L302.8,1184.9L292.0,1182.6L286.1,1181.2L281.3,1182.5L274.7,1186.3L274.2,1190.5L272.6,1190.8L265.0,1189.4L256.9,1185.7L253.8,1181.1L254.0,1180.8L249.6,1182.7L250.5,1184.2L257.6,1190.6L262.6,1193.3L266.0,1194.5L267.6,1196.6L266.5,1197.8L269.0,1205.4L272.1,1213.2L270.7,1214.8L264.1,1218.9L262.7,1220.9L266.1,1226.7L265.6,1231.0L266.6,1237.6L270.7,1238.3L277.1,1238.5L281.0,1239.7L281.7,1237.8L288.1,1234.3L289.4,1231.9L287.9,1228.6L288.5,1226.8L293.4,1226.6L297.8,1224.4L296.5,1219.0L298.6,1216.6L298.0,1211.7L298.9,1206.9L300.4,1206.8L314.6,1210.0L320.8,1213.1L325.0,1216.5L327.2,1216.4L327.8,1212.8L331.1,1210.4L332.5,1207.1L334.2,1206.3L337.9,1206.4L339.7,1207.5L341.9,1210.9L349.8,1212.0L354.0,1214.2L358.5,1218.3L364.2,1225.5L371.4,1223.3L377.4,1223.2L380.3,1220.8L383.8,1218.0L385.9,1218.4Z " data-id="JP.TT" data-name="Tottori" id="JP.TT"/>
utf-8utf-8<path d="M239.7,1398.9L237.7,1395.6L238.3,1400.6L239.7,1398.9Z M219.2,1393.6L218.3,1390.6L216.2,1392.6L219.2,1393.6Z M246.6,1391.9L241.5,1390.1L240.5,1392.6L242.0,1392.3L245.9,1393.9L249.5,1393.5L246.6,1391.9Z M219.5,1382.9L218.1,1383.8L220.4,1384.4L219.5,1382.9Z M224.2,1382.1L222.7,1380.3L222.4,1380.9L224.2,1382.1Z M243.8,1374.5L238.3,1372.2L235.4,1371.8L233.4,1372.8L233.1,1375.6L235.0,1378.4L239.4,1383.5L240.7,1381.9L241.8,1382.8L245.9,1382.8L246.1,1380.1L249.6,1381.1L251.4,1384.4L255.9,1385.1L254.3,1379.8L255.0,1378.2L259.0,1377.7L259.8,1374.8L258.9,1373.7L256.2,1373.4L254.7,1376.1L252.0,1376.1L250.6,1377.8L248.3,1378.6L243.8,1374.5Z M197.1,1367.5L195.8,1372.4L194.7,1371.3L193.6,1372.2L197.4,1374.1L199.1,1369.9L197.1,1367.5Z M237.3,1366.2L236.1,1364.8L236.4,1366.0L237.3,1366.2Z M184.4,1367.6L181.3,1365.6L180.0,1362.0L179.7,1365.4L183.8,1368.6L184.4,1367.6Z M184.6,1361.6L182.9,1363.4L184.4,1362.4L184.6,1361.6Z M85.0,1353.5L82.2,1352.2L83.1,1353.7L85.4,1354.9L85.0,1353.5Z M77.9,1324.5L79.8,1322.2L78.6,1322.1L76.2,1323.7L77.9,1324.5Z M126.5,1306.1L124.5,1305.4L125.8,1307.2L126.5,1306.1Z M111.2,1303.5L112.5,1306.2L112.3,1304.3L111.2,1303.5Z M143.0,1285.5L142.2,1287.6L137.5,1286.2L135.9,1286.9L138.1,1292.0L134.3,1292.2L135.3,1295.0L134.0,1299.8L131.5,1302.8L129.1,1303.8L130.9,1306.2L128.4,1311.6L130.1,1315.2L125.6,1316.2L122.5,1316.2L122.6,1319.0L119.2,1320.0L114.5,1320.2L112.4,1321.8L112.0,1316.0L112.9,1315.6L117.6,1317.2L113.3,1313.6L107.9,1315.1L105.6,1314.6L106.8,1316.9L109.5,1318.9L108.9,1322.0L105.2,1320.7L102.8,1316.7L96.2,1315.1L91.8,1317.0L90.5,1316.9L87.2,1313.9L85.6,1313.4L83.6,1317.2L83.6,1318.6L92.1,1318.9L94.3,1320.3L91.2,1321.8L87.5,1322.7L85.4,1324.3L83.7,1324.0L82.6,1326.4L83.8,1330.1L83.5,1332.6L90.1,1339.2L94.0,1345.7L93.8,1347.6L91.3,1350.7L95.0,1358.0L97.6,1358.3L99.1,1359.8L99.6,1362.6L100.8,1363.5L103.1,1372.2L101.1,1372.1L101.7,1373.6L106.5,1376.5L107.2,1375.4L106.6,1372.7L108.9,1369.6L111.2,1364.4L111.7,1360.4L119.3,1362.5L123.0,1366.2L127.4,1368.7L129.0,1371.8L131.9,1374.5L134.6,1372.1L136.4,1374.0L140.2,1375.2L141.5,1374.9L145.1,1371.8L146.6,1367.4L147.5,1361.4L150.8,1366.2L150.6,1367.9L152.6,1367.4L152.6,1366.2L155.7,1368.7L156.4,1368.3L156.0,1363.0L157.1,1362.3L162.0,1365.1L165.6,1366.2L166.5,1365.6L169.1,1367.9L170.2,1367.2L167.6,1363.0L167.9,1361.7L169.7,1363.0L172.4,1363.0L176.9,1360.5L178.5,1360.9L181.7,1359.4L188.5,1361.6L191.8,1363.7L188.9,1367.9L190.0,1369.8L191.4,1370.5L194.9,1370.3L193.1,1369.6L194.1,1366.8L195.7,1366.4L207.1,1372.1L214.3,1376.5L221.6,1378.7L226.9,1381.5L229.7,1384.8L228.1,1387.1L226.7,1386.0L226.8,1389.3L225.4,1391.0L226.0,1393.0L234.1,1386.5L234.7,1385.1L233.7,1383.3L229.7,1378.8L227.1,1373.6L230.7,1371.2L232.2,1367.4L230.2,1363.1L226.9,1358.4L225.0,1353.1L226.9,1349.0L226.1,1346.1L224.6,1343.4L219.9,1342.0L216.4,1340.3L210.2,1336.3L198.9,1323.0L194.0,1313.9L191.7,1311.2L188.2,1316.5L188.4,1317.9L191.5,1323.7L189.3,1324.9L189.3,1329.4L184.7,1327.8L179.3,1329.8L172.8,1329.4L168.9,1325.6L167.6,1323.9L166.3,1320.3L166.8,1317.7L165.8,1316.2L157.9,1314.6L156.2,1313.6L154.4,1309.9L152.9,1308.6L151.2,1303.2L150.7,1296.3L147.1,1292.1L143.1,1285.3L143.0,1285.5Z M86.0,1274.7L86.5,1272.8L84.4,1271.2L82.7,1271.8L86.0,1274.7Z " data-id="JP.YC" data-name="Yamaguchi" id="JP.YC"/>
utf-8utf-8<path d="M25.6,1446.2L22.7,1451.4L24.5,1455.2L29.6,1460.0L32.8,1463.6L38.8,1466.7L45.3,1468.6L47.0,1470.0L48.6,1474.0L47.7,1475.5L49.5,1477.6L67.7,1489.0L72.7,1490.6L83.6,1492.5L83.2,1491.7L84.5,1491.2L83.9,1488.8L81.2,1486.8L73.8,1479.4L68.6,1473.6L67.3,1471.4L70.1,1472.5L71.7,1469.7L74.6,1466.8L75.4,1463.3L77.5,1464.5L82.2,1467.9L87.2,1468.7L88.5,1468.9L86.8,1465.9L87.3,1461.0L86.8,1458.7L90.1,1454.9L92.8,1454.2L94.3,1447.4L96.8,1446.3L95.6,1440.8L91.7,1435.5L88.5,1435.7L84.1,1439.6L66.9,1431.0L60.4,1429.7L54.1,1430.6L49.8,1430.6L41.6,1431.1L41.1,1432.0L40.2,1432.5L35.6,1431.6L32.9,1428.1L31.0,1428.5L31.3,1424.5L28.5,1422.3L24.5,1420.4L22.6,1421.8L20.7,1421.4L18.5,1419.8L19.6,1422.1L18.8,1424.5L21.1,1428.3L24.6,1431.2L25.1,1433.6L23.6,1432.9L18.4,1428.0L17.1,1428.2L16.8,1431.5L21.1,1434.9L27.8,1438.3L28.9,1440.6L28.0,1444.2L30.2,1451.7L28.7,1450.7L25.6,1446.2L25.6,1446.2Z M22.1,1419.7L20.9,1418.2L20.3,1418.4L22.1,1419.7Z M8.0,1416.2L8.7,1418.4L9.2,1417.4L8.0,1416.2Z " data-id="JP.SG" data-name="Saga" id="JP.SG"/>
utf-8utf-8<path d="M61.1,1411.6L59.1,1409.5L60.5,1413.3L61.1,1411.6Z M60.7,1394.8L58.4,1394.0L59.3,1395.6L60.7,1394.8Z M66.0,1377.8L63.7,1376.5L66.7,1378.8L66.0,1377.8Z M59.6,1378.3L59.3,1376.6L56.0,1377.1L58.7,1379.4L59.6,1378.3Z M41.6,1431.1L49.8,1430.6L54.1,1430.6L60.4,1429.7L66.9,1431.0L84.1,1439.6L88.5,1435.7L91.7,1435.5L95.6,1440.8L96.8,1446.3L94.3,1447.4L92.8,1454.2L90.1,1454.9L86.8,1458.7L87.3,1461.0L86.8,1465.9L88.5,1468.9L90.1,1469.1L98.3,1475.4L100.9,1479.8L102.8,1485.0L104.3,1488.1L105.5,1487.1L109.1,1486.4L108.9,1479.9L112.4,1474.9L113.7,1474.1L120.0,1472.3L122.2,1469.1L126.8,1469.8L134.3,1473.8L140.1,1476.1L139.2,1468.7L131.7,1458.0L131.0,1452.7L127.3,1443.8L128.1,1439.9L128.1,1435.0L131.6,1427.8L134.1,1426.6L142.4,1426.3L148.8,1427.2L150.2,1427.1L152.1,1423.0L149.2,1416.1L150.3,1412.6L148.9,1412.2L139.9,1411.2L137.2,1409.9L134.6,1407.7L131.8,1404.3L124.4,1396.6L120.8,1388.6L118.9,1389.1L116.7,1388.6L115.4,1386.2L116.6,1385.0L117.0,1381.3L115.1,1378.4L114.7,1371.4L113.0,1370.2L110.4,1371.3L108.7,1373.6L109.0,1376.1L105.9,1379.4L104.0,1378.6L100.5,1375.1L96.8,1375.7L96.5,1373.4L92.5,1372.8L89.1,1372.9L87.2,1374.3L85.5,1373.6L82.4,1374.1L81.3,1378.6L79.9,1380.3L78.0,1380.6L73.0,1380.2L71.5,1380.5L70.7,1382.8L69.1,1384.3L66.9,1383.5L65.6,1389.9L66.1,1391.4L68.5,1392.5L70.4,1396.9L69.4,1399.9L68.0,1400.5L65.6,1404.9L62.3,1406.6L58.3,1405.4L57.0,1403.6L57.1,1406.4L59.8,1407.1L63.7,1409.2L67.2,1405.8L69.5,1410.4L69.7,1413.5L66.8,1414.4L62.5,1414.4L61.2,1417.2L58.0,1415.5L57.4,1412.7L53.0,1411.8L51.8,1409.9L52.3,1408.8L48.4,1406.3L49.3,1409.3L45.3,1410.6L46.2,1413.3L45.0,1414.7L42.3,1415.3L41.7,1418.1L46.8,1421.3L50.9,1422.0L46.9,1425.0L45.6,1424.6L41.6,1426.6L41.0,1427.8L41.8,1430.7L41.6,1431.1Z M9.6,1336.6L8.8,1336.2L9.1,1337.5L9.6,1336.6Z " data-id="JP.FO" data-name="Fukuoka" id="JP.FO"/>
utf-8utf-8<path d="M104.1,1584.2L101.5,1582.7L101.4,1583.8L105.1,1586.3L104.1,1584.2Z M119.5,1591.4L119.2,1584.0L117.6,1581.6L109.7,1580.3L110.1,1582.0L114.4,1587.2L114.6,1589.2L117.8,1591.8L119.5,1591.4Z M119.1,1579.0L115.9,1576.0L116.6,1578.7L119.1,1579.0Z M114.5,1577.2L113.0,1574.5L114.2,1578.0L114.5,1577.2Z M118.4,1574.4L121.3,1570.8L118.3,1569.0L116.3,1570.8L117.2,1574.6L118.4,1574.4Z M126.9,1568.6L128.6,1566.6L126.4,1563.3L125.7,1564.4L126.1,1567.1L124.1,1568.7L126.9,1568.6Z M122.4,1561.0L123.1,1563.7L123.4,1564.4L122.4,1561.0Z M133.2,1559.4L130.5,1558.2L133.0,1561.3L133.2,1559.4Z M122.5,1544.3L118.1,1543.7L112.1,1547.3L108.3,1551.3L108.9,1553.0L113.7,1557.9L121.3,1556.2L123.6,1554.5L126.8,1560.3L128.8,1557.7L128.4,1546.3L130.9,1544.0L129.1,1542.4L122.5,1544.3Z M102.4,1542.8L98.3,1539.9L96.2,1539.8L90.7,1541.7L87.9,1543.2L83.2,1541.5L86.9,1545.2L88.3,1547.5L87.5,1554.5L87.9,1556.8L89.3,1558.7L88.4,1561.3L90.3,1565.3L92.4,1567.5L94.5,1568.6L96.3,1567.6L100.1,1568.4L99.4,1569.7L95.9,1570.1L92.4,1574.2L92.7,1576.7L94.0,1575.7L97.1,1575.0L98.1,1581.2L100.3,1582.3L105.2,1578.7L106.3,1575.8L109.0,1573.4L109.1,1568.9L112.4,1563.7L111.4,1560.5L109.6,1557.9L105.4,1547.8L102.4,1542.8Z M129.2,1540.1L129.9,1538.1L128.1,1535.3L127.0,1536.4L129.2,1540.1Z M131.3,1534.3L130.5,1532.7L127.5,1532.7L129.7,1536.4L131.3,1534.3Z M124.6,1532.2L122.5,1531.1L120.5,1531.9L120.0,1534.3L122.2,1536.6L122.4,1538.2L124.8,1539.9L126.7,1539.2L124.6,1532.2Z M140.1,1476.1L134.3,1473.8L126.8,1469.8L122.2,1469.1L120.0,1472.3L113.7,1474.1L112.4,1474.9L108.9,1479.9L109.1,1486.4L105.5,1487.1L104.3,1488.1L106.6,1492.8L108.3,1494.9L111.9,1496.6L118.5,1501.5L128.8,1507.8L131.0,1510.1L131.9,1515.8L132.7,1517.1L137.1,1520.2L137.5,1521.1L132.8,1521.8L130.6,1524.4L125.1,1527.9L123.6,1531.0L125.3,1531.7L126.6,1530.9L141.7,1527.8L144.4,1527.7L144.4,1530.7L143.7,1532.6L139.1,1538.9L139.8,1541.4L142.9,1543.2L144.3,1544.8L140.1,1546.4L142.5,1548.1L144.1,1551.2L144.4,1554.1L142.7,1555.4L141.4,1559.9L143.2,1563.3L143.2,1566.0L139.5,1563.4L139.2,1574.4L135.1,1582.3L135.0,1585.6L135.1,1585.7L140.5,1589.9L145.3,1591.5L154.3,1588.3L159.6,1585.5L162.0,1586.3L170.5,1591.6L175.4,1594.1L178.2,1593.8L185.3,1594.2L188.9,1592.9L191.3,1590.8L196.8,1591.3L201.3,1585.2L206.7,1586.7L209.1,1585.5L202.0,1575.7L203.1,1570.8L201.6,1566.3L194.4,1558.3L191.3,1556.1L188.3,1552.7L186.2,1548.9L185.5,1541.4L186.4,1537.7L190.7,1536.4L189.9,1531.8L194.6,1517.5L194.8,1511.6L197.0,1508.4L201.8,1507.0L193.4,1501.8L185.3,1488.8L180.1,1482.2L174.2,1477.0L168.5,1470.8L166.1,1468.8L161.6,1466.1L157.7,1464.2L150.5,1466.6L150.8,1468.5L152.7,1471.5L157.7,1476.3L158.0,1477.3L156.9,1482.4L154.1,1482.0L144.2,1477.4L140.1,1476.1Z " data-id="JP.KM" data-name="Kumamoto" id="JP.KM"/>
utf-8utf-8<path d="M272.2,1661.1L271.5,1661.6L273.3,1663.1L272.2,1661.1Z M201.8,1507.0L197.0,1508.4L194.8,1511.6L194.6,1517.5L189.9,1531.8L190.7,1536.4L186.4,1537.7L185.5,1541.4L186.2,1548.9L188.3,1552.7L191.3,1556.1L194.4,1558.3L201.6,1566.3L203.1,1570.8L202.0,1575.7L209.1,1585.5L206.7,1586.7L201.3,1585.2L196.8,1591.3L191.3,1590.8L188.9,1592.9L185.3,1594.2L178.2,1593.8L175.4,1594.1L175.2,1597.0L178.6,1600.1L188.9,1610.3L197.4,1615.7L201.1,1618.3L202.7,1620.4L204.3,1625.8L208.2,1630.6L216.2,1633.4L221.7,1637.9L228.6,1647.1L236.4,1650.2L242.2,1651.0L246.5,1654.1L247.6,1655.6L249.4,1661.5L249.4,1663.0L248.2,1667.8L249.6,1668.7L251.9,1670.1L253.8,1669.5L259.0,1672.9L262.0,1677.7L265.8,1678.5L269.6,1677.7L271.1,1680.2L270.8,1668.3L271.8,1665.5L269.3,1661.2L269.2,1654.2L272.0,1650.1L270.1,1646.5L267.5,1633.3L268.0,1629.2L264.8,1628.2L262.7,1626.1L259.3,1619.6L259.1,1616.2L256.8,1592.2L255.9,1584.8L254.8,1579.0L254.9,1574.7L253.7,1568.8L253.8,1566.4L254.9,1564.8L253.5,1557.9L256.0,1556.6L257.8,1554.8L252.8,1550.5L252.2,1548.2L256.2,1549.2L258.2,1548.7L259.2,1546.4L254.1,1544.1L251.6,1541.3L251.9,1535.2L254.0,1535.4L256.0,1531.0L255.4,1528.8L256.5,1523.9L257.7,1522.9L257.5,1521.3L261.2,1523.8L260.6,1519.5L261.2,1517.8L261.2,1517.8L257.7,1517.5L252.6,1509.9L251.1,1508.6L244.1,1506.9L242.4,1509.0L242.2,1512.1L240.7,1514.0L231.5,1514.5L227.3,1516.5L226.0,1516.5L222.7,1514.5L221.2,1510.5L217.6,1507.9L212.4,1509.1L205.9,1509.1L204.2,1508.4L201.8,1507.0Z " data-id="JP.MZ" data-name="Miyazaki" id="JP.MZ"/>
utf-8utf-8<path d="M309.6,1492.4L309.0,1491.8L308.5,1493.0L309.6,1492.4Z M288.7,1472.7L287.2,1472.9L287.9,1473.7L288.7,1472.7Z M297.0,1472.6L296.8,1472.3L296.6,1473.3L297.0,1472.6Z M279.2,1464.8L279.0,1465.7L281.7,1466.9L279.2,1464.8Z M287.9,1461.3L286.1,1461.8L287.0,1463.1L287.9,1461.3Z M295.3,1454.4L294.5,1453.7L294.4,1455.0L295.3,1454.4Z M278.6,1441.5L276.5,1440.8L277.8,1441.4L278.6,1441.5Z M275.5,1438.5L275.3,1439.5L276.1,1440.4L275.5,1438.5Z M271.6,1384.3L270.2,1383.6L271.7,1385.1L271.6,1384.3Z M284.0,1376.3L281.3,1376.8L283.0,1381.2L283.8,1381.8L283.5,1378.0L284.0,1376.3Z M269.2,1373.9L265.8,1373.9L266.4,1374.9L269.2,1373.9Z M279.9,1371.3L277.8,1369.2L277.8,1371.5L279.9,1371.3Z M266.4,1370.1L266.1,1367.0L264.9,1368.5L266.4,1370.1Z M347.2,1366.9L346.5,1365.2L345.1,1366.2L347.2,1366.9Z M274.7,1371.7L275.6,1370.4L274.7,1366.1L273.5,1365.2L270.9,1368.5L272.9,1372.2L274.7,1371.7Z M329.8,1496.7L330.7,1491.5L328.1,1485.7L324.6,1481.8L322.3,1477.6L316.5,1470.9L315.2,1467.5L316.6,1467.7L320.6,1470.4L324.0,1470.2L324.5,1467.1L327.4,1463.3L326.4,1458.6L328.1,1454.6L332.4,1451.1L333.4,1448.0L332.5,1446.8L323.1,1439.3L319.5,1433.8L320.4,1432.0L333.5,1432.1L337.4,1429.0L338.8,1424.7L337.1,1418.3L336.5,1411.9L338.8,1405.4L338.9,1398.6L339.9,1393.6L345.2,1392.6L346.3,1390.4L353.4,1388.6L358.2,1388.6L362.3,1387.9L366.4,1387.8L368.7,1387.2L370.1,1385.7L373.8,1383.8L382.4,1383.5L382.4,1381.3L381.9,1378.0L380.8,1374.8L376.3,1366.4L374.2,1364.7L371.7,1364.0L368.1,1363.3L368.1,1363.3L367.8,1363.7L366.0,1368.5L363.1,1370.3L360.5,1370.2L354.9,1368.3L352.4,1367.9L347.1,1368.2L342.9,1367.3L341.2,1368.4L339.0,1368.2L336.4,1369.3L336.8,1371.4L330.6,1373.3L328.4,1374.4L321.5,1372.2L320.0,1371.0L310.7,1359.8L297.2,1349.2L296.9,1351.8L293.6,1351.4L293.9,1352.6L297.1,1352.8L298.4,1354.8L298.6,1358.0L293.6,1359.5L292.9,1361.4L287.5,1366.6L289.8,1371.5L289.4,1374.0L290.4,1376.9L286.4,1377.6L288.9,1388.5L292.5,1395.3L292.6,1400.3L290.8,1403.4L287.9,1406.9L279.6,1411.1L277.7,1413.8L276.3,1417.3L276.3,1420.4L275.3,1421.9L266.0,1427.8L264.1,1430.4L261.7,1430.3L260.4,1431.6L258.1,1431.4L255.7,1432.6L256.5,1435.6L253.4,1435.6L249.9,1437.0L247.3,1440.9L244.5,1444.1L246.2,1444.6L252.6,1439.6L252.6,1441.6L255.8,1442.4L256.4,1439.3L258.5,1437.2L264.2,1433.2L266.4,1432.4L268.5,1430.3L270.2,1431.1L273.8,1429.9L275.7,1430.1L280.8,1432.7L279.2,1434.3L281.2,1441.0L283.0,1442.5L284.3,1440.9L284.9,1445.6L282.8,1447.7L287.7,1449.5L293.8,1448.1L297.8,1448.2L294.9,1451.1L295.6,1452.8L298.8,1455.0L302.0,1454.5L300.9,1456.0L304.5,1458.7L301.7,1460.3L301.3,1462.1L302.4,1464.2L301.1,1465.6L297.5,1463.0L296.7,1461.4L292.5,1460.8L290.2,1461.5L291.5,1463.5L293.4,1462.0L298.1,1465.1L296.3,1465.7L297.9,1468.8L299.1,1469.5L303.3,1470.0L302.4,1472.2L300.1,1472.1L303.1,1474.4L303.8,1477.7L305.9,1477.7L305.3,1479.2L303.5,1479.5L298.3,1477.5L297.7,1478.9L298.8,1480.6L298.2,1483.4L299.7,1483.8L300.3,1479.6L302.9,1480.6L306.0,1481.0L311.4,1486.6L310.7,1489.3L312.9,1491.9L311.4,1493.7L314.9,1497.6L318.5,1499.0L319.9,1498.2L317.1,1496.6L316.8,1494.1L321.9,1495.0L321.9,1493.9L327.4,1496.9L329.5,1496.7L329.8,1496.7Z M333.8,1345.3L331.3,1344.3L332.8,1345.6L333.8,1345.3Z M309.4,1345.2L305.7,1342.9L303.7,1343.4L303.7,1345.0L305.9,1347.8L304.5,1348.2L305.8,1351.9L307.2,1352.8L308.6,1352.0L311.3,1346.9L311.5,1345.6L309.4,1345.2Z M328.0,1344.0L327.2,1342.5L326.3,1342.7L328.0,1344.0Z M308.7,1337.8L304.4,1338.8L308.0,1342.4L309.8,1341.9L311.7,1342.9L311.9,1339.9L310.0,1339.5L308.7,1337.8Z M303.8,1339.5L303.2,1337.1L300.5,1333.4L297.9,1330.7L296.1,1331.2L294.1,1335.8L296.8,1337.1L297.3,1338.3L295.2,1339.9L295.4,1342.4L296.7,1343.1L299.4,1341.1L302.9,1341.3L303.8,1339.5Z " data-id="JP.EH" data-name="Ehime" id="JP.EH"/>
utf-8utf-8<path d="M358.2,1331.9L358.6,1335.2L360.0,1333.9L358.2,1331.9Z M368.1,1363.3L368.1,1363.3L371.7,1364.0L374.2,1364.7L376.3,1366.4L379.4,1363.6L382.8,1359.1L385.8,1358.3L388.1,1355.0L394.8,1354.1L396.9,1354.7L401.4,1357.3L405.9,1356.7L408.5,1354.7L415.0,1352.7L419.0,1347.2L423.5,1346.6L437.4,1346.5L441.5,1347.7L443.5,1346.8L443.3,1341.2L443.0,1341.2L439.8,1339.2L436.5,1336.2L432.8,1336.6L431.2,1336.1L420.3,1330.8L420.2,1327.4L418.5,1326.0L415.9,1325.2L413.0,1323.5L411.4,1327.6L403.8,1319.1L402.3,1319.3L402.8,1322.9L400.3,1321.0L399.9,1324.4L391.7,1323.9L390.0,1322.8L381.9,1321.8L380.9,1322.4L380.3,1326.7L378.1,1328.7L373.2,1331.5L368.2,1338.4L365.7,1339.4L363.1,1337.5L361.7,1338.1L352.4,1335.0L354.7,1337.1L361.1,1340.8L363.1,1342.4L366.0,1346.1L368.4,1351.2L370.1,1356.7L369.8,1360.7L368.1,1363.3Z M362.2,1323.6L363.2,1321.6L360.9,1318.6L359.5,1320.7L359.8,1322.2L362.2,1323.6Z M368.2,1318.6L365.5,1319.1L366.6,1321.9L369.1,1319.8L368.2,1318.6Z M394.5,1319.4L393.7,1317.0L394.1,1320.7L394.5,1319.4Z M355.5,1316.9L354.8,1317.2L356.8,1320.3L357.1,1318.5L355.5,1316.9Z M394.3,1315.1L393.4,1314.0L393.1,1314.9L394.3,1315.1Z M381.7,1308.8L384.5,1312.4L387.0,1312.9L383.1,1309.0L381.7,1308.8Z M395.0,1308.4L391.0,1306.3L389.8,1307.4L394.2,1310.9L395.0,1308.4Z M386.3,1307.1L385.3,1305.1L384.6,1306.1L386.3,1307.1Z M420.3,1304.5L417.5,1300.6L413.0,1300.4L403.4,1304.6L400.1,1303.7L401.6,1307.8L400.9,1308.6L402.5,1310.2L407.5,1309.4L411.0,1311.7L412.5,1316.0L414.1,1315.6L415.4,1310.3L417.3,1309.8L417.1,1312.7L421.0,1313.3L422.0,1314.4L421.3,1308.0L420.3,1304.5Z " data-id="JP.KG" data-name="Kagawa" id="JP.KG"/>
utf-8utf-8<path d="M331.6,1520.4L330.9,1517.5L327.9,1516.2L329.6,1520.6L331.6,1520.4Z M382.4,1383.5L373.8,1383.8L370.1,1385.7L368.7,1387.2L366.4,1387.8L362.3,1387.9L358.2,1388.6L353.4,1388.6L346.3,1390.4L345.2,1392.6L339.9,1393.6L338.9,1398.6L338.8,1405.4L336.5,1411.9L337.1,1418.3L338.8,1424.7L337.4,1429.0L333.5,1432.1L320.4,1432.0L319.5,1433.8L323.1,1439.3L332.5,1446.8L333.4,1448.0L332.4,1451.1L328.1,1454.6L326.4,1458.6L327.4,1463.3L324.5,1467.1L324.0,1470.2L320.6,1470.4L316.6,1467.7L315.2,1467.5L316.5,1470.9L322.3,1477.6L324.6,1481.8L328.1,1485.7L330.7,1491.5L329.8,1496.7L336.4,1496.6L334.3,1502.9L334.2,1506.6L333.2,1509.7L334.1,1512.9L335.9,1515.4L338.3,1512.2L342.5,1510.9L350.7,1516.1L355.0,1516.8L358.2,1513.3L359.6,1513.4L361.4,1515.3L361.5,1512.7L363.5,1512.3L366.3,1513.2L375.5,1520.2L377.7,1519.1L376.7,1516.9L367.6,1508.8L365.7,1507.9L363.9,1502.0L366.8,1502.2L367.8,1501.4L366.8,1497.3L363.0,1491.9L361.8,1487.4L361.7,1482.9L364.4,1481.1L369.1,1483.5L369.7,1483.0L368.4,1480.1L369.9,1475.2L370.7,1469.4L371.9,1466.3L374.5,1467.8L373.2,1463.4L375.4,1459.7L374.8,1456.9L375.4,1455.7L372.2,1451.6L370.2,1446.8L370.6,1444.4L373.4,1440.9L375.8,1443.8L376.9,1440.9L379.1,1439.3L380.7,1439.2L384.9,1437.8L385.7,1436.3L384.5,1434.3L384.8,1431.5L394.7,1425.8L395.9,1424.2L401.6,1422.6L407.9,1421.6L411.2,1423.7L421.4,1426.1L428.8,1426.8L432.2,1431.0L436.1,1433.8L442.8,1436.2L445.8,1439.9L452.1,1445.3L456.2,1448.2L457.0,1450.7L460.7,1451.0L467.0,1457.6L467.8,1456.2L466.7,1453.4L463.7,1440.8L462.4,1430.8L462.8,1425.1L463.9,1422.4L458.6,1420.9L452.3,1419.9L445.8,1413.0L445.6,1411.1L443.8,1407.4L442.3,1406.3L437.0,1405.0L432.7,1404.6L428.4,1396.3L421.7,1388.9L417.0,1388.2L415.3,1388.7L413.4,1391.8L409.5,1391.3L400.6,1387.3L393.4,1387.0L382.4,1383.5Z " data-id="JP.KC" data-name="Kochi" id="JP.KC"/>
utf-8utf-8<path d="M267.7,1519.7L266.7,1518.2L266.9,1519.5L267.7,1519.7Z M264.5,1513.1L262.9,1512.3L263.2,1513.3L264.5,1513.1Z M270.7,1490.9L270.1,1489.0L269.5,1489.8L270.7,1490.9Z M254.5,1487.2L255.8,1486.5L253.1,1483.8L254.5,1487.2Z M257.1,1473.3L256.1,1472.5L255.8,1473.1L257.1,1473.3Z M242.8,1452.8L240.9,1452.1L240.7,1452.3L242.8,1452.8Z M150.3,1412.6L149.2,1416.1L152.1,1423.0L150.2,1427.1L148.8,1427.2L142.4,1426.3L134.1,1426.6L131.6,1427.8L128.1,1435.0L128.1,1439.9L127.3,1443.8L131.0,1452.7L131.7,1458.0L139.2,1468.7L140.1,1476.1L144.2,1477.4L154.1,1482.0L156.9,1482.4L158.0,1477.3L157.7,1476.3L152.7,1471.5L150.8,1468.5L150.5,1466.6L157.7,1464.2L161.6,1466.1L166.1,1468.8L168.5,1470.8L174.2,1477.0L180.1,1482.2L185.3,1488.8L193.4,1501.8L201.8,1507.0L204.2,1508.4L205.9,1509.1L212.4,1509.1L217.6,1507.9L221.2,1510.5L222.7,1514.5L226.0,1516.5L227.3,1516.5L231.5,1514.5L240.7,1514.0L242.2,1512.1L242.4,1509.0L244.1,1506.9L251.1,1508.6L252.6,1509.9L257.7,1517.5L261.2,1517.8L261.1,1517.5L259.8,1514.2L259.7,1511.6L264.6,1512.3L265.8,1510.5L269.8,1508.4L269.0,1506.1L264.8,1506.4L265.1,1505.0L266.9,1503.1L267.2,1501.2L264.5,1499.1L265.0,1497.3L267.1,1494.9L270.4,1493.4L272.5,1493.8L271.8,1492.6L266.7,1491.6L266.1,1493.3L259.5,1492.4L257.8,1490.7L256.3,1490.6L251.9,1487.8L250.9,1484.4L251.7,1482.4L251.4,1480.2L257.0,1480.4L259.2,1479.7L259.0,1478.2L255.9,1474.9L256.5,1477.6L254.5,1478.4L250.5,1474.8L249.7,1474.8L250.3,1477.7L243.0,1476.0L243.8,1472.8L245.8,1470.9L241.3,1470.4L239.4,1472.3L235.4,1470.6L235.9,1467.6L235.5,1465.5L236.3,1463.4L238.1,1461.9L237.3,1460.1L237.9,1454.0L235.9,1453.8L233.4,1455.7L230.9,1456.7L224.4,1455.5L218.5,1453.5L218.2,1455.5L212.7,1453.4L209.4,1455.6L202.9,1455.4L198.2,1453.2L193.7,1445.1L193.3,1442.4L195.9,1442.1L201.2,1444.4L203.0,1444.1L205.6,1441.1L204.1,1436.0L205.6,1435.3L211.0,1436.9L210.2,1434.1L210.4,1427.9L208.1,1424.6L207.9,1421.3L206.5,1418.8L197.7,1409.1L194.2,1406.1L190.1,1406.0L185.6,1404.2L179.1,1405.0L177.3,1406.1L176.5,1407.7L176.8,1410.3L173.5,1416.3L168.9,1417.1L164.1,1416.3L160.1,1416.2L156.2,1413.5L152.4,1413.2L150.3,1412.6Z M191.7,1399.9L192.0,1397.8L190.3,1397.4L188.1,1399.9L191.7,1399.9Z " data-id="JP.OT" data-name="Oita" id="JP.OT"/>
utf-8utf-8<path d="M499.5,1383.4L499.1,1385.6L499.8,1384.4L499.5,1383.4Z M443.3,1341.2L443.5,1346.8L441.5,1347.7L437.4,1346.5L423.5,1346.6L419.0,1347.2L415.0,1352.7L408.5,1354.7L405.9,1356.7L401.4,1357.3L396.9,1354.7L394.8,1354.1L388.1,1355.0L385.8,1358.3L382.8,1359.1L379.4,1363.6L376.3,1366.4L380.8,1374.8L381.9,1378.0L382.4,1381.3L382.4,1383.5L393.4,1387.0L400.6,1387.3L409.5,1391.3L413.4,1391.8L415.3,1388.7L417.0,1388.2L421.7,1388.9L428.4,1396.3L432.7,1404.6L437.0,1405.0L442.3,1406.3L443.8,1407.4L445.6,1411.1L445.8,1413.0L452.3,1419.9L458.6,1420.9L463.9,1422.4L464.0,1422.3L465.1,1420.9L463.4,1417.4L465.9,1416.8L468.4,1411.3L466.6,1409.8L468.4,1407.6L472.8,1405.6L478.6,1400.1L478.6,1398.2L480.8,1397.8L480.2,1394.4L483.0,1394.2L483.0,1392.2L486.3,1391.8L486.9,1390.3L493.7,1386.0L492.3,1385.3L487.9,1386.8L487.6,1386.0L489.9,1385.1L489.6,1384.4L484.1,1384.6L482.3,1383.8L482.7,1381.1L485.1,1377.4L483.5,1373.7L482.1,1371.9L477.9,1369.9L473.1,1364.9L472.5,1366.5L469.4,1365.0L467.9,1362.6L466.8,1358.5L467.2,1358.1L464.7,1352.9L464.7,1344.6L461.0,1344.0L462.8,1343.6L461.6,1341.0L462.0,1337.4L460.5,1338.2L459.6,1340.2L458.1,1340.5L457.5,1336.0L457.2,1338.3L454.4,1339.6L447.7,1339.2L445.9,1341.3L443.3,1341.2Z " data-id="JP.TS" data-name="Tokushima" id="JP.TS"/>
utf-8utf-8<path d="M679.0,1300.9L677.8,1300.8L678.6,1301.5L679.0,1300.9Z M645.6,1265.1L645.3,1262.4L643.2,1260.7L641.9,1260.7L645.0,1265.2L645.6,1265.1Z M615.1,1229.0L617.1,1231.1L621.3,1234.7L624.5,1238.6L629.1,1242.6L632.1,1243.3L633.8,1242.9L632.6,1239.9L633.5,1239.9L635.1,1242.5L637.4,1241.8L634.0,1236.2L635.5,1236.7L638.0,1241.0L637.3,1234.5L638.9,1235.0L640.8,1240.5L640.2,1251.2L640.9,1253.2L645.1,1261.2L646.7,1261.3L650.7,1265.5L651.6,1267.3L652.3,1273.7L655.2,1277.2L666.4,1282.2L669.1,1282.4L666.1,1277.8L663.0,1276.4L659.2,1272.8L657.3,1266.5L657.3,1254.9L659.1,1258.1L659.3,1262.9L660.3,1266.0L662.5,1266.8L669.0,1271.9L672.5,1272.6L674.3,1271.7L676.3,1272.8L677.2,1271.8L682.9,1272.2L684.2,1271.8L685.2,1274.3L686.7,1273.5L685.2,1269.1L686.8,1269.6L687.5,1268.0L692.6,1269.5L693.7,1268.9L696.0,1270.3L699.7,1273.1L700.8,1277.6L704.2,1278.8L703.7,1279.5L701.1,1278.9L702.5,1283.3L699.9,1278.6L698.1,1278.2L697.4,1281.5L692.8,1285.1L685.8,1290.2L680.9,1286.3L679.8,1288.4L680.5,1291.9L679.9,1296.6L687.1,1294.9L691.8,1295.3L708.4,1288.3L716.1,1285.9L719.9,1285.5L716.5,1278.9L714.8,1273.4L714.3,1268.7L715.7,1266.8L720.2,1265.4L723.0,1261.6L723.1,1256.4L724.8,1252.1L723.2,1245.5L723.6,1243.6L726.6,1238.1L727.3,1236.0L726.8,1229.3L725.5,1226.1L724.5,1222.2L719.0,1222.0L711.4,1220.5L709.4,1220.5L705.8,1222.5L703.2,1223.0L699.2,1221.3L695.6,1217.1L694.6,1213.1L690.8,1215.2L688.7,1217.7L685.1,1219.6L681.9,1219.1L678.8,1217.1L669.5,1213.4L666.6,1213.6L661.6,1216.6L657.4,1216.0L653.1,1213.5L648.4,1212.2L640.3,1206.3L638.9,1204.7L629.1,1199.3L625.6,1200.9L620.2,1202.2L616.9,1204.4L612.8,1203.2L611.8,1210.5L610.3,1217.2L611.1,1219.7L615.1,1229.0Z " data-id="JP.AI" data-name="Aichi" id="JP.AI"/>
utf-8utf-8<path d="M628.6,1077.3L622.7,1075.1L615.9,1074.1L607.2,1071.0L603.7,1073.3L599.0,1069.8L593.9,1072.3L589.6,1071.4L587.5,1072.8L585.1,1078.4L582.9,1081.1L583.1,1085.7L581.3,1087.6L580.3,1090.1L579.0,1091.3L576.9,1090.0L576.4,1087.7L573.7,1084.8L572.0,1084.0L564.4,1082.8L563.0,1084.6L563.6,1088.7L562.3,1089.5L559.7,1089.0L561.8,1091.3L566.2,1094.5L567.6,1097.8L566.1,1104.9L566.1,1106.6L567.6,1111.6L567.0,1115.4L568.2,1117.2L569.1,1122.8L573.2,1132.8L577.1,1135.4L580.0,1136.1L585.8,1140.4L587.9,1142.7L587.9,1149.9L587.2,1150.8L573.1,1151.3L563.7,1153.5L562.7,1156.2L559.1,1154.7L547.8,1152.7L544.8,1154.3L544.5,1155.6L545.9,1161.5L545.4,1167.6L551.2,1173.1L554.1,1177.5L556.7,1180.2L561.8,1181.1L570.2,1191.0L574.5,1198.2L577.3,1207.2L578.4,1213.6L580.4,1217.8L584.2,1221.3L594.2,1217.7L597.0,1218.8L599.1,1221.1L604.3,1224.7L608.5,1226.7L615.1,1229.0L611.1,1219.7L610.3,1217.2L611.8,1210.5L612.8,1203.2L616.9,1204.4L620.2,1202.2L625.6,1200.9L629.1,1199.3L638.9,1204.7L640.3,1206.3L648.4,1212.2L653.1,1213.5L657.4,1216.0L661.6,1216.6L666.6,1213.6L669.5,1213.4L678.8,1217.1L681.9,1219.1L685.1,1219.6L688.7,1217.7L690.8,1215.2L694.6,1213.1L694.4,1209.3L693.2,1204.0L690.6,1200.9L691.2,1199.6L693.4,1199.7L693.4,1198.1L690.5,1194.4L688.0,1188.9L685.7,1185.8L681.9,1183.1L677.5,1180.5L672.8,1174.3L668.9,1167.4L658.1,1156.9L655.3,1155.0L652.1,1154.2L642.3,1148.6L642.5,1145.8L643.7,1140.5L644.7,1139.0L650.0,1138.6L651.1,1138.0L651.7,1134.6L653.1,1130.3L654.1,1124.4L653.3,1117.6L647.1,1112.3L645.5,1110.2L642.5,1098.9L642.5,1097.0L643.8,1091.6L643.2,1088.0L639.0,1082.3L633.0,1078.7L628.6,1077.3Z " data-id="JP.GF" data-name="Gifu" id="JP.GF"/>
utf-8utf-8<path d="M536.3,985.2L535.1,983.4L528.8,984.2L527.0,985.2L522.6,985.4L527.6,989.7L535.9,988.9L537.2,988.2L536.3,985.2Z M506.0,1089.8L508.5,1091.7L512.8,1094.0L520.8,1103.4L522.4,1104.3L528.5,1105.6L533.1,1107.4L540.5,1106.8L544.7,1107.5L548.9,1109.5L557.3,1115.5L561.2,1116.8L567.0,1115.4L567.6,1111.6L566.1,1106.6L566.1,1104.9L567.6,1097.8L566.2,1094.5L561.8,1091.3L559.7,1089.0L557.1,1085.4L555.8,1080.8L554.8,1078.7L550.7,1073.6L549.6,1071.0L547.3,1064.1L546.1,1058.4L540.1,1048.9L539.3,1043.7L535.1,1037.0L536.6,1032.9L535.6,1028.3L534.1,1023.6L533.4,1016.6L535.1,1011.0L547.5,1008.1L547.9,1006.9L544.0,1000.0L541.1,993.1L537.2,991.2L537.6,996.1L535.8,997.1L533.8,996.5L529.2,993.1L527.1,992.8L524.0,994.4L522.2,993.5L520.9,989.3L521.9,985.9L520.1,985.3L519.6,981.7L521.7,974.3L522.2,976.4L524.2,977.6L530.8,980.3L531.5,977.9L534.4,976.2L533.3,973.9L534.2,968.4L538.8,966.2L545.7,967.3L546.8,964.5L545.5,959.6L543.6,959.4L541.1,956.6L539.7,950.6L542.2,949.0L546.1,949.4L548.3,948.6L547.8,946.1L545.9,945.1L544.6,941.3L542.9,939.9L537.6,938.2L534.1,939.0L522.4,943.5L520.3,947.7L518.0,948.4L510.1,954.2L507.1,954.4L504.3,953.2L501.0,954.2L494.3,959.3L493.6,963.3L495.6,966.6L497.2,968.2L496.4,973.7L497.8,975.1L497.2,976.7L499.1,984.6L500.4,986.1L504.5,985.6L506.0,987.4L508.2,993.6L509.7,996.1L511.2,997.0L514.3,1001.2L516.8,1002.8L518.7,1005.2L519.9,1010.7L522.5,1013.4L524.6,1018.6L525.8,1035.6L524.9,1043.9L517.6,1071.9L515.3,1077.0L513.2,1080.0L509.5,1082.3L509.0,1085.3L506.0,1089.8Z " data-id="JP.IS" data-name="Ishikawa" id="JP.IS"/>
utf-8utf-8<path d="M672.9,1308.5L673.4,1305.8L670.4,1307.1L672.9,1308.5Z M669.3,1304.5L671.6,1303.1L670.2,1301.5L667.8,1304.9L669.3,1304.5Z M615.1,1229.0L608.5,1226.7L604.3,1224.7L599.1,1221.1L597.0,1218.8L594.2,1217.7L584.2,1221.3L586.1,1223.6L592.6,1229.8L595.3,1238.3L596.2,1243.1L598.1,1249.8L598.3,1251.9L597.0,1257.1L593.4,1260.4L587.2,1262.3L581.3,1262.4L575.2,1261.2L573.8,1263.4L576.1,1265.9L574.8,1269.8L568.5,1273.1L575.0,1280.1L576.5,1280.6L581.7,1287.3L581.4,1288.4L579.3,1289.1L582.4,1291.7L584.2,1297.1L585.6,1298.5L592.4,1301.7L596.5,1302.0L600.8,1305.6L603.1,1305.9L605.5,1309.4L605.4,1311.0L604.0,1313.5L596.0,1317.1L595.8,1318.9L599.2,1324.0L604.5,1330.1L609.4,1338.7L610.4,1343.4L613.9,1351.0L615.6,1360.2L618.9,1363.9L618.9,1364.8L612.7,1364.9L610.4,1369.7L609.8,1376.0L605.1,1380.2L605.2,1384.1L603.1,1385.6L603.6,1387.2L607.3,1391.7L613.3,1396.4L615.7,1397.9L620.4,1401.7L625.6,1403.8L625.6,1403.8L624.7,1384.5L625.9,1379.2L630.6,1376.2L633.8,1375.7L633.7,1372.8L635.8,1373.6L632.6,1368.4L633.3,1367.0L637.4,1370.3L636.7,1364.1L632.6,1361.0L631.7,1359.4L628.0,1358.1L630.2,1353.5L633.7,1356.4L635.8,1353.1L632.7,1351.1L631.4,1347.6L633.5,1344.1L637.2,1341.6L640.4,1341.6L644.1,1337.5L648.9,1338.6L647.1,1336.6L647.3,1333.4L651.8,1335.0L652.0,1332.5L654.8,1334.6L659.8,1331.8L659.9,1329.0L657.8,1328.4L662.4,1326.0L664.2,1326.4L664.1,1330.7L666.6,1331.2L669.4,1330.6L670.4,1329.2L674.9,1331.7L675.6,1328.6L677.7,1329.2L679.4,1330.8L679.8,1333.4L678.1,1332.5L679.9,1335.0L678.3,1334.2L672.3,1333.4L673.1,1334.7L675.5,1335.8L681.3,1336.2L684.8,1334.1L681.7,1328.0L680.3,1326.7L681.5,1323.5L680.3,1323.7L677.3,1321.8L677.6,1320.7L681.0,1321.0L677.8,1314.0L674.4,1313.6L672.9,1312.4L670.0,1308.6L668.7,1307.8L664.9,1307.8L663.3,1306.6L657.2,1304.5L647.5,1299.5L641.1,1295.1L638.8,1294.5L634.4,1294.5L632.4,1293.8L629.2,1287.8L624.9,1284.3L621.8,1274.1L625.1,1263.5L625.5,1259.2L625.1,1256.5L623.8,1254.3L624.9,1253.0L623.1,1252.7L622.2,1247.7L623.5,1245.7L626.4,1242.5L628.5,1242.9L629.1,1242.6L624.5,1238.6L621.3,1234.7L617.1,1231.1L615.1,1229.0Z " data-id="JP.ME" data-name="Mie" id="JP.ME"/>
utf-8utf-8<path d="M719.0,1031.7L715.8,1024.4L714.7,1022.8L705.5,1016.7L701.9,1014.0L700.4,1012.2L694.9,1004.1L691.3,1001.6L685.7,1001.1L680.8,1002.6L675.9,1007.0L675.5,1011.9L672.9,1014.1L674.3,1020.1L668.1,1020.2L666.0,1021.8L663.2,1022.7L658.8,1022.9L656.2,1025.9L655.0,1026.3L650.7,1024.0L647.4,1018.1L644.2,1015.4L642.2,1014.6L637.5,1013.7L632.4,1012.3L630.1,1013.9L631.9,1018.2L631.2,1026.8L629.6,1028.7L626.2,1030.2L632.6,1043.2L635.8,1052.8L635.1,1055.0L635.9,1062.9L635.4,1064.7L635.4,1074.2L633.5,1076.5L633.0,1078.7L639.0,1082.3L643.2,1088.0L643.8,1091.6L642.5,1097.0L642.5,1098.9L645.5,1110.2L647.1,1112.3L653.3,1117.6L654.1,1124.4L653.1,1130.3L651.7,1134.6L651.1,1138.0L650.0,1138.6L644.7,1139.0L643.7,1140.5L642.5,1145.8L642.3,1148.6L652.1,1154.2L655.3,1155.0L658.1,1156.9L668.9,1167.4L672.8,1174.3L677.5,1180.5L681.9,1183.1L685.7,1185.8L688.0,1188.9L690.5,1194.4L693.4,1198.1L693.4,1199.7L691.2,1199.6L690.6,1200.9L693.2,1204.0L694.4,1209.3L694.6,1213.1L695.6,1217.1L699.2,1221.3L703.2,1223.0L705.8,1222.5L709.4,1220.5L711.4,1220.5L719.0,1222.0L724.5,1222.2L727.1,1220.9L729.1,1217.3L730.7,1216.3L733.4,1212.7L737.1,1211.1L739.5,1207.2L744.3,1205.0L745.7,1199.2L741.7,1194.5L742.6,1190.1L740.2,1186.2L739.7,1184.0L737.4,1179.5L739.3,1176.7L739.0,1172.2L738.7,1169.7L736.2,1167.3L731.9,1161.1L731.6,1159.4L732.6,1155.2L728.5,1151.5L728.1,1150.4L728.0,1142.7L729.4,1141.7L732.2,1143.0L734.3,1141.2L735.0,1132.0L737.2,1129.7L743.9,1131.9L745.1,1132.7L747.8,1136.9L750.6,1138.1L762.1,1137.6L766.8,1141.8L770.3,1142.2L771.7,1141.6L774.8,1137.1L770.1,1130.6L769.1,1128.2L759.1,1122.4L757.0,1120.7L751.9,1110.4L745.5,1105.9L744.6,1104.4L746.7,1103.9L745.9,1099.6L743.6,1096.9L740.3,1091.7L742.2,1086.7L741.7,1085.1L737.3,1077.8L731.4,1073.8L727.3,1074.1L725.2,1075.3L720.7,1076.1L718.0,1075.8L714.0,1073.6L709.4,1070.0L707.9,1067.6L705.5,1058.2L704.4,1049.3L705.2,1047.8L708.5,1046.8L707.3,1041.5L710.6,1039.6L720.8,1036.4L722.2,1035.6L719.0,1031.7Z " data-id="JP.NN" data-name="Nagano" id="JP.NN"/>
utf-8utf-8<path d="M816.6,1201.6L804.2,1203.3L801.4,1202.7L796.3,1199.6L791.5,1198.3L786.5,1195.2L785.2,1195.3L785.2,1199.6L787.4,1205.9L788.4,1210.2L790.3,1214.7L794.1,1221.7L792.5,1226.2L791.4,1226.8L787.1,1225.8L784.1,1223.8L778.9,1219.3L774.1,1212.1L770.4,1209.5L764.2,1210.2L760.1,1207.8L757.2,1202.7L755.3,1196.3L753.5,1193.2L752.1,1188.3L741.4,1171.7L738.7,1169.7L739.0,1172.2L739.3,1176.7L737.4,1179.5L739.7,1184.0L740.2,1186.2L742.6,1190.1L741.7,1194.5L745.7,1199.2L744.3,1205.0L739.5,1207.2L737.1,1211.1L733.4,1212.7L730.7,1216.3L729.1,1217.3L727.1,1220.9L724.5,1222.2L725.5,1226.1L726.8,1229.3L727.3,1236.0L726.6,1238.1L723.6,1243.6L723.2,1245.5L724.8,1252.1L723.1,1256.4L723.0,1261.6L720.2,1265.4L715.7,1266.8L714.3,1268.7L714.8,1273.4L716.5,1278.9L719.9,1285.5L727.4,1284.7L732.2,1284.7L741.4,1285.5L753.9,1289.3L762.4,1285.9L769.9,1286.0L778.5,1287.5L795.7,1293.9L800.3,1294.7L800.6,1293.7L798.3,1292.1L795.6,1291.4L793.8,1289.0L792.1,1280.5L794.0,1277.3L796.8,1274.1L798.2,1266.7L795.4,1263.3L795.1,1257.4L795.8,1255.8L803.5,1250.7L806.9,1248.2L806.6,1243.7L804.4,1244.3L805.6,1246.9L803.8,1245.7L802.3,1241.8L804.3,1239.6L804.4,1234.2L806.6,1231.9L811.5,1231.7L816.1,1229.0L821.1,1229.5L827.7,1231.0L832.4,1233.7L835.1,1236.3L843.2,1242.1L842.4,1243.4L831.3,1242.6L831.5,1248.2L833.0,1251.1L838.4,1257.0L837.2,1257.3L836.3,1260.3L837.6,1261.6L839.5,1266.3L839.5,1268.3L845.5,1275.8L843.7,1278.5L846.1,1283.0L851.0,1288.3L858.3,1293.8L860.2,1294.5L861.8,1292.4L864.4,1290.5L867.1,1286.7L870.0,1287.7L873.0,1288.0L870.3,1284.0L869.9,1279.4L868.9,1278.0L869.9,1274.2L871.4,1273.8L872.2,1268.8L872.0,1263.2L873.4,1261.8L875.3,1261.4L874.1,1257.2L871.5,1252.7L869.0,1250.0L865.5,1248.8L862.8,1246.1L861.8,1239.8L858.6,1239.3L857.5,1236.7L856.7,1232.5L856.9,1231.6L849.3,1229.4L845.5,1226.7L839.9,1221.0L837.1,1214.1L837.8,1212.3L837.1,1209.3L832.7,1202.7L831.7,1200.5L828.6,1198.8L822.7,1199.7L816.6,1201.6Z " data-id="JP.SZ" data-name="Shizuoka" id="JP.SZ"/>
utf-8utf-8<path d="M614.3,1013.6L610.6,1010.8L606.3,1008.8L602.6,1005.9L600.2,1006.5L592.4,1008.2L587.3,1012.3L587.4,1015.4L589.2,1017.8L590.2,1027.2L588.0,1029.3L587.5,1031.7L584.4,1032.4L578.3,1031.4L574.3,1032.3L570.2,1032.0L566.4,1030.0L560.9,1028.4L556.9,1025.8L550.8,1022.8L547.0,1018.5L548.1,1013.3L546.8,1010.3L547.5,1008.1L535.1,1011.0L533.4,1016.6L534.1,1023.6L535.6,1028.3L536.6,1032.9L535.1,1037.0L539.3,1043.7L540.1,1048.9L546.1,1058.4L547.3,1064.1L549.6,1071.0L550.7,1073.6L554.8,1078.7L555.8,1080.8L557.1,1085.4L559.7,1089.0L562.3,1089.5L563.6,1088.7L563.0,1084.6L564.4,1082.8L572.0,1084.0L573.7,1084.8L576.4,1087.7L576.9,1090.0L579.0,1091.3L580.3,1090.1L581.3,1087.6L583.1,1085.7L582.9,1081.1L585.1,1078.4L587.5,1072.8L589.6,1071.4L593.9,1072.3L599.0,1069.8L603.7,1073.3L607.2,1071.0L615.9,1074.1L622.7,1075.1L628.6,1077.3L633.0,1078.7L633.5,1076.5L635.4,1074.2L635.4,1064.7L635.9,1062.9L635.1,1055.0L635.8,1052.8L632.6,1043.2L626.2,1030.2L614.3,1013.6Z " data-id="JP.TY" data-name="Toyama" id="JP.TY"/>
utf-8utf-8<path d="M525.8,480.5L527.1,482.0L527.4,481.4L525.8,480.5Z M470.5,462.1L474.4,464.4L474.5,463.3L470.5,462.1Z M443.7,397.7L443.5,395.2L439.1,386.6L439.5,382.3L439.0,380.0L435.9,379.0L434.2,380.7L429.5,381.9L428.5,384.6L429.0,386.9L437.3,397.0L437.8,398.3L442.0,400.9L443.7,397.7Z M887.7,231.0L887.5,228.7L891.3,227.3L883.4,222.8L880.4,221.9L871.3,220.5L887.6,226.0L884.5,229.2L885.4,231.0L887.7,231.0Z M773.8,182.6L773.1,182.6L773.2,182.6L773.8,182.6Z M711.6,158.8L705.2,158.4L698.6,156.0L694.6,156.5L704.3,159.1L709.0,159.9L711.6,158.8Z M436.9,128.3L438.3,127.7L438.3,126.0L436.6,124.6L435.9,128.3L436.9,128.3Z M446.7,125.3L445.2,124.5L443.1,125.3L446.4,126.7L446.7,125.3Z M378.7,48.7L380.5,42.1L378.5,40.4L372.6,36.4L368.7,34.2L364.3,32.4L360.6,31.5L358.0,32.6L357.0,36.0L360.0,38.4L360.2,40.7L363.8,43.3L368.5,45.7L375.4,48.5L378.7,48.7Z M326.8,9.3L321.2,6.6L328.0,11.8L331.2,17.4L336.2,22.4L341.4,26.5L343.6,29.7L341.2,23.0L334.4,11.1L332.5,9.0L330.3,8.1L326.8,9.3Z M408.8,0.0L406.8,0.5L405.6,2.3L405.5,4.2L408.1,8.4L405.2,11.4L401.4,12.5L394.5,13.7L389.7,8.8L388.1,8.1L387.5,9.7L390.5,15.3L394.1,18.9L395.4,20.8L395.5,23.9L396.4,31.3L399.1,36.4L403.6,41.3L433.2,65.6L441.8,73.7L454.2,87.5L465.3,101.8L468.5,107.0L478.0,127.0L479.1,139.9L481.0,144.0L499.0,168.3L502.0,173.0L504.5,177.8L506.4,183.1L506.8,187.2L506.0,190.3L500.8,195.8L497.1,196.4L493.6,200.0L493.8,204.1L495.2,209.1L497.6,211.7L503.2,216.7L504.4,218.9L510.8,224.5L510.9,228.6L512.2,230.9L515.3,233.9L525.5,241.1L528.8,244.2L532.4,249.5L534.2,254.6L534.7,259.0L534.4,262.3L532.2,268.5L528.2,273.4L526.5,274.7L522.3,274.8L512.0,271.8L507.0,271.1L503.9,269.0L503.2,265.4L499.7,265.1L494.3,267.7L485.4,269.0L483.8,268.7L478.3,265.5L469.5,262.6L466.7,261.2L458.9,256.5L447.1,251.1L439.2,248.2L440.0,252.2L439.0,253.4L436.9,253.8L432.2,253.7L435.0,262.3L438.9,267.0L443.9,270.1L449.3,272.8L454.5,275.8L463.0,281.7L467.2,286.0L472.0,289.5L472.9,291.7L472.4,293.5L470.0,296.0L467.3,301.8L466.9,303.5L467.7,310.4L466.5,311.3L469.3,317.8L468.2,319.3L465.9,318.8L459.2,314.2L456.1,312.7L454.8,313.1L455.0,320.4L452.2,322.0L451.2,326.5L448.3,328.0L439.4,328.5L436.6,330.1L436.1,334.3L438.0,338.7L445.2,347.3L448.6,352.5L450.8,357.8L451.4,360.3L451.3,366.2L452.6,370.8L456.6,375.4L461.2,379.5L467.6,382.7L472.5,384.3L476.5,387.7L480.9,390.8L493.0,394.6L498.1,397.6L508.1,405.6L513.4,408.9L513.9,410.6L519.2,416.8L521.1,420.8L520.1,422.4L523.8,427.3L524.2,428.4L522.8,434.7L522.5,442.0L525.5,449.3L526.0,452.9L529.1,457.9L536.2,464.6L543.0,471.6L549.7,474.6L554.1,474.1L560.0,476.1L562.5,476.4L561.4,472.1L562.9,467.0L572.8,463.4L574.5,461.3L573.2,457.5L566.2,448.1L565.4,443.9L570.9,441.8L571.9,440.2L575.9,437.4L575.7,435.3L573.7,428.3L574.6,426.9L576.7,426.6L579.5,427.2L582.2,428.7L584.1,430.8L583.3,434.7L585.2,436.4L587.0,435.9L589.8,433.5L594.5,433.4L600.3,434.9L611.2,439.1L616.4,440.2L619.1,438.9L621.5,433.5L624.2,431.7L628.3,431.1L628.6,430.1L625.5,427.9L614.2,421.7L603.4,419.2L598.3,416.8L587.1,409.3L576.9,404.1L568.5,398.2L564.9,395.0L556.8,391.4L553.9,392.7L548.1,393.2L543.1,394.6L540.8,393.9L529.1,386.8L524.6,384.6L511.6,379.7L506.8,376.8L502.4,371.5L499.7,366.3L497.9,361.3L497.0,356.7L496.9,348.4L497.8,344.6L499.7,341.5L502.7,339.8L505.0,339.7L512.6,340.7L518.2,339.8L520.5,339.8L526.2,341.6L553.2,358.1L557.3,362.8L562.7,365.9L565.8,366.7L567.4,369.0L563.2,368.3L563.0,368.8L566.8,371.5L568.4,372.0L571.5,371.5L572.2,370.2L573.0,363.2L573.6,361.5L577.9,356.7L584.2,352.6L592.7,341.5L601.6,337.3L608.8,335.6L617.3,335.4L627.4,337.5L636.5,340.9L641.0,342.2L649.9,347.8L660.8,352.4L671.7,353.6L680.6,359.2L689.7,364.4L714.2,375.4L724.0,377.8L751.4,388.5L774.8,394.6L795.7,403.6L803.2,408.0L810.4,413.1L815.4,415.2L815.5,413.6L813.3,408.4L814.4,406.2L814.0,403.9L810.4,394.5L805.9,386.8L800.4,380.2L797.4,374.7L795.9,369.9L794.9,354.2L795.6,337.0L797.2,330.4L804.2,319.3L806.7,309.2L815.1,299.7L824.7,294.0L836.0,290.9L839.6,291.3L846.1,296.3L854.7,298.5L858.0,298.9L859.6,297.7L866.6,297.1L882.3,300.0L885.4,298.8L879.0,295.3L877.3,293.6L876.3,289.1L878.0,285.9L882.5,286.6L885.3,290.4L889.3,292.6L893.0,293.6L896.3,293.8L903.5,291.7L902.8,290.2L897.7,286.1L903.2,287.4L905.5,287.3L906.9,286.1L906.5,283.9L910.0,283.6L910.7,282.1L905.7,281.1L903.9,279.0L905.2,276.0L911.9,275.0L913.8,274.0L916.1,271.2L925.7,271.1L929.6,270.0L933.0,271.4L938.3,271.8L936.5,271.1L936.6,265.7L935.3,260.7L936.3,258.5L936.4,255.5L940.8,255.7L942.7,253.6L945.8,252.9L950.0,248.2L941.2,245.8L939.8,247.4L933.2,248.1L933.4,250.5L929.9,252.5L928.6,256.5L926.9,260.0L932.2,264.8L925.6,262.1L917.0,261.4L909.7,259.4L906.8,257.6L907.0,256.3L901.0,254.7L899.6,253.5L899.2,251.3L902.4,251.9L911.5,256.5L914.3,256.0L907.5,252.9L901.5,248.9L896.5,244.5L887.2,234.8L882.3,230.1L880.1,229.0L874.8,223.3L870.1,219.7L859.8,213.8L857.2,212.0L847.9,204.3L845.3,200.6L845.5,198.9L843.1,191.8L840.7,189.7L839.3,185.5L838.5,181.4L838.3,177.6L840.1,167.9L839.6,166.1L836.6,160.5L836.0,158.1L837.0,151.5L836.1,147.2L832.7,142.2L825.3,136.1L824.4,136.0L824.7,139.4L822.7,144.6L823.4,152.2L821.4,154.0L819.8,158.1L815.7,161.8L815.6,163.2L813.2,172.0L809.6,182.6L807.1,185.0L803.1,185.8L786.1,184.6L771.4,182.6L765.4,181.0L756.9,177.0L752.7,173.2L747.4,170.2L743.8,166.8L742.2,163.5L739.4,162.2L737.3,163.1L739.2,168.2L739.7,173.0L738.8,173.6L733.3,172.3L731.5,166.7L731.7,165.2L733.7,163.7L726.8,161.1L715.0,160.5L712.2,164.8L711.2,164.5L697.2,164.3L691.7,162.0L690.9,162.8L686.6,158.5L680.8,154.9L681.7,154.0L690.0,154.9L689.4,154.1L663.0,146.8L643.9,139.3L637.6,135.4L633.6,132.0L627.4,130.4L618.7,125.6L614.4,124.3L602.2,118.6L590.4,111.9L582.0,108.2L574.2,102.7L570.1,101.2L539.0,82.8L529.6,75.8L524.9,73.9L521.7,71.5L505.4,58.2L452.7,25.6L447.0,22.6L435.0,17.2L428.9,13.8L420.9,7.5L415.1,4.6L411.1,1.2L408.8,0.0Z " data-id="JP.HK" data-name="Hokkaido" id="JP.HK"/>
utf-8utf-8<path d="M561.2,1116.8L557.3,1115.5L548.9,1109.5L544.7,1107.5L540.5,1106.8L533.1,1107.4L528.5,1105.6L522.4,1104.3L520.8,1103.4L512.8,1094.0L508.5,1091.7L506.0,1089.8L504.2,1092.4L501.6,1093.8L497.6,1094.5L500.4,1097.2L499.9,1104.9L497.9,1111.0L498.5,1121.6L496.3,1124.5L497.2,1127.8L503.0,1132.3L505.8,1138.5L513.9,1144.1L516.8,1145.8L522.5,1151.8L525.2,1159.1L524.8,1160.4L525.9,1165.6L523.9,1166.0L520.6,1163.3L521.3,1160.5L517.6,1155.4L515.1,1153.0L512.8,1156.1L510.9,1157.5L512.5,1160.9L513.7,1160.6L515.8,1166.4L518.2,1167.8L514.0,1172.1L511.4,1170.1L508.4,1170.9L502.5,1167.7L501.4,1167.8L509.3,1175.6L505.4,1175.8L504.6,1177.0L509.7,1181.1L507.8,1182.0L505.9,1181.4L503.2,1179.2L501.1,1179.3L498.2,1176.7L495.5,1177.7L494.9,1179.7L496.9,1180.3L499.1,1182.5L501.2,1181.2L502.3,1183.6L501.3,1186.4L498.4,1186.2L494.0,1187.6L491.3,1186.9L492.2,1186.0L490.9,1180.0L489.0,1181.3L487.8,1184.6L484.7,1186.2L479.7,1185.5L477.0,1179.4L476.2,1182.7L474.6,1181.1L473.9,1179.9L471.7,1183.1L472.0,1184.2L477.2,1192.6L487.4,1200.6L489.9,1201.7L506.6,1205.8L511.6,1204.9L515.0,1200.2L516.4,1199.2L522.4,1199.6L523.1,1195.7L520.9,1186.6L521.1,1184.9L525.8,1187.4L529.5,1184.8L531.8,1183.8L535.3,1183.5L535.6,1182.5L534.3,1178.1L538.3,1178.2L538.5,1176.6L537.1,1174.0L532.1,1167.1L533.1,1164.5L534.9,1164.0L545.4,1167.6L545.9,1161.5L544.5,1155.6L544.8,1154.3L547.8,1152.7L559.1,1154.7L562.7,1156.2L563.7,1153.5L573.1,1151.3L587.2,1150.8L587.9,1149.9L587.9,1142.7L585.8,1140.4L580.0,1136.1L577.1,1135.4L573.2,1132.8L569.1,1122.8L568.2,1117.2L567.0,1115.4L561.2,1116.8Z " data-id="JP.FI" data-name="Fukui" id="JP.FI"/>
utf-8utf-8<path d="M483.5,1347.5L483.7,1345.4L482.7,1344.6L483.5,1347.5Z M483.7,1325.5L481.4,1324.2L478.0,1315.8L479.8,1307.9L481.5,1305.4L480.9,1299.9L482.1,1296.6L481.3,1295.1L477.8,1293.0L476.0,1293.7L474.5,1299.9L470.2,1302.5L469.8,1309.0L466.2,1312.5L464.6,1326.6L463.4,1327.4L461.0,1326.7L460.5,1331.6L462.6,1334.3L465.9,1336.9L469.0,1335.8L468.7,1337.4L471.6,1341.0L472.8,1343.2L479.4,1342.1L481.4,1339.0L485.5,1336.8L487.3,1335.3L491.4,1333.7L489.8,1331.7L483.7,1325.5Z M424.1,1286.1L421.1,1286.2L421.7,1288.6L425.6,1288.8L424.1,1286.1Z M427.1,1284.7L425.0,1284.9L428.8,1287.0L428.9,1285.4L427.1,1284.7Z M360.4,1173.1L364.8,1175.7L368.5,1179.9L377.1,1192.7L384.7,1202.0L388.7,1205.6L392.8,1212.9L392.5,1216.2L389.6,1219.3L385.9,1218.4L383.8,1218.0L384.4,1219.6L385.3,1223.1L388.1,1227.4L388.4,1228.8L386.9,1232.3L385.8,1240.8L383.1,1245.4L386.1,1253.4L392.4,1267.3L396.4,1270.0L399.3,1272.6L402.2,1276.7L402.9,1280.9L405.3,1281.5L408.0,1281.4L407.8,1277.6L408.9,1277.2L412.3,1278.8L414.4,1278.3L416.3,1272.1L419.0,1274.2L425.9,1274.0L438.3,1272.8L443.6,1274.0L451.1,1278.3L454.9,1279.4L462.0,1283.0L464.6,1284.7L468.1,1285.9L471.7,1288.8L477.4,1289.0L481.2,1291.0L484.4,1290.7L486.9,1289.2L493.6,1287.9L492.5,1285.0L494.2,1284.7L496.0,1287.4L499.4,1287.9L495.0,1283.1L497.9,1281.9L499.1,1284.8L502.3,1284.4L500.9,1281.3L506.1,1281.0L509.4,1283.3L511.6,1284.2L512.9,1283.6L514.2,1282.9L515.7,1278.5L513.5,1274.7L510.6,1270.7L509.4,1268.0L507.5,1262.0L506.0,1259.1L495.4,1251.4L492.6,1246.1L489.5,1244.0L488.4,1242.1L491.3,1239.9L492.3,1238.0L492.0,1236.5L488.1,1232.7L476.9,1228.4L475.3,1227.4L470.1,1226.8L467.0,1225.2L462.0,1220.5L459.1,1216.8L449.6,1216.7L445.3,1215.3L440.2,1212.2L434.0,1210.2L431.1,1207.3L429.2,1202.6L429.1,1199.1L431.7,1199.6L434.6,1201.0L437.7,1201.5L439.0,1196.7L434.6,1187.4L430.2,1182.9L425.9,1185.1L419.3,1183.7L411.8,1176.7L408.9,1170.4L406.5,1166.0L405.1,1167.6L403.7,1166.2L396.5,1165.0L389.2,1165.4L384.8,1165.3L379.3,1165.9L373.4,1164.3L368.3,1168.5L360.8,1171.7L360.4,1173.1Z " data-id="JP.HG" data-name="Hygo" id="JP.HG"/>
utf-8utf-8<path d="M473.5,1178.1L469.7,1176.5L469.1,1172.7L467.4,1174.2L466.7,1177.8L460.3,1180.7L463.0,1184.0L465.9,1185.0L468.4,1184.4L469.8,1187.4L469.3,1188.1L464.6,1186.8L463.5,1191.7L461.7,1184.2L459.7,1182.3L458.0,1183.6L450.2,1180.1L449.4,1178.2L452.2,1177.6L450.0,1176.6L448.4,1174.1L446.2,1178.1L447.1,1180.2L443.9,1177.3L445.8,1168.8L445.8,1166.2L447.2,1164.8L449.8,1166.1L449.7,1164.4L443.4,1157.2L441.4,1156.1L439.3,1153.9L436.2,1152.2L435.0,1153.3L428.1,1154.7L423.9,1156.2L424.8,1157.8L422.1,1160.8L417.1,1162.2L415.2,1164.2L415.0,1166.4L413.8,1168.1L409.3,1167.5L408.3,1166.1L406.5,1166.0L408.9,1170.4L411.8,1176.7L419.3,1183.7L425.9,1185.1L430.2,1182.9L434.6,1187.4L439.0,1196.7L437.7,1201.5L434.6,1201.0L431.7,1199.6L429.1,1199.1L429.2,1202.6L431.1,1207.3L434.0,1210.2L440.2,1212.2L445.3,1215.3L449.6,1216.7L459.1,1216.8L462.0,1220.5L467.0,1225.2L470.1,1226.8L475.3,1227.4L476.9,1228.4L488.1,1232.7L492.0,1236.5L492.3,1238.0L491.3,1239.9L488.4,1242.1L489.5,1244.0L492.6,1246.1L496.0,1247.0L501.4,1247.7L503.3,1248.8L510.6,1254.9L514.8,1256.7L516.3,1254.8L515.4,1253.9L516.2,1251.7L520.2,1255.5L524.3,1256.7L526.1,1258.0L532.7,1264.6L539.1,1271.7L539.7,1274.8L541.8,1276.1L548.0,1279.6L557.2,1282.1L564.1,1279.1L568.0,1280.3L573.3,1282.5L574.9,1281.5L575.0,1280.1L568.5,1273.1L567.3,1270.8L563.2,1267.1L560.1,1265.9L556.4,1262.6L554.7,1261.8L551.8,1262.0L547.4,1259.1L544.8,1253.7L537.1,1245.1L532.9,1231.2L526.1,1220.1L525.1,1215.7L524.1,1213.9L515.6,1207.4L511.6,1204.9L506.6,1205.8L489.9,1201.7L487.4,1200.6L477.2,1192.6L472.0,1184.2L471.7,1183.1L473.9,1179.9L473.5,1178.1Z " data-id="JP.KY" data-name="Kyoto" id="JP.KY"/>
utf-8utf-8<path d="M574.9,1281.5L573.3,1282.5L568.0,1280.3L564.1,1279.1L557.2,1282.1L548.0,1279.6L541.8,1276.1L539.7,1274.8L540.5,1281.3L542.3,1293.9L542.5,1299.6L550.0,1306.9L552.4,1310.4L555.0,1317.2L556.2,1319.5L555.8,1321.1L554.7,1321.5L558.5,1327.3L560.9,1331.9L562.2,1333.4L566.0,1336.3L568.7,1339.1L569.0,1341.4L564.1,1342.1L563.0,1347.3L561.7,1350.7L560.6,1356.3L560.7,1358.4L566.9,1364.3L568.4,1366.4L571.6,1368.9L573.5,1371.6L575.4,1379.3L577.9,1382.5L581.0,1383.1L581.9,1381.4L585.8,1380.7L591.4,1381.9L594.7,1380.7L598.2,1381.5L603.1,1385.6L605.2,1384.1L605.1,1380.2L609.8,1376.0L610.4,1369.7L612.7,1364.9L618.9,1364.8L618.9,1363.9L615.6,1360.2L613.9,1351.0L610.4,1343.4L609.4,1338.7L604.5,1330.1L599.2,1324.0L595.8,1318.9L596.0,1317.1L604.0,1313.5L605.4,1311.0L605.5,1309.4L603.1,1305.9L600.8,1305.6L596.5,1302.0L592.4,1301.7L585.6,1298.5L584.2,1297.1L582.4,1291.7L579.3,1289.1L581.4,1288.4L581.7,1287.3L576.5,1280.6L575.0,1280.1L574.9,1281.5Z " data-id="JP.NR" data-name="Nara" id="JP.NR"/>
utf-8utf-8<path d="M512.4,1313.8L509.8,1311.5L507.5,1314.4L510.2,1316.2L512.4,1313.8Z M492.6,1246.1L495.4,1251.4L506.0,1259.1L507.5,1262.0L509.4,1268.0L510.6,1270.7L513.5,1274.7L515.7,1278.5L514.2,1282.9L515.0,1286.9L518.9,1292.9L521.5,1299.1L521.8,1301.1L521.0,1303.2L519.5,1303.8L521.3,1307.9L519.0,1314.7L512.6,1325.1L503.5,1328.0L502.6,1330.2L505.0,1332.5L507.4,1333.1L514.2,1333.2L525.3,1330.5L527.0,1329.5L537.7,1326.0L543.1,1326.4L544.6,1326.0L550.3,1321.9L554.7,1321.5L555.8,1321.1L556.2,1319.5L555.0,1317.2L552.4,1310.4L550.0,1306.9L542.5,1299.6L542.3,1293.9L540.5,1281.3L539.7,1274.8L539.1,1271.7L532.7,1264.6L526.1,1258.0L524.3,1256.7L520.2,1255.5L516.2,1251.7L515.4,1253.9L516.3,1254.8L514.8,1256.7L510.6,1254.9L503.3,1248.8L501.4,1247.7L496.0,1247.0L492.6,1246.1Z " data-id="JP.OS" data-name="Osaka" id="JP.OS"/>
utf-8utf-8<path d="M534.9,1164.0L533.1,1164.5L532.1,1167.1L537.1,1174.0L538.5,1176.6L538.3,1178.2L534.3,1178.1L535.6,1182.5L535.3,1183.5L531.8,1183.8L529.5,1184.8L525.8,1187.4L521.1,1184.9L520.9,1186.6L523.1,1195.7L522.4,1199.6L516.4,1199.2L515.0,1200.2L511.6,1204.9L515.6,1207.4L524.1,1213.9L525.1,1215.7L526.1,1220.1L532.9,1231.2L537.1,1245.1L544.8,1253.7L547.4,1259.1L551.8,1262.0L554.7,1261.8L556.4,1262.6L560.1,1265.9L563.2,1267.1L567.3,1270.8L568.5,1273.1L574.8,1269.8L576.1,1265.9L573.8,1263.4L575.2,1261.2L581.3,1262.4L587.2,1262.3L593.4,1260.4L597.0,1257.1L598.3,1251.9L598.1,1249.8L596.2,1243.1L595.3,1238.3L592.6,1229.8L586.1,1223.6L584.2,1221.3L580.4,1217.8L578.4,1213.6L577.3,1207.2L574.5,1198.2L570.2,1191.0L561.8,1181.1L556.7,1180.2L554.1,1177.5L551.2,1173.1L545.4,1167.6L534.9,1164.0Z " data-id="JP.SH" data-name="Shiga" id="JP.SH"/>
utf-8utf-8<path d="M623.3,1430.1L620.8,1428.9L618.1,1428.7L621.2,1431.9L623.3,1430.1Z M550.3,1321.9L544.6,1326.0L543.1,1326.4L537.7,1326.0L527.0,1329.5L525.3,1330.5L514.2,1333.2L507.4,1333.1L505.0,1332.5L502.6,1330.2L501.9,1331.8L501.9,1334.1L505.4,1335.0L511.4,1338.8L514.9,1343.9L516.6,1343.7L521.0,1348.2L521.4,1349.8L514.9,1349.7L516.0,1353.9L515.8,1358.1L517.5,1358.3L524.1,1361.4L524.7,1365.0L519.5,1367.1L518.6,1368.9L519.8,1371.1L521.6,1371.1L520.5,1374.5L522.7,1377.4L522.4,1379.9L527.4,1379.0L531.7,1381.1L535.7,1385.6L539.2,1388.4L543.4,1390.3L544.6,1392.3L547.8,1392.4L551.6,1394.5L553.4,1394.3L554.9,1395.8L557.3,1396.7L564.0,1400.5L565.7,1402.0L560.2,1402.9L559.8,1405.6L562.0,1407.2L563.8,1407.6L566.9,1409.7L569.0,1411.8L569.8,1414.8L577.8,1420.0L582.9,1421.1L600.0,1426.7L613.5,1428.3L614.7,1429.9L613.8,1431.9L615.4,1434.0L616.0,1432.7L617.9,1433.1L615.7,1429.3L618.1,1424.4L622.9,1422.6L623.2,1421.1L624.7,1420.4L627.1,1414.9L624.4,1413.6L623.5,1412.0L625.1,1411.0L624.7,1409.0L626.1,1407.8L625.5,1404.2L625.6,1403.8L620.4,1401.7L615.7,1397.9L613.3,1396.4L607.3,1391.7L603.6,1387.2L603.1,1385.6L598.2,1381.5L594.7,1380.7L591.4,1381.9L585.8,1380.7L581.9,1381.4L581.0,1383.1L577.9,1382.5L575.4,1379.3L573.5,1371.6L571.6,1368.9L568.4,1366.4L566.9,1364.3L560.7,1358.4L560.6,1356.3L561.7,1350.7L563.0,1347.3L564.1,1342.1L569.0,1341.4L568.7,1339.1L566.0,1336.3L562.2,1333.4L560.9,1331.9L558.5,1327.3L554.7,1321.5L550.3,1321.9Z " data-id="JP.WK" data-name="Wakayama" id="JP.WK"/>
utf-8utf-8<path d="M866.9,1114.8L872.6,1120.0L874.7,1122.2L890.9,1140.4L892.3,1142.7L895.4,1151.5L902.3,1161.2L903.2,1164.2L903.5,1165.7L903.9,1169.2L904.6,1169.3L908.2,1171.4L911.1,1168.6L907.8,1165.6L910.1,1164.3L913.6,1164.8L915.5,1166.2L916.7,1165.9L926.9,1172.7L929.7,1177.1L931.3,1177.1L931.6,1180.3L929.7,1180.0L927.1,1188.5L925.6,1190.2L923.4,1190.5L922.4,1192.2L920.1,1193.2L919.5,1194.6L922.8,1199.9L922.1,1201.7L916.7,1200.2L916.4,1203.8L917.4,1206.0L915.8,1207.4L913.7,1207.3L921.9,1210.3L923.0,1212.9L926.3,1216.0L927.4,1218.7L924.8,1221.7L926.6,1226.7L929.6,1229.4L931.6,1233.8L935.3,1238.8L935.6,1242.5L939.6,1244.2L940.6,1245.9L935.8,1248.7L930.3,1248.7L931.8,1251.1L937.9,1252.6L940.8,1256.4L942.8,1257.3L947.4,1257.7L951.4,1257.0L952.4,1255.6L952.3,1250.7L951.3,1248.7L951.5,1243.3L955.7,1238.7L957.7,1238.6L959.2,1236.6L958.5,1234.0L959.9,1230.9L970.7,1232.2L971.1,1229.5L973.8,1229.8L974.5,1228.0L976.1,1229.6L978.0,1230.0L978.6,1228.6L977.4,1226.7L977.9,1223.9L981.0,1224.4L981.5,1222.0L977.4,1209.3L970.1,1199.7L967.5,1186.4L969.2,1177.2L975.4,1166.8L979.7,1162.3L984.5,1161.1L985.9,1163.1L992.5,1159.8L994.8,1159.3L999.5,1162.4L999.5,1158.5L997.3,1156.9L996.6,1156.7L993.2,1156.7L990.1,1155.6L984.0,1152.0L977.0,1146.4L966.5,1142.3L959.2,1138.6L957.1,1138.1L948.0,1137.6L941.6,1138.5L939.5,1139.3L938.7,1142.1L936.4,1142.7L924.0,1143.6L917.1,1142.2L898.0,1135.0L892.9,1132.0L882.4,1123.9L872.2,1115.1L868.7,1114.8L866.9,1114.8Z " data-id="JP.CH" data-name="Chiba" id="JP.CH"/>
utf-8utf-8<path d="M864.3,1012.0L866.3,1015.5L872.6,1026.0L875.5,1031.9L879.7,1037.1L877.6,1042.1L881.7,1048.7L887.4,1058.7L889.2,1063.7L889.4,1074.1L887.2,1077.0L883.9,1076.3L878.8,1077.9L875.9,1080.1L870.0,1080.5L867.6,1084.8L867.4,1086.9L862.5,1088.0L861.2,1095.1L858.0,1098.0L854.6,1099.6L851.3,1100.1L849.8,1099.8L854.8,1106.0L856.0,1107.4L857.5,1109.3L864.6,1114.2L866.9,1114.8L868.7,1114.8L872.2,1115.1L882.4,1123.9L892.9,1132.0L898.0,1135.0L917.1,1142.2L924.0,1143.6L936.4,1142.7L938.7,1142.1L939.5,1139.3L941.6,1138.5L948.0,1137.6L957.1,1138.1L959.2,1138.6L966.5,1142.3L977.0,1146.4L984.0,1152.0L990.1,1155.6L993.2,1156.7L996.6,1156.7L996.6,1156.7L992.3,1153.6L985.4,1147.8L959.2,1122.9L950.8,1113.0L943.8,1104.9L937.5,1094.6L935.1,1090.1L935.3,1087.5L937.1,1083.4L930.7,1071.7L927.7,1063.0L927.2,1058.9L927.9,1049.3L923.5,1031.0L923.5,1029.0L924.4,1022.6L924.3,1021.5L913.1,1018.8L903.2,1015.5L897.0,1011.8L896.7,1012.8L900.3,1018.5L900.3,1019.5L898.2,1021.6L896.1,1027.5L893.1,1027.8L887.6,1025.3L870.2,1014.3L864.3,1012.0Z " data-id="JP.IB" data-name="Ibaraki" id="JP.IB"/>
utf-8utf-8<path d="M829.0,1166.5L829.6,1169.4L832.5,1175.0L834.1,1180.5L833.5,1184.6L822.7,1192.9L822.1,1197.3L822.7,1199.7L828.6,1198.8L831.7,1200.5L832.7,1202.7L837.1,1209.3L837.8,1212.3L837.1,1214.1L839.9,1221.0L845.5,1226.7L849.3,1229.4L856.9,1231.6L857.6,1227.6L862.1,1229.3L857.9,1223.5L855.3,1217.3L857.5,1213.9L861.2,1211.3L877.3,1207.2L882.8,1207.9L885.5,1209.4L890.7,1208.5L892.3,1210.9L893.6,1211.1L900.0,1216.9L901.5,1218.7L904.1,1220.2L902.5,1221.4L905.3,1224.7L908.8,1229.8L910.0,1228.9L914.3,1228.8L909.7,1224.2L909.4,1222.3L910.7,1220.5L914.7,1220.7L913.0,1217.6L914.1,1215.7L912.1,1213.7L907.9,1213.3L903.2,1209.6L903.2,1211.1L901.7,1209.7L898.0,1200.1L894.5,1197.2L895.4,1196.1L899.6,1197.3L897.9,1193.5L892.1,1190.8L893.8,1189.1L896.3,1190.0L898.7,1189.5L902.9,1185.0L903.2,1183.8L892.8,1180.6L887.1,1177.5L872.8,1171.6L868.2,1174.2L866.0,1173.3L866.5,1174.8L870.1,1177.3L870.1,1179.2L872.9,1185.4L872.8,1186.6L862.1,1178.4L859.4,1177.1L855.5,1176.4L851.0,1176.1L844.9,1174.1L838.9,1170.2L831.8,1167.0L829.0,1166.5Z " data-id="JP.KN" data-name="Kanagawa" id="JP.KN"/>
utf-8utf-8<path d="M846.8,1102.7L841.5,1101.3L836.6,1101.1L833.4,1102.9L825.4,1098.8L821.4,1097.5L813.7,1096.8L805.8,1095.1L794.8,1091.6L791.3,1094.2L790.5,1101.8L792.3,1106.3L791.2,1108.8L786.2,1111.0L778.7,1115.7L773.4,1120.2L770.2,1122.1L770.0,1126.8L769.1,1128.2L770.1,1130.6L774.8,1137.1L785.3,1142.0L789.1,1143.3L793.4,1144.2L798.9,1144.5L800.5,1141.8L805.4,1139.4L811.4,1142.4L834.9,1147.7L837.1,1148.6L849.3,1154.3L852.1,1154.7L857.1,1153.5L858.9,1152.0L864.4,1154.7L870.7,1153.8L873.4,1151.6L879.9,1151.8L883.9,1149.4L888.8,1150.0L895.4,1151.5L892.3,1142.7L890.9,1140.4L874.7,1122.2L872.6,1120.0L866.9,1114.8L864.6,1114.2L857.5,1109.3L856.0,1107.4L854.8,1106.0L846.8,1102.7Z " data-id="JP.ST" data-name="Saitama" id="JP.ST"/>
utf-8utf-8<path d="M863.5,1009.8L858.3,1002.3L856.0,1001.4L851.3,996.4L839.5,990.0L823.7,985.9L819.3,985.4L814.7,987.0L812.3,990.0L810.8,993.0L806.7,993.5L801.4,996.4L789.5,1005.9L784.3,1008.2L782.4,1012.0L779.1,1014.8L779.0,1018.4L780.3,1021.3L784.7,1024.4L785.3,1025.4L784.8,1032.5L787.2,1037.0L788.5,1044.4L790.6,1047.6L797.2,1050.7L803.5,1051.5L806.6,1053.2L807.5,1054.8L806.9,1063.9L808.3,1070.5L808.0,1078.4L811.6,1082.2L816.0,1085.2L822.5,1090.6L830.7,1091.2L840.0,1092.9L842.1,1093.8L846.9,1097.1L849.8,1099.8L851.3,1100.1L854.6,1099.6L858.0,1098.0L861.2,1095.1L862.5,1088.0L867.4,1086.9L867.6,1084.8L870.0,1080.5L875.9,1080.1L878.8,1077.9L883.9,1076.3L887.2,1077.0L889.4,1074.1L889.2,1063.7L887.4,1058.7L881.7,1048.7L877.6,1042.1L879.7,1037.1L875.5,1031.9L872.6,1026.0L866.3,1015.5L864.3,1012.0L863.5,1009.8Z " data-id="JP.TC" data-name="Tochigi" id="JP.TC"/>
utf-8utf-8<path d="M957.9,1408.0L957.6,1408.0L957.9,1408.1L957.9,1408.0Z M979.2,1383.3L975.7,1378.6L974.0,1378.7L973.6,1380.5L974.7,1382.7L979.2,1383.3Z M960.5,1361.7L962.1,1359.2L961.7,1355.4L958.6,1352.5L955.4,1352.7L953.5,1355.0L954.5,1358.9L957.8,1361.9L960.5,1361.7Z M913.2,1343.5L915.0,1340.8L913.6,1338.7L909.9,1337.8L910.8,1342.7L913.2,1343.5Z M913.9,1327.2L912.5,1326.0L911.3,1327.3L913.2,1328.1L913.9,1327.2Z M919.1,1325.7L918.7,1322.0L916.4,1316.0L914.5,1319.5L915.9,1325.2L918.3,1327.4L919.1,1325.7Z M909.5,1303.3L907.9,1302.0L906.8,1303.0L908.8,1304.5L909.5,1303.3Z M917.2,1284.5L914.2,1277.5L910.4,1273.3L905.8,1271.3L900.9,1270.3L902.1,1273.9L904.7,1279.6L906.5,1281.7L914.1,1284.7L917.2,1284.5Z M798.9,1144.5L802.3,1146.8L807.9,1153.5L811.7,1157.0L818.1,1161.4L829.0,1166.5L831.8,1167.0L838.9,1170.2L844.9,1174.1L851.0,1176.1L855.5,1176.4L859.4,1177.1L862.1,1178.4L872.8,1186.6L872.9,1185.4L870.1,1179.2L870.1,1177.3L866.5,1174.8L866.0,1173.3L868.2,1174.2L872.8,1171.6L887.1,1177.5L892.8,1180.6L903.2,1183.8L903.2,1183.8L902.3,1181.9L902.8,1180.4L899.8,1177.0L899.0,1175.5L896.3,1173.0L893.4,1169.3L892.9,1166.6L894.6,1168.1L895.9,1171.0L898.1,1172.7L897.9,1168.5L899.2,1168.5L900.4,1170.3L902.3,1171.3L902.2,1168.6L903.9,1169.2L903.5,1165.7L903.2,1164.2L902.3,1161.2L895.4,1151.5L888.8,1150.0L883.9,1149.4L879.9,1151.8L873.4,1151.6L870.7,1153.8L864.4,1154.7L858.9,1152.0L857.1,1153.5L852.1,1154.7L849.3,1154.3L837.1,1148.6L834.9,1147.7L811.4,1142.4L805.4,1139.4L800.5,1141.8L798.9,1144.5Z " data-id="JP.TK" data-name="Tokyo" id="JP.TK"/>
utf-8utf-8<path d="M771.7,1141.6L770.3,1142.2L766.8,1141.8L762.1,1137.6L750.6,1138.1L747.8,1136.9L745.1,1132.7L743.9,1131.9L737.2,1129.7L735.0,1132.0L734.3,1141.2L732.2,1143.0L729.4,1141.7L728.0,1142.7L728.1,1150.4L728.5,1151.5L732.6,1155.2L731.6,1159.4L731.9,1161.1L736.2,1167.3L738.7,1169.7L741.4,1171.7L752.1,1188.3L753.5,1193.2L755.3,1196.3L757.2,1202.7L760.1,1207.8L764.2,1210.2L770.4,1209.5L774.1,1212.1L778.9,1219.3L784.1,1223.8L787.1,1225.8L791.4,1226.8L792.5,1226.2L794.1,1221.7L790.3,1214.7L788.4,1210.2L787.4,1205.9L785.2,1199.6L785.2,1195.3L786.5,1195.2L791.5,1198.3L796.3,1199.6L801.4,1202.7L804.2,1203.3L816.6,1201.6L822.7,1199.7L822.1,1197.3L822.7,1192.9L833.5,1184.6L834.1,1180.5L832.5,1175.0L829.6,1169.4L829.0,1166.5L818.1,1161.4L811.7,1157.0L807.9,1153.5L802.3,1146.8L798.9,1144.5L793.4,1144.2L789.1,1143.3L785.3,1142.0L774.8,1137.1L771.7,1141.6Z " data-id="JP.YN" data-name="Yamanashi" id="JP.YN"/>
utf-8utf-8<path d="M713.7,608.9L709.7,597.4L708.9,596.0L704.0,590.6L702.6,589.9L702.2,587.3L699.0,584.8L689.5,582.0L687.0,582.9L685.3,587.3L683.4,588.3L681.8,590.7L674.6,592.3L669.7,590.8L668.1,590.9L666.3,592.8L664.4,592.3L656.9,588.5L651.9,586.7L648.0,584.2L643.6,585.1L642.1,587.1L639.9,588.2L622.5,588.0L615.5,586.2L614.1,586.5L611.4,590.0L606.5,590.3L607.5,591.5L619.6,599.0L620.7,601.6L626.7,613.2L627.6,618.4L629.5,620.9L631.1,626.2L631.4,638.9L630.1,642.9L627.3,645.7L625.1,645.5L618.2,643.1L612.4,640.4L615.6,645.7L618.0,646.7L617.0,647.6L618.8,650.0L628.4,657.9L634.7,657.9L636.3,657.5L637.4,653.8L641.3,653.1L646.9,655.3L652.6,658.8L656.7,661.9L659.9,665.6L661.6,668.5L666.4,673.4L668.4,676.9L680.5,700.0L684.3,711.6L687.3,721.2L686.1,724.7L683.7,726.1L683.9,729.0L685.1,733.5L690.1,744.5L690.2,746.7L699.4,748.7L706.0,747.9L711.1,751.3L715.9,753.6L728.8,758.1L736.9,759.5L742.7,760.1L750.7,763.5L753.0,764.9L759.0,770.7L763.5,773.5L769.4,774.8L771.0,775.7L774.4,775.9L779.5,773.8L783.0,770.5L785.0,767.3L786.9,766.3L784.9,760.1L784.3,754.7L783.1,753.3L777.8,750.1L776.3,748.6L774.6,745.2L774.3,742.7L775.6,739.5L766.4,730.8L758.3,725.5L754.0,720.4L747.5,713.5L746.3,708.3L746.2,701.4L744.9,693.4L746.4,688.8L745.6,683.4L744.2,681.2L738.1,674.4L737.6,667.8L731.0,662.7L728.7,658.8L730.4,656.7L734.9,656.4L725.4,643.7L718.4,631.9L717.9,628.7L712.5,619.6L712.5,617.2L714.1,613.9L714.9,612.2L713.7,608.9Z " data-id="JP.AK" data-name="Akita" id="JP.AK"/>
utf-8utf-8<path d="M764.4,581.8L759.5,579.3L756.8,577.0L753.4,578.3L751.7,577.5L742.9,571.0L734.2,561.9L728.8,555.4L720.6,544.7L711.8,532.4L703.2,519.7L699.7,512.5L697.3,508.3L694.2,504.4L688.9,493.3L686.2,486.7L684.4,480.5L684.7,479.2L681.1,473.0L680.8,474.4L677.8,479.8L673.0,482.0L669.0,482.0L664.0,480.3L658.7,478.1L655.8,475.9L653.0,474.6L644.6,469.1L639.2,467.1L634.8,466.8L629.6,465.2L622.0,461.0L619.7,459.5L620.1,462.1L622.5,464.8L622.5,473.0L621.8,474.4L625.6,483.8L625.1,484.8L627.8,490.7L628.5,493.8L630.2,495.8L634.9,506.3L639.2,508.2L640.8,508.2L640.9,506.2L645.6,504.1L646.6,503.0L650.3,503.0L650.7,501.1L654.4,500.4L660.4,501.9L665.1,495.7L665.2,494.3L663.4,490.7L665.6,490.9L668.7,492.3L673.5,495.5L680.8,501.6L683.7,505.1L685.5,513.6L689.8,521.4L690.9,524.7L692.4,533.7L689.5,538.1L688.1,538.2L682.5,535.0L681.1,533.7L677.4,532.8L674.3,531.5L670.2,530.6L669.2,528.0L663.8,524.3L660.1,523.7L656.1,522.4L657.2,525.8L656.1,528.8L659.6,529.7L661.7,533.2L662.2,536.9L660.3,542.1L656.0,542.6L650.0,540.4L644.0,535.5L634.1,522.3L630.4,518.4L627.8,514.9L621.1,503.2L618.5,500.6L612.8,497.5L608.0,496.8L606.2,497.6L606.5,500.2L604.9,501.8L602.8,501.8L599.2,500.1L591.8,495.2L585.2,492.2L586.4,495.6L589.7,500.9L591.5,505.8L590.9,507.3L585.5,507.6L586.5,508.8L592.4,510.3L602.5,518.7L607.1,518.7L609.0,520.3L605.8,520.0L605.6,520.7L609.2,524.6L608.1,524.9L604.0,522.7L600.8,520.1L603.4,525.8L605.3,528.6L605.9,530.7L609.2,538.0L611.0,545.2L608.5,549.2L605.9,548.3L602.9,552.6L598.6,552.6L594.9,550.7L592.5,550.5L589.7,553.5L590.5,561.1L589.0,562.0L589.4,564.7L587.3,565.2L585.8,569.2L586.8,571.3L589.1,572.1L592.7,571.8L598.3,576.7L603.3,584.5L606.1,589.7L606.5,590.3L611.4,590.0L614.1,586.5L615.5,586.2L622.5,588.0L639.9,588.2L642.1,587.1L643.6,585.1L648.0,584.2L651.9,586.7L656.9,588.5L664.4,592.3L666.3,592.8L668.1,590.9L669.7,590.8L674.6,592.3L681.8,590.7L683.4,588.3L685.3,587.3L687.0,582.9L689.5,582.0L699.0,584.8L702.2,587.3L702.6,589.9L704.0,590.6L708.9,596.0L709.7,597.4L713.7,608.9L714.9,612.2L721.3,615.1L725.6,615.8L726.3,615.2L729.3,609.9L739.2,601.5L743.6,599.0L747.7,600.5L749.9,600.8L759.2,597.4L763.6,598.6L767.6,598.5L768.2,597.6L767.6,592.9L773.5,587.7L764.4,581.8Z " data-id="JP.AO" data-name="Aomori" id="JP.AO"/>
utf-8utf-8<path d="M802.9,885.7L805.5,890.3L811.1,901.8L813.7,905.6L814.4,909.3L811.6,912.8L805.4,913.0L804.3,914.5L800.6,914.4L797.3,912.2L793.1,910.8L790.4,911.1L787.2,910.2L777.7,903.8L776.9,904.6L767.4,904.9L762.7,903.6L758.5,903.1L757.2,908.0L756.2,910.0L754.5,920.1L752.5,925.2L752.6,928.2L757.7,934.4L760.4,941.6L757.3,940.9L753.1,941.9L748.3,941.6L746.8,943.4L747.1,946.8L741.6,946.7L736.4,948.4L732.7,948.5L731.4,949.2L731.2,953.2L735.8,958.2L736.6,959.7L738.8,973.5L739.3,975.4L743.8,979.8L747.1,980.3L751.4,984.7L760.4,1002.7L762.4,1007.5L762.1,1009.5L763.4,1011.4L764.6,1012.0L766.9,1012.6L769.3,1012.6L779.1,1014.8L782.4,1012.0L784.3,1008.2L789.5,1005.9L801.4,996.4L806.7,993.5L810.8,993.0L812.3,990.0L814.7,987.0L819.3,985.4L823.7,985.9L839.5,990.0L851.3,996.4L856.0,1001.4L858.3,1002.3L863.5,1009.8L864.3,1012.0L870.2,1014.3L887.6,1025.3L893.1,1027.8L896.1,1027.5L898.2,1021.6L900.3,1019.5L900.3,1018.5L896.7,1012.8L897.0,1011.8L903.2,1015.5L913.1,1018.8L924.3,1021.5L924.3,1021.5L922.6,1016.7L924.2,1014.0L926.2,1013.3L933.0,1007.0L932.3,1002.6L928.2,991.9L927.4,986.6L921.7,975.2L921.5,973.6L919.6,969.8L917.2,960.9L915.7,957.0L897.4,924.0L893.2,919.5L893.3,917.9L891.9,914.4L887.8,909.9L884.4,905.6L872.9,894.8L872.8,894.7L867.5,894.9L866.3,897.4L870.0,904.4L870.4,905.7L868.7,907.2L864.2,907.3L865.2,909.2L860.3,908.4L855.2,905.8L852.2,902.7L851.0,899.9L848.0,896.8L845.6,895.5L836.8,893.0L831.8,894.3L827.9,893.0L825.0,890.4L821.3,888.2L816.8,886.8L812.3,887.8L809.1,887.9L802.9,885.7Z " data-id="JP.FS" data-name="Fukushima" id="JP.FS"/>
utf-8utf-8<path d="M870.5,762.3L871.0,760.9L875.3,761.1L874.2,762.8L879.3,766.5L880.8,766.9L880.3,764.1L878.6,763.6L879.9,761.8L881.1,762.0L876.9,757.9L875.8,756.2L878.3,757.4L884.0,757.0L888.5,757.9L889.0,757.4L884.3,754.6L883.8,753.7L886.3,751.7L880.9,749.6L881.8,748.0L888.2,749.8L889.9,748.8L888.6,747.3L879.4,742.2L885.2,740.1L885.1,738.1L881.9,738.1L879.1,735.6L881.6,736.0L883.8,735.0L884.6,733.1L881.5,730.8L878.3,730.7L876.5,727.5L879.7,727.5L876.7,725.1L880.2,723.0L881.2,721.3L879.3,718.4L875.6,721.5L873.3,720.9L875.9,717.1L876.0,715.5L872.9,714.3L875.1,711.1L879.7,710.5L879.9,709.7L878.2,705.3L879.0,704.6L877.5,703.3L874.4,707.1L872.0,707.4L869.1,705.3L869.7,704.0L873.2,701.9L875.0,695.7L874.4,694.6L868.2,690.5L865.0,684.0L862.9,684.4L860.9,688.8L859.5,687.3L858.0,681.2L855.2,675.9L854.4,670.4L852.7,668.1L844.3,658.6L841.8,654.9L836.0,650.0L836.1,647.7L831.7,641.5L827.9,640.0L818.4,634.5L816.1,632.7L813.9,629.8L813.4,627.4L814.6,624.5L812.0,622.1L805.3,619.3L804.4,618.2L805.1,614.3L802.2,611.3L796.8,606.7L793.9,604.7L786.3,597.3L781.9,594.5L779.9,592.2L773.5,587.7L773.5,587.7L767.6,592.9L768.2,597.6L767.6,598.5L763.6,598.6L759.2,597.4L749.9,600.8L747.7,600.5L743.6,599.0L739.2,601.5L729.3,609.9L726.3,615.2L725.6,615.8L721.3,615.1L714.9,612.2L714.1,613.9L712.5,617.2L712.5,619.6L717.9,628.7L718.4,631.9L725.4,643.7L734.9,656.4L730.4,656.7L728.7,658.8L731.0,662.7L737.6,667.8L738.1,674.4L744.2,681.2L745.6,683.4L746.4,688.8L744.9,693.4L746.2,701.4L746.3,708.3L747.5,713.5L754.0,720.4L758.3,725.5L766.4,730.8L775.6,739.5L774.3,742.7L774.6,745.2L776.3,748.6L777.8,750.1L783.1,753.3L784.3,754.7L784.9,760.1L786.9,766.3L792.8,766.9L803.8,770.9L812.8,774.9L822.8,775.8L830.1,777.7L829.4,780.8L835.6,786.3L839.9,787.7L844.8,790.2L849.3,785.7L850.9,783.0L854.9,784.0L861.2,786.4L863.2,783.5L859.5,774.7L859.7,770.0L856.2,763.3L860.6,761.7L871.9,764.4L870.5,762.3Z " data-id="JP.IW" data-name="Iwate" id="JP.IW"/>
utf-8utf-8<path d="M900.1,846.9L903.3,850.9L904.3,850.9L902.0,848.2L900.1,846.9Z M895.3,845.7L893.3,843.6L892.7,844.5L894.2,846.7L895.3,845.7Z M911.8,847.8L909.8,844.4L907.4,843.4L906.7,845.1L911.6,848.8L911.8,847.8Z M863.7,841.6L862.6,839.2L862.0,840.7L863.7,841.6Z M878.0,778.4L876.9,775.1L874.8,775.2L875.9,777.9L879.3,780.6L878.0,778.4Z M871.9,764.4L860.6,761.7L856.2,763.3L859.7,770.0L859.5,774.7L863.2,783.5L861.2,786.4L854.9,784.0L850.9,783.0L849.3,785.7L844.8,790.2L839.9,787.7L835.6,786.3L829.4,780.8L830.1,777.7L822.8,775.8L812.8,774.9L803.8,770.9L792.8,766.9L786.9,766.3L785.0,767.3L783.0,770.5L779.5,773.8L774.4,775.9L771.0,775.7L769.4,774.8L771.9,777.7L777.6,781.9L786.0,790.0L787.7,795.4L789.4,798.3L790.3,802.7L789.8,803.5L785.9,803.6L786.0,805.0L792.1,812.6L796.3,819.8L800.5,823.2L802.0,824.9L803.8,833.5L802.6,838.0L802.7,845.6L803.8,851.7L806.4,856.1L808.8,862.9L807.5,867.4L807.3,870.3L803.9,873.4L800.6,873.8L799.5,877.7L802.9,885.7L809.1,887.9L812.3,887.8L816.8,886.8L821.3,888.2L825.0,890.4L827.9,893.0L831.8,894.3L836.8,893.0L845.6,895.5L848.0,896.8L851.0,899.9L852.2,902.7L855.2,905.8L860.3,908.4L865.2,909.2L864.2,907.3L868.7,907.2L870.4,905.7L870.0,904.4L866.3,897.4L867.5,894.9L872.8,894.7L872.6,894.4L866.7,885.5L863.9,880.4L861.9,875.3L858.2,860.7L857.9,856.2L858.4,851.6L859.6,847.6L860.1,843.6L857.3,843.8L856.5,841.4L858.1,836.3L859.2,837.0L861.4,836.3L865.7,841.4L868.7,842.0L866.9,839.3L866.2,836.4L867.4,834.6L869.5,833.6L875.9,831.9L878.7,831.8L881.1,832.6L887.1,835.6L889.8,835.2L891.6,836.3L892.0,839.7L897.4,842.2L898.6,845.1L901.7,845.9L906.7,848.9L906.1,844.7L903.9,842.8L900.7,837.7L897.6,836.3L897.5,834.7L901.4,834.7L899.4,833.1L894.9,833.8L893.3,832.7L891.3,828.0L893.4,827.2L891.1,824.4L890.0,819.8L893.2,822.7L894.5,823.0L891.0,816.8L888.7,814.9L888.2,816.6L881.3,812.4L883.8,809.0L883.9,804.9L883.2,804.1L878.4,803.8L874.9,801.3L878.5,798.5L880.6,793.2L873.6,788.4L873.6,786.9L876.1,783.8L876.6,782.3L872.7,775.8L873.3,774.3L875.2,774.3L882.9,778.3L881.0,775.8L875.4,769.8L872.1,764.7L871.9,764.4Z " data-id="JP.MG" data-name="Miyagi" id="JP.MG"/>
utf-8utf-8<path d="M616.8,873.6L615.0,868.9L614.3,859.3L612.5,852.1L608.8,842.7L608.0,842.2L604.2,843.4L603.8,850.3L602.2,852.1L597.8,860.9L598.3,864.8L597.1,870.4L597.2,872.7L600.3,880.4L603.6,883.9L609.0,881.6L613.6,885.3L612.1,890.7L612.0,892.7L614.8,898.2L614.5,900.5L610.2,901.4L610.9,904.4L614.5,906.1L616.5,905.8L624.9,902.1L632.4,894.4L632.9,892.6L631.7,888.0L631.7,885.7L632.4,879.3L632.2,877.1L629.7,872.3L626.2,872.0L622.2,873.2L618.6,872.8L616.8,873.6Z M669.9,828.3L671.3,827.0L671.4,824.8L670.1,821.9L668.6,825.6L669.9,828.3Z M695.7,819.8L695.5,826.3L696.2,831.4L697.6,835.9L707.8,860.8L707.8,865.3L703.3,876.2L697.9,882.5L691.6,886.3L685.6,886.8L685.3,887.9L677.1,896.5L672.9,902.2L671.8,905.9L672.3,910.3L675.8,925.7L676.3,930.3L675.5,934.1L672.2,939.1L671.4,944.8L671.6,953.8L670.5,956.9L662.7,963.7L657.2,974.7L652.2,980.5L649.3,982.3L645.6,983.2L638.4,982.0L636.5,987.0L632.4,989.3L625.5,995.8L618.3,999.1L608.6,1004.3L602.6,1005.9L606.3,1008.8L610.6,1010.8L614.3,1013.6L626.2,1030.2L629.6,1028.7L631.2,1026.8L631.9,1018.2L630.1,1013.9L632.4,1012.3L637.5,1013.7L642.2,1014.6L644.2,1015.4L647.4,1018.1L650.7,1024.0L655.0,1026.3L656.2,1025.9L658.8,1022.9L663.2,1022.7L666.0,1021.8L668.1,1020.2L674.3,1020.1L672.9,1014.1L675.5,1011.9L675.9,1007.0L680.8,1002.6L685.7,1001.1L691.3,1001.6L694.9,1004.1L700.4,1012.2L701.9,1014.0L705.5,1016.7L714.7,1022.8L715.8,1024.4L719.0,1031.7L722.2,1035.6L725.4,1033.4L729.9,1033.2L731.9,1032.3L732.0,1026.7L737.3,1023.9L738.3,1021.9L737.1,1018.7L737.2,1016.7L740.0,1015.7L736.4,1008.0L736.8,1006.2L741.8,1004.4L743.4,1001.7L743.2,999.6L744.4,998.1L745.8,998.5L750.9,1002.4L752.9,1003.5L756.6,1007.7L760.5,1008.8L762.1,1009.5L762.4,1007.5L760.4,1002.7L751.4,984.7L747.1,980.3L743.8,979.8L739.3,975.4L738.8,973.5L736.6,959.7L735.8,958.2L731.2,953.2L731.4,949.2L732.7,948.5L736.4,948.4L741.6,946.7L747.1,946.8L746.8,943.4L748.3,941.6L753.1,941.9L757.3,940.9L760.4,941.6L757.7,934.4L752.6,928.2L752.5,925.2L754.5,920.1L756.2,910.0L757.2,908.0L758.5,903.1L753.5,900.4L749.1,898.4L743.4,894.0L741.3,887.9L736.7,872.6L730.8,858.6L733.0,855.9L737.0,856.2L741.5,854.8L743.6,852.1L743.4,846.7L742.2,844.9L738.1,841.3L732.5,838.4L728.3,838.4L726.7,837.8L721.0,834.4L717.9,831.0L713.4,821.5L707.6,819.6L696.6,815.7L695.1,815.4L695.7,819.8Z " data-id="JP.NI" data-name="Niigata" id="JP.NI"/>
utf-8utf-8<path d="M763.5,773.5L759.0,770.7L753.0,764.9L750.7,763.5L742.7,760.1L736.9,759.5L728.8,758.1L715.9,753.6L711.1,751.3L706.0,747.9L699.4,748.7L690.2,746.7L690.2,746.7L693.5,756.6L695.3,767.6L699.4,782.5L699.3,787.1L698.5,791.1L693.9,798.9L693.4,802.9L694.2,807.9L695.1,815.4L696.6,815.7L707.6,819.6L713.4,821.5L717.9,831.0L721.0,834.4L726.7,837.8L728.3,838.4L732.5,838.4L738.1,841.3L742.2,844.9L743.4,846.7L743.6,852.1L741.5,854.8L737.0,856.2L733.0,855.9L730.8,858.6L736.7,872.6L741.3,887.9L743.4,894.0L749.1,898.4L753.5,900.4L758.5,903.1L762.7,903.6L767.4,904.9L776.9,904.6L777.7,903.8L787.2,910.2L790.4,911.1L793.1,910.8L797.3,912.2L800.6,914.4L804.3,914.5L805.4,913.0L811.6,912.8L814.4,909.3L813.7,905.6L811.1,901.8L805.5,890.3L802.9,885.7L799.5,877.7L800.6,873.8L803.9,873.4L807.3,870.3L807.5,867.4L808.8,862.9L806.4,856.1L803.8,851.7L802.7,845.6L802.6,838.0L803.8,833.5L802.0,824.9L800.5,823.2L796.3,819.8L792.1,812.6L786.0,805.0L785.9,803.6L789.8,803.5L790.3,802.7L789.4,798.3L787.7,795.4L786.0,790.0L777.6,781.9L771.9,777.7L769.4,774.8L763.5,773.5Z " data-id="JP.YT" data-name="Yamagata" id="JP.YT"/>
utf-8utf-8<path d="M52.8,1527.4L51.2,1525.6L51.1,1526.3L52.8,1527.4Z M23.0,1492.9L24.2,1495.2L26.0,1495.8L26.3,1494.3L23.0,1492.9Z M18.0,1478.2L17.1,1482.2L15.2,1483.1L16.2,1484.0L13.8,1484.7L14.3,1485.5L17.9,1484.5L17.9,1482.7L19.9,1482.9L18.0,1478.2Z M21.5,1468.9L20.6,1468.7L21.8,1469.7L21.5,1468.9Z M8.0,1468.2L6.0,1467.9L3.8,1469.1L7.0,1470.2L8.0,1468.2Z M83.6,1492.5L72.7,1490.6L67.7,1489.0L49.5,1477.6L47.7,1475.5L48.6,1474.0L47.0,1470.0L45.3,1468.6L38.8,1466.7L32.8,1463.6L29.6,1460.0L24.5,1455.2L22.7,1451.4L25.6,1446.2L24.1,1444.2L16.9,1442.3L13.2,1443.6L10.3,1442.5L9.2,1439.3L8.1,1438.2L7.0,1442.5L4.8,1442.9L0.9,1440.3L0.2,1441.5L1.8,1447.5L5.6,1452.0L4.2,1455.3L4.5,1458.8L6.4,1460.6L10.2,1460.9L12.6,1462.6L15.2,1462.2L17.3,1465.5L21.2,1467.6L22.3,1470.2L20.4,1470.7L22.0,1473.7L22.8,1472.1L25.3,1471.6L23.4,1466.4L24.9,1466.9L27.2,1471.2L28.3,1469.2L30.0,1470.3L28.9,1470.9L30.5,1474.1L28.7,1473.7L33.7,1479.0L35.0,1478.8L36.3,1476.6L39.5,1478.3L40.6,1480.7L45.5,1478.3L49.8,1481.5L54.2,1483.9L55.4,1486.4L55.4,1490.9L56.9,1494.3L65.6,1502.1L68.2,1504.3L66.8,1504.7L60.7,1502.5L54.7,1500.6L54.4,1503.3L53.2,1504.0L45.8,1500.7L46.6,1499.4L45.5,1497.4L43.6,1496.3L41.6,1492.0L42.4,1492.0L45.6,1495.0L43.7,1488.3L39.6,1484.6L36.1,1483.7L34.9,1486.9L33.7,1485.4L34.0,1480.1L30.9,1478.6L28.5,1476.4L23.9,1474.6L23.3,1477.6L25.4,1487.1L24.6,1488.3L25.5,1491.0L27.7,1494.6L31.9,1497.1L36.0,1503.1L37.9,1505.0L40.8,1506.4L43.0,1509.0L44.6,1507.5L48.3,1510.7L51.7,1513.0L55.5,1517.3L56.2,1519.0L59.6,1518.7L59.3,1521.4L57.7,1524.3L57.5,1532.6L53.9,1535.8L58.4,1536.3L62.1,1531.6L61.9,1528.8L63.3,1528.7L66.1,1526.0L66.1,1523.8L69.8,1516.3L75.3,1514.5L77.2,1511.5L79.7,1510.3L88.3,1510.5L93.2,1515.4L94.4,1517.6L90.9,1523.2L88.5,1523.5L90.7,1528.6L95.8,1531.2L96.7,1534.4L98.3,1534.4L102.3,1530.8L104.0,1530.6L104.2,1527.5L107.9,1527.4L110.7,1525.5L111.7,1523.0L109.9,1521.1L108.6,1512.0L107.7,1510.5L101.4,1502.9L97.2,1500.6L90.9,1500.7L87.5,1504.3L83.4,1504.6L77.0,1500.6L80.4,1498.2L81.2,1496.6L83.4,1495.9L84.3,1494.3L83.6,1492.5Z M10.5,1431.0L9.1,1430.4L11.0,1432.0L10.5,1431.0Z M18.1,1434.2L15.4,1432.4L14.5,1430.5L12.5,1429.5L13.3,1431.4L12.1,1435.2L14.2,1437.2L15.7,1434.6L18.1,1434.2Z M0.0,1397.7L2.3,1397.6L3.3,1396.0L2.6,1394.4L0.0,1393.4L0.0,1397.7Z " data-id="JP.NS" data-name="Nagasaki" id="JP.NS"/>
utf-8utf-8<path d="M152.2,1945.8L151.6,1943.2L149.1,1943.0L149.2,1944.4L152.7,1946.8L152.2,1945.8Z M180.0,1909.1L177.4,1905.6L176.9,1906.2L178.7,1909.1L180.0,1909.1Z M186.0,1887.8L186.1,1885.0L184.7,1883.2L181.8,1883.9L184.4,1889.7L186.0,1887.8Z M186.0,1856.3L184.7,1857.9L186.5,1860.7L189.9,1863.7L195.8,1864.3L196.3,1863.5L192.4,1861.0L190.8,1857.7L186.0,1856.3Z M155.4,1855.5L152.4,1853.6L152.6,1854.4L155.4,1855.5Z M192.9,1847.7L188.3,1842.2L187.8,1846.3L189.3,1847.5L192.9,1847.7Z M227.0,1787.1L226.4,1788.4L224.2,1788.4L224.3,1790.3L222.3,1795.3L217.8,1795.9L221.1,1802.4L230.6,1814.4L236.1,1815.9L244.9,1814.7L246.8,1812.8L249.6,1808.2L249.8,1802.4L248.8,1798.2L243.9,1794.9L239.6,1793.7L235.3,1790.9L230.3,1789.3L227.0,1787.1Z M192.3,1784.5L190.0,1784.6L194.6,1788.7L196.1,1787.9L197.3,1790.5L200.1,1792.8L201.9,1792.4L202.3,1791.1L204.5,1791.0L204.0,1789.6L201.3,1787.6L196.4,1785.5L195.5,1786.2L192.3,1784.5Z M251.8,1753.9L250.3,1751.6L249.6,1754.2L251.7,1756.5L251.8,1753.9Z M192.3,1746.6L189.1,1749.8L194.4,1750.0L195.0,1748.5L192.3,1746.6Z M206.3,1746.2L204.3,1745.4L202.9,1746.4L207.0,1747.7L206.3,1746.2Z M277.4,1776.5L276.2,1772.7L277.2,1770.1L274.6,1764.1L275.6,1759.6L273.1,1755.1L271.7,1751.3L272.8,1749.7L270.6,1747.7L267.6,1742.8L266.6,1742.9L265.0,1745.3L264.3,1748.9L265.4,1751.5L265.5,1754.1L264.2,1754.6L264.7,1756.0L262.6,1762.8L263.6,1763.8L267.2,1772.0L267.4,1778.5L266.1,1782.9L264.6,1785.6L264.7,1787.6L262.7,1787.9L265.7,1792.4L267.1,1795.5L267.6,1799.2L271.5,1801.9L271.5,1800.5L276.0,1798.2L277.9,1798.4L277.5,1796.9L278.3,1795.2L276.7,1790.7L273.8,1785.8L274.4,1783.7L273.7,1781.0L274.4,1777.2L277.4,1776.5Z M155.4,1746.1L156.8,1744.2L156.3,1743.3L150.9,1743.6L151.9,1744.6L155.4,1746.1Z M89.5,1702.8L89.4,1700.1L88.6,1700.1L88.8,1703.2L89.5,1702.8Z M154.4,1681.9L153.8,1680.8L153.5,1681.5L154.4,1681.9Z M96.4,1648.1L97.1,1647.3L96.9,1643.5L97.9,1637.1L99.6,1635.2L98.6,1633.1L95.4,1628.8L95.0,1635.4L91.9,1637.0L90.7,1640.6L90.7,1644.6L89.0,1645.4L90.2,1647.6L94.8,1650.0L96.4,1648.1Z M101.2,1631.1L100.5,1629.8L101.8,1628.9L100.0,1626.6L98.7,1628.1L101.2,1631.1Z M100.1,1619.8L97.9,1619.2L96.5,1621.3L97.6,1623.7L104.2,1627.4L108.5,1626.4L108.9,1625.6L106.8,1620.5L105.1,1623.0L100.1,1619.8Z M135.1,1585.7L134.6,1590.9L131.3,1593.0L126.7,1589.0L123.1,1590.6L121.7,1593.8L125.1,1596.3L126.2,1599.2L124.6,1602.9L125.5,1605.1L129.9,1608.3L133.4,1613.3L134.9,1618.6L134.4,1621.8L136.1,1623.6L134.2,1625.5L134.9,1629.9L137.7,1633.7L139.5,1634.3L147.0,1638.2L153.1,1644.2L159.1,1649.4L160.0,1651.6L159.7,1654.1L161.8,1657.0L163.2,1665.3L162.7,1667.2L163.0,1671.0L159.9,1675.7L159.3,1678.5L154.7,1674.9L150.8,1673.7L147.1,1675.3L149.8,1676.6L157.3,1681.8L159.7,1685.3L156.8,1684.9L158.7,1686.4L163.1,1692.9L164.8,1694.6L167.6,1694.9L169.8,1693.8L172.0,1693.7L187.7,1694.2L193.1,1696.9L195.0,1698.6L198.5,1703.8L200.3,1704.6L203.8,1704.0L205.6,1705.4L206.6,1703.4L209.6,1701.7L208.6,1693.1L207.8,1691.6L204.0,1691.1L200.7,1688.0L197.1,1686.5L195.2,1684.1L192.1,1679.3L186.5,1672.5L183.7,1662.9L184.2,1656.5L183.8,1651.2L185.3,1648.0L184.4,1642.7L186.1,1638.9L189.7,1637.6L195.7,1639.6L199.5,1639.4L203.4,1642.2L205.7,1646.5L206.3,1651.1L205.5,1654.9L204.5,1656.8L200.9,1656.9L199.3,1652.9L197.4,1650.8L189.6,1649.9L187.7,1651.1L186.5,1654.2L187.9,1655.7L192.6,1657.9L198.9,1659.0L200.7,1661.0L201.4,1666.1L203.7,1669.3L209.2,1672.1L212.9,1676.0L218.1,1682.9L219.1,1685.2L220.7,1691.2L221.2,1695.0L220.3,1699.6L222.2,1701.7L222.9,1709.5L218.9,1713.2L217.2,1715.6L219.6,1723.5L221.5,1723.3L224.5,1718.3L228.3,1717.2L229.8,1714.6L232.2,1713.5L236.9,1712.5L240.1,1711.2L244.0,1708.3L244.8,1707.0L246.0,1700.1L245.2,1697.6L247.4,1696.8L250.2,1697.1L255.0,1690.6L253.9,1689.6L251.2,1691.1L249.1,1690.3L250.0,1684.8L247.5,1683.6L240.9,1681.8L239.3,1680.7L239.0,1676.1L241.2,1670.4L246.2,1668.1L248.2,1667.8L249.4,1663.0L249.4,1661.5L247.6,1655.6L246.5,1654.1L242.2,1651.0L236.4,1650.2L228.6,1647.1L221.7,1637.9L216.2,1633.4L208.2,1630.6L204.3,1625.8L202.7,1620.4L201.1,1618.3L197.4,1615.7L188.9,1610.3L178.6,1600.1L175.2,1597.0L175.4,1594.1L170.5,1591.6L162.0,1586.3L159.6,1585.5L154.3,1588.3L145.3,1591.5L140.5,1589.9L135.1,1585.7L135.1,1585.7Z " data-id="JP.KS" data-name="Kagoshima" id="JP.KS"/>
utf-8utf-8<path d="M68.6,2300.7L68.3,2296.0L67.1,2293.8L65.7,2295.6L67.2,2301.4L68.6,2300.7Z M125.6,2290.2L124.3,2290.3L124.7,2291.1L125.6,2290.2Z M126.6,2277.4L125.6,2274.4L124.4,2277.3L126.6,2277.4Z M0.0,2279.6L3.3,2282.7L5.6,2284.0L6.3,2281.6L6.2,2278.2L4.8,2276.3L0.0,2273.7L0.0,2279.6Z M43.0,2250.2L41.4,2248.5L39.6,2250.7L40.3,2251.3L43.0,2250.2Z M95.9,2232.4L91.8,2232.5L90.5,2233.2L91.4,2235.1L94.6,2236.3L97.0,2235.8L95.9,2232.4Z M106.8,2310.2L108.2,2309.6L109.1,2306.5L110.1,2305.3L112.4,2305.7L114.0,2303.6L115.2,2298.0L110.3,2298.2L109.2,2296.7L109.0,2292.4L111.5,2282.5L112.6,2281.6L119.4,2283.8L121.1,2283.3L117.0,2279.8L112.3,2271.7L109.1,2269.5L109.9,2267.5L118.7,2266.8L119.2,2264.5L122.2,2263.1L126.0,2257.3L127.2,2254.5L132.8,2255.1L135.0,2254.2L135.6,2251.7L134.0,2250.8L135.5,2246.3L136.7,2245.8L141.2,2245.5L143.6,2244.6L145.2,2242.3L148.1,2231.1L148.9,2228.9L147.6,2227.0L146.6,2223.1L136.4,2214.3L137.1,2217.0L136.3,2224.5L133.1,2227.0L132.7,2228.7L131.2,2229.8L131.4,2232.2L127.8,2236.2L127.4,2237.7L128.8,2239.7L124.2,2243.2L118.1,2243.9L116.9,2242.2L117.3,2239.0L115.5,2237.5L113.0,2236.9L108.5,2237.3L104.5,2238.2L108.7,2247.5L113.7,2248.3L117.0,2252.9L115.7,2256.7L112.6,2258.6L109.1,2259.8L106.2,2261.9L104.9,2266.8L97.0,2268.9L98.7,2274.2L101.5,2279.5L102.5,2285.7L101.6,2287.5L99.7,2287.3L98.9,2292.7L97.5,2294.9L95.3,2294.6L95.8,2297.4L100.2,2305.7L100.8,2310.2L106.8,2310.2Z M104.7,2211.1L104.0,2207.8L102.6,2206.5L100.6,2206.6L101.7,2210.7L104.7,2211.1Z M152.0,2197.3L149.7,2193.3L145.3,2194.9L145.6,2195.9L149.8,2198.2L152.0,2197.3Z M101.0,2198.6L102.7,2196.0L103.5,2192.8L102.5,2191.4L99.1,2197.8L98.6,2199.6L101.0,2198.6Z M160.3,2150.4L162.7,2148.7L162.3,2146.4L153.5,2151.1L149.3,2150.5L146.7,2151.1L147.5,2156.3L148.4,2157.5L153.0,2158.5L154.0,2157.5L156.6,2157.2L156.5,2155.4L160.3,2150.4Z M101.4,2098.3L99.5,2096.9L100.4,2098.9L101.4,2098.3Z M180.6,2118.8L184.6,2110.4L183.5,2106.8L179.0,2103.8L176.9,2100.8L173.6,2093.9L171.0,2091.5L166.5,2094.3L167.2,2098.8L167.3,2102.2L171.4,2108.8L171.5,2112.1L172.4,2113.7L174.8,2114.4L177.4,2118.7L180.6,2118.8Z M195.2,2076.7L192.9,2076.2L193.2,2077.5L199.5,2080.5L199.5,2077.5L195.2,2076.7Z M188.7,2079.0L189.1,2075.0L188.0,2073.4L186.9,2077.5L188.7,2079.0Z M189.3,2060.3L189.2,2058.0L186.0,2057.9L184.7,2058.6L185.9,2060.4L189.9,2064.6L192.2,2069.4L196.6,2069.8L198.9,2072.1L203.4,2071.9L205.8,2071.0L204.7,2068.5L201.9,2066.5L199.1,2067.0L193.6,2064.1L193.2,2063.2L194.2,2060.4L190.7,2060.9L189.3,2060.3Z M263.8,2046.5L265.0,2038.7L264.3,2036.7L259.8,2040.3L255.3,2045.8L260.1,2047.3L262.3,2047.4L263.8,2046.5Z M230.5,2029.4L228.1,2026.1L225.8,2022.2L224.3,2020.5L223.0,2027.3L219.7,2028.9L219.1,2027.8L219.0,2023.6L213.5,2027.4L211.5,2029.9L211.2,2034.3L207.1,2032.2L206.0,2031.0L202.9,2035.1L200.7,2034.3L200.1,2036.9L196.0,2037.3L187.9,2042.0L185.2,2044.9L188.6,2047.3L192.3,2047.4L191.4,2050.8L188.4,2050.7L184.8,2049.7L182.2,2050.7L181.0,2050.0L178.9,2051.4L186.0,2053.9L190.0,2055.7L191.4,2055.6L192.2,2053.9L193.8,2055.2L195.9,2060.0L202.2,2063.7L207.1,2067.0L204.7,2062.9L203.2,2062.1L204.9,2061.3L208.1,2061.8L207.8,2059.3L208.7,2059.1L212.9,2055.5L206.8,2051.4L209.0,2049.5L209.3,2048.2L208.0,2046.5L212.4,2047.5L213.4,2047.0L217.5,2042.1L218.7,2037.0L221.2,2035.5L221.4,2033.4L230.5,2029.4Z " data-id="JP.ON" data-name="Okinawa" id="JP.ON"/>
utf-8utf-8<path d="M760.5,1008.8L756.6,1007.7L752.9,1003.5L750.9,1002.4L745.8,998.5L744.4,998.1L743.2,999.6L743.4,1001.7L741.8,1004.4L736.8,1006.2L736.4,1008.0L740.0,1015.7L737.2,1016.7L737.1,1018.7L738.3,1021.9L737.3,1023.9L732.0,1026.7L731.9,1032.3L729.9,1033.2L725.4,1033.4L722.2,1035.6L720.8,1036.4L710.6,1039.6L707.3,1041.5L708.5,1046.8L705.2,1047.8L704.4,1049.3L705.5,1058.2L707.9,1067.6L709.4,1070.0L714.0,1073.6L718.0,1075.8L720.7,1076.1L725.2,1075.3L727.3,1074.1L731.4,1073.8L737.3,1077.8L741.7,1085.1L742.2,1086.7L740.3,1091.7L743.6,1096.9L745.9,1099.6L746.7,1103.9L744.6,1104.4L745.5,1105.9L751.9,1110.4L757.0,1120.7L759.1,1122.4L769.1,1128.2L770.0,1126.8L770.2,1122.1L773.4,1120.2L778.7,1115.7L786.2,1111.0L791.2,1108.8L792.3,1106.3L790.5,1101.8L791.3,1094.2L794.8,1091.6L805.8,1095.1L813.7,1096.8L821.4,1097.5L825.4,1098.8L833.4,1102.9L836.6,1101.1L841.5,1101.3L846.8,1102.7L854.8,1106.0L849.8,1099.8L846.9,1097.1L842.1,1093.8L840.0,1092.9L830.7,1091.2L822.5,1090.6L816.0,1085.2L811.6,1082.2L808.0,1078.4L808.3,1070.5L806.9,1063.9L807.5,1054.8L806.6,1053.2L803.5,1051.5L797.2,1050.7L790.6,1047.6L788.5,1044.4L787.2,1037.0L784.8,1032.5L785.3,1025.4L784.7,1024.4L780.3,1021.3L779.0,1018.4L779.1,1014.8L769.3,1012.6L766.9,1012.6L764.6,1012.0L763.4,1011.4L762.1,1009.5L760.5,1008.8Z " data-id="JP.GM" data-name="Gunma" id="JP.GM"/>
utf-8</g>
</svg>
