<?xml version="1.0" encoding="UTF-8" standalone="no"?>
<svg
   xmlns:dc="http://purl.org/dc/elements/1.1/"
   xmlns:cc="http://creativecommons.org/ns#"
   xmlns:rdf="http://www.w3.org/1999/02/22-rdf-syntax-ns#"
   xmlns:svg="http://www.w3.org/2000/svg"
   xmlns="http://www.w3.org/2000/svg"
   id="svg2"
   width="1491"
   viewBox="0 0 1491 1080"
   version="1.1"
   style="fill:none;stroke:#000000;stroke-linejoin:round"
   pretty_print="False"
   height="1080"
   enable_background="new 0 0 1000 589">
  <defs
     id="defs4">
    <style
       id="style6"
       type="text/css">path { fill-rule: evenodd; }</style>
  </defs>
  <metadata
     id="metadata8">
    <views
       id="views10">
      <view
         id="view12"
         w="1000"
         padding="0"
         h="589.235294118">
        <proj
           lon0="-100"
           lat0="45"
           id="laea-usa" />
        <bbox
           id="bbox15"
           y="918.69"
           x="690.09"
           w="589.33"
           h="321.97" />
      </view>
    </views>
    <rdf:RDF>
      <cc:Work
         rdf:about="">
        <dc:format>image/svg+xml</dc:format>
        <dc:type
           rdf:resource="http://purl.org/dc/dcmitype/StillImage" />
        <dc:title></dc:title>
      </cc:Work>
    </rdf:RDF>
  </metadata>
  <path
     id="MA"
     d="m 1225.0017,407.99201 -7.5349,8.19457 -16.6552,5.55082 -5.4179,1.71817 -0.9255,0.39629 -7.5349,2.24746 -2.6438,0.92558 -3.04,0.92558 -1.056,0.39629 0,0.39631 0.3963,6.8727 0.3963,6.34606 0.3963,5.81413 0.6597,0.39629 0.2659,1.32188 5.0216,19.43184 1.5877,1.98149 -3.4363,4.22894 2.3778,2.24746 7.6653,-7.40198 4.0986,-5.68379 0.7926,1.58784 19.2989,-8.59353 0.3963,-0.39629 0.2633,-0.3963 6.346,-5.02154 -1.1889,-8.98981 2.6412,-0.52663 0.7952,-0.66227 0.3963,-1.98148 -0.1329,3.17038 0,0.92558 0.9255,2.38043 1.1889,2.11447 0.7926,-1.58518 6.2131,-7.53497 5.1545,1.71818 1.1916,-2.64375 8.4579,-4.49493 -3.5693,-7.003 0.9255,4.49225 -4.3619,3.30601 -4.8912,0.39629 -9.7797,-10.442 -4.362,-6.60939 4.362,-4.62524 -4.4949,-0.26597 -1.8512,-4.36192 -0.1303,-0.26332 z m 27.7567,26.17155 0.3963,2.90707 -0.133,-1.85116 -0.2634,-1.05591 z m -24.4534,10.04573 -0.133,3.43635 1.8512,-0.13304 -1.7183,-3.30336 z m 9.3861,2.2448 -0.9255,0.92559 0.9255,-0.39631 0,-0.52928 z m -10.442,0.3963 -0.3963,1.05856 0.5267,1.71818 -0.1304,-2.77674 z m 13.0858,3.8353 0,0.3963 0.3962,-0.13305 -0.3962,-0.26331 z"
     style="fill-rule:evenodd;stroke-width:1.36177182" />
  <path
     d="m 699.06549,343.09198 2.64355,9.38464 5.55146,33.83751 2.64356,13.48214 0.79307,11.89602 3.0401,7.13761 0.66088,6.08017 0.52871,1.98267 -0.13223,0.39654 -5.2871,8.72372 3.43662,5.81583 6.60888,46.5266 0.26436,6.08017 6.60888,-0.39652 26.03904,-1.45396 65.03149,-5.41929 6.47672,-0.6609 0,-0.66088 -1.8505,-10.17769 -8.06284,-4.09752 -6.34454,-6.60888 -10.04551,-6.08019 -3.17227,-0.26435 -4.89057,-3.70098 1.32178,-18.24054 -4.62623,-4.22969 1.58614,-7.40196 8.45938,-7.66631 -1.45397,-15.86136 3.04009,-3.43662 0,0 10.30988,-10.83859 11.76382,-15.06826 4.49405,-3.17226 7.93068,-3.83317 8.32719,-6.21235 -5.55147,1.05741 -3.30445,-2.51137 -12.68907,1.71831 -1.98266,-2.3792 -11.36729,4.62623 -9.12028,-3.83316 -2.51137,-3.0401 -7.26979,0.52872 -4.89057,-2.51138 1.58613,-1.85049 -6.21236,-1.98267 -5.55147,0 -8.85591,3.83316 -1.71831,-2.64355 -14.01085,-1.98267 -4.7584,-11.896 -0.52872,-3.56882 -6.08018,-1.71831 0.52871,10.1777 -16.12569,1.18961 -19.95886,0.79306 -1.32177,0.13223 z"
     data-id="MN"
     data-name="Minnesota"
     id="MN"
     style="fill-rule:evenodd;stroke-width:1.36177182" />
  <path
     d="m 572.5713,341.90239 -43.75086,-2.90791 -31.85485,-3.04009 -31.72269,-3.70098 -19.6945,-2.64356 -31.45832,-4.89058 -15.72916,-2.64355 -35.1593,-6.74108 -3.70098,-0.79306 -5.68364,26.96428 2.51138,4.89057 1.98267,7.53414 -1.18961,1.05742 2.51139,6.87326 3.43662,2.90791 9.78115,16.39004 0.92525,2.77573 3.96533,-0.26436 -4.62622,21.67717 -1.85049,0.52871 -2.51138,7.26979 13.08561,0.92524 1.05742,6.08019 7.40196,18.10837 1.32178,1.05741 5.15493,10.57423 1.32177,-1.05741 10.97077,-0.13224 13.87867,1.45397 3.43662,-4.49405 4.09752,7.40195 0.79307,0.39654 0.13223,-0.79306 1.85048,-12.95343 45.20482,5.55146 36.08455,3.43662 19.0336,1.58615 33.96971,1.98267 1.71831,0.13222 0.39653,0 0.13223,-1.85048 0.39653,-9.12028 0.52872,-12.02817 0.13222,-3.04011 0.26436,-5.2871 2.11485,-41.50385 1.71831,-32.25139 0.13222,-5.28711 -2.51137,-0.13222 z"
     data-id="MT"
     data-name="Montana"
     id="MT"
     style="fill-rule:evenodd;stroke-width:1.36177182" />
  <path
     d="m 696.28975,343.09198 -39.91771,0.79308 -27.88952,-0.13224 -23.92418,-0.5287 -28.0217,-1.05743 -1.45396,-0.13223 -0.13223,5.28712 -1.71831,32.25139 -2.11485,41.50385 -0.26436,5.2871 5.15494,0.26436 58.29042,1.58614 53.79638,-0.39653 22.33805,-0.66089 4.49405,-0.26436 -0.52872,-1.98267 -0.66087,-6.08017 -3.04011,-7.1376 -0.79307,-11.89602 -2.64355,-13.48215 -5.55146,-33.83751 -2.64356,-9.38464 -2.77574,0 z"
     data-id="ND"
     data-name="North Dakota"
     id="ND"
     style="fill-rule:evenodd;stroke-width:1.36177182" />
  <path
     d="m 359.36847,314.54158 -11.76383,-2.37921 -3.83316,-0.92524 -1.71831,-0.39654 -15.33262,68.99683 0.66089,5.68364 -0.52872,5.948 0.26436,1.32179 0,0.13222 0.13223,2.51136 4.49405,4.89059 -6.47671,16.25788 -13.7465,17.97619 -0.39654,3.30445 3.56882,8.45938 -12.5569,52.07807 -0.52872,2.77573 3.70098,0.79307 37.40633,7.40195 14.9361,2.77574 3.83315,0.66089 3.70098,0.66089 19.03361,3.04008 34.10187,5.15494 3.83316,0.52872 0.5287,-4.36188 1.18961,-8.59156 4.49405,-34.36622 2.37921,-17.05095 0.5287,-4.36188 -0.79306,-0.39653 -4.09752,-7.40195 -3.43663,4.49405 -13.87867,-1.45396 -10.97076,0.13222 -1.32177,1.05742 -5.15494,-10.57422 -1.32178,-1.05743 -7.40195,-18.10835 -1.05743,-6.0802 -13.0856,-0.92524 2.51138,-7.26979 1.85048,-0.5287 4.62622,-21.67717 -3.96533,0.26434 -0.92524,-2.77572 -9.78115,-16.39004 -3.43662,-2.90791 -2.51139,-6.87326 1.1896,-1.05742 -1.98267,-7.53413 -2.51137,-4.89058 5.68364,-26.96428 -0.13223,0 z"
     data-id="ID"
     data-name="Idaho"
     id="ID"
     style="fill-rule:evenodd;stroke-width:1.36177182" />
  <path
     d="m 200.09418,347.45386 0.13223,-2.24703 -0.26434,0.13222 0.13222,2.11485 z m 28.15389,-12.02819 0.79305,-1.32177 -0.92524,-0.13224 0.13223,1.45397 z m -2.51138,-2.3792 0.79306,-2.64356 -0.79306,-0.26434 0,2.9079 z m 9.64897,-3.83315 -0.13222,-2.64357 -2.24703,3.43663 2.3792,-0.79306 z m 0.26436,-5.55148 0.39654,-2.64356 -0.26436,-0.66087 -0.13223,3.30443 z m 0.39654,-12.95341 -0.13223,-1.45397 -0.52872,-0.13223 0.66089,1.58614 z m 4.22969,-8.72375 -1.18961,-0.13222 -2.37919,3.70098 3.5688,-3.5688 z m -3.30446,-3.56879 0.6609,-0.52872 0.13224,-0.39653 -0.79308,0.92525 z m -0.66087,0.39653 -0.39654,-2.64356 -1.1896,2.24703 1.58614,0.39653 z m -0.6609,-3.70099 -1.1896,-0.5287 0.92524,1.32177 0.26436,-0.79307 z m 3.96533,2.24702 0,-1.71831 -0.39653,0.6609 0.39653,1.05741 z m 1.1896,-1.71831 -0.5287,-0.39653 -0.13224,0 0.66089,0.39653 z m -7.53414,-2.90791 -0.66087,-0.52871 -0.26436,-0.13222 0.92523,0.66088 z m 4.89059,-0.52871 -3.56879,0.92524 0.92524,0.26436 2.64355,-1.1896 z m -2.90791,-0.26435 -0.66088,-0.79306 -0.13224,0.13222 0.79308,0.66088 z m 2.77574,-1.58613 -0.52872,0 0.66089,0.26435 -0.13222,-0.26435 z m -25.90687,67.80723 4.75842,5.15493 -0.79307,9.91333 0.92524,2.51139 7.1376,3.83314 20.09103,1.85048 0.79306,2.37921 9.51682,0.13223 8.98809,1.1896 14.67172,-1.58613 7.2698,1.1896 1.98266,-0.92524 37.14197,8.45938 2.51138,0.52871 -0.26436,-1.32178 0.52872,-5.948 -0.66089,-5.68364 15.33262,-68.99683 -2.11484,-0.39654 -30.92961,-7.26977 -26.96427,-6.87325 -30.53309,-8.45938 -9.12026,-2.24702 2.11484,11.49947 -1.98267,3.70098 -3.5688,-1.85049 3.43663,15.99352 -3.701,5.2871 -1.71831,4.89059 0,5.02276 -7.79848,5.4193 -3.30445,-2.11485 -3.17227,1.58612 5.81583,-7.53412 -1.45395,5.15493 3.30445,-3.56881 2.64355,0.52872 -0.79307,-6.6089 1.71831,0.26437 3.5688,-7.93068 -1.18959,-1.18961 -4.62623,5.94801 -3.0401,0.13223 3.30445,-3.70099 3.70098,-0.92524 -1.32177,-6.74107 -3.70098,-0.92524 -1.85049,-3.17226 -2.24703,1.18959 -12.16035,-5.28711 -10.7064,-8.3272 -2.90792,8.06284 -0.26436,3.43662 2.24702,6.08019 -1.45395,19.69449 -1.05743,3.04009 5.948,0.52872 -5.948,4.22969 3.17228,1.58613 -2.51138,8.45938 -1.18961,-6.60889 -2.24701,7.66631 3.04008,3.70099 3.30444,-0.26436 3.96534,2.37921 1.98267,3.83315 2.37919,0 0,0 z"
     data-id="WA"
     data-name="Washington"
     id="WA"
     style="fill-rule:evenodd;stroke-width:1.36177182" />
  <path
     d="m 445.28406,664.54847 -44.54393,-5.55146 -23.92419,-3.43664 -34.10187,-5.41928 -3.43662,-0.52872 0,0.26436 -5.81584,25.64251 -3.04008,-0.13223 -4.62623,-4.0975 -5.81583,4.89057 -0.13222,21.01627 -2.11485,4.49405 0,0.39653 0,0.13223 -0.26436,3.30443 4.62623,12.42473 4.09752,5.55146 -7.40197,4.36187 -2.90791,5.41929 -4.75841,11.63165 -2.37918,0.52872 -0.13224,9.64897 4.09752,3.0401 -2.11485,5.81581 -4.75839,0.26436 0,0 -2.77574,5.15494 9.51681,5.948 17.97617,10.04552 55.51469,29.47565 47.05531,5.81583 0.52871,0 3.70098,-38.99247 0.92524,-9.64898 9.91335,-102.30564 0.5287,-4.75839 -3.43662,-0.39654 z"
     data-id="AZ"
     data-name="Arizona"
     id="AZ"
     style="fill-rule:evenodd;stroke-width:1.36177182" />
  <path
     d="m 218.99562,737.90717 0.5287,2.90791 0,0.52871 -0.5287,-3.43662 z m -19.43015,-11.36729 0.92525,1.98267 0.52871,-0.13224 -1.45396,-1.85048 z m 23.13112,-0.39654 0.39653,3.43662 2.37921,1.71831 -2.77574,-5.15493 z m -15.99351,-18.76925 -1.45397,-0.39653 1.18961,0.5287 0.26436,-0.13222 z m -14.67174,-3.96534 -3.5688,2.11484 0.92525,0.92526 2.64355,-3.0401 z m -6.87324,-2.51139 -0.26436,1.05744 1.18959,0.26436 -0.92523,-1.3218 z m 11.63164,2.64357 5.81583,3.30446 1.05743,-0.92526 -6.87326,-2.3792 z m -45.07263,-116.44867 -0.13224,0.13224 0.13224,-0.13224 0,0 z m 14.14301,0.66089 -0.13222,-0.39654 0,0.52872 0.13222,-0.13222 z m 76.26661,-100.32296 -5.15494,-1.3218 -56.5721,-15.59696 -21.01627,-6.34454 0,0.52871 -1.18961,13.0856 -5.55147,15.4648 -9.25243,11.49947 -0.26434,5.81583 4.49403,8.06285 2.24702,10.57423 -3.17226,8.59155 0.5287,8.59157 -1.58612,3.56879 5.41927,11.76383 3.43662,4.49405 -0.26434,12.82125 8.19501,7.79848 4.7584,-7.93065 5.15494,4.0975 1.98267,-1.85049 -7.13761,1.32178 -0.13223,6.74107 1.45397,8.45938 -3.96534,-3.83315 -2.24702,-5.15493 -0.6609,7.13759 1.85049,14.14303 7.40196,9.12026 -4.89057,6.34454 0.79305,8.06285 5.28712,8.19503 9.25245,25.37815 2.90792,1.58612 -0.92526,17.57966 1.45396,2.11484 19.82668,7.1376 6.08018,6.47672 2.11484,4.22969 5.81583,3.30444 6.34454,1.18961 2.64355,7.26978 5.28711,2.51138 7.93067,9.38462 7.40196,12.29254 -0.52872,11.36729 4.09752,5.41929 54.06074,5.28711 0,0 4.7584,-0.26436 2.11484,-5.81581 -4.09752,-3.0401 0.13224,-9.64897 2.37918,-0.52872 4.75841,-11.63165 2.9079,-5.41929 7.40198,-4.36187 -4.09752,-5.55146 -4.62623,-12.42473 0.26436,-3.30443 0,-0.13223 -3.43662,-4.62623 -10.57423,-14.14302 -20.48757,-28.81476 -28.5504,-40.97513 -16.1257,-22.33805 -15.59699,-22.47024 17.97619,-76.26661 1.18959,-5.02274 z"
     data-id="CA"
     data-name="California"
     id="CA"
     style="fill-rule:evenodd;stroke-width:1.36177182" />
  <path
     d="m 605.21922,590.52889 0.52872,-25.90685 -6.34454,-0.26436 -32.25138,-1.18961 -3.17228,-0.13223 -2.64355,-0.13222 -39.25681,-2.51138 -26.17122,-2.11485 -32.64793,-3.17228 -3.17226,-0.39652 -0.39653,3.43663 -7.1376,68.86464 -2.51138,24.05637 -1.05742,10.44205 -0.26436,3.43662 4.09752,0.39654 66.61762,5.81582 29.34347,1.85049 29.2113,1.32177 4.22969,0.13223 2.64356,0.13223 5.55147,0.13223 2.64357,0.13222 8.32718,0.26436 2.11485,0 0,-2.64355 1.45397,-69.92208 0.13222,-7.79849 0,-2.51138 0.13223,-1.71831 z"
     data-id="CO"
     data-name="Colorado"
     id="CO"
     style="fill-rule:evenodd;stroke-width:1.36177182" />
  <path
     d="m 339.93833,645.38268 13.74649,-85.51905 7.00543,-42.82562 0.79306,-4.22968 -3.83315,-0.6609 -14.93609,-2.77573 -37.40633,-7.40195 -3.70097,-0.79307 -3.701,-0.79308 -18.63706,-4.09749 -33.44099,-7.93068 -3.70099,-0.92524 -1.1896,5.02274 -17.97618,76.26661 15.59699,22.47024 16.12569,22.33805 28.55041,40.97513 20.48757,28.81476 10.57422,14.14302 3.43662,4.62623 0,-0.39653 2.11485,-4.49404 0.13223,-21.01628 5.81583,-4.89057 4.62623,4.0975 3.04008,0.13223 5.81583,-25.6425 0,-0.26436 0.66088,-4.2297 z"
     data-id="NV"
     data-name="Nevada"
     id="NV"
     style="fill-rule:evenodd;stroke-width:1.36177182" />
  <path
     d="m 581.82375,684.77168 0.13223,-3.43663 0.13223,-3.43662 0.13222,-3.43662 -4.22969,-0.13223 -29.2113,-1.32178 -29.34347,-1.8505 -66.61762,-5.81581 -4.09752,-0.39654 -0.52871,4.75841 -9.91334,102.30563 -0.92524,9.64898 -3.70098,38.99246 0.52872,0.13222 18.24053,1.71833 1.71831,-9.25244 3.30445,-2.64357 37.00979,3.30444 0.26436,0 -3.30445,-6.47671 16.78658,1.18961 41.90037,2.37918 26.17121,1.18961 4.49405,-123.98279 0.92525,0.13223 0.13223,-3.56881 z"
     data-id="NM"
     data-name="New Mexico"
     id="NM"
     style="fill-rule:evenodd;stroke-width:1.36177182" />
  <path
     d="m 159.38342,464.16689 21.01627,6.34454 56.5721,15.59696 5.15494,1.3218 3.70099,0.92524 33.44099,7.93068 18.63706,4.09749 3.701,0.79308 0.5287,-2.77573 12.5569,-52.07807 -3.56881,-8.45938 0.39654,-3.30444 13.7465,-17.9762 6.4767,-16.25788 -4.49405,-4.89059 -0.13223,-2.51136 0,-0.13223 -2.51138,-0.52871 -37.14197,-8.45938 -1.98266,0.92525 -7.26979,-1.18961 -14.67173,1.58613 -8.98809,-1.18959 -9.51681,-0.13223 -0.79307,-2.37921 -20.09103,-1.85048 -7.1376,-3.83315 -0.92523,-2.51139 0.79306,-9.91333 -4.75842,-5.15493 -0.39651,0.13222 -0.92526,0.66089 -6.60888,-3.43663 -3.96535,1.18961 -2.64355,-1.32178 -2.77573,11.3673 -1.8505,3.17226 -8.19502,19.95885 -2.3792,10.97075 -1.45395,0.13224 -7.66632,18.24055 -5.15493,7.79849 -1.85049,1.32177 -4.75841,9.25245 -0.92523,9.78116 -2.90792,8.72374 1.71831,7.93066 0,0.13223 z m 48.37708,-108.51801 -0.39654,-1.1896 -0.13222,0.92524 0.52871,0.26436 z"
     data-id="OR"
     data-name="Oregon"
     id="OR"
     style="fill-rule:evenodd;stroke-width:1.36177182" />
  <path
     d="m 418.31977,521.66423 -34.10186,-5.15493 -19.03362,-3.04008 -3.70098,-0.66089 -0.79306,4.22968 -7.00543,42.82562 -13.74649,85.51905 -0.66088,4.22969 3.43662,0.52872 34.10187,5.41928 23.92419,3.43664 44.54393,5.55146 3.43662,0.39654 0.26436,-3.43662 1.05742,-10.44205 2.51138,-24.05637 7.1376,-68.86465 0.39653,-3.43663 -2.64354,-0.26435 -33.70535,-4.09751 -5.15494,-0.66088 3.30445,-25.77468 0.26434,-1.71832 -3.83316,-0.52872 z"
     data-id="UT"
     data-name="Utah"
     id="UT"
     style="fill-rule:evenodd;stroke-width:1.36177182" />
  <path
     d="m 566.75549,504.21676 1.05741,-20.61973 1.32178,-27.75735 0.13223,-3.43662 -1.71831,-0.13223 -33.96971,-1.98267 -19.0336,-1.58614 -36.08455,-3.43662 -45.20482,-5.55146 -1.85048,12.95342 -0.13223,0.79307 -0.52871,4.36187 -2.37921,17.05094 -4.49405,34.36623 -1.1896,8.59155 -0.52871,4.36188 -0.26434,1.71831 -3.30445,25.77468 5.15494,0.66088 33.70535,4.09752 2.64354,0.26435 3.17226,0.39653 32.64793,3.17228 26.17122,2.11484 39.25681,2.51138 2.64355,0.13223 0.13224,-3.43663 0.66088,-13.87867 1.18961,-24.18854 0.52871,-10.30986 0.13223,-3.43662 0.13222,-3.56882 z"
     data-id="WY"
     data-name="Wyoming"
     id="WY"
     style="fill-rule:evenodd;stroke-width:1.36177182" />
  <path
     d="m 878.69515,689.26572 -14.2752,2.11485 5.81583,-9.25245 -2.51139,-5.15493 -50.35975,4.89058 -42.56126,3.43663 -6.21236,0.39653 0.79307,3.70097 5.15493,26.69992 0.13224,5.948 1.45395,35.95237 0.13223,5.948 0.39654,0.13223 1.98267,2.11485 7.93066,-0.26436 0.79307,11.63164 0.26436,3.30445 4.09752,-0.39654 12.55688,-0.92524 49.83105,-4.62622 0.26435,0 -0.13224,-2.90792 1.32179,-0.92524 -2.3792,-4.49404 5.02277,-21.14845 -1.98269,-2.37921 7.53415,-8.32721 -0.52872,-7.13759 5.55147,-9.25245 0,-0.13222 -0.26436,-0.26435 4.75841,-4.36188 -1.32179,-5.2871 3.701,-5.81583 -0.79308,-5.4193 3.96533,-7.66631 0,-0.13223 -0.13223,0 z"
     data-id="AR"
     data-name="Arkansas"
     id="AR"
     style="fill-rule:evenodd;stroke-width:1.36177182" />
  <path
     d="m 839.30616,511.75091 -7.26978,-3.83316 -3.96534,-5.4193 -1.32177,-7.79849 1.05742,-3.5688 -3.83316,-4.62623 0,0 -6.47672,0.6609 -65.03148,5.41929 -26.03904,1.45396 -6.60889,0.39652 -2.77574,0.13224 2.24704,14.67173 -1.8505,7.00544 2.90792,4.36187 0,0.92523 0.92523,0.13224 4.2297,12.42471 4.09751,6.47672 0.26436,7.40196 4.49405,6.21235 -0.79308,2.64356 4.09752,16.65441 0,0.39653 0,0 27.09645,-0.79306 28.94694,-2.51138 28.41824,-3.56882 6.47672,5.68366 0.26435,0.26435 1.1896,-0.52871 -0.92524,-5.15494 4.89057,-3.04008 1.98267,-13.48214 -1.98267,-0.92525 1.1896,-6.87324 5.948,-1.18959 6.6089,-4.75841 2.90792,-8.32721 0.13222,-4.22969 -5.2871,-5.02275 -1.58614,-3.17226 -5.02276,-3.17228 0.26436,-0.66088 0.13223,-0.66089 z"
     data-id="IA"
     data-name="Iowa"
     id="IA"
     style="fill-rule:evenodd;stroke-width:1.36177182" />
  <path
     d="m 767.66578,668.38163 -3.30445,-55.91121 -5.948,-3.43663 -0.52871,-2.64357 -4.75841,-4.22968 4.62623,-5.68365 -1.85049,-3.30445 -3.43662,0.13223 -3.17228,-2.24704 -1.32177,-1.05741 -4.49404,0.26435 -48.77362,1.8505 -22.33806,0.52871 -44.41174,0 -17.84401,-0.26436 -5.02276,-0.13224 0,2.51138 -0.13223,7.79849 -1.45396,69.92207 0,2.64357 5.68365,0.13223 30.66525,0.39654 71.77257,-1.05744 51.15281,-2.37919 5.02276,-0.39653 -0.13223,-3.43663 z"
     data-id="KS"
     data-name="Kansas"
     id="KS"
     style="fill-rule:evenodd;stroke-width:1.36177182" />
  <path
     d="m 828.59976,572.68489 -6.47672,-5.68366 -28.41824,3.56881 -28.94694,2.51138 -27.09645,0.79306 0,0 -0.13222,0.79308 3.30443,6.34454 3.0401,2.11482 3.5688,6.34454 0.5287,0.52872 1.32177,1.05741 3.17228,2.24704 3.43662,-0.13223 1.85049,3.30445 -4.62623,5.68364 4.75841,4.22969 0.52872,2.64357 5.948,3.43662 3.30444,55.91122 0.13224,3.43662 0.26436,3.43662 0.13222,3.43663 0.26436,3.5688 0.13223,3.43663 6.21236,-0.39654 42.56126,-3.43662 50.35975,-4.89058 2.51138,5.15493 -5.81582,9.25245 14.2752,-2.11485 0.13223,0 0,-1.05741 0.26436,-6.08019 2.64355,-3.30445 -0.79306,-3.70096 -0.13224,-0.13224 -0.13222,-0.13222 0.52871,-1.71831 0.79306,0.26436 0.39654,1.05741 -0.13223,0.39654 0,0.13222 0,1.05743 0.52873,0.13223 1.05741,-1.32178 0,-0.13222 0.13222,-0.39654 3.43663,-2.11484 0.52873,-0.26436 1.18959,-10.83857 -0.26436,-0.52873 -0.39653,-0.13223 -9.38463,-7.66631 1.45395,-2.77574 -2.64354,-7.53412 -4.75841,-3.70099 -8.98808,-3.96534 -5.68365,-4.62621 0.66088,-9.51682 1.71831,-8.85591 -9.5168,0.52871 -2.90791,-3.04009 -1.32179,-6.08018 -15.06826,-12.68907 -4.22969,-11.76382 1.05742,-5.81583 0,0 -0.26435,-0.26435 z"
     data-id="MO"
     data-name="Missouri"
     id="MO"
     style="fill-rule:evenodd;stroke-width:1.36177182" />
  <path
     d="m 717.83473,521.2677 -4.0975,-4.0975 -14.40738,-4.2297 -4.62623,-0.13222 -7.00543,1.98266 -8.3272,-5.28711 -26.03903,0.26435 -37.93505,-0.39654 -44.80827,-1.45395 -3.96534,-0.13222 -0.13222,3.43662 -0.52872,10.30987 -1.1896,24.18853 -0.66089,13.87868 -0.13224,3.43663 3.17228,0.13222 32.25139,1.1896 6.34453,0.26436 -0.52872,25.90685 -0.13222,1.71831 5.02275,0.13224 17.84401,0.26436 44.41176,0 22.33804,-0.52871 48.77363,-1.8505 4.49403,-0.26435 -0.52871,-0.52872 -3.56879,-6.34454 -3.0401,-2.11482 -3.30443,-6.34454 0.13222,-0.79308 0,-0.39653 -4.09751,-16.65441 0.79307,-2.64356 -4.49405,-6.21235 -0.26436,-7.40196 -4.09751,-6.47671 -4.22969,-12.42473 -0.92524,-0.13222 -2.51138,-0.26437 z"
     data-id="NE"
     data-name="Nebraska"
     id="NE"
     style="fill-rule:evenodd;stroke-width:1.36177182" />
  <path
     d="m 768.45885,682.2603 -0.26436,-3.5688 -0.13223,-3.43662 -0.26436,-3.43663 -5.02276,0.39654 -51.15281,2.37919 -71.77257,1.05743 -30.66525,-0.39653 -5.68365,-0.13223 -2.11484,0 -8.3272,-0.26436 -2.64357,-0.13223 -5.55147,-0.13222 -2.64355,-0.13224 -0.13223,3.43662 -0.13222,3.43663 -0.13224,3.43662 -0.13222,3.56881 0.79307,0 31.98702,0.79307 33.83753,0.39653 0.39653,45.20481 2.37921,7.93068 5.28711,5.02275 5.68365,0.26436 1.1896,-2.37921 7.79849,7.13762 10.1777,1.05741 1.85048,2.11484 3.70098,-1.71831 9.25245,4.36188 0,2.51136 3.43662,-0.13222 3.56879,-3.04009 6.6089,4.22969 6.21237,2.24702 4.22968,-5.81582 13.48214,6.34453 5.02275,-4.09751 4.09752,-1.58613 3.30445,0.79306 12.42471,-3.56879 6.6089,2.77573 5.948,3.83316 5.15493,0.92523 0.13223,0 -0.13223,-5.948 -1.45396,-35.95237 -0.13222,-5.948 -5.15494,-26.69992 -0.79307,-3.70097 -0.13223,-3.43663 z"
     data-id="OK"
     data-name="Oklahoma"
     id="OK"
     style="fill-rule:evenodd;stroke-width:1.36177182" />
  <path
     d="m 710.43278,427.15709 -22.33806,0.66089 -53.79637,0.39654 -58.29043,-1.58614 -5.15493,-0.26436 -0.13223,3.04011 -0.5287,12.02817 -0.39654,9.12028 -0.13222,1.85048 -0.39654,0 -0.13224,3.43662 -1.32177,27.75735 -1.05741,20.61973 -0.13223,3.56882 3.96534,0.13222 44.80828,1.45395 37.93504,0.39654 26.03902,-0.26436 8.32721,5.28712 7.00543,-1.98266 4.62622,0.13222 14.40739,4.2297 4.09751,4.0975 2.51137,0.26436 0,-0.92524 -2.90791,-4.36186 1.8505,-7.00544 -2.24704,-14.67174 2.77575,-0.13223 -0.26436,-6.08018 -6.60889,-46.52659 -3.43662,-5.81583 5.2871,-8.72373 0.13224,-0.39654 -4.49405,0.26435 z"
     data-id="SD"
     data-name="South Dakota"
     id="SD"
     style="fill-rule:evenodd;stroke-width:1.36177182" />
  <path
     d="m 876.71248,881.58447 -1.71831,0.39653 -0.79306,0.79307 2.51137,-1.1896 z m 5.55147,0 -0.92524,-0.39654 -0.26435,0.39654 1.18959,0 z m 3.17227,-1.05744 -0.92523,0 -0.52873,0.6609 1.45396,-0.6609 z m -1.58613,-0.92523 -0.26436,-0.39654 -0.13224,0.39654 0.39654,0 z m 10.57422,-7.00543 -0.39653,0.26435 0.66089,0 -0.26436,-0.26435 z m 18.5049,-7.7985 0.79308,-1.05741 -0.92526,1.1896 0.13222,-0.13223 z m 2.64356,-3.43662 -0.26436,0.13223 0,0.13223 0.26436,-0.26436 z m -67.9394,11.63166 1.98266,-2.51138 -5.41929,-1.45396 -2.3792,1.98267 5.81583,1.98267 z m 54.85379,-11.49947 -0.5287,-0.52872 -0.13224,0.26436 0.6609,0.26436 z m 1.45395,-2.37921 -1.32178,-0.39653 0.39654,1.32178 0.92524,-0.92525 z m 10.83859,-2.24702 0,-0.39653 0,0.13223 0,0.26436 z m 2.64356,-1.71831 -0.13224,-0.13222 0.13224,0.26436 0,-0.13223 z m -1.05743,-0.26436 -0.26436,-0.13222 -0.13222,0.39653 0.39653,-0.26436 z m -9.25244,-0.39653 1.18959,-0.39653 0,-0.39654 -1.18959,0.79307 z m 0.66089,-0.66089 0.66088,-0.66089 -0.13222,-0.13222 -0.52872,0.79305 z m -4.62623,-4.89058 -0.26436,0.26436 0.13223,0 0.13223,-0.26436 z m -48.77362,-74.01958 -0.26435,0 -49.83105,4.62622 -12.55688,0.92524 -4.09752,0.39654 0.13223,3.17227 2.64356,25.51032 4.36187,6.08017 0.13223,3.56882 4.22969,7.40195 3.43662,10.83858 -1.1896,6.08018 -0.92525,15.06828 -1.98266,4.89057 0.26435,0 0.39654,3.43662 -2.24702,3.17228 16.39005,-1.85051 12.82125,3.56882 9.12026,1.1896 4.62623,-3.30445 -2.51139,-3.30445 8.45939,-2.64355 -0.26435,2.90791 4.36187,-1.05742 3.56879,5.55146 3.04009,-1.05741 7.93068,5.41929 -4.89058,1.71831 11.23511,3.30443 4.22969,0 2.51138,-3.04008 5.41929,-2.90792 3.83316,5.55149 2.64355,-5.02277 -0.79307,-7.93067 7.13761,2.77574 0.79306,2.37919 8.45939,1.05743 4.22969,3.43662 -0.52871,2.77574 5.948,-5.55147 -2.24703,-2.90792 -9.91333,-2.51138 -3.70098,-2.11485 -0.13223,-3.96533 4.09752,0.52871 3.17226,-6.47671 -4.09752,-5.68364 -2.24702,5.41928 -5.15493,-0.92524 3.56879,-5.81582 -2.37919,-0.66089 -5.81583,4.09752 -8.32721,0.52871 -2.37918,-1.8505 3.83315,-6.74105 4.49403,-0.13224 7.66634,2.51138 5.55146,0.52872 0,0 -3.04008,-3.83316 -5.81584,-11.36728 1.58615,-6.34454 -45.60136,5.02274 1.71831,-1.71831 -1.85049,-4.7584 2.77573,-4.09752 1.58614,-10.30986 10.04552,-17.18311 -4.89059,-5.948 0.26436,-4.36188 -3.0401,-7.13761 0,-0.92523 z"
     data-id="LA"
     data-name="Louisiana"
     id="LA"
     style="fill-rule:evenodd;stroke-width:1.36177182" />
  <path
     d="m 720.08176,973.71241 -6.34453,-23.92419 0,4.49406 6.34453,19.43013 z m -1.45395,-42.03255 -4.49406,8.45938 -0.52871,2.77574 5.02277,-11.23512 z m 3.56879,-6.21235 4.22969,-5.55148 -3.04009,1.85049 -1.1896,3.70099 z m 14.9361,-13.48215 -9.91334,5.15494 2.77574,-0.52871 7.1376,-4.62623 z m 1.32178,-1.85049 2.77573,-2.24702 -1.05742,0.26436 -1.71831,1.98266 z m -156.76291,-221.79439 -0.92523,-0.13222 -4.49406,123.98278 -26.17121,-1.18959 -41.90038,-2.3792 -16.78657,-1.1896 3.30445,6.47671 0.13223,0.13223 14.27521,14.27519 8.19502,9.64899 10.83857,8.06284 7.66633,14.01085 2.90789,14.67175 6.21237,4.0975 4.89059,5.41929 7.00541,2.51139 10.1777,6.4767 4.62622,1.71833 6.34454,-6.34454 1.98267,-6.74107 3.30445,-6.47673 10.30987,-4.09749 3.96533,1.98265 11.49947,0.92526 10.44205,6.47671 7.1376,1.32177 -1.98267,3.70098 4.09752,2.64356 3.83315,4.62623 0.79308,4.89057 2.51137,3.30444 5.81581,14.01085 5.81583,4.89059 4.49405,7.40195 5.68365,5.81583 2.51138,0.79307 2.11484,15.06827 6.21237,3.43664 0.26434,4.75839 1.58614,-0.39654 10.83858,13.21778 5.4193,1.18961 6.87324,4.09752 10.57423,0 7.66632,4.22967 9.12026,-1.98265 -4.09751,-3.83316 -3.70098,-11.10294 -1.45395,-9.64898 -2.11485,-3.17227 0.92525,-6.47672 -2.77574,-0.26436 -3.70098,-6.08017 4.22968,4.49405 4.89059,-1.71831 2.64356,-7.00544 -5.28711,-7.1376 7.93065,0.92524 3.70099,-5.68364 -0.52871,-1.98267 3.30445,-4.36186 -0.79306,3.83316 3.70098,-2.90792 -1.45397,-5.15493 4.7584,2.51137 6.08019,-3.43662 -5.948,-6.21236 3.70097,1.45397 6.87326,0.39653 8.98808,-1.98268 10.04552,-6.74106 6.08018,-5.02276 0.92524,-3.70099 3.70098,-3.83315 -1.98267,-6.34454 0.39653,-3.96533 6.6089,-2.90791 -0.52872,7.00544 3.96534,0 -4.36187,3.70096 17.57965,-9.25244 2.90792,-0.13222 1.85048,-8.45939 0.52872,0 1.98266,-4.89057 0.92524,-15.06827 1.18961,-6.08018 -3.43663,-10.83859 -4.22969,-7.40195 -0.13223,-3.56881 -4.36187,-6.08017 -2.64355,-25.51032 -0.13224,-3.17228 -0.26436,-3.30445 -0.79306,-11.63164 -7.93066,0.26436 -1.98267,-2.11484 -0.39654,-0.13223 -0.13222,0 -5.15494,-0.92525 -5.948,-3.83315 -6.6089,-2.77573 -12.42471,3.5688 -3.30444,-0.79307 -4.09753,1.58614 -5.02275,4.0975 -13.48214,-6.34452 -4.22969,5.81582 -6.21236,-2.24702 -6.60889,-4.2297 -3.5688,3.04009 -3.43662,0.13223 0,-2.51137 -9.25245,-4.36188 -3.70098,1.71831 -1.85048,-2.11484 -10.1777,-1.05742 -7.7985,-7.1376 -1.18958,2.37921 -5.68367,-0.26436 -5.2871,-5.02277 -2.37921,-7.93067 -0.39653,-45.20481 -33.83752,-0.39652 -31.98703,-0.79308 -0.79308,0 z"
     data-id="TX"
     data-name="Texas"
     id="TX"
     style="fill-rule:evenodd;stroke-width:1.36177182" />
  <path
     id="NH"
     d="m 1196.5826,345.99948 -1.7181,2.11446 -1.9815,-0.39629 -1.0585,8.72385 0,0.13305 -1.7183,0.6596 -7.2689,2.64376 -7.1387,2.77673 -16.3891,5.94712 -0.9256,0.26597 5.9471,13.87836 1.9841,13.08577 7.0057,10.96864 6.6068,21.67931 0.2659,-0.13304 1.056,-0.39629 3.04,-0.92558 2.6438,-0.92558 7.5349,-2.24746 0.9255,-0.39629 5.4179,-1.71817 16.6552,-5.55082 7.5349,-8.19457 0,-2.11449 0.3963,-3.439 -0.9256,0.39896 -0.133,-0.79525 -8.3276,-10.17606 -0.2633,-0.92556 -19.1659,-44.94113 z"
     style="fill-rule:evenodd;stroke-width:1.36177182" />
  <path
     d="m 916.63018,712.13249 0.52872,1.05743 1.85049,1.18959 0.79307,54.19291 0.26436,29.74001 6.74106,40.71078 0.52872,-0.13223 5.948,1.18961 1.58613,-11.76383 2.64356,6.60889 4.49404,4.09752 8.59153,-5.02276 -0.92526,-0.79307 0.26443,0.13223 -5.94803,-13.61431 57.1008,-9.25246 3.8332,-0.66087 0,-0.13224 -3.5688,-6.74106 -0.2644,-9.64898 -2.90791,-5.28711 1.45392,-10.30987 2.37929,-2.64356 -9.78115,-17.44748 -17.71186,-53.92855 -0.13226,-0.26436 -3.96537,0.66089 -21.14846,3.43662 -10.57416,1.32179 -22.20588,3.04008 0.13222,0.26436 z"
     data-id="AL"
     data-name="Alabama"
     id="AL"
     style="fill-rule:evenodd;stroke-width:1.36177182" />
  <path
     d="m 1102.34,971.46538 -0.2643,0 0.1322,0.13223 0.1322,-0.13223 z m -1.1896,-0.13222 0,0.13222 0.1323,0 -0.1323,-0.13222 z m 0.2644,-0.13223 0,-0.13223 0,0.13223 0,0 z m -17.9762,1.98266 0,0 0,0.13222 0,-0.13222 z m -0.2644,0.13222 0,-0.13222 0,0.13222 0,0 z m 0.1323,-0.13222 0,0 0,0 0,0 z m -1.3218,0.13222 -0.1322,0 0,0.13224 0.1322,-0.13224 z m 37.5385,-8.3272 -0.1323,0 0.1323,0.26434 0,-0.26434 z m 3.5688,-0.92525 0,-0.26436 -0.2644,0.39654 0.2644,-0.13223 z m -1.3218,-0.26436 -0.5286,-0.52871 -0.1323,0.13224 0.6609,0.39653 z m -0.3965,1.05744 -1.5862,-1.98267 0.9253,1.71831 0.6609,0.26436 z m 12.5569,-7.79851 0,0.52871 0.2644,-0.26435 -0.2644,-0.26436 z m 1.8505,-1.32177 0.3965,-0.6609 -0.5287,0.52872 0.1323,0.13223 z m 0.3965,-1.32178 -0.1322,0 0,0.13223 0.1322,-0.13223 z m -2.3792,-0.39653 -0.1322,-0.13223 0.1322,0.13223 0,0 z m 1.1897,-1.98268 -0.1323,-0.13222 0,0.26436 0.1323,-0.13223 z m -3.5689,-0.13222 -0.1322,-0.13223 0.1322,0.13223 0,0 z m 4.494,-3.04009 -0.2643,0.13223 0.3966,0.13223 -0.1323,-0.26435 z m 0.5288,0 -0.2644,-0.26436 0.1322,0.39653 0.1323,-0.13222 z m -0.9253,-0.26436 -0.1322,-0.13223 0,0.26435 0.1322,-0.13223 z m 4.8906,-0.92524 0,-0.13224 -0.2644,0.52871 0.2644,-0.39653 z m -5.5515,0.5287 -0.2643,0 0.2643,0.13223 0,-0.13223 z m 2.7758,-1.58613 -0.3965,0 -0.1323,0.13222 0.5287,-0.13222 z m 1.0574,-0.66088 0,0 -0.1323,0 0.1323,0 z m -11.1029,0.5287 0,-0.26434 -0.1323,0.26434 0.1323,0 z m 1.1896,-0.39654 -0.3966,0 0.3966,0.79308 0,-0.79308 z m -3.1723,0.13224 0,-0.79307 -0.6609,0.13223 0.6609,0.66089 z m -1.8505,-1.3218 0.6609,0.6609 0,-0.26436 -0.6609,-0.39654 z m 19.4301,0.79308 -2.3792,1.05742 0.7931,0.13223 1.5861,-1.1896 z m -18.5048,-1.18959 -0.7931,0 0,0.26434 0.7931,-0.26434 z m 20.8841,-6.6089 0.1322,-0.6609 0.1322,-1.71831 -0.2643,2.37921 z m 0.1322,-7.40197 -0.5287,-1.32178 -0.2644,0.52873 0.7931,0.79305 z m -30.5331,3.30445 -0.2644,0.39654 0.6609,0.13222 -0.3965,-0.52871 z m -2.5114,-1.18961 -1.1896,0.39654 0.9253,0.13224 0.2643,-0.52873 z m -2.6435,0.26437 0,-0.39653 -0.1323,0.13222 0.1323,0.26436 z m -2.7758,-0.13223 -0.7931,0.52871 1.0575,0.5287 -0.2644,-1.05741 z m 3.701,0.13223 -0.1322,-0.39653 -0.6609,-0.13224 0.7931,0.52872 z m -17.3153,-12.95343 -0.7931,0.39653 1.5862,0.52873 -0.7931,-0.92526 z m -3.1723,-4.22969 -1.0574,-1.58613 0.3966,1.18961 0.6608,0.39652 z m 4.0976,2.64356 -1.8506,-4.22969 -1.3217,-0.39653 3.1723,4.62622 z m -5.2872,-5.28712 -0.3965,-1.05741 -0.2644,-0.6609 0.6609,1.71831 z m -10.9707,-14.67173 -2.3793,-1.71831 0.9253,0.92524 1.454,0.79307 z m 59.48,-8.85591 -9.6489,-16.1257 -0.5288,0 10.1777,16.1257 z m -66.7498,-25.77468 -0.3966,-0.13223 0.3966,0.26435 0,-0.13223 z m -0.7931,-0.92525 -0.1322,0.13223 0.1322,0.13223 0,-0.26435 z m -0.9252,-1.32177 0,-0.13222 -0.1322,0.13222 0.1322,0 z m 0.5287,-0.52872 0.3965,0.26436 0,-0.26436 -0.3965,0 z m 0.793,-0.52871 -0.5286,0.13223 0.1322,0 0.3965,-0.13223 z m -0.9251,-0.13223 -0.3966,-0.39653 0.1322,0.13222 0.2644,0.26436 z m -0.9253,-1.45397 -0.2643,0 0.3965,0.13224 -0.1323,-0.13224 z m 0.9253,-1.58612 -0.5288,0 -0.1323,0.13223 0.661,-0.13223 z m 0.5286,0.26435 -0.6609,-0.66088 0.2644,0.13223 0.3965,0.52871 z m -5.0228,-5.68364 -0.2643,-0.13223 0,0.13223 0.2643,0 z m -5.6836,0 -0.3965,-0.5287 0.1322,0.66087 0.2644,-0.13222 z m -48.1127,-4.36188 3.9653,-3.04008 -4.3619,2.90791 0.3966,0.13223 z m 7.9307,-6.34452 0.3965,-0.39653 -1.5861,0.66087 1.1896,-0.26434 z m -50.22759,-8.85592 -14.40743,4.62623 7.93072,-2.24703 6.47671,-2.3792 z m 35.82019,-22.47022 -3.8332,0.66087 -57.10079,9.25245 5.94802,13.61432 0.39649,0.13223 -1.45392,5.41929 4.2297,-1.85048 4.62619,-4.09752 7.93072,-0.26435 9.12021,-3.30445 6.21237,0.92525 -1.45392,2.24701 11.36723,3.83316 9.7812,4.75841 2.247,5.28711 7.2698,-1.58614 17.1831,-14.01085 6.3446,0.26436 25.9068,19.56232 5.2871,-1.05742 5.5515,7.40196 1.0574,11.76383 -1.7183,7.40195 0.793,3.70098 4.6263,9.25245 -2.1148,-7.26978 5.9479,-0.13223 0.5288,5.28713 -3.1723,8.19501 10.9707,15.06829 4.0975,0.13222 -3.4366,-4.62622 4.2297,0.5287 2.5114,-1.58612 -1.0574,8.45938 5.6837,4.49404 3.8331,10.30988 5.1549,3.17226 6.6089,1.71831 9.1203,11.63166 4.7584,2.51136 -6.3446,0.39654 2.908,3.30445 10.442,-3.43663 5.155,-2.90791 4.7583,-16.6544 -2.3792,-25.90685 -0.5286,-2.64357 -12.6891,-21.14844 -10.8387,-15.33264 -6.0801,-12.55688 5.155,4.36187 1.0573,-0.79308 2.2471,10.97076 5.8158,8.32721 -5.6836,-11.10293 0.2643,-5.28712 -17.0509,-20.75192 -4.0975,-6.47672 -5.4193,-10.97075 -3.701,-9.25245 -2.9079,-3.30445 -0.6609,-4.2297 -0.1322,-0.13222 -9.1203,-0.52871 -3.5688,2.77573 -1.9826,10.17769 -1.8506,-4.7584 -62.3879,7.79849 -4.494,-7.00542 0.1322,-0.13223 z"
     data-id="FL"
     data-name="Florida"
     id="FL"
     style="fill-rule:evenodd;stroke-width:1.36177182" />
  <path
     d="m 1090.3119,781.92238 -0.1323,-3.96534 -0.9253,3.43662 1.0575,0.52872 z m 1.4539,-6.08019 -0.5287,-3.04008 -0.3966,1.8505 0.9253,1.18958 z m -61.8592,-83.27202 -1.7184,0.39654 -5.0227,1.05741 -18.5049,3.83316 -1.7183,0.39654 -1.8505,0.26436 -10.30987,1.98267 -2.77567,0.52871 -11.23516,2.11484 -2.37918,0.26435 0.13217,0.26436 17.71186,53.92855 9.78115,17.44748 -2.37919,2.64356 -1.45392,10.30986 2.90781,5.28712 0.2645,9.64898 3.5687,6.74106 0,0.13224 -0.1322,0.13222 4.4941,7.00542 62.3878,-7.79849 1.8506,4.7584 1.9826,-10.17769 3.5688,-2.77573 9.1203,0.52871 0,0 -0.7931,-14.27521 1.7184,-3.04009 -0.9253,-5.68364 1.8505,-5.41929 2.7757,-3.04009 -1.9827,-1.8505 4.6263,-5.68364 -0.1323,0 -7.9306,-7.40196 -10.8385,-15.4648 -5.9481,-2.77574 -25.5103,-21.41281 -6.2124,-7.93067 -12.0281,-5.02276 -0.6609,-2.64355 3.701,-7.26978 0,0 z"
     data-id="GA"
     data-name="Georgia"
     id="GA"
     style="fill-rule:evenodd;stroke-width:1.36177182" />
  <path
     d="m 914.51534,845.49992 -0.66088,0.13223 0,0.13223 0.66088,-0.26435 z m 12.29254,-1.58614 -1.85049,0 1.71831,0.13223 0.13223,-0.13223 z m -15.33263,1.32178 -0.52871,0.52871 0.13223,0.13222 0.39653,-0.66089 z m 12.42473,-1.05742 -5.02277,0 4.75841,0.13223 0.26436,-0.13223 z m -55.11817,-125.96547 0,0.13222 -5.55147,9.25245 0.52872,7.13759 -7.53413,8.32721 1.98267,2.37921 -5.02277,21.14845 2.3792,4.49404 -1.32178,0.92524 0.13223,2.90792 0,0.92523 3.0401,7.13761 -0.26436,4.36188 4.89059,5.948 -10.04552,17.18311 -1.58614,10.30987 -2.77573,4.09752 1.85049,4.75839 -1.71831,1.71831 45.60136,-5.02274 -1.58615,6.34454 5.81584,11.36728 3.04008,3.83315 0,-0.13222 4.89057,-5.55148 10.30988,-2.24701 9.5168,1.05742 1.45395,-1.85049 0,-0.13222 -6.74106,-40.71079 -0.26436,-29.74001 -0.79307,-54.19291 -1.85048,-1.18959 -0.52873,-1.05743 -0.26434,0 -6.6089,0.92524 -11.63164,1.58614 -26.43558,3.30445 -2.9079,0.26435 z"
     data-id="MS"
     data-name="Mississippi"
     id="MS"
     style="fill-rule:evenodd;stroke-width:1.36177182" />
  <path
     d="m 1029.9066,692.57017 0,0 -3.7009,7.26978 0.6608,2.64356 12.0282,5.02275 6.2123,7.93068 25.5103,21.4128 5.9481,2.77574 10.8385,15.4648 7.9307,7.40196 0,0 1.3218,-6.08017 -2.1148,-5.81583 5.6836,4.22969 3.1722,-2.51138 -5.4192,-4.49405 6.6088,-0.39653 10.3099,-8.72374 -1.1896,-2.24703 6.3446,-4.89057 -0.661,-2.3792 4.6263,-2.90791 0.2644,-6.74108 7.2698,-13.48213 4.8905,-6.21236 0.5287,-0.26436 -29.4756,-18.63707 -10.9708,2.11484 -14.9361,-0.5287 -7.4019,-3.83316 -43.8831,13.87867 -0.3965,0 z"
     data-id="SC"
     data-name="South Carolina"
     id="SC"
     style="fill-rule:evenodd;stroke-width:1.36177182" />
  <path
     d="m 839.17399,512.41179 -0.26436,0.66089 5.02276,3.17228 1.58613,3.17226 5.28711,5.02275 -0.13223,4.2297 -2.90791,8.3272 -6.6089,4.7584 -5.948,1.18961 -1.18961,6.87324 1.98268,0.92524 -1.98268,13.48214 -4.89057,3.04009 0.92525,5.15494 -1.18961,0.5287 0,0 -1.05741,5.81583 4.22969,11.76383 15.06826,12.68907 1.32178,6.08018 2.90792,3.04008 9.5168,-0.5287 -1.71831,8.85591 -0.66089,9.51682 5.68365,4.6262 8.98809,3.96535 4.7584,3.70098 2.64356,7.53412 -1.45395,2.77575 9.38462,7.66631 0.39653,0.13222 -0.79307,-0.79306 2.64356,-6.21235 10.17768,2.77573 2.51139,-2.90792 -1.98265,-5.81581 8.32718,-4.89058 -2.24702,-3.17227 1.98267,-4.49406 0,-0.39652 -0.52872,-0.13224 0.13224,-11.76383 2.90791,-2.11484 5.02274,-11.76383 -1.05741,-5.15493 -3.30445,-6.21235 1.85049,-7.00543 -9.25244,-65.16367 -1.32179,-1.45395 -3.43662,-7.79851 -2.77574,-2.9079 -1.18959,-7.66632 0,-0.26435 -17.84401,2.51139 -10.7064,1.32177 -28.81477,3.30444 0,0 z"
     data-id="IL"
     data-name="Illinois"
     id="IL"
     style="fill-rule:evenodd;stroke-width:1.36177182" />
  <path
     d="m 960.24883,515.18753 -20.22316,3.5688 -4.62622,0.92525 -16.39006,2.64355 -3.43662,2.77574 -5.15494,2.3792 -1.98267,-0.13224 -2.37921,-1.1896 -0.79305,-0.79307 9.25244,65.16367 -1.85049,7.00544 3.30446,6.21234 1.05741,5.15494 -5.02274,11.76383 -2.90792,2.11485 -0.13223,11.76382 0.52872,0.13223 0.52871,-0.13223 1.98268,-3.70098 4.89056,0 5.94801,-1.98268 7.40196,2.77575 0.79306,-3.04009 4.22968,-3.17228 6.34454,0.92526 3.43664,-6.74107 9.38466,0.79306 -0.13226,-3.83316 8.32722,-10.97074 -1.32176,-5.02277 5.81578,-0.13222 7.13763,-5.68364 -1.71835,-6.47672 0.26433,-0.26436 -0.26433,-2.24702 -7.93062,-46.79095 -3.56887,-19.95886 -0.39649,-2.11484 -0.3965,-1.71831 z"
     data-id="IN"
     data-name="Indiana"
     id="IN"
     style="fill-rule:evenodd;stroke-width:1.36177182" />
  <path
     d="m 882.39614,674.46181 -0.39654,-1.05742 -0.79307,-0.26436 -0.5287,1.71831 0.13223,0.13223 1.45394,-0.13223 0.13223,-0.39653 z m 90.4096,-86.4443 -0.26433,0.26436 1.71835,6.4767 -7.13763,5.68365 -5.81588,0.13223 1.32185,5.02276 -8.32721,10.97074 0.13216,3.83316 -9.38458,-0.79305 -3.43664,6.74107 -6.34453,-0.92526 -4.22969,3.17228 -0.79305,3.04008 -7.40197,-2.77574 -5.94801,1.98267 -4.89057,0 -1.98267,3.70098 -0.52871,0.13224 0,0.39653 -1.98267,4.49405 2.24702,3.17227 -8.3272,4.89057 1.98267,5.81582 -2.51139,2.90792 -10.17769,-2.77573 -2.64355,6.21235 0.79306,0.79307 0.26436,0.52872 -1.18959,10.83857 -0.52873,0.26437 -3.43662,2.11484 -0.13223,0.39654 3.83316,-0.52872 26.69992,-3.5688 -1.32177,-5.28711 4.49404,-0.13223 53.7964,-7.1376 37.80278,-6.34454 0.5288,-0.39653 0.9252,-1.05742 9.9133,-5.2871 7.6663,-10.04552 1.0575,-3.43663 5.0227,-3.96534 6.3446,-8.06285 0.9252,-1.32177 -0.3966,-0.13223 -3.3044,0 -4.2297,-2.37921 -7.5341,-9.12026 -2.6435,-9.25245 0,-0.26436 -0.2644,-0.26434 -5.5515,-3.17228 -2.5113,-4.2297 -5.0228,4.89059 -3.1723,0.79308 -3.9654,-1.58615 -3.43655,2.64356 -7.13753,-3.17226 -1.85052,0.79305 -6.74113,-5.81582 -3.4366,-1.71831 -6.47671,0.79308 -1.05742,1.05741 z"
     data-id="KY"
     data-name="Kentucky"
     id="KY"
     style="fill-rule:evenodd;stroke-width:1.36177182" />
  <path
     d="m 1150.7171,694.94936 -1.4539,1.45397 0.2644,0.26436 1.1895,-1.71833 z m 1.0575,-7.66631 -0.661,1.05743 0.2645,1.05742 0.3965,-2.11485 z m 7.9306,-12.29253 -1.9827,1.32177 -1.0574,1.58614 3.0401,-2.90791 z m 17.0509,-8.3272 -0.793,-0.52872 -1.7183,-0.13223 2.5113,0.6609 z m -3.5687,-0.79307 -1.1896,0 -1.9827,1.05742 3.1723,-1.05742 z m 4.0975,1.45396 3.8331,-9.5168 -2.6435,3.96532 -1.1896,5.55148 z m 5.6836,-12.55689 1.7183,-2.51139 -0.9252,0 -0.7931,2.51139 z m 11.103,-10.30988 -2.908,-14.67173 2.5114,7.66631 0.3966,7.00542 z m -16.1258,-33.44099 -0.2643,0.13222 -0.3965,0.13224 0,0 0.1322,0 7.2697,12.29254 5.6838,5.68363 -12.4248,-18.24054 0,0 z m -2.3792,0.79307 -1.0574,0.26436 0,0 0.2644,0.13222 2.247,0 -0.2644,-0.79307 0,0 -0.3965,0.13224 -0.3965,0 0,0 0,0.26434 -0.2644,0.13223 -0.1322,-0.13223 0,0 z m -122.2644,30.13653 -0.661,1.98268 0.1323,5.68364 -1.4539,-0.13223 -3.4367,7.00544 -3.8331,0.39653 -7.1377,7.00542 -3.1722,-1.18961 -4.0975,6.08019 -10.8386,9.78116 -5.2871,1.32178 -5.5515,5.15493 -0.2644,3.43662 -4.8905,2.64356 0.1322,5.81582 0,1.32178 1.7183,-0.39654 18.5049,-3.83315 5.0227,-1.05742 1.7184,-0.39653 0.3965,0 43.8831,-13.87868 7.4019,3.83316 14.9361,0.52871 10.9708,-2.11485 29.4756,18.63708 0.5287,-0.39654 13.6143,-5.55146 0.1323,-7.26979 4.8905,-8.85591 5.2871,-5.02276 10.9709,-7.26978 1.4539,-2.64355 2.9079,1.32178 1.3218,-8.72374 -1.5861,3.0401 -5.5516,1.85048 -5.2871,0.13223 6.4768,-4.7584 -1.9827,-2.11484 2.2471,-4.75841 -12.4248,-1.98267 -0.5286,-0.66087 10.5742,-1.98268 3.4366,1.71832 4.3618,-0.39654 3.5688,-2.64356 2.6436,-5.15493 2.3792,-0.66089 -0.3965,-7.26978 -3.0401,-2.90792 -3.0401,2.77574 0.6608,7.00542 -2.247,-8.59155 -1.7182,-0.39654 -13.0857,5.41929 5.8159,-5.68365 0.2643,-2.24702 6.0802,-1.45395 1.7182,-4.49405 4.0976,2.37921 -4.3619,-6.47673 -3.0401,-2.64355 0,0 -52.871,15.06828 -33.7054,8.59156 -34.1019,6.34453 -0.1322,-0.26437 z"
     data-id="NC"
     data-name="North Carolina"
     id="NC"
     style="fill-rule:evenodd;stroke-width:1.36177182" />
  <path
     d="m 1052.6411,523.91127 -3.3044,-14.27521 -0.6608,-2.90792 -3.7011,-16.25786 -4.7583,3.04008 -10.1778,7.79849 -6.6088,8.06285 -5.155,0.79306 -9.5168,5.4193 -5.2871,-3.17227 -15.9935,-1.85049 0,0 -8.45939,2.11484 -8.32722,1.98267 -8.72371,1.85049 -1.32176,0.39654 0.3965,2.11484 3.56887,19.95885 7.93062,46.79096 0.26433,2.24702 1.05742,-1.05741 6.47671,-0.79308 3.4367,1.71831 6.74103,5.81582 1.85052,-0.79305 7.13753,3.17226 3.43665,-2.64356 3.9653,1.58615 3.1723,-0.79308 5.0228,-4.89059 2.5113,4.2297 5.5515,3.17228 0.2644,0.26434 0,0 5.6836,-2.77573 1.9827,-4.36187 -1.5861,-4.49405 4.494,-6.87324 3.3044,-0.52872 -0.3965,-5.81582 5.4193,-7.40196 0.9253,1.05743 4.8905,-3.70098 4.2297,-6.34454 0.6609,-28.94694 0.2644,-0.13222 -0.661,-2.77574 z"
     data-id="OH"
     data-name="Ohio"
     id="OH"
     style="fill-rule:evenodd;stroke-width:1.36177182" />
  <path
     d="m 1009.1547,651.72721 -37.80288,6.34454 -53.79638,7.13761 -4.49405,0.13223 1.32177,5.2871 -26.69991,3.5688 -3.83316,0.52872 0,0.13222 -1.05742,1.32179 -0.52872,-0.13224 0,-1.05742 0,-0.13224 -1.45395,0.13224 0.13223,0.13222 0.79306,3.70097 -2.64354,3.30445 -0.26437,6.08019 0,1.05742 0,0.13222 -3.96533,7.66632 0.79308,5.41929 -3.701,5.81583 1.32179,5.28711 -4.75841,4.36188 0.26436,0.26434 2.9079,-0.26434 26.43558,-3.30446 11.63164,-1.58613 6.6089,-0.92524 0.26434,0 -0.13222,-0.26436 22.20588,-3.0401 10.57421,-1.32177 21.14846,-3.43662 3.96536,-0.6609 2.37918,-0.26435 11.23516,-2.11484 2.77567,-0.5287 10.30987,-1.98267 1.8505,-0.26437 0,-1.32178 -0.1322,-5.81583 4.8906,-2.64354 0.2643,-3.43663 5.5515,-5.15493 5.2871,-1.32178 10.8386,-9.78116 4.0975,-6.08018 3.1722,1.1896 7.1377,-7.00542 3.8331,-0.39654 3.4367,-7.00543 1.4539,0.13223 -0.1323,-5.68364 0.661,-1.98267 -2.1149,0.39654 -7.5341,2.11483 -8.9881,1.85051 -22.6024,4.62622 -2.3792,0.39652 -0.5287,0.39654 z"
     data-id="TN"
     data-name="Tennessee"
     id="TN"
     style="fill-rule:evenodd;stroke-width:1.36177182" />
  <path
     d="m 1175.9631,611.54517 0.3965,0 0.3965,-0.13223 0,0 -0.2643,-0.66088 -0.5287,0.79307 0,0 z m -4.4941,-14.80391 0,0.66087 0.6609,-0.39653 -0.6609,-0.26434 z m 2.3793,-4.62623 -0.1323,-1.05744 0,0 0.1323,1.05744 z m -0.7931,1.58612 -0.2643,1.71832 -0.3966,0.66089 0.6609,-2.37921 z m 1.1896,-3.43662 0.1322,-0.79307 -0.2644,0.79307 0.1323,0 z m 0.7931,-3.56879 0.3965,-0.92525 -0.6609,2.3792 0.2644,-1.45395 z m 0.1321,-1.98268 0.5288,-2.90791 -0.6609,0.66089 0.1322,2.24702 z m 2.3792,-13.08561 0.2644,-1.18959 -0.1322,0.26436 -0.1323,0.92523 z m -0.5287,-3.04008 -1.7183,0.6609 -2.6435,1.18959 -0.9253,1.18959 0.3965,0.13223 -3.1722,19.69449 1.1896,3.17228 1.8505,-8.19503 3.4366,-10.70641 1.5861,-7.00543 0,-0.13223 z m 2.6436,-1.05742 -0.3965,0.13223 -0.1323,0.5287 -0.6608,4.09752 0.5286,-1.45396 0.661,-3.30443 z m -138.1259,50.62411 -0.9251,1.32177 -6.3446,8.06285 -5.0227,3.96534 -1.0575,3.43662 -7.6663,10.04552 -9.9134,5.2871 -0.9252,1.05743 2.3793,-0.39653 22.6023,-4.62623 8.9881,-1.85049 7.5341,-2.11485 2.1149,-0.39654 0.1322,0.26437 34.1019,-6.34453 33.7054,-8.59156 52.8711,-15.06828 0,0 -0.3966,-0.66088 -0.1322,-0.39654 0.9253,0.92525 0,0 0,0 1.0574,-0.26436 -0.1322,-0.13224 -0.9253,-4.49404 0.6609,0.13223 2.1149,3.96533 0,0 0,0 0.3965,-0.13224 0.2643,-0.13222 -0.5287,-1.05742 -5.4192,-8.3272 -6.7412,1.18959 -3.04,2.51139 -2.9079,-2.64355 -9.9133,-3.30446 -6.8733,-0.26436 13.35,-1.18959 7.402,5.02275 2.1148,-3.30444 -5.948,-7.53413 4.2296,0.26435 -2.247,-6.08018 -5.2871,0.26436 -12.5569,-10.17769 -1.5861,0 17.7118,8.72372 -1.1896,-6.08017 1.1896,-1.98267 -8.9881,-3.43662 -7.7984,-0.52871 -3.8332,-3.43663 -3.1723,1.98266 -1.1896,-9.12026 1.3218,0.26435 -0.2643,-7.40196 -0.2645,-0.26436 -0.2643,0.13224 -0.2643,-0.13224 -0.661,-0.5287 -0.3965,-0.39654 -4.2297,-1.85048 -4.3618,-3.17228 -6.0802,-1.58611 -0.3965,-0.13224 0,0.13224 -0.7931,5.55146 -12.2925,-5.28712 0.2643,7.66631 -6.7411,12.82126 -4.0974,4.49404 -2.6436,7.7985 -8.0629,-2.77574 -3.9653,17.97618 -3.1722,6.08019 -0.5288,7.93067 -2.3792,3.83316 -8.8559,2.64355 -7.2698,5.68364 -3.4366,0.52871 -3.3045,2.90791 -8.3271,-3.04009 -1.454,-4.09752 -0.2644,-0.13222 z"
     data-id="VA"
     data-name="Virginia"
     id="VA"
     style="fill-rule:evenodd;stroke-width:1.36177182" />
  <path
     id="WI"
     d="m 861.37931,377.32555 -12.8198,12.29316 -7.27164,1.85117 -10.30904,7.79827 -0.3963,0.26332 -0.39631,0.39629 -6.74236,-0.92558 -2.24479,1.32188 0.92292,-9.64944 -10.83833,5.55349 -13.21609,2.11446 -0.13305,-0.26332 -3.04004,3.43636 1.45486,15.85986 -8.46054,7.66794 -1.58518,7.40198 4.62523,4.22895 -1.32187,18.24029 4.8912,3.69966 3.17303,0.26597 10.04307,6.0801 6.34608,6.60938 8.06157,4.09595 1.85116,10.17872 0,0.65961 3.83265,4.62789 -1.0559,3.56933 1.32187,7.79828 3.96563,5.41784 7.26898,3.83263 -0.13304,0.66227 28.81531,-3.30603 10.70534,-1.32187 17.84399,-2.51077 -0.52661,-1.98149 0,-6.21308 -3.56935,-6.60937 -0.92558,-8.32756 1.71818,-9.25048 -0.92558,-7.13865 3.17304,-8.85684 -1.18889,-1.45221 0.26332,-8.19458 1.71816,-6.21308 -1.98148,-2.11446 -3.83531,1.32187 -2.11446,5.55082 -5.02153,2.90707 1.58518,-7.00568 4.49491,-5.94712 0.26332,-2.64374 0.13304,-0.13305 0,-0.13032 5.15451,-14.93693 6.21309,-4.36194 4.75821,-5.2875 0.7926,4.75823 4.89121,-7.53498 11.7639,-4.49225 0.92558,-1.85116 11.89422,1.45485 4.6279,2.3778 2.24745,-5.81413 2.11451,1.32187 9.25041,-1.45485 -2.24474,-3.70233 -4.09862,-2.37777 0.7926,-8.59087 -8.06161,4.49225 -7.40197,-0.92559 -2.38044,-5.6838 0.7926,-1.84848 -10.04573,4.75821 -6.4764,0.3963 -11.63092,7.136 -1.32187,2.64375 -7.13867,-1.71817 -4.49225,1.98414 -8.98982,-7.79827 -19.95847,-6.08009 -0.39631,-2.38044 z m -33.04424,8.72384 -0.3963,2.24745 0.79259,-0.3963 -0.39629,-1.85115 z m -9.12015,3.04005 -0.13291,1.05856 0.39629,-0.79259 -0.26331,-0.26597 z m 6.8727,0.79259 -1.4522,0.92558 2.11447,-0.13032 -0.66227,-0.79526 z m -2.51077,0.26597 -0.92558,0.3963 1.18889,0.52928 -0.26331,-0.92558 z m 2.11447,2.11448 -1.45219,1.32186 -0.5293,1.45222 1.98149,-2.77408 z m 73.88677,33.83684 -3.30337,4.09862 -1.98148,5.94711 0.92292,3.30336 4.36193,-13.34909 z"
     style="fill-rule:evenodd;stroke-width:1.36177182" />
  <path
     d="m 1077.8871,547.17457 -18.7692,4.62622 -5.8158,-25.1138 0,0 -0.2644,0.13223 -0.6609,28.94694 -4.2297,6.34454 -4.8905,3.70098 -0.9253,-1.05743 -5.4193,7.40196 0.3965,5.81582 -3.3044,0.52872 -4.494,6.87324 1.5861,4.49405 -1.9827,4.36187 -5.6836,2.77573 0,0 0,0.26436 2.6435,9.25245 7.5342,9.12026 4.2297,2.37921 3.3044,0 0.3965,0.13223 0.2644,0.13223 1.454,4.09752 8.3271,3.04008 3.3045,-2.90792 3.4366,-0.5287 7.2698,-5.68364 8.8559,-2.64356 2.3792,-3.83315 0.5288,-7.93068 3.1722,-6.08018 3.9653,-17.97619 8.0629,2.77575 2.6436,-7.7985 4.0974,-4.49404 6.7411,-12.82126 -0.2643,-7.66632 12.2925,5.28713 0.7931,-5.55147 0,-0.13223 0,0 -3.8332,-6.60888 -7.9306,-0.92526 -4.6263,3.56882 0,2.64354 -3.9653,0.92525 -5.8159,4.09752 -3.0401,0.66089 -6.0801,8.59155 -3.0401,-13.87867 -2.6436,0.6609 z"
     data-id="WV"
     data-name="West Virginia"
     id="WV"
     style="fill-rule:evenodd;stroke-width:1.36177182" />
  <path
     id="MD"
     d="m 1159.0435,520.87013 -2.3778,1.85117 -1.0585,2.64375 -2.2475,0.66226 -9.3835,2.90707 -51.6808,14.40765 -9.3861,2.51077 -2.3778,0.65961 3.04,13.88102 6.0801,-8.59351 3.0401,-0.65962 5.8141,-4.09862 3.9657,-0.92556 0,-2.64377 4.6279,-3.56666 7.9286,0.92558 3.8353,6.60672 0.3963,0.13305 6.0801,1.58517 4.3618,3.17304 4.229,1.85116 0.3963,0.3963 0.5293,-1.05857 2.2474,-0.13032 1.8485,1.0559 -1.7181,3.17303 0,0.13305 -2.5108,7.66528 8.1946,5.2875 8.1972,0.3963 5.4178,2.51077 -2.2474,-6.3434 -7.0057,-2.38045 -1.7182,-5.41783 4.362,5.81413 3.5693,0.52928 -3.173,-3.17304 -2.5108,-9.38347 0.6622,-5.42047 -2.7766,-5.94711 2.907,-2.3778 2.1145,-7.66794 -0.7926,11.36761 2.2475,3.83263 2.1144,-4.49224 1.1916,7.40196 -2.2475,5.41784 6.4764,2.38045 -5.5509,1.8485 2.9071,5.42049 4.7582,1.58518 2.6438,-4.62524 -0.266,6.4764 4.4949,-0.13305 2.9071,3.30601 0.133,0 0.9256,-1.18887 2.6438,-1.19156 1.7181,-0.65961 -0.1329,-0.26597 3.4364,-10.17606 0,-0.39628 -0.6596,-2.64377 0,-0.13304 -0.1331,-0.26331 0.266,0 0.3963,0.13032 0.2634,0.79525 0,-0.92559 -0.2634,-0.52927 -3.1731,-8.46055 -15.4635,-14.67097 0.6596,-10.17871 -3.173,0 z m 21.6793,38.99403 -0.7952,5.2875 -0.5267,2.2448 -0.133,0.26597 0.3963,-0.13306 0.133,-0.52929 0.9256,-7.13599 z"
     style="fill-rule:evenodd;stroke-width:1.36177182" />
  <path
     d="m 1186.9339,524.83651 -0.661,-1.58614 0,1.58614 0.661,0 z m 1.3217,-4.89059 0.3966,-3.96532 -0.7931,3.43662 0.3965,0.5287 z m -5.4193,-40.57858 -13.8786,-3.43663 -2.3792,-0.66089 -2.247,-0.5287 0,0 -5.5516,12.29253 2.3793,2.90792 -0.1323,8.8559 2.5114,0.39654 5.1549,13.48213 -0.2643,0.39654 -6.4767,9.51681 0.6609,7.26978 15.5969,5.28711 0.1323,6.08019 3.5688,-5.02277 0.5287,-7.26977 3.701,-2.51139 -1.454,-5.41929 2.7758,-6.47671 0,-14.14304 -0.9252,-4.62621 -6.2124,0.13222 1.5861,-6.34454 0.9252,-10.17769 0,0 z"
     data-id="NJ"
     data-name="New Jersey"
     id="NJ"
     style="fill-rule:evenodd;stroke-width:1.36177182" />
  <path
     d="m 1182.4398,490.07374 -1.9827,2.77573 -0.5287,0.79307 2.5114,-3.5688 z m 18.2406,-6.47671 6.6088,-5.81583 0,-0.26436 -6.6088,6.08019 z m -17.3153,4.09751 0,-4.49405 -0.3966,2.3792 0.3966,2.11485 z m 30.6652,-21.14846 -1.5861,-0.39653 -0.2644,1.1896 1.8505,-0.79307 z m 3.5688,-2.37919 -0.1322,1.32177 0.2643,-0.79306 -0.1322,-0.52871 z m -3.701,0.13222 -8.8559,8.19503 -13.6143,5.81582 -3.5688,3.0401 -0.2643,2.90791 -3.7011,3.04008 0.5288,3.96535 5.6836,-2.24703 8.3272,-6.74107 9.2524,-4.89057 14.0109,-13.21779 -9.9134,7.53413 -3.1722,1.32179 5.2871,-8.72375 z m 4.0975,-5.55146 0.5288,-0.79307 -1.5862,1.85048 1.0574,-1.05741 z m -148.5679,-4.89059 -2.1148,-0.26434 1.5862,2.11485 0.5286,-1.85051 z m 43.8831,-40.44641 0.2644,-1.45396 -1.0575,1.32179 0.7931,0.13223 z m 0.6609,-9.51682 -0.5287,0.26436 -0.6609,1.45396 1.1896,-1.71832 z m -55.9112,75.07703 0.9252,3.96533 7.0054,1.71831 40.1821,-10.97076 40.4464,-12.16036 7.402,5.68365 1.4539,3.30445 8.5915,3.70097 0.2645,0.52872 2.247,0.52871 2.3792,0.66088 13.8786,3.43664 -0.2643,-0.6609 1.1896,5.41929 2.6435,-0.6609 1.454,-5.948 0,-0.13222 -2.3792,-2.24702 3.4366,-4.22969 -1.5861,-1.98268 -5.0227,-19.43014 -0.2645,-1.32177 -0.6608,-0.39654 -0.3966,-5.81582 -0.3965,-6.34454 -0.3965,-6.87324 0,-0.39654 -0.2644,0.13223 -6.6089,-21.67717 -7.0053,-10.97076 -1.9827,-13.08559 -5.9481,-13.87869 -0.7931,0.39654 -27.6251,9.25245 -5.5515,5.94801 -6.2123,11.896 0.2643,2.64355 -8.195,12.42472 5.0227,1.71831 1.454,9.38463 -5.8158,7.66633 -17.4475,10.57421 -3.3044,-1.32178 -12.9534,1.8505 -12.0283,7.26977 0.661,3.83316 4.2297,3.70099 -2.3792,11.63163 -9.5168,11.10295 -0.1323,0.13222 z"
     data-id="NY"
     data-name="New York"
     id="NY"
     style="fill-rule:evenodd;stroke-width:1.36177182" />
  <path
     d="m 1164.067,474.2124 -8.5915,-3.70097 -1.4539,-3.30446 -7.402,-5.68365 -40.4464,12.16037 -40.1821,10.97075 -7.0054,-1.71831 -0.9252,-3.96533 -2.2471,1.71832 -3.5688,2.51137 -6.4767,6.60889 -0.7931,0.6609 3.7011,16.25786 0.6608,2.90792 3.3044,14.27521 0.661,2.77572 0,0 5.8158,25.1138 18.7692,-4.62622 2.6436,-0.6609 2.3792,-0.66088 9.3846,-2.51138 51.6815,-14.40738 9.3846,-2.90791 2.2471,-0.6609 0,0 1.0574,-2.64356 2.3793,-1.85048 3.1722,0 0.3965,-1.1896 5.155,-5.81583 0.5286,-0.92525 0.3966,-0.26436 -5.1549,-13.48213 -2.5115,-0.39654 0.1323,-8.8559 -2.3792,-2.90792 5.5515,-12.29253 0,0 -0.2644,-0.52872 z"
     data-id="PA"
     data-name="Pennsylvania"
     id="PA"
     style="fill-rule:evenodd;stroke-width:1.36177182" />
  <path
     d="m 1227.7768,403.7616 -0.1322,0 0.2643,0.13223 -0.1322,-0.13223 z m 9.7812,-28.15386 -1.0574,-1.58615 0,0.79307 1.0574,0.79308 z m -1.8505,-1.45396 0,-1.32178 -0.1323,-0.79306 0.1323,2.11484 z m 4.7583,-5.55147 -0.2643,-0.13222 0.1323,0.39651 0.1321,-0.26434 z m 13.2179,-6.60889 -0.2645,-1.98268 -0.5286,0.92525 0.7931,1.05743 z m -3.3045,0.79306 0.1322,-1.45395 -1.5861,0.26436 1.4539,1.18959 z m 4.8906,-4.36185 -0.5287,0 0,0.26434 0.5287,-0.26434 z m -6.6089,1.98265 -1.1896,-0.26434 -0.1323,1.18959 1.3218,-0.92525 z m 6.741,-4.0975 1.1897,0.92524 -0.3966,-1.05743 -0.7931,0.13223 z m -3.5687,0.13223 -1.1896,2.24702 1.5861,-0.79308 -0.3965,-1.45394 z m -5.6837,0.13222 -0.5287,0.79306 0.3966,1.1896 0.1321,-1.98266 z m 7.7985,-4.36188 -0.1323,-1.05741 -0.3965,0.66088 0.5288,0.39653 z m -0.6609,0.52872 -1.1896,-1.05742 0,0.92524 1.1896,0.13222 z m -7.4019,3.0401 -0.2644,-1.45397 -0.5287,1.18961 0.7931,0.26436 z m 12.5568,-4.62623 -1.9827,2.90792 -0.1321,-2.11485 2.1148,-0.79307 z m 9.649,-8.85592 -0.9252,-1.32177 -0.5287,0.26435 1.4539,1.05742 z m 3.5689,-5.948 -0.7931,-0.39653 -0.1323,0.39653 0.9253,0 z m 1.7182,-10.30986 -1.1896,0 1.3218,0.39651 -0.1322,-0.39651 z m 1.9827,1.32177 -0.3965,-2.37921 -1.0574,-0.13222 1.4539,2.51138 z m -2.1149,-2.11484 -0.2643,-2.51139 -0.9252,1.71832 1.1895,0.79307 z m -76.6631,20.75192 19.1658,44.94044 0.2643,0.92525 8.3273,10.17769 0,-0.13223 1.3217,-0.39654 0.2644,-7.53414 2.1149,-2.64354 1.3217,-7.00544 -1.1895,-1.1896 2.247,-6.87323 7.6663,-3.56879 5.0227,-6.0802 1.8506,-10.57422 8.0627,-0.52871 -1.0574,-5.41929 10.0456,-3.83316 0.6608,-5.948 2.3793,0.5287 6.6089,-5.41928 2.9078,-7.00542 -6.741,-6.74108 -7.1377,-1.45395 -2.6435,-5.41929 0,-3.17228 -4.3618,1.3218 -4.8906,-1.71831 0,-5.4193 -13.2178,-28.55042 -9.649,-5.02274 -10.7064,8.98809 -2.9079,-0.52872 -2.5114,-4.62621 -3.4366,1.32177 -4.8906,24.32071 1.7183,7.93067 1.454,16.1257 -3.8332,12.42471 2.6435,1.98267 -3.1721,6.08018 -3.4367,-0.52871 -0.2644,0.26436 z"
     data-id="ME"
     data-name="Maine"
     id="ME"
     style="fill-rule:evenodd;stroke-width:1.36177182" />
  <path
     id="path4216"
     d="m 918.87721,430.7259 -0.66089,-1.05743 -0.13223,1.32178 0.79308,-0.26435 z"
     style="fill-rule:evenodd;stroke-width:1.36177182" />
  <path
     id="path4214"
     d="m 920.99206,428.34669 -1.58613,-2.11484 -0.26436,0.92524 1.85049,1.1896 z"
     style="fill-rule:evenodd;stroke-width:1.36177182" />
  <path
     id="path4212"
     d="m 922.31383,418.8299 -1.32177,-1.1896 0,0.26434 1.32177,0.92526 z"
     style="fill-rule:evenodd;stroke-width:1.36177182" />
  <path
     id="path4210"
     d="m 919.00939,522.32513 16.39006,-2.64355 4.62622,-0.92525 20.22316,-3.5688 0.39659,1.71831 1.32176,-0.39654 8.72371,-1.85049 8.32722,-1.98267 8.45939,-2.11484 -0.13227,-0.39654 4.36196,-8.59155 -0.3966,-7.13761 4.89062,-12.29253 3.83309,2.24701 1.454,-2.77572 -0.3965,-10.57423 -3.56883,-6.60889 -5.28712,-14.01085 -4.62619,-5.15494 -2.37917,-0.66088 -8.59165,5.94801 0.92525,1.18958 -4.49402,8.45939 -4.36186,-0.79307 -1.32175,-8.8559 1.85051,-0.6609 3.8331,-8.85591 0.3966,-15.597 -5.94805,-13.21777 -13.21783,-2.24703 -1.32176,-1.98267 -12.29252,-3.5688 -5.55146,6.87326 0.5287,5.948 -4.22969,5.28711 0.92525,8.19503 -4.09751,2.90791 0,-10.30988 -3.70098,7.79851 -4.36187,6.87324 -2.90791,2.24702 1.45395,7.26977 -1.85049,7.53414 1.05743,9.38463 -1.32179,4.62622 9.51681,18.24054 1.18961,7.00544 -1.18961,12.95341 -6.34454,14.53958 -0.79306,0.5287 z"
     style="fill-rule:evenodd;stroke-width:1.36177182" />
  <path
     id="path4208"
     d="m 947.29542,403.23289 -3.4366,0.26435 2.11485,1.58614 1.32175,-1.85049 z"
     style="fill-rule:evenodd;stroke-width:1.36177182" />
  <path
     id="path4206"
     d="m 927.20441,406.66952 -1.05742,0 1.18961,0.5287 -0.13224,-0.5287 z"
     style="fill-rule:evenodd;stroke-width:1.36177182" />
  <path
     id="path4204"
     d="m 950.33553,389.88293 -1.32176,-2.11485 -0.52876,0.13223 1.85052,1.98266 z"
     style="fill-rule:evenodd;stroke-width:1.36177182" />
  <path
     id="path4200"
     d="m 877.37338,369.52756 -15.46481,7.66631 5.15493,5.02275 1.98267,-5.02275 5.28712,-6.47671 3.04009,-1.1896 z"
     style="fill-rule:evenodd;stroke-width:1.36177182" />
  <path
     id="MI"
     d="m 860.05808,351.41919 -10.57423,7.26978 -0.5287,3.56881 8.32719,-6.08019 2.77574,-4.7584 z"
     style="fill-rule:evenodd;stroke-width:1.36177182" />
</svg>
